<svg width="393" height="851" viewBox="0 0 393 851" fill="none" xmlns="http://www.w3.org/2000/svg">
<path d="M0 585.825L197.53 796.133C209.598 808.982 229.722 809.832 242.832 798.047L393 663.055V0H3.05176e-05L0 585.825Z" fill="white" fill-opacity="0.24"/>
<path d="M204.82 784.955L20.4861 588.332C18.1741 585.866 17.637 582.254 19.1366 579.224C29.6259 558.033 69.8755 473.862 78.7656 412.674C87.5802 352.006 73.2643 260.94 69.0635 236.527C68.5635 233.622 71.2743 231.157 74.1545 231.788C86.2806 234.444 115.183 239.778 151.706 239.778C195.348 239.778 221.45 234.439 231.732 231.785C234.299 231.122 236.969 232.923 237.147 235.569C238.42 254.442 243.162 320.085 250.311 364.047C256.698 403.32 270.478 458.951 276.155 481.234C277.809 487.728 280.509 493.896 284.107 499.55L379.035 648.723C381.14 652.031 380.538 656.376 377.613 658.987L234.978 786.297C226.227 794.108 212.843 793.512 204.82 784.955Z" fill="#CFBCE8"/>
<rect x="275.353" y="497.269" width="106.621" height="48.1675" rx="8" transform="rotate(57.2616 275.353 497.269)" fill="white"/>
<rect x="131" y="184" width="53" height="22" rx="11" fill="#CFBCE8"/>
<path d="M145.211 189.704V201.079H144.056V195.201H142.583V200.495H141.479V189.933H142.583V194.211H144.056V189.704H145.211ZM135.829 198.35V191.075H140.095V192.053H137.035V197.321C138.432 197.315 139.485 197.251 140.704 197.017L140.793 198.007C139.428 198.292 138.248 198.337 136.591 198.35H135.829ZM157.081 195.404V196.382H152.574V198.591H151.355V196.382H146.671V195.404H157.081ZM147.813 192.281C147.807 190.859 149.419 189.977 151.863 189.971C154.307 189.977 155.907 190.859 155.9 192.281C155.907 193.697 154.307 194.579 151.863 194.579C149.419 194.579 147.807 193.697 147.813 192.281ZM147.979 200.838V197.499H149.185V199.848H155.926V200.838H147.979ZM149.108 192.281C149.096 193.1 150.2 193.602 151.863 193.602C153.533 193.602 154.625 193.1 154.631 192.281C154.625 191.437 153.533 190.942 151.863 190.936C150.2 190.942 149.096 191.437 149.108 192.281ZM168.304 195.239V196.204H157.919V195.239H162.527V194.033H159.214V190.225H167.021V191.177H160.407V193.068H167.098V194.033H163.695V195.239H168.304ZM159.15 199.01C159.15 197.689 160.629 196.947 163.099 196.94C165.549 196.947 167.015 197.689 167.021 199.01C167.015 200.33 165.549 201.073 163.099 201.079C160.629 201.073 159.15 200.33 159.15 199.01ZM160.369 199.01C160.363 199.74 161.359 200.14 163.099 200.127C164.812 200.14 165.815 199.74 165.815 199.01C165.815 198.292 164.812 197.88 163.099 197.88C161.359 197.88 160.363 198.292 160.369 199.01ZM173.128 191.799C173.122 193.246 174.131 194.566 175.857 195.112L175.286 196.052C173.991 195.639 173.045 194.782 172.544 193.703C172.049 194.947 171.052 195.931 169.688 196.407L169.065 195.442C170.843 194.858 171.916 193.392 171.922 191.812V191.494H169.421V190.517H175.578V191.494H173.128V191.799ZM170.602 198.921C170.602 197.588 172.055 196.807 174.423 196.813C176.765 196.807 178.193 197.588 178.193 198.921C178.193 200.273 176.765 201.06 174.423 201.054C172.055 201.06 170.602 200.273 170.602 198.921ZM171.808 198.921C171.801 199.683 172.779 200.108 174.423 200.102C176.054 200.108 177.019 199.683 177.013 198.921C177.019 198.178 176.054 197.759 174.423 197.766C172.779 197.759 171.801 198.178 171.808 198.921ZM176.886 196.534V189.704H178.092V192.522H179.742V193.513H178.092V196.534H176.886Z" fill="#2D3033"/>
<rect x="371.213" y="214" width="253.17" height="117.356" rx="8" transform="rotate(48 371.213 214)" fill="#E8E9EB"/>
<rect x="339" y="284" width="31" height="22" rx="11" fill="#CFBCE8"/>
<path d="M347.695 291.52C347.689 293.03 348.724 294.452 350.438 295.023L349.777 295.988C348.527 295.531 347.6 294.617 347.111 293.468C346.61 294.731 345.645 295.722 344.318 296.229L343.671 295.252C345.455 294.636 346.483 293.138 346.489 291.456V290.288H347.695V291.52ZM345.461 297.994V297.042H353.167V301.079H351.961V297.994H345.461ZM349.562 292.992V292.002H351.961V289.704H353.167V296.445H351.961V292.992H349.562ZM364.745 289.704V301.079H363.59V295.239H362.231V300.521H361.089V289.92H362.231V294.224H363.59V289.704H364.745ZM354.767 297.867C356.43 296.934 357.204 294.973 357.204 292.713V291.977H355.071V290.999H360.353V291.977H358.372V292.713C358.372 294.757 359.14 296.61 360.797 297.461L360.086 298.388C358.969 297.778 358.22 296.718 357.813 295.411C357.426 296.902 356.677 298.096 355.516 298.781L354.767 297.867Z" fill="#2D3033"/>
<g filter="url(#filter0_d_695_2892)">
<rect x="233" y="545" width="103" height="19" rx="8" fill="#BCDBE8" shape-rendering="crispEdges"/>
<path d="M248.97 548.135V554.814H247.652V552.119H246.07V554.712H244.751V548.369H246.07V551.006H247.652V548.135H248.97ZM237.852 554.214C240.43 553.35 241.8 551.921 242.034 550.039H238.409V548.911H243.492C243.492 551.98 241.792 554.06 238.497 555.239L237.852 554.214ZM240.167 556.484V555.371H248.97V558.667H241.573V559.971H249.468V561.084H240.196V557.612H247.608V556.484H240.167ZM261.685 548.135V556.162H260.293V552.383H257.92V551.24H260.293V548.135H261.685ZM251.27 550.039V548.911H257.144V552.69H252.662V554.419C254.764 554.412 256.331 554.368 258.184 554.053L258.301 555.21C256.302 555.518 254.625 555.569 252.31 555.576H251.285V551.621H255.796V550.039H251.27ZM252.779 557.979V556.865H261.685V561.26H260.293V557.979H252.779ZM268.526 551.46C268.511 553.855 269.961 556.272 271.998 557.173L271.163 558.271C269.654 557.554 268.46 556.082 267.845 554.287C267.237 556.213 266.028 557.795 264.454 558.564L263.604 557.393C265.669 556.477 267.12 553.965 267.12 551.46V549.219H268.526V551.46ZM273.184 561.274V548.12H274.576V561.274H273.184ZM286.998 549.98C286.998 552.119 289.275 554.141 291.802 554.595L291.158 555.752C289.056 555.298 287.129 553.921 286.28 552.075C285.416 553.914 283.489 555.283 281.387 555.752L280.772 554.595C283.262 554.126 285.525 552.119 285.533 549.98V548.984H286.998V549.98ZM280.333 559.517V558.359H292.344V559.517H280.333ZM305.293 555.986V557.144H302.276V561.245H300.87V557.144H297.706V561.245H296.314V557.144H293.282V555.986H305.293ZM294.864 554.771V548.706H303.814V549.819H296.226V551.138H303.521V552.236H296.226V553.657H303.96V554.771H294.864ZM317.129 548.12V561.274H315.738V548.12H317.129ZM307.095 558.052V549.336H313.379V550.493H308.501V556.865C310.984 556.858 312.581 556.785 314.434 556.455L314.581 557.612C312.618 557.971 310.904 558.044 308.179 558.052H307.095ZM325.201 548.911C328.006 548.918 330.049 550.303 330.049 552.397C330.049 554.36 328.335 555.671 325.889 555.869V558.447H331.236V559.604H319.224V558.447H324.512V555.869C322.081 555.671 320.359 554.36 320.367 552.397C320.359 550.303 322.41 548.918 325.201 548.911ZM321.714 552.397C321.714 553.87 323.179 554.785 325.201 554.8C327.237 554.785 328.694 553.87 328.702 552.397C328.694 550.977 327.237 550.039 325.201 550.054C323.179 550.039 321.714 550.977 321.714 552.397Z" fill="#2D3033"/>
</g>
<circle cx="356" cy="147" r="17" transform="rotate(-95.85 356 147)" fill="#494E53"/>
<path d="M341.307 148.666C341.192 148.598 341.176 148.439 341.274 148.348L344.458 145.408C344.579 145.297 344.775 145.371 344.792 145.535L345.322 150.708C345.339 150.872 345.161 150.985 345.02 150.9L341.307 148.666Z" fill="#FF3B30"/>
<path d="M370.694 145.334C370.808 145.402 370.825 145.562 370.727 145.652L367.543 148.592C367.422 148.704 367.225 148.629 367.208 148.465L366.678 143.292C366.662 143.128 366.839 143.016 366.98 143.101L370.694 145.334Z" fill="white"/>
<path d="M357.666 161.693C357.598 161.808 357.438 161.824 357.348 161.726L354.408 158.542C354.296 158.421 354.371 158.225 354.535 158.208L359.708 157.678C359.872 157.661 359.984 157.839 359.899 157.98L357.666 161.693Z" fill="white"/>
<path d="M354.334 132.307C354.402 132.193 354.562 132.176 354.652 132.274L357.592 135.458C357.704 135.579 357.629 135.776 357.465 135.792L352.292 136.322C352.128 136.339 352.016 136.162 352.101 136.02L354.334 132.307Z" fill="white"/>
<path d="M361.326 146.328L361.326 147.762L350.674 147.761L350.674 146.327L355.105 146.327L355.105 145.451L351.944 145.451L351.944 141.414L360.069 141.415L360.069 142.836L353.772 142.836L353.772 144.017L360.12 144.017L360.12 145.452L356.908 145.451L356.908 146.327L361.326 146.328ZM351.867 150.428C351.868 149.031 353.41 148.257 355.968 148.257C358.501 148.257 360.031 149.032 360.031 150.428C360.03 151.793 358.501 152.58 355.968 152.586C353.41 152.58 351.867 151.792 351.867 150.428ZM353.734 150.428C353.721 150.967 354.438 151.196 355.968 151.19C357.46 151.196 358.196 150.968 358.202 150.428C358.196 149.895 357.46 149.641 355.968 149.641C354.438 149.641 353.721 149.895 353.734 150.428Z" fill="white"/>
<g filter="url(#filter1_d_695_2892)">
<rect x="72" y="231" width="36" height="58" rx="8" fill="white" shape-rendering="crispEdges"/>
<path d="M90 256.195C86.4551 256.195 84.3164 253.559 84.3164 248.93C84.3164 244.311 86.4746 241.664 90 241.664C93.5254 241.664 95.6836 244.311 95.6836 248.93C95.6836 253.578 93.5352 256.195 90 256.195ZM87.3242 248.93C87.3047 252.191 88.3594 253.773 90 253.773C91.6406 253.773 92.6855 252.191 92.6758 248.93C92.6855 245.697 91.6309 244.076 90 244.066C88.3691 244.076 87.3242 245.697 87.3242 248.93Z" fill="#8A61BF"/>
<path d="M95.9487 277.491L94.3378 269.54H85.6729C85.5632 270.113 84.7025 274.605 84.0962 277.505C83.85 278.682 82.8134 278.986 81.6104 278.986H98.4379C97.2296 278.986 96.1887 278.675 95.9487 277.491Z" fill="#5DA3C1"/>
<path d="M84.6366 276.965C85.2428 274.065 86.1035 269.574 86.2133 269H82.7023L80.8332 278.225C80.7535 278.619 81.0542 278.986 81.4554 278.986H82.1507C83.3537 278.986 84.3904 278.142 84.6366 276.965Z" fill="#70C7EC"/>
<path d="M97.2581 269H93.7979L95.4088 276.951C95.6487 278.135 96.6897 278.986 97.8979 278.986H98.505C98.9063 278.986 99.207 278.619 99.1273 278.225L97.2581 269Z" fill="#70C7EC"/>
<path d="M90.6368 261.983C90.6083 261.967 90.5768 261.961 90.5474 261.948C90.2458 261.808 89.9095 261.782 89.595 261.875C89.5021 261.903 89.41 261.935 89.3233 261.983L80.8174 267.364H99.1427L90.6368 261.983Z" fill="#70C7EC"/>
<path d="M89.993 269.54H98.464C98.8388 269.54 99.1427 269.236 99.1427 268.861V267.364H80.8174V268.861C80.8174 269.236 81.1213 269.54 81.4961 269.54H89.993Z" fill="#EBEBEB"/>
</g>
<g filter="url(#filter2_d_695_2892)">
<rect x="235" y="433" width="36" height="58" rx="8" fill="white" shape-rendering="crispEdges"/>
<path d="M249.416 443.859V458H246.467V446.652H246.389L243.146 448.684V446.086L246.643 443.859H249.416ZM252.697 458L252.678 455.871L257.756 451.203C259.074 449.943 259.787 449.162 259.787 448.039C259.787 446.779 258.84 445.998 257.541 446.008C256.213 445.998 255.344 446.838 255.354 448.195H252.561C252.551 445.432 254.602 443.664 257.58 443.664C260.607 443.664 262.619 445.393 262.619 447.844C262.619 449.455 261.838 450.773 258.928 453.41L256.779 455.5V455.578H262.814V458H252.697Z" fill="#8A61BF"/>
<path d="M258.949 479.491L257.338 471.54H248.673C248.563 472.114 247.702 476.606 247.096 479.505C246.85 480.683 245.813 480.986 244.61 480.987H261.438C260.23 480.987 259.189 480.675 258.949 479.491Z" fill="#5DA3C1"/>
<path d="M247.637 478.965C248.243 476.065 249.104 471.574 249.213 471H245.702L243.833 480.225C243.753 480.619 244.054 480.986 244.455 480.986H245.151C246.354 480.986 247.39 480.143 247.637 478.965Z" fill="#70C7EC"/>
<path d="M260.258 471H256.798L258.409 478.951C258.649 480.135 259.69 480.986 260.898 480.986H261.505C261.906 480.986 262.207 480.619 262.127 480.225L260.258 471Z" fill="#70C7EC"/>
<path d="M253.637 463.983C253.608 463.968 253.577 463.961 253.547 463.948C253.246 463.808 252.909 463.782 252.595 463.875C252.502 463.903 252.41 463.935 252.323 463.983L243.817 469.365H262.143L253.637 463.983Z" fill="#70C7EC"/>
<path d="M252.993 471.54H261.464C261.839 471.54 262.143 471.236 262.143 470.861V469.365H243.817V470.861C243.817 471.236 244.121 471.54 244.496 471.54H252.993Z" fill="#EBEBEB"/>
</g>
<g filter="url(#filter3_d_695_2892)">
<rect x="323" y="631" width="36" height="58" rx="8" fill="white" shape-rendering="crispEdges"/>
<path d="M338.832 641.859V656H335.883V644.652H335.805L332.562 646.684V644.086L336.059 641.859H338.832ZM348.207 641.859V656H345.258V644.652H345.18L341.938 646.684V644.086L345.434 641.859H348.207Z" fill="#8A61BF"/>
<path d="M346.949 677.491L345.338 669.54H336.673C336.563 670.114 335.702 674.606 335.096 677.505C334.85 678.683 333.813 678.986 332.61 678.987H349.438C348.23 678.987 347.189 678.675 346.949 677.491Z" fill="#5DA3C1"/>
<path d="M335.637 676.965C336.243 674.065 337.104 669.574 337.213 669H333.702L331.833 678.225C331.753 678.619 332.054 678.986 332.455 678.986H333.151C334.354 678.986 335.39 678.143 335.637 676.965Z" fill="#70C7EC"/>
<path d="M348.258 669H344.798L346.409 676.951C346.649 678.135 347.69 678.986 348.898 678.986H349.505C349.906 678.986 350.207 678.619 350.127 678.225L348.258 669Z" fill="#70C7EC"/>
<path d="M341.637 661.983C341.608 661.968 341.577 661.961 341.547 661.948C341.246 661.808 340.909 661.782 340.595 661.875C340.502 661.903 340.41 661.935 340.323 661.983L331.817 667.365H350.143L341.637 661.983Z" fill="#70C7EC"/>
<path d="M340.993 669.54H349.464C349.839 669.54 350.143 669.236 350.143 668.861V667.365H331.817V668.861C331.817 669.236 332.121 669.54 332.496 669.54H340.993Z" fill="#EBEBEB"/>
</g>
<g filter="url(#filter4_d_695_2892)">
<rect x="282" y="668" width="36" height="58" rx="8" fill="white" shape-rendering="crispEdges"/>
<path d="M295.918 678.859V693H292.969V681.652H292.891L289.648 683.684V681.086L293.145 678.859H295.918ZM304.688 693.195C301.143 693.195 299.004 690.559 299.004 685.93C299.004 681.311 301.162 678.664 304.688 678.664C308.213 678.664 310.371 681.311 310.371 685.93C310.371 690.578 308.223 693.195 304.688 693.195ZM302.012 685.93C301.992 689.191 303.047 690.773 304.688 690.773C306.328 690.773 307.373 689.191 307.363 685.93C307.373 682.697 306.318 681.076 304.688 681.066C303.057 681.076 302.012 682.697 302.012 685.93Z" fill="#8A61BF"/>
<path d="M305.949 714.491L304.338 706.54H295.673C295.563 707.114 294.702 711.606 294.096 714.505C293.85 715.683 292.813 715.986 291.61 715.987H308.438C307.23 715.987 306.189 715.675 305.949 714.491Z" fill="#5DA3C1"/>
<path d="M294.637 713.965C295.243 711.065 296.104 706.574 296.213 706H292.702L290.833 715.225C290.753 715.619 291.054 715.986 291.455 715.986H292.151C293.354 715.986 294.39 715.143 294.637 713.965Z" fill="#70C7EC"/>
<path d="M307.258 706H303.798L305.409 713.951C305.649 715.135 306.69 715.986 307.898 715.986H308.505C308.906 715.986 309.207 715.619 309.127 715.225L307.258 706Z" fill="#70C7EC"/>
<path d="M300.637 698.983C300.608 698.968 300.577 698.961 300.547 698.948C300.246 698.808 299.909 698.782 299.595 698.875C299.502 698.903 299.41 698.935 299.323 698.983L290.817 704.365H309.143L300.637 698.983Z" fill="#70C7EC"/>
<path d="M299.993 706.54H308.464C308.839 706.54 309.143 706.236 309.143 705.861V704.365H290.817V705.861C290.817 706.236 291.121 706.54 291.496 706.54H299.993Z" fill="#EBEBEB"/>
</g>
<g filter="url(#filter5_d_695_2892)">
<rect x="70" y="602" width="36" height="58" rx="8" fill="white" shape-rendering="crispEdges"/>
<path d="M88.1562 627.195C85.2363 627.186 82.4434 625.438 82.4531 620.262C82.4629 615.486 84.7383 612.664 88.2734 612.664C91.1152 612.664 93.0684 614.461 93.3516 616.785H90.4609C90.2266 615.799 89.416 615.184 88.2734 615.184C86.3496 615.184 85.3438 616.912 85.3242 619.695H85.4609C86.1152 618.436 87.5117 617.703 89.0742 617.703C91.623 617.703 93.5176 619.607 93.5078 622.273C93.5176 625.145 91.3496 627.205 88.1562 627.195ZM85.6172 622.352C85.6367 623.738 86.6914 624.881 88.1367 624.871C89.5918 624.881 90.6562 623.777 90.6562 622.352C90.6562 620.936 89.6113 619.842 88.1758 619.832C86.7305 619.842 85.6367 620.975 85.6172 622.352Z" fill="#8A61BF"/>
<path d="M93.9487 648.491L92.3378 640.54H83.6729C83.5632 641.114 82.7025 645.606 82.0962 648.505C81.85 649.683 80.8134 649.986 79.6104 649.987H96.4379C95.2296 649.987 94.1887 649.675 93.9487 648.491Z" fill="#5DA3C1"/>
<path d="M82.6366 647.965C83.2428 645.065 84.1035 640.574 84.2133 640H80.7023L78.8332 649.225C78.7535 649.619 79.0542 649.986 79.4554 649.986H80.1507C81.3537 649.986 82.3904 649.143 82.6366 647.965Z" fill="#70C7EC"/>
<path d="M95.2581 640H91.7979L93.4088 647.951C93.6487 649.135 94.6897 649.986 95.8979 649.986H96.505C96.9063 649.986 97.207 649.619 97.1273 649.225L95.2581 640Z" fill="#70C7EC"/>
<path d="M88.6368 632.983C88.6083 632.968 88.5768 632.961 88.5474 632.948C88.2458 632.808 87.9095 632.782 87.595 632.875C87.5021 632.903 87.41 632.935 87.3233 632.983L78.8174 638.365H97.1427L88.6368 632.983Z" fill="#70C7EC"/>
<path d="M87.993 640.54H96.464C96.8388 640.54 97.1427 640.236 97.1427 639.861V638.365H78.8174V639.861C78.8174 640.236 79.1213 640.54 79.4961 640.54H87.993Z" fill="#EBEBEB"/>
</g>
<g filter="url(#filter6_d_695_2892)">
<rect x="29" y="562" width="36" height="58" rx="8" fill="white" shape-rendering="crispEdges"/>
<path d="M47.0391 587.195C44.0898 587.195 41.9316 585.457 41.8828 583.016H44.7344C44.8027 584.119 45.8086 584.881 47.0391 584.871C48.5039 584.881 49.5488 583.846 49.5391 582.371C49.5488 580.867 48.4844 579.822 47 579.812C45.9355 579.812 45.1934 580.213 44.7734 581.004H42.1172L42.8789 572.859H51.5898V575.262H45.3008L44.9102 578.836H45.0273C45.5449 578.143 46.6191 577.635 47.8594 577.645C50.457 577.635 52.3906 579.578 52.3906 582.293C52.3906 585.154 50.2227 587.195 47.0391 587.195Z" fill="#8A61BF"/>
<path d="M52.9487 608.491L51.3378 600.54H42.6729C42.5632 601.114 41.7025 605.606 41.0962 608.505C40.85 609.683 39.8134 609.986 38.6104 609.987H55.4379C54.2296 609.987 53.1887 609.675 52.9487 608.491Z" fill="#5DA3C1"/>
<path d="M41.6366 607.965C42.2428 605.065 43.1035 600.574 43.2133 600H39.7023L37.8332 609.225C37.7535 609.619 38.0542 609.986 38.4554 609.986H39.1507C40.3537 609.986 41.3904 609.143 41.6366 607.965Z" fill="#70C7EC"/>
<path d="M54.2581 600H50.7979L52.4088 607.951C52.6487 609.135 53.6897 609.986 54.8979 609.986H55.505C55.9063 609.986 56.207 609.619 56.1273 609.225L54.2581 600Z" fill="#70C7EC"/>
<path d="M47.6368 592.983C47.6083 592.968 47.5768 592.961 47.5474 592.948C47.2458 592.808 46.9095 592.782 46.595 592.875C46.5021 592.903 46.41 592.935 46.3233 592.983L37.8174 598.365H56.1427L47.6368 592.983Z" fill="#70C7EC"/>
<path d="M46.993 600.54H55.464C55.8388 600.54 56.1427 600.236 56.1427 599.861V598.365H37.8174V599.861C37.8174 600.236 38.1213 600.54 38.4961 600.54H46.993Z" fill="#EBEBEB"/>
</g>
<g filter="url(#filter7_d_695_2892)">
<rect x="111" y="645" width="36" height="58" rx="8" fill="white" shape-rendering="crispEdges"/>
<path d="M124.908 670L130.865 658.359V658.262H123.932V655.859H133.912V658.301L127.955 670H124.908Z" fill="#8A61BF"/>
<path d="M134.949 691.491L133.338 683.54H124.673C124.563 684.114 123.702 688.606 123.096 691.505C122.85 692.683 121.813 692.986 120.61 692.987H137.438C136.23 692.987 135.189 692.675 134.949 691.491Z" fill="#5DA3C1"/>
<path d="M123.637 690.965C124.243 688.065 125.104 683.574 125.213 683H121.702L119.833 692.225C119.753 692.619 120.054 692.986 120.455 692.986H121.151C122.354 692.986 123.39 692.143 123.637 690.965Z" fill="#70C7EC"/>
<path d="M136.258 683H132.798L134.409 690.951C134.649 692.135 135.69 692.986 136.898 692.986H137.505C137.906 692.986 138.207 692.619 138.127 692.225L136.258 683Z" fill="#70C7EC"/>
<path d="M129.637 675.983C129.608 675.968 129.577 675.961 129.547 675.948C129.246 675.808 128.909 675.782 128.595 675.875C128.502 675.903 128.41 675.935 128.323 675.983L119.817 681.365H138.143L129.637 675.983Z" fill="#70C7EC"/>
<path d="M128.993 683.54H137.464C137.839 683.54 138.143 683.236 138.143 682.861V681.365H119.817V682.861C119.817 683.236 120.121 683.54 120.496 683.54H128.993Z" fill="#EBEBEB"/>
</g>
<g filter="url(#filter8_d_695_2892)">
<rect x="152" y="688" width="36" height="58" rx="8" fill="white" shape-rendering="crispEdges"/>
<path d="M169.99 713.195C166.758 713.195 164.443 711.496 164.443 709.191C164.443 707.414 165.811 705.969 167.568 705.695V705.598C166.035 705.305 164.98 704.025 164.99 702.473C164.98 700.275 167.1 698.664 169.99 698.664C172.881 698.664 175 700.275 175.01 702.473C175 704.025 173.916 705.305 172.432 705.598V705.695C174.15 705.969 175.537 707.414 175.537 709.191C175.537 711.496 173.213 713.195 169.99 713.195ZM167.51 708.898C167.5 710.109 168.496 710.959 169.99 710.949C171.484 710.959 172.48 710.109 172.471 708.898C172.48 707.678 171.426 706.779 169.99 706.77C168.555 706.779 167.5 707.668 167.51 708.898ZM167.861 702.766C167.852 703.898 168.74 704.689 169.99 704.699C171.23 704.689 172.129 703.898 172.139 702.766C172.129 701.662 171.25 700.891 169.99 700.891C168.721 700.891 167.852 701.662 167.861 702.766Z" fill="#8A61BF"/>
<path d="M175.949 734.491L174.338 726.54H165.673C165.563 727.114 164.702 731.606 164.096 734.505C163.85 735.683 162.813 735.986 161.61 735.987H178.438C177.23 735.987 176.189 735.675 175.949 734.491Z" fill="#5DA3C1"/>
<path d="M164.637 733.965C165.243 731.065 166.104 726.574 166.213 726H162.702L160.833 735.225C160.753 735.619 161.054 735.986 161.455 735.986H162.151C163.354 735.986 164.39 735.143 164.637 733.965Z" fill="#70C7EC"/>
<path d="M177.258 726H173.798L175.409 733.951C175.649 735.135 176.69 735.986 177.898 735.986H178.505C178.906 735.986 179.207 735.619 179.127 735.225L177.258 726Z" fill="#70C7EC"/>
<path d="M170.637 718.983C170.608 718.968 170.577 718.961 170.547 718.948C170.246 718.808 169.909 718.782 169.595 718.875C169.502 718.903 169.41 718.935 169.323 718.983L160.817 724.365H179.143L170.637 718.983Z" fill="#70C7EC"/>
<path d="M169.993 726.54H178.464C178.839 726.54 179.143 726.236 179.143 725.861V724.365H160.817V725.861C160.817 726.236 161.121 726.54 161.496 726.54H169.993Z" fill="#EBEBEB"/>
</g>
<g filter="url(#filter9_d_695_2892)">
<rect x="193" y="730" width="36" height="58" rx="8" fill="white" shape-rendering="crispEdges"/>
<path d="M210.844 740.664C213.773 740.674 216.547 742.422 216.547 747.559C216.557 752.363 214.281 755.195 210.727 755.195C207.885 755.195 205.932 753.408 205.648 751.016H208.539C208.783 752.061 209.594 752.676 210.727 752.676C212.65 752.676 213.666 750.947 213.676 748.125H213.559C212.895 749.375 211.498 750.117 209.926 750.117C207.387 750.117 205.512 748.203 205.492 745.566C205.492 742.725 207.65 740.654 210.844 740.664ZM208.363 745.488C208.363 746.885 209.389 747.969 210.844 747.969C212.279 747.969 213.383 746.826 213.383 745.469C213.363 744.121 212.309 742.979 210.863 742.969C209.418 742.979 208.344 744.082 208.363 745.488Z" fill="#8A61BF"/>
<path d="M216.949 776.491L215.338 768.54H206.673C206.563 769.114 205.702 773.606 205.096 776.505C204.85 777.683 203.813 777.986 202.61 777.987H219.438C218.23 777.987 217.189 777.675 216.949 776.491Z" fill="#5DA3C1"/>
<path d="M205.637 775.965C206.243 773.065 207.104 768.574 207.213 768H203.702L201.833 777.225C201.753 777.619 202.054 777.986 202.455 777.986H203.151C204.354 777.986 205.39 777.143 205.637 775.965Z" fill="#70C7EC"/>
<path d="M218.258 768H214.798L216.409 775.951C216.649 777.135 217.69 777.986 218.898 777.986H219.505C219.906 777.986 220.207 777.619 220.127 777.225L218.258 768Z" fill="#70C7EC"/>
<path d="M211.637 760.983C211.608 760.968 211.577 760.961 211.547 760.948C211.246 760.808 210.909 760.782 210.595 760.875C210.502 760.903 210.41 760.935 210.323 760.983L201.817 766.365H220.143L211.637 760.983Z" fill="#70C7EC"/>
<path d="M210.993 768.54H219.464C219.839 768.54 220.143 768.236 220.143 767.861V766.365H201.817V767.861C201.817 768.236 202.121 768.54 202.496 768.54H210.993Z" fill="#EBEBEB"/>
</g>
<g filter="url(#filter10_d_695_2892)">
<rect x="224" y="369" width="36" height="58" rx="8" fill="white" shape-rendering="crispEdges"/>
<path d="M238.133 379.859V394H235.184V382.652H235.105L231.863 384.684V382.086L235.359 379.859H238.133ZM246.648 394.195C243.543 394.195 241.316 392.486 241.258 390.016H244.227C244.275 391.07 245.301 391.764 246.668 391.773C248.074 391.764 249.08 390.982 249.07 389.84C249.08 388.688 248.055 387.877 246.395 387.867H245.086V385.699H246.395C247.791 385.699 248.768 384.938 248.758 383.824C248.768 382.74 247.938 381.998 246.688 382.008C245.438 381.998 244.412 382.701 244.363 383.785H241.551C241.6 381.354 243.787 379.664 246.688 379.664C249.637 379.664 251.6 381.412 251.59 383.648C251.6 385.23 250.496 386.354 248.914 386.637V386.754C250.994 387.008 252.137 388.268 252.117 390.035C252.137 392.457 249.842 394.195 246.648 394.195Z" fill="#8A61BF"/>
<path d="M247.949 415.491L246.338 407.54H237.673C237.563 408.114 236.702 412.606 236.096 415.505C235.85 416.683 234.813 416.986 233.61 416.987H250.438C249.23 416.987 248.189 416.675 247.949 415.491Z" fill="#5DA3C1"/>
<path d="M236.637 414.965C237.243 412.065 238.104 407.574 238.213 407H234.702L232.833 416.225C232.753 416.619 233.054 416.986 233.455 416.986H234.151C235.354 416.986 236.39 416.143 236.637 414.965Z" fill="#70C7EC"/>
<path d="M249.258 407H245.798L247.409 414.951C247.649 416.135 248.69 416.986 249.898 416.986H250.505C250.906 416.986 251.207 416.619 251.127 416.225L249.258 407Z" fill="#70C7EC"/>
<path d="M242.637 399.983C242.608 399.968 242.577 399.961 242.547 399.948C242.246 399.808 241.909 399.782 241.595 399.875C241.502 399.903 241.41 399.935 241.323 399.983L232.817 405.365H251.143L242.637 399.983Z" fill="#70C7EC"/>
<path d="M241.993 407.54H250.464C250.839 407.54 251.143 407.236 251.143 406.861V405.365H232.817V406.861C232.817 407.236 233.121 407.54 233.496 407.54H241.993Z" fill="#EBEBEB"/>
</g>
<g filter="url(#filter11_d_695_2892)">
<rect x="216" y="305" width="36" height="58" rx="8" fill="white" shape-rendering="crispEdges"/>
<path d="M229.947 315.859V330H226.998V318.652H226.92L223.678 320.684V318.086L227.174 315.859H229.947ZM232.994 327.5V325.176L238.971 315.859H242.662V325.137H244.459V327.5H242.662V330H239.869V327.5H232.994ZM235.963 325.137H239.908V319.082H239.771L235.963 325.02V325.137Z" fill="#8A61BF"/>
<path d="M239.949 351.491L238.338 343.54H229.673C229.563 344.114 228.702 348.606 228.096 351.505C227.85 352.683 226.813 352.986 225.61 352.987H242.438C241.23 352.987 240.189 352.675 239.949 351.491Z" fill="#5DA3C1"/>
<path d="M228.637 350.965C229.243 348.065 230.104 343.574 230.213 343H226.702L224.833 352.225C224.753 352.619 225.054 352.986 225.455 352.986H226.151C227.354 352.986 228.39 352.143 228.637 350.965Z" fill="#70C7EC"/>
<path d="M241.258 343H237.798L239.409 350.951C239.649 352.135 240.69 352.986 241.898 352.986H242.505C242.906 352.986 243.207 352.619 243.127 352.225L241.258 343Z" fill="#70C7EC"/>
<path d="M234.637 335.983C234.608 335.968 234.577 335.961 234.547 335.948C234.246 335.808 233.909 335.782 233.595 335.875C233.502 335.903 233.41 335.935 233.323 335.983L224.817 341.365H243.143L234.637 335.983Z" fill="#70C7EC"/>
<path d="M233.993 343.54H242.464C242.839 343.54 243.143 343.236 243.143 342.861V341.365H224.817V342.861C224.817 343.236 225.121 343.54 225.496 343.54H233.993Z" fill="#EBEBEB"/>
</g>
<g filter="url(#filter12_d_695_2892)">
<rect x="80" y="294" width="36" height="58" rx="8" fill="white" shape-rendering="crispEdges"/>
<path d="M100.52 304.859V319H97.5703V307.652H97.4922L94.25 309.684V307.086L97.7461 304.859H100.52Z" fill="#8A61BF"/>
<path d="M103.949 340.491L102.338 332.54H93.6729C93.5632 333.114 92.7025 337.606 92.0962 340.505C91.85 341.683 90.8134 341.986 89.6104 341.987H106.438C105.23 341.987 104.189 341.675 103.949 340.491Z" fill="#5DA3C1"/>
<path d="M92.6366 339.965C93.2428 337.065 94.1035 332.574 94.2133 332H90.7023L88.8332 341.225C88.7535 341.619 89.0542 341.986 89.4554 341.986H90.1507C91.3537 341.986 92.3904 341.143 92.6366 339.965Z" fill="#70C7EC"/>
<path d="M105.258 332H101.798L103.409 339.951C103.649 341.135 104.69 341.986 105.898 341.986H106.505C106.906 341.986 107.207 341.619 107.127 341.225L105.258 332Z" fill="#70C7EC"/>
<path d="M98.6368 324.983C98.6083 324.968 98.5768 324.961 98.5474 324.948C98.2458 324.808 97.9095 324.782 97.595 324.875C97.5021 324.903 97.41 324.935 97.3233 324.983L88.8174 330.365H107.143L98.6368 324.983Z" fill="#70C7EC"/>
<path d="M97.993 332.54H106.464C106.839 332.54 107.143 332.236 107.143 331.861V330.365H88.8174V331.861C88.8174 332.236 89.1213 332.54 89.4961 332.54H97.993Z" fill="#EBEBEB"/>
</g>
<g filter="url(#filter13_d_695_2892)">
<rect x="78" y="357" width="36" height="58" rx="8" fill="white" shape-rendering="crispEdges"/>
<path d="M91.0098 382L90.9902 379.871L96.0684 375.203C97.3867 373.943 98.0996 373.162 98.0996 372.039C98.0996 370.779 97.1523 369.998 95.8535 370.008C94.5254 369.998 93.6562 370.838 93.666 372.195H90.873C90.8633 369.432 92.9141 367.664 95.8926 367.664C98.9199 367.664 100.932 369.393 100.932 371.844C100.932 373.455 100.15 374.773 97.2402 377.41L95.0918 379.5V379.578H101.127V382H91.0098Z" fill="#8A61BF"/>
<path d="M101.949 403.491L100.338 395.54H91.6729C91.5632 396.114 90.7025 400.606 90.0962 403.505C89.85 404.683 88.8134 404.986 87.6104 404.987H104.438C103.23 404.987 102.189 404.675 101.949 403.491Z" fill="#5DA3C1"/>
<path d="M90.6366 402.965C91.2428 400.065 92.1035 395.574 92.2133 395H88.7023L86.8332 404.225C86.7535 404.619 87.0542 404.986 87.4554 404.986H88.1507C89.3537 404.986 90.3904 404.143 90.6366 402.965Z" fill="#70C7EC"/>
<path d="M103.258 395H99.7979L101.409 402.951C101.649 404.135 102.69 404.986 103.898 404.986H104.505C104.906 404.986 105.207 404.619 105.127 404.225L103.258 395Z" fill="#70C7EC"/>
<path d="M96.6368 387.983C96.6083 387.968 96.5768 387.961 96.5474 387.948C96.2458 387.808 95.9095 387.782 95.595 387.875C95.5021 387.903 95.41 387.935 95.3233 387.983L86.8174 393.365H105.143L96.6368 387.983Z" fill="#70C7EC"/>
<path d="M95.993 395.54H104.464C104.839 395.54 105.143 395.236 105.143 394.861V393.365H86.8174V394.861C86.8174 395.236 87.1213 395.54 87.4961 395.54H95.993Z" fill="#EBEBEB"/>
</g>
<g filter="url(#filter14_d_695_2892)">
<rect x="67" y="420" width="36" height="58" rx="8" fill="white" shape-rendering="crispEdges"/>
<path d="M84.9609 445.195C81.8555 445.195 79.6289 443.486 79.5703 441.016H82.5391C82.5879 442.07 83.6133 442.764 84.9805 442.773C86.3867 442.764 87.3926 441.982 87.3828 440.84C87.3926 439.688 86.3672 438.877 84.707 438.867H83.3984V436.699H84.707C86.1035 436.699 87.0801 435.938 87.0703 434.824C87.0801 433.74 86.25 432.998 85 433.008C83.75 432.998 82.7246 433.701 82.6758 434.785H79.8633C79.9121 432.354 82.0996 430.664 85 430.664C87.9492 430.664 89.9121 432.412 89.9023 434.648C89.9121 436.23 88.8086 437.354 87.2266 437.637V437.754C89.3066 438.008 90.4492 439.268 90.4297 441.035C90.4492 443.457 88.1543 445.195 84.9609 445.195Z" fill="#8A61BF"/>
<path d="M90.9487 466.491L89.3378 458.54H80.6729C80.5632 459.114 79.7025 463.606 79.0962 466.505C78.85 467.683 77.8134 467.986 76.6104 467.987H93.4379C92.2296 467.987 91.1887 467.675 90.9487 466.491Z" fill="#5DA3C1"/>
<path d="M79.6366 465.965C80.2428 463.065 81.1035 458.574 81.2133 458H77.7023L75.8332 467.225C75.7535 467.619 76.0542 467.986 76.4554 467.986H77.1507C78.3537 467.986 79.3904 467.143 79.6366 465.965Z" fill="#70C7EC"/>
<path d="M92.2581 458H88.7979L90.4088 465.951C90.6487 467.135 91.6897 467.986 92.8979 467.986H93.505C93.9063 467.986 94.207 467.619 94.1273 467.225L92.2581 458Z" fill="#70C7EC"/>
<path d="M85.6368 450.983C85.6083 450.968 85.5768 450.961 85.5474 450.948C85.2458 450.808 84.9095 450.782 84.595 450.875C84.5021 450.903 84.41 450.935 84.3233 450.983L75.8174 456.365H94.1427L85.6368 450.983Z" fill="#70C7EC"/>
<path d="M84.993 458.54H93.464C93.8388 458.54 94.1427 458.236 94.1427 457.861V456.365H75.8174V457.861C75.8174 458.236 76.1213 458.54 76.4961 458.54H84.993Z" fill="#EBEBEB"/>
</g>
<g filter="url(#filter15_d_695_2892)">
<rect x="49" y="483" width="36" height="58" rx="8" fill="white" shape-rendering="crispEdges"/>
<path d="M61.3066 505.5V503.176L67.2832 493.859H70.9746V503.137H72.7715V505.5H70.9746V508H68.1816V505.5H61.3066ZM64.2754 503.137H68.2207V497.082H68.084L64.2754 503.02V503.137Z" fill="#8A61BF"/>
<path d="M72.9487 529.491L71.3378 521.54H62.6729C62.5632 522.114 61.7025 526.606 61.0962 529.505C60.85 530.683 59.8134 530.986 58.6104 530.987H75.4379C74.2296 530.987 73.1887 530.675 72.9487 529.491Z" fill="#5DA3C1"/>
<path d="M61.6366 528.965C62.2428 526.065 63.1035 521.574 63.2133 521H59.7023L57.8332 530.225C57.7535 530.619 58.0542 530.986 58.4554 530.986H59.1507C60.3537 530.986 61.3904 530.143 61.6366 528.965Z" fill="#70C7EC"/>
<path d="M74.2581 521H70.7979L72.4088 528.951C72.6487 530.135 73.6897 530.986 74.8979 530.986H75.505C75.9063 530.986 76.207 530.619 76.1273 530.225L74.2581 521Z" fill="#70C7EC"/>
<path d="M67.6368 513.983C67.6083 513.968 67.5768 513.961 67.5474 513.948C67.2458 513.808 66.9095 513.782 66.595 513.875C66.5021 513.903 66.41 513.935 66.3233 513.983L57.8174 519.365H76.1427L67.6368 513.983Z" fill="#70C7EC"/>
<path d="M66.993 521.54H75.464C75.8388 521.54 76.1427 521.236 76.1427 520.861V519.365H57.8174V520.861C57.8174 521.236 58.1213 521.54 58.4961 521.54H66.993Z" fill="#EBEBEB"/>
</g>
<defs>
<filter id="filter0_d_695_2892" x="229" y="541" width="111" height="27" filterUnits="userSpaceOnUse" color-interpolation-filters="sRGB">
<feFlood flood-opacity="0" result="BackgroundImageFix"/>
<feColorMatrix in="SourceAlpha" type="matrix" values="0 0 0 0 0 0 0 0 0 0 0 0 0 0 0 0 0 0 127 0" result="hardAlpha"/>
<feOffset/>
<feGaussianBlur stdDeviation="2"/>
<feComposite in2="hardAlpha" operator="out"/>
<feColorMatrix type="matrix" values="0 0 0 0 0 0 0 0 0 0 0 0 0 0 0 0 0 0 0.4 0"/>
<feBlend mode="normal" in2="BackgroundImageFix" result="effect1_dropShadow_695_2892"/>
<feBlend mode="normal" in="SourceGraphic" in2="effect1_dropShadow_695_2892" result="shape"/>
</filter>
<filter id="filter1_d_695_2892" x="68" y="227" width="44" height="66" filterUnits="userSpaceOnUse" color-interpolation-filters="sRGB">
<feFlood flood-opacity="0" result="BackgroundImageFix"/>
<feColorMatrix in="SourceAlpha" type="matrix" values="0 0 0 0 0 0 0 0 0 0 0 0 0 0 0 0 0 0 127 0" result="hardAlpha"/>
<feOffset/>
<feGaussianBlur stdDeviation="2"/>
<feComposite in2="hardAlpha" operator="out"/>
<feColorMatrix type="matrix" values="0 0 0 0 0 0 0 0 0 0 0 0 0 0 0 0 0 0 0.4 0"/>
<feBlend mode="normal" in2="BackgroundImageFix" result="effect1_dropShadow_695_2892"/>
<feBlend mode="normal" in="SourceGraphic" in2="effect1_dropShadow_695_2892" result="shape"/>
</filter>
<filter id="filter2_d_695_2892" x="231" y="429" width="44" height="66" filterUnits="userSpaceOnUse" color-interpolation-filters="sRGB">
<feFlood flood-opacity="0" result="BackgroundImageFix"/>
<feColorMatrix in="SourceAlpha" type="matrix" values="0 0 0 0 0 0 0 0 0 0 0 0 0 0 0 0 0 0 127 0" result="hardAlpha"/>
<feOffset/>
<feGaussianBlur stdDeviation="2"/>
<feComposite in2="hardAlpha" operator="out"/>
<feColorMatrix type="matrix" values="0 0 0 0 0 0 0 0 0 0 0 0 0 0 0 0 0 0 0.4 0"/>
<feBlend mode="normal" in2="BackgroundImageFix" result="effect1_dropShadow_695_2892"/>
<feBlend mode="normal" in="SourceGraphic" in2="effect1_dropShadow_695_2892" result="shape"/>
</filter>
<filter id="filter3_d_695_2892" x="319" y="627" width="44" height="66" filterUnits="userSpaceOnUse" color-interpolation-filters="sRGB">
<feFlood flood-opacity="0" result="BackgroundImageFix"/>
<feColorMatrix in="SourceAlpha" type="matrix" values="0 0 0 0 0 0 0 0 0 0 0 0 0 0 0 0 0 0 127 0" result="hardAlpha"/>
<feOffset/>
<feGaussianBlur stdDeviation="2"/>
<feComposite in2="hardAlpha" operator="out"/>
<feColorMatrix type="matrix" values="0 0 0 0 0 0 0 0 0 0 0 0 0 0 0 0 0 0 0.4 0"/>
<feBlend mode="normal" in2="BackgroundImageFix" result="effect1_dropShadow_695_2892"/>
<feBlend mode="normal" in="SourceGraphic" in2="effect1_dropShadow_695_2892" result="shape"/>
</filter>
<filter id="filter4_d_695_2892" x="278" y="664" width="44" height="66" filterUnits="userSpaceOnUse" color-interpolation-filters="sRGB">
<feFlood flood-opacity="0" result="BackgroundImageFix"/>
<feColorMatrix in="SourceAlpha" type="matrix" values="0 0 0 0 0 0 0 0 0 0 0 0 0 0 0 0 0 0 127 0" result="hardAlpha"/>
<feOffset/>
<feGaussianBlur stdDeviation="2"/>
<feComposite in2="hardAlpha" operator="out"/>
<feColorMatrix type="matrix" values="0 0 0 0 0 0 0 0 0 0 0 0 0 0 0 0 0 0 0.4 0"/>
<feBlend mode="normal" in2="BackgroundImageFix" result="effect1_dropShadow_695_2892"/>
<feBlend mode="normal" in="SourceGraphic" in2="effect1_dropShadow_695_2892" result="shape"/>
</filter>
<filter id="filter5_d_695_2892" x="66" y="598" width="44" height="66" filterUnits="userSpaceOnUse" color-interpolation-filters="sRGB">
<feFlood flood-opacity="0" result="BackgroundImageFix"/>
<feColorMatrix in="SourceAlpha" type="matrix" values="0 0 0 0 0 0 0 0 0 0 0 0 0 0 0 0 0 0 127 0" result="hardAlpha"/>
<feOffset/>
<feGaussianBlur stdDeviation="2"/>
<feComposite in2="hardAlpha" operator="out"/>
<feColorMatrix type="matrix" values="0 0 0 0 0 0 0 0 0 0 0 0 0 0 0 0 0 0 0.4 0"/>
<feBlend mode="normal" in2="BackgroundImageFix" result="effect1_dropShadow_695_2892"/>
<feBlend mode="normal" in="SourceGraphic" in2="effect1_dropShadow_695_2892" result="shape"/>
</filter>
<filter id="filter6_d_695_2892" x="25" y="558" width="44" height="66" filterUnits="userSpaceOnUse" color-interpolation-filters="sRGB">
<feFlood flood-opacity="0" result="BackgroundImageFix"/>
<feColorMatrix in="SourceAlpha" type="matrix" values="0 0 0 0 0 0 0 0 0 0 0 0 0 0 0 0 0 0 127 0" result="hardAlpha"/>
<feOffset/>
<feGaussianBlur stdDeviation="2"/>
<feComposite in2="hardAlpha" operator="out"/>
<feColorMatrix type="matrix" values="0 0 0 0 0 0 0 0 0 0 0 0 0 0 0 0 0 0 0.4 0"/>
<feBlend mode="normal" in2="BackgroundImageFix" result="effect1_dropShadow_695_2892"/>
<feBlend mode="normal" in="SourceGraphic" in2="effect1_dropShadow_695_2892" result="shape"/>
</filter>
<filter id="filter7_d_695_2892" x="107" y="641" width="44" height="66" filterUnits="userSpaceOnUse" color-interpolation-filters="sRGB">
<feFlood flood-opacity="0" result="BackgroundImageFix"/>
<feColorMatrix in="SourceAlpha" type="matrix" values="0 0 0 0 0 0 0 0 0 0 0 0 0 0 0 0 0 0 127 0" result="hardAlpha"/>
<feOffset/>
<feGaussianBlur stdDeviation="2"/>
<feComposite in2="hardAlpha" operator="out"/>
<feColorMatrix type="matrix" values="0 0 0 0 0 0 0 0 0 0 0 0 0 0 0 0 0 0 0.4 0"/>
<feBlend mode="normal" in2="BackgroundImageFix" result="effect1_dropShadow_695_2892"/>
<feBlend mode="normal" in="SourceGraphic" in2="effect1_dropShadow_695_2892" result="shape"/>
</filter>
<filter id="filter8_d_695_2892" x="148" y="684" width="44" height="66" filterUnits="userSpaceOnUse" color-interpolation-filters="sRGB">
<feFlood flood-opacity="0" result="BackgroundImageFix"/>
<feColorMatrix in="SourceAlpha" type="matrix" values="0 0 0 0 0 0 0 0 0 0 0 0 0 0 0 0 0 0 127 0" result="hardAlpha"/>
<feOffset/>
<feGaussianBlur stdDeviation="2"/>
<feComposite in2="hardAlpha" operator="out"/>
<feColorMatrix type="matrix" values="0 0 0 0 0 0 0 0 0 0 0 0 0 0 0 0 0 0 0.4 0"/>
<feBlend mode="normal" in2="BackgroundImageFix" result="effect1_dropShadow_695_2892"/>
<feBlend mode="normal" in="SourceGraphic" in2="effect1_dropShadow_695_2892" result="shape"/>
</filter>
<filter id="filter9_d_695_2892" x="189" y="726" width="44" height="66" filterUnits="userSpaceOnUse" color-interpolation-filters="sRGB">
<feFlood flood-opacity="0" result="BackgroundImageFix"/>
<feColorMatrix in="SourceAlpha" type="matrix" values="0 0 0 0 0 0 0 0 0 0 0 0 0 0 0 0 0 0 127 0" result="hardAlpha"/>
<feOffset/>
<feGaussianBlur stdDeviation="2"/>
<feComposite in2="hardAlpha" operator="out"/>
<feColorMatrix type="matrix" values="0 0 0 0 0 0 0 0 0 0 0 0 0 0 0 0 0 0 0.4 0"/>
<feBlend mode="normal" in2="BackgroundImageFix" result="effect1_dropShadow_695_2892"/>
<feBlend mode="normal" in="SourceGraphic" in2="effect1_dropShadow_695_2892" result="shape"/>
</filter>
<filter id="filter10_d_695_2892" x="220" y="365" width="44" height="66" filterUnits="userSpaceOnUse" color-interpolation-filters="sRGB">
<feFlood flood-opacity="0" result="BackgroundImageFix"/>
<feColorMatrix in="SourceAlpha" type="matrix" values="0 0 0 0 0 0 0 0 0 0 0 0 0 0 0 0 0 0 127 0" result="hardAlpha"/>
<feOffset/>
<feGaussianBlur stdDeviation="2"/>
<feComposite in2="hardAlpha" operator="out"/>
<feColorMatrix type="matrix" values="0 0 0 0 0 0 0 0 0 0 0 0 0 0 0 0 0 0 0.4 0"/>
<feBlend mode="normal" in2="BackgroundImageFix" result="effect1_dropShadow_695_2892"/>
<feBlend mode="normal" in="SourceGraphic" in2="effect1_dropShadow_695_2892" result="shape"/>
</filter>
<filter id="filter11_d_695_2892" x="212" y="301" width="44" height="66" filterUnits="userSpaceOnUse" color-interpolation-filters="sRGB">
<feFlood flood-opacity="0" result="BackgroundImageFix"/>
<feColorMatrix in="SourceAlpha" type="matrix" values="0 0 0 0 0 0 0 0 0 0 0 0 0 0 0 0 0 0 127 0" result="hardAlpha"/>
<feOffset/>
<feGaussianBlur stdDeviation="2"/>
<feComposite in2="hardAlpha" operator="out"/>
<feColorMatrix type="matrix" values="0 0 0 0 0 0 0 0 0 0 0 0 0 0 0 0 0 0 0.4 0"/>
<feBlend mode="normal" in2="BackgroundImageFix" result="effect1_dropShadow_695_2892"/>
<feBlend mode="normal" in="SourceGraphic" in2="effect1_dropShadow_695_2892" result="shape"/>
</filter>
<filter id="filter12_d_695_2892" x="76" y="290" width="44" height="66" filterUnits="userSpaceOnUse" color-interpolation-filters="sRGB">
<feFlood flood-opacity="0" result="BackgroundImageFix"/>
<feColorMatrix in="SourceAlpha" type="matrix" values="0 0 0 0 0 0 0 0 0 0 0 0 0 0 0 0 0 0 127 0" result="hardAlpha"/>
<feOffset/>
<feGaussianBlur stdDeviation="2"/>
<feComposite in2="hardAlpha" operator="out"/>
<feColorMatrix type="matrix" values="0 0 0 0 0 0 0 0 0 0 0 0 0 0 0 0 0 0 0.4 0"/>
<feBlend mode="normal" in2="BackgroundImageFix" result="effect1_dropShadow_695_2892"/>
<feBlend mode="normal" in="SourceGraphic" in2="effect1_dropShadow_695_2892" result="shape"/>
</filter>
<filter id="filter13_d_695_2892" x="74" y="353" width="44" height="66" filterUnits="userSpaceOnUse" color-interpolation-filters="sRGB">
<feFlood flood-opacity="0" result="BackgroundImageFix"/>
<feColorMatrix in="SourceAlpha" type="matrix" values="0 0 0 0 0 0 0 0 0 0 0 0 0 0 0 0 0 0 127 0" result="hardAlpha"/>
<feOffset/>
<feGaussianBlur stdDeviation="2"/>
<feComposite in2="hardAlpha" operator="out"/>
<feColorMatrix type="matrix" values="0 0 0 0 0 0 0 0 0 0 0 0 0 0 0 0 0 0 0.4 0"/>
<feBlend mode="normal" in2="BackgroundImageFix" result="effect1_dropShadow_695_2892"/>
<feBlend mode="normal" in="SourceGraphic" in2="effect1_dropShadow_695_2892" result="shape"/>
</filter>
<filter id="filter14_d_695_2892" x="63" y="416" width="44" height="66" filterUnits="userSpaceOnUse" color-interpolation-filters="sRGB">
<feFlood flood-opacity="0" result="BackgroundImageFix"/>
<feColorMatrix in="SourceAlpha" type="matrix" values="0 0 0 0 0 0 0 0 0 0 0 0 0 0 0 0 0 0 127 0" result="hardAlpha"/>
<feOffset/>
<feGaussianBlur stdDeviation="2"/>
<feComposite in2="hardAlpha" operator="out"/>
<feColorMatrix type="matrix" values="0 0 0 0 0 0 0 0 0 0 0 0 0 0 0 0 0 0 0.4 0"/>
<feBlend mode="normal" in2="BackgroundImageFix" result="effect1_dropShadow_695_2892"/>
<feBlend mode="normal" in="SourceGraphic" in2="effect1_dropShadow_695_2892" result="shape"/>
</filter>
<filter id="filter15_d_695_2892" x="45" y="479" width="44" height="66" filterUnits="userSpaceOnUse" color-interpolation-filters="sRGB">
<feFlood flood-opacity="0" result="BackgroundImageFix"/>
<feColorMatrix in="SourceAlpha" type="matrix" values="0 0 0 0 0 0 0 0 0 0 0 0 0 0 0 0 0 0 127 0" result="hardAlpha"/>
<feOffset/>
<feGaussianBlur stdDeviation="2"/>
<feComposite in2="hardAlpha" operator="out"/>
<feColorMatrix type="matrix" values="0 0 0 0 0 0 0 0 0 0 0 0 0 0 0 0 0 0 0.4 0"/>
<feBlend mode="normal" in2="BackgroundImageFix" result="effect1_dropShadow_695_2892"/>
<feBlend mode="normal" in="SourceGraphic" in2="effect1_dropShadow_695_2892" result="shape"/>
</filter>
</defs>
</svg>
