<svg width="301" height="118" viewBox="0 0 301 118" fill="none" xmlns="http://www.w3.org/2000/svg">
<path d="M0.5 19V99" stroke="white" stroke-opacity="0.24" stroke-linecap="round"/>
<g clip-path="url(#clip0_204_7255)">
<path d="M69.4458 26.9741C65.7666 23.2949 59.499 23.5949 55.449 27.6461C53.7978 29.2973 52.7826 31.3169 52.3926 33.3797C52.4742 33.3581 52.5618 33.3653 52.6278 33.4313L62.9862 43.7897C63.0534 43.8569 63.0594 43.9457 63.0354 44.0285C65.0994 43.6397 67.1214 42.6233 68.7738 40.9709C72.825 36.9197 73.1262 30.6533 69.4458 26.9741Z" fill="#353A41"/>
<path d="M50.363 36.454L30.5462 58.3661L30.533 58.3769C27.7202 61.1897 28.7246 66.3725 33.5474 67.4909C35.2214 67.8785 36.971 67.2089 38.0462 65.8685L38.0486 65.8661L59.9594 46.0505L59.8827 45.9737L50.4446 36.5356L50.3642 36.4552L50.363 36.454ZM52.2146 46.6325L50.7002 48.1469C49.9394 48.9077 48.7046 48.9077 47.9438 48.1469C47.183 47.3861 47.183 46.1513 47.9438 45.3905L49.4582 43.876C50.219 43.1152 51.4538 43.1152 52.2146 43.876C52.9754 44.6369 52.9754 45.8717 52.2146 46.6325Z" fill="#DFDFDF"/>
<path d="M62.9854 43.7909L52.627 33.4324C52.561 33.3664 52.4746 33.3592 52.3918 33.3808C52.3354 33.3952 52.2778 33.4168 52.2418 33.4708L50.413 36.22C50.347 36.3196 50.3602 36.4516 50.4442 36.5356L59.8822 45.9737C59.9662 46.0577 60.0982 46.0709 60.1978 46.0049L62.947 44.1761C62.9998 44.1413 63.019 44.0849 63.0346 44.0297C63.0574 43.9469 63.0526 43.8581 62.9854 43.7909Z" fill="#9AA1AA"/>
<path d="M49.46 43.8761L47.9456 45.3905C47.1848 46.1513 47.1848 47.3861 47.9456 48.1469C48.7064 48.9077 49.9412 48.9077 50.702 48.1469L52.2164 46.6325C52.9772 45.8717 52.9772 44.6369 52.2164 43.8761C51.4556 43.1153 50.2208 43.1153 49.46 43.8761Z" fill="#9AA1AA"/>
</g>
<path d="M34.6289 83.4199V98.5273H32.6201V90.9404H31.1592V97.7969H29.2168V83.6689H31.1592V89.2471H32.6201V83.4199H34.6289ZM21.9951 95.1074V85.1631H27.623V86.873H24.1201V93.3311C25.5811 93.3062 26.876 93.2231 28.3369 92.9658L28.4863 94.6924C26.6436 95.041 25.0332 95.0991 23.041 95.1074H21.9951ZM50.0684 90.7744V92.4678H44.3408V95.0908H42.1992V92.4678H36.2393V90.7744H50.0684ZM37.667 86.8398C37.667 84.9224 39.8584 83.7188 43.1455 83.7021C46.416 83.7188 48.5991 84.9224 48.6074 86.8398C48.5991 88.7656 46.416 89.9609 43.1455 89.9609C39.8584 89.9609 37.667 88.7656 37.667 86.8398ZM37.8828 98.2617V93.7461H40.0244V96.5518H48.541V98.2617H37.8828ZM39.958 86.8398C39.9497 87.7612 41.1948 88.2593 43.1455 88.2676C45.0962 88.2593 46.333 87.7612 46.333 86.8398C46.333 85.877 45.0962 85.3789 43.1455 85.3789C41.1948 85.3789 39.9497 85.877 39.958 86.8398ZM64.7607 90.5586V92.2188H50.9482V90.5586H56.8252V89.2637H52.625V84.084H63.1006V85.7275H54.7334V87.6035H63.1836V89.2637H58.9004V90.5586H64.7607ZM52.5254 95.7715C52.5254 93.9785 54.5176 92.9824 57.8213 92.9824C61.1001 92.9824 63.0674 93.9785 63.084 95.7715C63.0674 97.5396 61.1001 98.5439 57.8213 98.5439C54.5176 98.5439 52.5254 97.5396 52.5254 95.7715ZM54.6836 95.7715C54.6753 96.5601 55.7295 96.9336 57.8213 96.9336C59.8716 96.9336 60.9507 96.5601 60.959 95.7715C60.9507 94.9912 59.8716 94.5928 57.8213 94.5928C55.7295 94.5928 54.6753 94.9912 54.6836 95.7715ZM74.2236 84.4326V86.126H71.2188C71.2271 87.8857 72.2979 89.5874 74.7051 90.293L73.6924 91.9531C72.0239 91.4468 70.8618 90.4258 70.1978 89.1392C69.5254 90.6582 68.2969 91.8701 66.4873 92.4678L65.4082 90.791C67.915 90.0024 69.0522 88.0435 69.0771 86.126H65.9893V84.4326H74.2236ZM67.5 95.5889C67.4917 93.7461 69.4839 92.6753 72.6797 92.6836C75.8257 92.6753 77.7681 93.7461 77.7764 95.5889C77.7681 97.4399 75.8257 98.5356 72.6797 98.5273C69.4839 98.5356 67.4917 97.4399 67.5 95.5889ZM69.625 95.5889C69.6084 96.4521 70.6958 96.8838 72.6797 96.8838C74.6387 96.8838 75.6846 96.4521 75.6846 95.5889C75.6846 94.7422 74.6387 94.3188 72.6797 94.3271C70.6958 94.3188 69.6084 94.7422 69.625 95.5889ZM75.502 92.3848V83.4199H77.627V86.9229H79.6689V88.6494H77.627V92.3848H75.502Z" fill="white"/>
<path d="M100.5 19V99" stroke="white" stroke-opacity="0.24" stroke-linecap="round"/>
<g clip-path="url(#clip1_204_7255)">
<path d="M177.485 50.2506L176.723 48.6129H160.151V62.6355H162.203C162.193 62.4905 162.159 62.3521 162.159 62.2041C162.159 58.6625 165.03 55.7918 168.572 55.7918C172.113 55.7918 174.984 58.6625 174.984 62.2041C174.984 62.352 174.951 62.4905 174.941 62.6355H175.655C176.957 62.6355 178.012 61.5801 178.012 60.2778V52.6365C178.012 51.8125 177.832 50.9981 177.485 50.2506Z" fill="#CBCFD2"/>
<path d="M160.151 34.5731V29.7241C160.151 28.4219 159.096 27.3665 157.794 27.3665H125.346C124.044 27.3665 122.988 28.4219 122.988 29.7241V60.2778C122.988 61.5801 124.044 62.6355 125.346 62.6355H127.902C127.892 62.4905 127.859 62.3521 127.859 62.2041C127.859 58.6625 130.73 55.7918 134.271 55.7918C137.813 55.7918 140.684 58.6625 140.684 62.2041C140.684 62.3521 140.65 62.4905 140.64 62.6355H160.151L160.151 34.5731Z" fill="#F1F1F1"/>
<path d="M160.151 29.7241V34.5731L160.151 48.61H122.988V29.7241C122.988 28.4219 124.044 27.3665 125.346 27.3665H157.794C159.096 27.3665 160.151 28.4219 160.151 29.7241Z" fill="#F08C54"/>
<path d="M176.722 48.6129L171.343 37.0454C170.641 35.5373 169.129 34.5731 167.466 34.5731H160.15V48.6129H176.722Z" fill="#85A6D0"/>
<path d="M134.271 55.7917C130.729 55.7917 127.858 58.6625 127.858 62.2041C127.858 62.352 127.892 62.4905 127.902 62.6355C128.128 65.9721 130.877 68.6164 134.271 68.6164C137.665 68.6164 140.414 65.972 140.64 62.6355C140.65 62.4905 140.683 62.3521 140.683 62.2041C140.683 58.6625 137.812 55.7917 134.271 55.7917ZM134.271 64.769C132.854 64.769 131.706 63.6206 131.706 62.2041C131.706 60.7876 132.854 59.6392 134.271 59.6392C135.687 59.6392 136.836 60.7876 136.836 62.2041C136.836 63.6206 135.687 64.769 134.271 64.769Z" fill="#313D4C"/>
<path d="M168.572 55.7917C165.03 55.7917 162.159 58.6625 162.159 62.2041C162.159 62.352 162.193 62.4905 162.203 62.6355C162.429 65.9721 165.178 68.6164 168.572 68.6164C171.965 68.6164 174.715 65.972 174.941 62.6355C174.951 62.4905 174.984 62.3521 174.984 62.2041C174.984 58.6625 172.113 55.7917 168.572 55.7917ZM168.572 64.769C167.155 64.769 166.007 63.6206 166.007 62.2041C166.007 60.7876 167.155 59.6392 168.572 59.6392C169.988 59.6392 171.137 60.7876 171.137 62.2041C171.137 63.6206 169.988 64.769 168.572 64.769Z" fill="#313D4C"/>
<path d="M136.836 62.2041C136.836 60.7876 135.688 59.6392 134.271 59.6392C132.854 59.6392 131.706 60.7876 131.706 62.2041C131.706 63.6206 132.854 64.769 134.271 64.769C135.688 64.769 136.836 63.6206 136.836 62.2041Z" fill="#6B7683"/>
<path d="M171.137 62.2041C171.137 60.7876 169.988 59.6392 168.572 59.6392C167.155 59.6392 166.007 60.7876 166.007 62.2041C166.007 63.6206 167.155 64.769 168.572 64.769C169.988 64.769 171.137 63.6206 171.137 62.2041Z" fill="#6B7683"/>
</g>
<path d="M140.896 83.4199V87.1387H142.938V88.915H140.896V92.5342H138.771V83.4199H140.896ZM128.91 86.458V84.7812H132.346V83.3369H134.455V84.7812H137.875V86.458H128.91ZM129.64 89.6289C129.64 88.0352 131.167 86.9229 133.392 86.9229C135.592 86.9229 137.111 88.0352 137.111 89.6289C137.111 91.2642 135.592 92.3599 133.392 92.3682C131.167 92.3599 129.64 91.2642 129.64 89.6289ZM131.018 98.3613V93.1982H140.896V98.3613H131.018ZM131.715 89.6289C131.707 90.4009 132.379 90.7993 133.392 90.8076C134.413 90.7993 135.102 90.4009 135.102 89.6289C135.102 88.9067 134.413 88.5083 133.392 88.5166C132.379 88.5083 131.707 88.9067 131.715 89.6289ZM133.11 96.668H138.804V94.8584H133.11V96.668ZM156.252 83.4365V94.2939H154.127V83.4365H156.252ZM143.834 88.2012C143.834 85.9849 145.644 84.3911 147.968 84.3994C150.284 84.3911 152.094 85.9849 152.102 88.2012C152.094 90.4507 150.284 92.0361 147.968 92.0361C145.644 92.0361 143.834 90.4507 143.834 88.2012ZM145.91 88.2012C145.893 89.4629 146.781 90.1934 147.968 90.1934C149.114 90.1934 150.002 89.4629 150.01 88.2012C150.002 86.9727 149.114 86.2339 147.968 86.2422C146.781 86.2339 145.893 86.9727 145.91 88.2012ZM146.125 98.2617V93.1982H148.267V96.5684H156.651V98.2617H146.125ZM171.028 83.4199V91.7373H168.919V87.6865H166.081V85.9766H168.919V83.4199H171.028ZM158.195 90.0273C160.685 89.2637 161.806 87.3628 161.814 85.4453V83.9844H163.956V85.5947C163.947 87.3711 164.993 89.0811 167.375 89.7783L166.313 91.4385C164.661 90.9072 163.524 89.8779 162.868 88.5747C162.204 90.0024 161.017 91.123 159.274 91.6875L158.195 90.0273ZM160.951 98.3613V92.3516H163.042V93.7295H168.919V92.3516H171.028V98.3613H160.951ZM163.042 96.668H168.919V95.3564H163.042V96.668Z" fill="white"/>
<path d="M200.5 19V99" stroke="white" stroke-opacity="0.24" stroke-linecap="round"/>
<path d="M252.55 59.0323L237.274 59.0323C235.923 59.0323 234.628 58.4959 233.673 57.5409C232.718 56.5859 232.182 55.2907 232.182 53.9401V31.8698L257.643 31.8698V53.9389C257.643 54.6077 257.511 55.27 257.255 55.888C256.999 56.5059 256.624 57.0675 256.152 57.5404C255.679 58.0134 255.117 58.3886 254.499 58.6446C253.881 58.9006 253.219 59.0323 252.55 59.0323Z" fill="#EDA55A"/>
<path d="M244.911 38.7344V51.1618" stroke="#EDA55A" stroke-width="1.6974" stroke-miterlimit="10" stroke-linecap="round"/>
<path d="M238.799 38.7344V51.1618" stroke="#EDA55A" stroke-width="1.6974" stroke-miterlimit="10" stroke-linecap="round"/>
<path d="M251.023 43.875V51.1618" stroke="#EDA55A" stroke-width="1.6974" stroke-miterlimit="10" stroke-linecap="round"/>
<path d="M235.656 24.2737H254.161C255.479 24.2737 256.743 24.7972 257.674 25.7288C258.606 26.6605 259.129 27.9242 259.129 29.2417V35.335C259.15 36.3498 258.785 37.3347 258.107 38.0904C257.429 38.8462 256.49 39.3165 255.479 39.4063C254.956 39.4345 254.433 39.3558 253.941 39.175C253.449 38.9943 252.999 38.7153 252.619 38.355C252.239 37.9947 251.936 37.5608 251.728 37.0796C251.521 36.5984 251.414 36.08 251.414 35.5561C251.414 35.2178 251.348 34.8827 251.218 34.5701C251.089 34.2575 250.899 33.9735 250.66 33.7343C250.421 33.495 250.137 33.3053 249.824 33.1759C249.511 33.0465 249.176 32.98 248.838 32.9802H233.172C232.513 32.9802 231.881 32.7185 231.415 32.2526C230.949 31.7868 230.688 31.155 230.688 30.4962V29.2417C230.688 27.9242 231.211 26.6605 232.143 25.7288C233.074 24.7972 234.338 24.2737 235.656 24.2737Z" fill="#D0D5DA"/>
<path d="M265.83 46.7204H267.297C268.097 46.7207 268.864 47.0387 269.429 47.6044C269.995 48.1702 270.312 48.9373 270.312 49.7372V57.4115C270.312 58.2114 269.995 58.9786 269.429 59.5443C268.864 60.1101 268.097 60.428 267.297 60.4284H265.83" stroke="#EFC063" stroke-width="2.03688" stroke-miterlimit="10"/>
<path d="M240.366 40.5638H265.827V62.633C265.827 63.9835 265.291 65.2787 264.336 66.2337C263.381 67.1887 262.086 67.7252 260.735 67.7252H245.458C244.108 67.7252 242.813 67.1887 241.858 66.2337C240.903 65.2787 240.366 63.9835 240.366 62.633V40.5638Z" fill="#EFC063"/>
<path d="M253.098 47.4283V59.8558" stroke="#EDA55A" stroke-width="1.6974" stroke-miterlimit="10" stroke-linecap="round"/>
<path d="M259.21 47.4283V59.8558" stroke="#EDA55A" stroke-width="1.6974" stroke-miterlimit="10" stroke-linecap="round"/>
<path d="M246.987 52.569V59.8558" stroke="#EDA55A" stroke-width="1.6974" stroke-miterlimit="10" stroke-linecap="round"/>
<path d="M262.355 32.9677H243.843C242.525 32.9677 241.262 33.4911 240.33 34.4228C239.398 35.3545 238.875 36.6181 238.875 37.9357V44.029C238.854 45.0438 239.22 46.0286 239.897 46.7844C240.575 47.5401 241.514 48.0105 242.525 48.1003C243.048 48.1284 243.572 48.0497 244.063 47.869C244.555 47.6883 245.005 47.4092 245.385 47.049C245.766 46.6887 246.069 46.2547 246.276 45.7735C246.483 45.2923 246.59 44.774 246.59 44.2501C246.59 43.9118 246.657 43.5768 246.786 43.2643C246.916 42.9518 247.105 42.6678 247.345 42.4286C247.584 42.1894 247.868 41.9997 248.18 41.8702C248.493 41.7408 248.828 41.6741 249.166 41.6741H264.839C265.498 41.6741 266.13 41.4124 266.595 40.9466C267.061 40.4808 267.323 39.8489 267.323 39.1901V37.9357C267.323 36.6181 266.799 35.3545 265.868 34.4228C264.936 33.4911 263.672 32.9677 262.355 32.9677Z" fill="#EBEBEB"/>
<path d="M230.329 97.166C227.847 97.1577 225.473 95.6719 225.481 91.2725C225.49 87.2134 227.424 84.8145 230.429 84.8145C232.844 84.8145 234.504 86.3418 234.745 88.3174H232.288C232.089 87.479 231.4 86.9561 230.429 86.9561C228.793 86.9561 227.938 88.4253 227.922 90.791H228.038C228.594 89.7202 229.781 89.0977 231.109 89.0977C233.276 89.0977 234.886 90.7163 234.878 92.9824C234.886 95.4229 233.043 97.1743 230.329 97.166ZM228.171 93.0488C228.188 94.2275 229.084 95.1987 230.312 95.1904C231.549 95.1987 232.454 94.2607 232.454 93.0488C232.454 91.8452 231.566 90.9155 230.346 90.9072C229.117 90.9155 228.188 91.8784 228.171 93.0488ZM241.27 97.166C238.256 97.166 236.438 94.9248 236.438 90.9902C236.438 87.064 238.273 84.8145 241.27 84.8145C244.266 84.8145 246.101 87.064 246.101 90.9902C246.101 94.9414 244.274 97.166 241.27 97.166ZM238.995 90.9902C238.979 93.7627 239.875 95.1074 241.27 95.1074C242.664 95.1074 243.552 93.7627 243.544 90.9902C243.552 88.2427 242.656 86.8647 241.27 86.8564C239.883 86.8647 238.995 88.2427 238.995 90.9902ZM261.108 91.7539V93.4473H255.231V98.5273H253.14V93.4473H247.329V91.7539H261.108ZM248.01 89.2139C251.064 88.8403 252.758 87.3628 252.982 85.877H248.574V84.2168H259.88V85.877H255.472C255.688 87.3628 257.356 88.8403 260.461 89.2139L259.697 90.874C257.041 90.5171 255.14 89.3882 254.227 87.8359C253.306 89.3882 251.421 90.5171 248.79 90.874L248.01 89.2139ZM274.755 83.4365V94.543H272.646V89.5957H268.895V87.9355H272.646V86.7734H268.895V85.1133H272.646V83.4365H274.755ZM262.868 92.584V84.3828H264.96V90.8408C266.803 90.8159 268.546 90.6997 270.422 90.3594L270.638 92.0693C268.372 92.501 266.338 92.5757 264.08 92.584H262.868ZM264.711 98.2617V93.5469H266.836V96.5684H275.12V98.2617H264.711Z" fill="white"/>
<path d="M300.5 19V99" stroke="white" stroke-opacity="0.24" stroke-linecap="round"/>
<defs>
<clipPath id="clip0_204_7255">
<rect width="60" height="60" fill="white" transform="translate(20.5 16)"/>
</clipPath>
<clipPath id="clip1_204_7255">
<rect width="60" height="60" fill="white" transform="translate(120.5 16)"/>
</clipPath>
</defs>
</svg>
