<svg width="100" height="129" viewBox="0 0 100 129" fill="none" xmlns="http://www.w3.org/2000/svg">
<rect width="100" height="129" rx="20" fill="white" fill-opacity="0.12"/>
<g clip-path="url(#clip0_288_9092)">
<path fill-rule="evenodd" clip-rule="evenodd" d="M80 34.7688C80 34.0521 80 33.3354 79.9967 32.6187C79.9933 32.0154 79.9867 31.412 79.97 30.8087C79.935 29.4936 79.8567 28.1686 79.6233 26.8686C79.3867 25.5486 78.9983 24.3202 78.3883 23.1202C77.1794 20.7482 75.2506 18.8199 72.8783 17.6117C71.68 17.0017 70.4517 16.615 69.1333 16.3767C67.8333 16.1433 66.5067 16.065 65.1917 16.03C64.5883 16.0133 63.985 16.0067 63.3817 16.0033C62.665 16 61.9483 16 61.2317 16H38.7683C38.0517 16 37.335 16 36.6183 16.0033C36.015 16.0067 35.4117 16.0133 34.8083 16.03C33.4933 16.0667 32.1667 16.1433 30.8667 16.3783C29.5467 16.615 28.32 17.0034 27.1217 17.6134C24.7494 18.8216 22.8206 20.7499 21.6117 23.1218C21.0017 24.3219 20.6133 25.5502 20.3767 26.8703C20.1433 28.1703 20.065 29.497 20.03 30.8103C20.0133 31.4137 20.0067 32.017 20.0033 32.6204C20 33.3354 20 34.0521 20 34.7688V57.231C20 57.9476 20 58.6643 20.0033 59.381C20.0067 59.9844 20.0133 60.5877 20.03 61.1911C20.065 62.5061 20.1433 63.8311 20.3767 65.1311C20.6133 66.4512 21.0017 67.6795 21.6117 68.8796C22.8206 71.2515 24.7494 73.1798 27.1217 74.388C28.32 74.998 29.5483 75.3847 30.8667 75.6231C32.1667 75.8564 33.4933 75.9347 34.8083 75.9697C35.4117 75.9864 36.015 75.9931 36.6183 75.9964C37.335 76.0014 38.0517 75.9997 38.7683 75.9997H61.23C61.9467 75.9997 62.6633 75.9997 63.38 75.9964C63.9833 75.9931 64.5867 75.9864 65.19 75.9697C66.505 75.9347 67.8317 75.8564 69.1317 75.6231C70.4517 75.3864 71.6783 74.998 72.8767 74.388C75.2489 73.1798 77.1777 71.2515 78.3867 68.8796C78.9967 67.6795 79.385 66.4512 79.6217 65.1311C79.855 63.8311 79.9333 62.5044 79.9683 61.1911C79.985 60.5877 79.9917 59.9844 79.995 59.381C80 58.6643 79.9983 57.9476 79.9983 57.231V34.7688H80Z" fill="url(#paint0_linear_288_9092)"/>
<path fill-rule="evenodd" clip-rule="evenodd" d="M61.1402 26.7689C61.0072 26.7812 59.8252 26.9907 59.683 27.0197L43.3218 30.321L43.3156 30.3225C42.889 30.4127 42.5542 30.5641 42.2958 30.7813C41.9838 31.0427 41.811 31.4128 41.7453 31.844C41.7315 31.9357 41.7086 32.1223 41.7086 32.3975V52.875C41.7086 53.3536 41.6704 53.8184 41.3462 54.2145C41.022 54.6105 40.6214 54.7298 40.152 54.8246L39.0831 55.0402C37.7314 55.3124 36.8522 55.4974 36.0556 55.8063C35.2941 56.1014 34.7237 56.4775 34.2696 56.9546C33.3689 57.898 33.0035 59.1779 33.1289 60.3767C33.2359 61.3997 33.6962 62.3783 34.4867 63.1015C35.0204 63.5908 35.687 63.9624 36.473 64.1199C37.288 64.2835 38.1565 64.2269 39.4257 63.97C40.1015 63.834 40.7346 63.6214 41.337 63.2651C41.9334 62.9134 42.4441 62.444 42.8432 61.8721C43.2438 61.2987 43.5022 60.6611 43.6444 59.9837C43.7912 59.2849 43.8264 58.6534 43.8264 57.9561V40.1958C43.8264 39.2447 44.0955 38.994 44.8631 38.8074C44.8631 38.8074 58.4628 36.0642 59.0973 35.9404C59.9827 35.7707 60.4001 36.023 60.4001 36.9511V49.0752C60.4001 49.5554 60.3955 50.0416 60.0683 50.4392C59.7442 50.8352 59.3435 50.9545 58.8741 51.0493L57.8053 51.2649C56.4536 51.537 55.5743 51.7221 54.7777 52.0309C54.0162 52.3261 53.4458 52.7022 52.9917 53.1793C52.0911 54.1227 51.6935 55.4026 51.8189 56.6014C51.9259 57.6243 52.4183 58.603 53.2088 59.3262C53.7425 59.8155 54.4092 60.1764 55.1951 60.3354C56.0101 60.499 56.8786 60.4409 58.1478 60.1856C58.8236 60.0495 59.4567 59.8461 60.0591 59.4898C60.6555 59.1381 61.1662 58.6687 61.5653 58.0968C61.9659 57.5234 62.2243 56.8858 62.3665 56.2084C62.5133 55.5096 62.5194 54.8781 62.5194 54.1808V28.2154C62.5225 27.2735 62.0255 26.6925 61.1402 26.7689Z" fill="white"/>
</g>
<path d="M29.0215 108H26.332L30.499 95.9805H33.7031L37.8535 108H35.1807L34.2759 105.228H29.9263L29.0215 108ZM30.5571 103.285H33.645L32.1426 98.6865H32.0596L30.5571 103.285ZM39.165 111.387V98.9854H41.5889V100.496H41.6885C42.0288 99.7656 42.7427 98.8691 44.2617 98.8691C46.2539 98.8691 47.9224 100.413 47.9141 103.501C47.9224 106.514 46.3203 108.149 44.2617 108.149C42.7925 108.149 42.0371 107.303 41.6885 106.556H41.6221V111.387H39.165ZM41.5723 103.484C41.564 105.111 42.2612 106.182 43.4814 106.19C44.7349 106.182 45.4155 105.078 45.4072 103.484C45.4155 101.916 44.7515 100.828 43.4814 100.828C42.2529 100.828 41.564 101.866 41.5723 103.484ZM49.5078 111.387V98.9854H51.9316V100.496H52.0312C52.3716 99.7656 53.0854 98.8691 54.6045 98.8691C56.5967 98.8691 58.2651 100.413 58.2568 103.501C58.2651 106.514 56.6631 108.149 54.6045 108.149C53.1353 108.149 52.3799 107.303 52.0312 106.556H51.9648V111.387H49.5078ZM51.915 103.484C51.9067 105.111 52.604 106.182 53.8242 106.19C55.0776 106.182 55.7583 105.078 55.75 103.484C55.7583 101.916 55.0942 100.828 53.8242 100.828C52.5957 100.828 51.9067 101.866 51.915 103.484ZM62.3076 95.9805V108H59.8506V95.9805H62.3076ZM68.3008 108.183C65.5366 108.174 63.8433 106.39 63.8516 103.534C63.8433 100.753 65.5615 98.8691 68.2012 98.8691C70.5669 98.8691 72.4346 100.363 72.4346 103.435V104.132H66.2754C66.2754 105.493 67.0806 106.332 68.3506 106.34C69.189 106.332 69.7866 105.966 70.0273 105.427H72.3682C72.0195 107.095 70.5254 108.174 68.3008 108.183ZM66.2754 102.588H70.1104C70.1021 101.492 69.3467 100.704 68.251 100.712C67.1221 100.704 66.3252 101.55 66.2754 102.588Z" fill="white"/>
<defs>
<linearGradient id="paint0_linear_288_9092" x1="50" y1="75.7688" x2="50" y2="17.2931" gradientUnits="userSpaceOnUse">
<stop stop-color="#FA233B"/>
<stop offset="1" stop-color="#FB5C74"/>
</linearGradient>
<clipPath id="clip0_288_9092">
<rect x="20" y="16" width="60" height="60" rx="30" fill="white"/>
</clipPath>
</defs>
</svg>
