<svg width="100" height="129" viewBox="0 0 100 129" fill="none" xmlns="http://www.w3.org/2000/svg">
<rect width="100" height="129" rx="20" fill="white" fill-opacity="0.12"/>
<g clip-path="url(#clip0_288_9076)">
<rect x="20" y="16" width="60" height="60" rx="30" fill="white"/>
<path d="M50 16C42.0435 16 34.4129 19.1607 28.7868 24.7868C23.1607 30.4129 20 38.0435 20 46C20 53.9565 23.1607 61.5871 28.7868 67.2132C34.4129 72.8393 42.0435 76 50 76C57.9565 76 65.5871 72.8393 71.2132 67.2132C76.8393 61.5871 80 53.9565 80 46C80 38.0435 76.8393 30.4129 71.2132 24.7868C65.5871 19.1607 57.9565 16 50 16ZM63.7598 59.2689C63.632 59.479 63.464 59.6618 63.2654 59.8068C63.0668 59.9518 62.8415 60.0562 62.6025 60.1139C62.3635 60.1717 62.1154 60.1817 61.8725 60.1433C61.6296 60.105 61.3967 60.0191 61.187 59.8905C54.1413 55.5866 45.2784 54.6142 34.8342 56.9989C34.595 57.0536 34.3473 57.0606 34.1053 57.0195C33.8633 56.9784 33.6318 56.89 33.424 56.7595C33.2162 56.6289 33.0361 56.4587 32.8941 56.2586C32.752 56.0584 32.6508 55.8323 32.5962 55.593C32.5415 55.3537 32.5346 55.106 32.5757 54.8641C32.6167 54.6221 32.7051 54.3906 32.8356 54.1828C32.9662 53.975 33.1364 53.7949 33.3365 53.6529C33.5367 53.5108 33.7629 53.4096 34.0021 53.3549C45.4283 50.7407 55.2317 51.8661 63.1382 56.6993C64.0181 57.238 64.2954 58.389 63.7598 59.2689ZM67.4261 51.101C67.1017 51.6288 66.5812 52.0064 65.9788 52.151C65.3764 52.2956 64.7412 52.1955 64.2125 51.8725C56.1498 46.915 43.8565 45.4803 34.3177 48.3751C33.7374 48.5128 33.1264 48.424 32.6092 48.1268C32.0921 47.8295 31.7078 47.3463 31.5346 46.7755C31.3614 46.2047 31.4124 45.5894 31.6772 45.0549C31.942 44.5205 32.4006 44.1071 32.9596 43.899C43.8565 40.593 57.3996 42.1966 66.6578 47.8842C66.92 48.0448 67.148 48.2556 67.3287 48.5044C67.5094 48.7532 67.6393 49.0352 67.711 49.3343C67.7826 49.6333 67.7946 49.9435 67.7463 50.2472C67.698 50.5509 67.5903 50.8421 67.4293 51.1041M67.7481 42.5951C58.0755 36.8533 42.1222 36.3241 32.8927 39.1297C32.5385 39.2426 32.1654 39.2841 31.795 39.2516C31.4247 39.2192 31.0644 39.1134 30.7353 38.9405C30.4062 38.7676 30.1147 38.531 29.8778 38.2445C29.6409 37.958 29.4633 37.6272 29.3554 37.2715C29.2474 36.9157 29.2113 36.542 29.249 36.1722C29.2867 35.8023 29.3976 35.4437 29.5751 35.117C29.7527 34.7904 29.9933 34.5023 30.2832 34.2695C30.5731 34.0367 30.9063 33.8638 31.2635 33.7609C41.8576 30.5409 59.475 31.1658 70.6047 37.7715C71.2448 38.1512 71.7078 38.7695 71.8919 39.4906C72.0761 40.2116 71.9663 40.9763 71.5866 41.6164C71.207 42.2564 70.5886 42.7195 69.8676 42.9036C69.1465 43.0878 68.3818 42.9779 67.7418 42.5983" fill="#1ED760"/>
</g>
<path d="M28.5371 99.417C28.4375 98.4624 27.6821 97.9062 26.4619 97.9062C25.2002 97.9062 24.4946 98.4873 24.4863 99.2842C24.478 100.156 25.3745 100.546 26.4121 100.778L27.4912 101.044C29.5498 101.517 31.0854 102.563 31.0938 104.563C31.0854 106.763 29.3755 108.174 26.4453 108.166C23.54 108.174 21.689 106.83 21.6143 104.248H24.0381C24.1211 105.46 25.084 106.074 26.4121 106.074C27.7236 106.074 28.5703 105.46 28.5703 104.563C28.5703 103.742 27.8232 103.36 26.5117 103.036L25.2002 102.721C23.1748 102.223 21.9297 101.21 21.9297 99.4502C21.9214 97.2671 23.8472 95.8145 26.4785 95.8145C29.1431 95.8145 30.8945 97.292 30.9277 99.417H28.5371ZM32.6709 111.387V98.9854H35.0947V100.496H35.1943C35.5347 99.7656 36.2485 98.8691 37.7676 98.8691C39.7598 98.8691 41.4282 100.413 41.4199 103.501C41.4282 106.514 39.8262 108.149 37.7676 108.149C36.2983 108.149 35.543 107.303 35.1943 106.556H35.1279V111.387H32.6709ZM35.0781 103.484C35.0698 105.111 35.7671 106.182 36.9873 106.19C38.2407 106.182 38.9214 105.078 38.9131 103.484C38.9214 101.916 38.2573 100.828 36.9873 100.828C35.7588 100.828 35.0698 101.866 35.0781 103.484ZM47.0645 108.183C44.3418 108.174 42.6401 106.307 42.6484 103.518C42.6401 100.737 44.3418 98.8691 47.0645 98.8691C49.7954 98.8691 51.4888 100.737 51.4971 103.518C51.4888 106.307 49.7954 108.174 47.0645 108.183ZM45.1387 103.518C45.1387 105.095 45.7944 106.265 47.0811 106.273C48.3345 106.265 48.9985 105.095 48.9902 103.518C48.9985 101.932 48.3345 100.745 47.0811 100.745C45.7944 100.745 45.1387 101.932 45.1387 103.518ZM57.7891 98.9854V100.828H56.0957V105.228C56.0874 105.95 56.4443 106.124 56.9424 106.141C57.1914 106.141 57.623 106.116 57.9219 106.091V108.033C57.6562 108.075 57.2163 108.125 56.6104 108.116C54.834 108.125 53.6221 107.328 53.6387 105.576V100.828H52.3936V98.9854H53.6387V96.8271H56.0957V98.9854H57.7891ZM59.333 108V98.9854H61.79V108H59.333ZM59.2168 96.5615C59.2168 95.8643 59.8228 95.3081 60.5615 95.2998C61.292 95.3081 61.8979 95.8643 61.8896 96.5615C61.8979 97.2422 61.292 97.8066 60.5615 97.8066C59.8228 97.8066 59.2168 97.2422 59.2168 96.5615ZM68.4971 98.9854V100.828H66.7041V108H64.2471V100.828H62.9688V98.9854H64.2471V98.3047C64.2471 96.4038 65.3926 95.416 67.2021 95.416C67.7583 95.416 68.2314 95.4658 68.6631 95.5654V97.4248C68.3062 97.3916 68.0488 97.3833 67.916 97.375C67.1274 97.3833 66.7041 97.6821 66.7041 98.4375V98.9854H68.4971ZM71.3857 111.387C70.9043 111.378 70.4561 111.37 70.1406 111.337V109.428C70.4561 109.453 70.8296 109.461 71.1367 109.461C71.6265 109.461 72.0166 109.411 72.3154 108.631L72.4648 108.249L69.2275 98.9854H71.8008L73.6934 105.626H73.793L75.7021 98.9854H78.3086L74.7891 108.996C74.2744 110.449 73.2866 111.378 71.3857 111.387Z" fill="white"/>
<defs>
<clipPath id="clip0_288_9076">
<rect x="20" y="16" width="60" height="60" rx="30" fill="white"/>
</clipPath>
</defs>
</svg>
