<svg width="100" height="129" viewBox="0 0 100 129" fill="none" xmlns="http://www.w3.org/2000/svg">
<rect width="100" height="129" rx="20" fill="white" fill-opacity="0.12"/>
<g clip-path="url(#clip0_288_9040)">
<path d="M66.4059 76H33.5936C26.1171 76 20.0001 69.8826 20.0001 62.4063V29.5942C20.0001 22.1174 26.1171 16.0003 33.5936 16.0003H66.4059C73.8827 16.0003 79.9999 22.1174 79.9999 29.5942V62.4063C79.9999 69.8826 73.8827 76 66.4059 76Z" fill="white"/>
<path d="M69.439 30.6268C69.439 33.7659 66.8942 36.3107 63.7549 36.3107C60.6156 36.3107 58.0713 33.7659 58.0713 30.6268C58.0713 27.488 60.6156 24.9428 63.7549 24.9428C66.8942 24.9428 69.439 27.488 69.439 30.6268Z" fill="white"/>
<path d="M48.7856 35.5043C40.4329 35.5043 33.6617 42.2755 33.6617 50.6281C33.6617 58.981 40.4329 65.752 48.7856 65.752C57.1382 65.752 63.9092 58.981 63.9092 50.6281C63.9092 42.2755 57.1382 35.5043 48.7856 35.5043ZM48.7856 44.0261C52.426 44.0261 55.3878 46.9877 55.3878 50.6281C55.3878 54.2685 52.426 57.2301 48.7856 57.2301C45.1449 57.2301 42.1836 54.2685 42.1836 50.6281C42.1836 46.9877 45.1449 44.0261 48.7856 44.0261Z" fill="white"/>
<path d="M47.7856 36.5043C39.4329 36.5043 32.6617 43.2755 32.6617 51.6281C32.6617 59.981 39.4329 66.752 47.7856 66.752C56.1382 66.752 62.9092 59.981 62.9092 51.6281C62.9092 43.2755 56.1382 36.5043 47.7856 36.5043ZM47.7856 45.0261C51.426 45.0261 54.3878 47.9877 54.3878 51.6281C54.3878 55.2685 51.426 58.2301 47.7856 58.2301C44.1449 58.2301 41.1836 55.2685 41.1836 51.6281C41.1836 47.9877 44.1449 45.0261 47.7856 45.0261Z" fill="#04E532"/>
<path d="M68.439 31.6268C68.439 34.7659 65.8942 37.3107 62.7549 37.3107C59.6156 37.3107 57.0713 34.7659 57.0713 31.6268C57.0713 28.488 59.6156 25.9428 62.7549 25.9428C65.8942 25.9428 68.439 28.488 68.439 31.6268Z" fill="#04E532"/>
</g>
<path d="M26.0127 95.9805H29.1006L32.4375 104.132H32.5703L35.9072 95.9805H38.9951V108H36.5713V100.131H36.4717L33.334 107.95H31.6738L28.5361 100.098H28.4365V108H26.0127V95.9805ZM45.0547 108.183C42.2905 108.174 40.5972 106.39 40.6055 103.534C40.5972 100.753 42.3154 98.8691 44.9551 98.8691C47.3208 98.8691 49.1885 100.363 49.1885 103.435V104.132H43.0293C43.0293 105.493 43.8345 106.332 45.1045 106.34C45.9429 106.332 46.5405 105.966 46.7812 105.427H49.1221C48.7734 107.095 47.2793 108.174 45.0547 108.183ZM43.0293 102.588H46.8643C46.856 101.492 46.1006 100.704 45.0049 100.712C43.876 100.704 43.0791 101.55 43.0293 102.588ZM53.1895 95.9805V108H50.7324V95.9805H53.1895ZM59.1494 108.183C56.4268 108.174 54.7251 106.307 54.7334 103.518C54.7251 100.737 56.4268 98.8691 59.1494 98.8691C61.8804 98.8691 63.5737 100.737 63.582 103.518C63.5737 106.307 61.8804 108.174 59.1494 108.183ZM57.2236 103.518C57.2236 105.095 57.8794 106.265 59.166 106.273C60.4194 106.265 61.0835 105.095 61.0752 103.518C61.0835 101.932 60.4194 100.745 59.166 100.745C57.8794 100.745 57.2236 101.932 57.2236 103.518ZM67.583 102.787V108H65.126V98.9854H67.4668V100.562H67.5664C67.9731 99.5249 68.936 98.8691 70.2725 98.8691C72.1567 98.8691 73.3853 100.156 73.377 102.256V108H70.9365V102.688C70.9282 101.575 70.3306 100.911 69.3096 100.911C68.2886 100.911 67.583 101.6 67.583 102.787Z" fill="white"/>
<defs>
<clipPath id="clip0_288_9040">
<rect x="20" y="16" width="60" height="60" rx="30" fill="white"/>
</clipPath>
</defs>
</svg>
