<svg width="100" height="129" viewBox="0 0 100 129" fill="none" xmlns="http://www.w3.org/2000/svg">
<rect width="100" height="129" rx="20" fill="white" fill-opacity="0.12"/>
<g clip-path="url(#clip0_288_9067)">
<path d="M50 76C66.5685 76 80 62.5685 80 46C80 29.4315 66.5685 16 50 16C33.4315 16 20 29.4315 20 46C20 62.5685 33.4315 76 50 76Z" fill="#FF0000"/>
<path d="M50 64.0001C59.9411 64.0001 68 55.9412 68 46.0001C68 36.059 59.9411 28.0001 50 28.0001C40.0589 28.0001 32 36.059 32 46.0001C32 55.9412 40.0589 64.0001 50 64.0001Z" fill="#FF0000" stroke="white" stroke-width="1.2"/>
<path d="M44.0001 54.8625L59.5838 46.0025L44.0001 37.1375V54.8625Z" fill="white"/>
</g>
<path d="M15.2822 95.9805H18.0879L20.8604 101.16H20.9766L23.7324 95.9805H26.5381L22.1553 103.717V108H19.665V103.717L15.2822 95.9805ZM29.9746 108.183C27.252 108.174 25.5503 106.307 25.5586 103.518C25.5503 100.737 27.252 98.8691 29.9746 98.8691C32.7056 98.8691 34.3989 100.737 34.4072 103.518C34.3989 106.307 32.7056 108.174 29.9746 108.183ZM28.0488 103.518C28.0488 105.095 28.7046 106.265 29.9912 106.273C31.2446 106.265 31.9087 105.095 31.9004 103.518C31.9087 101.932 31.2446 100.745 29.9912 100.745C28.7046 100.745 28.0488 101.932 28.0488 103.518ZM41.7285 104.165V98.9854H44.1855V108H41.8281V106.373H41.7285C41.3218 107.419 40.3506 108.116 38.9893 108.116C37.188 108.116 35.9512 106.838 35.9512 104.729V98.9854H38.4082V104.298C38.4082 105.369 39.0225 106.033 39.9854 106.041C40.8818 106.033 41.7285 105.394 41.7285 104.165ZM44.833 98.0391V95.9805H54.6777V98.0391H50.9922V108H48.5186V98.0391H44.833ZM60.7207 104.165V98.9854H63.1777V108H60.8203V106.373H60.7207C60.314 107.419 59.3428 108.116 57.9814 108.116C56.1802 108.116 54.9434 106.838 54.9434 104.729V98.9854H57.4004V104.298C57.4004 105.369 58.0146 106.033 58.9775 106.041C59.874 106.033 60.7207 105.394 60.7207 104.165ZM65.1367 108V95.9805H67.5938V100.496H67.6602C68.0005 99.7656 68.7144 98.8691 70.2334 98.8691C72.2256 98.8691 73.894 100.413 73.9023 103.501C73.894 106.514 72.292 108.149 70.2334 108.149C68.7642 108.149 68.0171 107.303 67.6602 106.556H67.5605V108H65.1367ZM67.5439 103.484C67.5356 105.111 68.2412 106.182 69.4531 106.19C70.7065 106.182 71.3872 105.078 71.3789 103.484C71.3872 101.916 70.7231 100.828 69.4531 100.828C68.2329 100.828 67.5356 101.866 67.5439 103.484ZM79.5635 108.183C76.7993 108.174 75.106 106.39 75.1143 103.534C75.106 100.753 76.8242 98.8691 79.4639 98.8691C81.8296 98.8691 83.6973 100.363 83.6973 103.435V104.132H77.5381C77.5381 105.493 78.3433 106.332 79.6133 106.34C80.4517 106.332 81.0493 105.966 81.29 105.427H83.6309C83.2822 107.095 81.7881 108.174 79.5635 108.183ZM77.5381 102.588H81.373C81.3647 101.492 80.6094 100.704 79.5137 100.712C78.3848 100.704 77.5879 101.55 77.5381 102.588Z" fill="white"/>
<defs>
<clipPath id="clip0_288_9067">
<rect x="20" y="16" width="60" height="60" rx="30" fill="white"/>
</clipPath>
</defs>
</svg>
