<svg width="64" height="32" viewBox="0 0 64 32" fill="none" xmlns="http://www.w3.org/2000/svg">
<g filter="url(#filter0_b_92_1003)">
<rect width="64" height="32" rx="16" fill="black" fill-opacity="0.2"/>
<g clip-path="url(#clip0_92_1003)">
<rect x="7.00049" y="8.00006" width="18" height="7.5" rx="2" fill="#E2E5E8"/>
<path d="M7.00049 11.2001C7.00049 10.08 7.00049 9.5199 7.21848 9.09208C7.41022 8.71576 7.71618 8.40979 8.09251 8.21805C8.52033 8.00006 9.08038 8.00006 10.2005 8.00006H14.5005V15.5001H10.2005C9.08038 15.5001 8.52033 15.5001 8.09251 15.2821C7.71618 15.0903 7.41022 14.7844 7.21848 14.408C7.00049 13.9802 7.00049 13.4202 7.00049 12.3001V11.2001Z" fill="#D0D6DE"/>
<rect x="7.00049" y="16.5" width="18" height="7.5" rx="2" fill="#E2E5E8"/>
<path d="M7.00049 19.7C7.00049 18.5799 7.00049 18.0199 7.21848 17.592C7.41022 17.2157 7.71618 16.9098 8.09251 16.718C8.52033 16.5 9.08038 16.5 10.2005 16.5H14.5005V24H10.2005C9.08038 24 8.52033 24 8.09251 23.782C7.71618 23.5903 7.41022 23.2843 7.21848 22.908C7.00049 22.4802 7.00049 21.9201 7.00049 20.8V19.7Z" fill="#D0D6DE"/>
</g>
<rect x="34" y="2" width="28" height="28" rx="14" fill="#8A61BF"/>
<g clip-path="url(#clip1_92_1003)">
<path d="M55.8363 23.5207L52.4489 22.9811L48.0001 23.6897L43.5513 22.9811L40.1639 23.5207C39.6069 23.6094 39.1025 23.179 39.1025 22.615V9.8015C39.1025 9.35069 39.4302 8.96673 39.8754 8.89581L43.5513 8.31026L48.0001 9.01892L52.4489 8.31026L56.1248 8.89581C56.57 8.96673 56.8977 9.35069 56.8977 9.8015V22.615C56.8977 23.179 56.3933 23.6094 55.8363 23.5207Z" fill="#E2E5E8"/>
<path d="M43.5513 8.31026V22.9811L48.0001 23.6897V9.01892L43.5513 8.31026Z" fill="#D0D6DE"/>
<path d="M52.4487 8.31026V22.9811L55.8361 23.5207C56.3932 23.6094 56.8975 23.179 56.8975 22.615V9.8015C56.8975 9.35069 56.5699 8.96673 56.1247 8.89581L52.4487 8.31026Z" fill="#D0D6DE"/>
</g>
</g>
<defs>
<filter id="filter0_b_92_1003" x="-160" y="-160" width="384" height="352" filterUnits="userSpaceOnUse" color-interpolation-filters="sRGB">
<feFlood flood-opacity="0" result="BackgroundImageFix"/>
<feGaussianBlur in="BackgroundImageFix" stdDeviation="80"/>
<feComposite in2="SourceAlpha" operator="in" result="effect1_backgroundBlur_92_1003"/>
<feBlend mode="normal" in="SourceGraphic" in2="effect1_backgroundBlur_92_1003" result="shape"/>
</filter>
<clipPath id="clip0_92_1003">
<rect width="20" height="20" fill="white" transform="translate(6 6)"/>
</clipPath>
<clipPath id="clip1_92_1003">
<rect width="20" height="20" fill="white" transform="translate(38 6)"/>
</clipPath>
</defs>
</svg>
