<svg width="393" height="912" viewBox="0 0 393 912" fill="none" xmlns="http://www.w3.org/2000/svg">
<g clip-path="url(#clip0_728_4038)">
<path d="M799.733 558.234L494.716 60.1403L-36.7841 108.14L-245.784 906.641L47.2991 1076.51L796.181 574.469C801.527 570.885 803.094 563.723 799.733 558.234Z" fill="white" fill-opacity="0.24"/>
<rect x="471.612" y="757.577" width="290.953" height="184.091" rx="8" transform="rotate(148.005 471.612 757.577)" fill="#E8E9EB"/>
<path d="M758.614 568.298C760.896 572.117 759.624 577.065 755.783 579.309L652.577 639.615C648.841 641.798 644.048 640.615 641.756 636.946L505.097 418.165C502.812 414.507 498.039 413.318 494.306 415.478L356.336 495.308C352.555 497.495 347.719 496.246 345.471 492.501L253.346 339.045C251.068 335.252 252.303 330.33 256.101 328.06L513.708 174.104C517.501 171.837 522.413 173.074 524.679 176.867L758.614 568.298Z" fill="#E8E9EB"/>
<path d="M98.9543 765.269L380.918 587.646C384.583 585.338 385.745 580.532 383.54 576.805L241.512 336.679C239.287 332.916 240.494 328.064 244.223 325.782L350.872 260.542C354.647 258.232 355.83 253.296 353.511 249.526L286.556 140.673C284.275 136.966 279.448 135.762 275.693 137.965L16.2549 290.177C13.8043 291.614 12.3002 294.244 12.3032 297.085L12.7826 758.508C12.7872 762.923 16.3676 766.5 20.7826 766.5L94.6903 766.5C96.1993 766.5 97.6775 766.073 98.9543 765.269Z" fill="#CFBCE8"/>
<rect x="236.549" y="338" width="64" height="54.1357" rx="8" transform="rotate(59.3 236.549 338)" fill="white"/>
<rect x="271.266" y="396.47" width="64" height="54.1357" rx="8" transform="rotate(59.3 271.266 396.47)" fill="white"/>
<rect x="305.983" y="454.94" width="64" height="54.1357" rx="8" transform="rotate(59.3 305.983 454.94)" fill="white"/>
<rect x="344.784" y="520.289" width="60.081" height="54.1357" rx="8" transform="rotate(59.3 344.784 520.289)" fill="white"/>
<rect x="19" y="706" width="72" height="54.1357" rx="8" fill="white"/>
<rect x="19" y="644" width="72" height="54.1357" rx="8" fill="white"/>
<rect x="299" y="354" width="84" height="22" rx="11" fill="#CFBCE8"/>
<path d="M307.402 370.127C305.701 370.114 303.923 369.105 303.923 365.709C303.93 362.51 305.313 360.682 307.516 360.682C309.211 360.682 310.385 361.735 310.601 363.195H309.217C309.033 362.446 308.443 361.907 307.516 361.9C306.094 361.907 305.269 363.138 305.269 365.214H305.371C305.872 364.433 306.735 363.976 307.732 363.97C309.37 363.976 310.69 365.233 310.69 366.991C310.69 368.775 309.376 370.14 307.402 370.127ZM305.434 367.029C305.44 368.051 306.259 368.953 307.389 368.959C308.5 368.953 309.332 368.089 309.332 367.017C309.332 365.963 308.532 365.106 307.427 365.112C306.304 365.106 305.447 366.007 305.434 367.029ZM315.375 370.127C313.248 370.127 311.998 368.413 311.998 365.404C311.998 362.415 313.261 360.682 315.375 360.682C317.482 360.682 318.745 362.415 318.751 365.404C318.745 368.413 317.501 370.127 315.375 370.127ZM313.394 365.404C313.388 367.696 314.13 368.921 315.375 368.921C316.612 368.921 317.355 367.696 317.355 365.404C317.355 363.119 316.606 361.869 315.375 361.862C314.137 361.869 313.394 363.119 313.394 365.404ZM330.177 366.115V367.093H325.556V371.066H324.375V367.093H319.805V366.115H330.177ZM320.389 364.3C322.509 364.008 324.274 362.745 324.312 361.342H320.77V360.377H329.2V361.342H325.683C325.702 362.745 327.454 364.008 329.606 364.3L329.162 365.252C327.295 364.96 325.683 364.04 324.991 362.745C324.293 364.04 322.687 364.96 320.846 365.252L320.389 364.3ZM340.524 359.717V368.121H339.318V364.249H336.195V363.284H339.318V362.091H336.195V361.126H339.318V359.717H340.524ZM331.713 366.496V360.504H332.907V365.48C334.417 365.474 335.852 365.392 337.477 365.087L337.604 366.077C335.801 366.414 334.259 366.483 332.589 366.496H331.713ZM333.11 370.838V367.385H334.329V369.86H340.816V370.838H333.11ZM354.908 359.704V371.079H353.689V359.704H354.908ZM345.564 368.032C348.585 366.591 350.064 364.541 350.299 361.888H346.11V360.923H351.518C351.518 364.255 350.103 367.137 346.199 369.01L345.564 368.032ZM358.577 360.25V364.947C360.208 364.935 361.535 364.858 363.033 364.592L363.16 365.557C361.522 365.868 360.087 365.944 358.234 365.95H357.358V360.25H358.577ZM358.742 370.939V366.877H366.168V370.939H358.742ZM359.922 369.962H364.975V367.829H359.922V369.962ZM361.865 363.843V362.916H364.962V361.837H361.865V360.91H364.962V359.704H366.168V366.382H364.962V363.843H361.865ZM374.255 360.567V361.202C374.243 361.964 374.243 363.094 373.963 364.566L372.77 364.452C373.018 363.195 373.056 362.275 373.068 361.558H368.517V360.567H374.255ZM367.832 365.544C368.53 365.544 369.323 365.538 370.155 365.519V363.119H371.348V365.48C372.567 365.43 373.824 365.341 374.966 365.176L375.042 366.052C372.668 366.471 369.952 366.515 367.946 366.521L367.832 365.544ZM369.558 370.838V367.474H370.764V369.86H377.29V370.838H369.558ZM375.69 368.248V359.704H376.921V363.322H378.483V364.338H376.921V368.248H375.69Z" fill="#2D3033"/>
<g filter="url(#filter0_d_728_4038)">
<rect x="200" y="368" width="60" height="24" rx="8" fill="#9AE79D" shape-rendering="crispEdges"/>
<path d="M216.523 380.518V381.646H211.191V386.23H209.829V381.646H204.556V380.518H216.523ZM205.229 378.423C207.676 378.086 209.712 376.628 209.756 375.01H205.669V373.896H215.396V375.01H211.338C211.36 376.628 213.381 378.086 215.864 378.423L215.352 379.521C213.198 379.185 211.338 378.123 210.54 376.628C209.734 378.123 207.881 379.185 205.757 379.521L205.229 378.423ZM229.517 380.913V382.012H226.499V386.245H225.093V382.012H221.929V386.245H220.537V382.012H217.505V380.913H229.517ZM218.926 374.731V373.589H228.096V377.104H220.361V378.555H228.374V379.683H218.97V376.064H226.675V374.731H218.926ZM237.939 374.307V375.435H236.694V379.551C237.317 379.507 237.925 379.448 238.511 379.375L238.599 380.415C235.955 380.833 232.893 380.891 230.645 380.898L230.483 379.756C230.989 379.756 231.531 379.749 232.095 379.741V375.435H230.85V374.307H237.939ZM232.476 385.967V381.865H233.867V384.839H241.353V385.967H232.476ZM233.442 379.712C234.065 379.69 234.695 379.668 235.332 379.639V375.435H233.442V379.712ZM239.404 382.788V373.135H240.796V377.017H242.7V378.188H240.796V382.788H239.404ZM254.741 373.12V386.245H253.408V379.404H251.782V385.601H250.464V373.369H251.782V378.262H253.408V373.12H254.741ZM243.887 382.788V374.6H248.984V382.788H243.887ZM245.205 381.675H247.681V375.698H245.205V381.675Z" fill="#2D3033"/>
</g>
<g filter="url(#filter1_d_728_4038)">
<rect x="25" y="659" width="60" height="24" rx="8" fill="#9AE79D" shape-rendering="crispEdges"/>
<path d="M41.5234 671.518V672.646H36.1914V677.23H34.8291V672.646H29.5557V671.518H41.5234ZM30.2295 669.423C32.6758 669.086 34.7119 667.628 34.7559 666.01H30.6689V664.896H40.3955V666.01H36.3379C36.3599 667.628 38.3813 669.086 40.8643 669.423L40.3516 670.521C38.1982 670.185 36.3379 669.123 35.5396 667.628C34.7339 669.123 32.8809 670.185 30.7568 670.521L30.2295 669.423ZM54.5166 671.913V673.012H51.499V677.245H50.0928V673.012H46.9287V677.245H45.5371V673.012H42.5049V671.913H54.5166ZM43.9258 665.731V664.589H53.0957V668.104H45.3613V669.555H53.374V670.683H43.9697V667.064H51.6748V665.731H43.9258ZM62.9395 665.307V666.435H61.6943V670.551C62.3169 670.507 62.9248 670.448 63.5107 670.375L63.5986 671.415C60.9546 671.833 57.8931 671.891 55.6445 671.898L55.4834 670.756C55.9888 670.756 56.5308 670.749 57.0947 670.741V666.435H55.8496V665.307H62.9395ZM57.4756 676.967V672.865H58.8672V675.839H66.3525V676.967H57.4756ZM58.4424 670.712C59.0649 670.69 59.6948 670.668 60.332 670.639V666.435H58.4424V670.712ZM64.4043 673.788V664.135H65.7959V668.017H67.7002V669.188H65.7959V673.788H64.4043ZM79.7412 664.12V677.245H78.4082V670.404H76.7822V676.601H75.4639V664.369H76.7822V669.262H78.4082V664.12H79.7412ZM68.8867 673.788V665.6H73.9844V673.788H68.8867ZM70.2051 672.675H72.6807V666.698H70.2051V672.675Z" fill="#2D3033"/>
</g>
<g filter="url(#filter2_d_728_4038)">
<rect x="25" y="722" width="60" height="24" rx="8" fill="#FDFFA7" shape-rendering="crispEdges"/>
<path d="M40.4395 727.12V734.166H39.0479V727.12H40.4395ZM29.8193 730.768C29.8267 728.966 31.3062 727.713 33.3203 727.721C35.3271 727.713 36.8066 728.966 36.8066 730.768C36.8066 732.562 35.3271 733.814 33.3203 733.8C31.3062 733.814 29.8267 732.562 29.8193 730.768ZM31.1816 730.768C31.1743 731.903 32.0752 732.657 33.3203 732.657C34.5508 732.657 35.4443 731.903 35.4443 730.768C35.4443 729.647 34.5508 728.885 33.3203 728.893C32.0752 728.885 31.1743 729.647 31.1816 730.768ZM31.8555 740.084V734.796H33.2178V736.275H39.0625V734.796H40.4395V740.084H31.8555ZM33.2178 738.941H39.0625V737.374H33.2178V738.941ZM47.1045 729.537C47.0972 731.207 48.2617 732.73 50.2539 733.36L49.5947 734.444C48.1006 733.968 47.0093 732.979 46.4307 731.734C45.8594 733.17 44.7095 734.305 43.1348 734.854L42.417 733.741C44.4678 733.067 45.7056 731.375 45.7129 729.552V729.186H42.8271V728.058H49.9316V729.186H47.1045V729.537ZM44.1895 737.755C44.1895 736.217 45.8667 735.316 48.5986 735.323C51.3013 735.316 52.9492 736.217 52.9492 737.755C52.9492 739.315 51.3013 740.223 48.5986 740.216C45.8667 740.223 44.1895 739.315 44.1895 737.755ZM45.5811 737.755C45.5737 738.634 46.7017 739.125 48.5986 739.117C50.481 739.125 51.5942 738.634 51.5869 737.755C51.5942 736.898 50.481 736.415 48.5986 736.422C46.7017 736.415 45.5737 736.898 45.5811 737.755ZM51.4404 735.001V727.12H52.832V730.372H54.7363V731.515H52.832V735.001H51.4404ZM65.7959 727.105V731.031H67.7002V732.203H65.7959V736.759H64.4043V727.105H65.7959ZM55.6885 731.28C55.6738 729.369 57.1973 728.021 59.1748 728.014C61.1597 728.021 62.6611 729.369 62.6758 731.28C62.6611 733.192 61.1597 734.554 59.1748 734.547C57.1973 734.554 55.6738 733.192 55.6885 731.28ZM57.0508 731.28C57.0361 732.503 57.9736 733.331 59.1748 733.331C60.3906 733.331 61.3062 732.503 61.3135 731.28C61.3062 730.057 60.3906 729.229 59.1748 729.229C57.9736 729.229 57.0361 730.057 57.0508 731.28ZM57.4756 739.967V735.748H58.8672V738.839H66.3525V739.967H57.4756ZM79.6826 727.12V740.245H78.3496V733.521H76.665V739.571H75.3613V727.384H76.665V732.379H78.3496V727.12H79.6826ZM69.0625 736.905V728.673H70.4541V735.682C71.6626 735.667 72.9883 735.572 74.4824 735.279L74.6289 736.495C72.8271 736.817 71.3257 736.913 69.9121 736.905H69.0625Z" fill="#2D3033"/>
</g>
<rect x="282" y="744" width="42" height="22" rx="11" fill="#CFBCE8"/>
<path d="M288.191 750.428V752.167H290.387V750.428H291.504V755.798H287.048V750.428H288.191ZM288.191 754.82H290.387V753.106H288.191V754.82ZM288.534 758.159V757.182H296.265V761.079H295.072V758.159H288.534ZM292.672 756.471V749.92H293.79V752.611H295.123V749.717H296.265V756.547H295.123V753.602H293.79V756.471H292.672ZM308.199 755.912V756.89H297.789V755.912H302.397V754.833H299.122V751.938H305.685V750.923H299.096V749.971H306.891V752.827H300.315V753.894H307.12V754.833H303.59V755.912H308.199ZM298.957 758.654V757.689H306.955V760.99H305.736V758.654H298.957ZM315.372 750.567V751.202C315.359 751.964 315.359 753.094 315.08 754.566L313.886 754.452C314.134 753.195 314.172 752.275 314.185 751.558H309.633V750.567H315.372ZM308.948 755.544C309.646 755.544 310.439 755.538 311.271 755.519V753.119H312.464V755.48C313.683 755.43 314.94 755.341 316.083 755.176L316.159 756.052C313.785 756.471 311.068 756.515 309.062 756.521L308.948 755.544ZM310.674 760.838V757.474H311.88V759.86H318.406V760.838H310.674ZM316.806 758.248V749.704H318.038V753.322H319.599V754.338H318.038V758.248H316.806Z" fill="#2D3033"/>
<g filter="url(#filter3_d_728_4038)">
<rect x="307" y="549" width="60" height="24" rx="8" fill="#FDFFA7" shape-rendering="crispEdges"/>
<path d="M322.439 554.12V561.166H321.048V554.12H322.439ZM311.819 557.768C311.827 555.966 313.306 554.713 315.32 554.721C317.327 554.713 318.807 555.966 318.807 557.768C318.807 559.562 317.327 560.814 315.32 560.8C313.306 560.814 311.827 559.562 311.819 557.768ZM313.182 557.768C313.174 558.903 314.075 559.657 315.32 559.657C316.551 559.657 317.444 558.903 317.444 557.768C317.444 556.647 316.551 555.885 315.32 555.893C314.075 555.885 313.174 556.647 313.182 557.768ZM313.855 567.084V561.796H315.218V563.275H321.062V561.796H322.439V567.084H313.855ZM315.218 565.941H321.062V564.374H315.218V565.941ZM329.104 556.537C329.097 558.207 330.262 559.73 332.254 560.36L331.595 561.444C330.101 560.968 329.009 559.979 328.431 558.734C327.859 560.17 326.709 561.305 325.135 561.854L324.417 560.741C326.468 560.067 327.706 558.375 327.713 556.552V556.186H324.827V555.058H331.932V556.186H329.104V556.537ZM326.189 564.755C326.189 563.217 327.867 562.316 330.599 562.323C333.301 562.316 334.949 563.217 334.949 564.755C334.949 566.315 333.301 567.223 330.599 567.216C327.867 567.223 326.189 566.315 326.189 564.755ZM327.581 564.755C327.574 565.634 328.702 566.125 330.599 566.117C332.481 566.125 333.594 565.634 333.587 564.755C333.594 563.898 332.481 563.415 330.599 563.422C328.702 563.415 327.574 563.898 327.581 564.755ZM333.44 562.001V554.12H334.832V557.372H336.736V558.515H334.832V562.001H333.44ZM347.796 554.105V558.031H349.7V559.203H347.796V563.759H346.404V554.105H347.796ZM337.688 558.28C337.674 556.369 339.197 555.021 341.175 555.014C343.16 555.021 344.661 556.369 344.676 558.28C344.661 560.192 343.16 561.554 341.175 561.547C339.197 561.554 337.674 560.192 337.688 558.28ZM339.051 558.28C339.036 559.503 339.974 560.331 341.175 560.331C342.391 560.331 343.306 559.503 343.313 558.28C343.306 557.057 342.391 556.229 341.175 556.229C339.974 556.229 339.036 557.057 339.051 558.28ZM339.476 566.967V562.748H340.867V565.839H348.353V566.967H339.476ZM361.683 554.12V567.245H360.35V560.521H358.665V566.571H357.361V554.384H358.665V559.379H360.35V554.12H361.683ZM351.062 563.905V555.673H352.454V562.682C353.663 562.667 354.988 562.572 356.482 562.279L356.629 563.495C354.827 563.817 353.326 563.913 351.912 563.905H351.062Z" fill="#2D3033"/>
</g>
<g filter="url(#filter4_d_728_4038)">
<rect x="236" y="426" width="60" height="24" rx="8" fill="#CFBCE8" shape-rendering="crispEdges"/>
<path d="M252.523 437.844V438.972H240.556V437.844H245.844V436.335H247.221V437.844H252.523ZM241.186 435.91C243.786 435.698 245.587 434.746 245.756 433.479H241.757V432.365H245.844V431.105H247.221V432.365H251.322V433.479H247.309C247.462 434.746 249.271 435.698 251.879 435.91L251.454 436.979C249.184 436.767 247.345 436.005 246.532 434.782C245.712 436.005 243.881 436.767 241.625 436.979L241.186 435.91ZM241.977 442.033C241.977 440.612 243.661 439.836 246.532 439.836C249.389 439.836 251.051 440.612 251.059 442.033C251.051 443.454 249.389 444.223 246.532 444.216C243.661 444.223 241.977 443.454 241.977 442.033ZM243.383 442.033C243.375 442.78 244.503 443.176 246.532 443.161C248.532 443.176 249.667 442.78 249.667 442.033C249.667 441.286 248.532 440.876 246.532 440.876C244.503 440.876 243.375 441.286 243.383 442.033ZM261.356 432.453V433.566H253.534V432.453H256.757V431.062H258.148V432.453H261.356ZM254.252 436.54C254.245 435.104 255.548 434.167 257.445 434.152C259.335 434.167 260.624 435.104 260.624 436.54C260.624 437.983 259.335 438.928 257.445 438.928C255.548 438.928 254.245 437.983 254.252 436.54ZM255.16 441.125V439.997H263.832V444.245H262.44V441.125H255.16ZM255.6 436.54C255.585 437.353 256.332 437.844 257.445 437.844C258.559 437.844 259.306 437.353 259.32 436.54C259.306 435.734 258.559 435.229 257.445 435.222C256.332 435.229 255.585 435.734 255.6 436.54ZM262.44 439.323V431.12H263.832V434.68H265.736V435.837H263.832V439.323H262.44ZM270.497 433.64C270.497 435.075 271.413 436.525 273.119 437.17L272.387 438.239C271.164 437.771 270.307 436.877 269.838 435.8C269.354 437.016 268.461 438.071 267.187 438.62L266.425 437.536C268.197 436.767 269.149 435.097 269.149 433.64V431.94H270.497V433.64ZM268.842 441.843C268.827 440.349 270.534 439.462 273.28 439.455C276.02 439.462 277.741 440.349 277.748 441.843C277.741 443.337 276.02 444.223 273.28 444.216C270.534 444.223 268.827 443.337 268.842 441.843ZM270.219 441.843C270.204 442.678 271.369 443.161 273.28 443.146C275.185 443.161 276.349 442.678 276.356 441.843C276.349 441 275.185 440.517 273.28 440.524C271.369 440.517 270.204 441 270.219 441.843ZM273.529 438.796V431.369H274.818V434.548H276.356V431.135H277.675V439.206H276.356V435.69H274.818V438.796H273.529ZM290.302 431.12V444.245H288.91V431.12H290.302ZM279.521 440.671C280.604 440.664 281.835 440.656 283.124 440.627V439.309C281.593 439.104 280.597 438.203 280.604 436.921C280.597 435.441 281.886 434.467 283.783 434.46C285.702 434.467 287.013 435.441 287.021 436.921C287.013 438.188 286.024 439.082 284.501 439.301V440.576C285.717 440.517 286.947 440.429 288.104 440.275L288.207 441.315C285.292 441.799 282.113 441.835 279.711 441.828L279.521 440.671ZM279.799 433.801V432.688H283.124V431.149H284.516V432.688H287.812V433.801H279.799ZM281.923 436.921C281.908 437.756 282.685 438.276 283.783 438.269C284.918 438.276 285.688 437.756 285.688 436.921C285.688 436.079 284.918 435.544 283.783 435.544C282.685 435.544 281.908 436.079 281.923 436.921Z" fill="#2D3033"/>
</g>
<g filter="url(#filter5_d_728_4038)">
<rect x="127" y="508" width="77" height="24" rx="8" fill="white" shape-rendering="crispEdges"/>
<path d="M143.71 520.518V521.646H138.378V526.23H137.016V521.646H131.743V520.518H143.71ZM132.417 518.423C134.863 518.086 136.899 516.628 136.943 515.01H132.856V513.896H142.583V515.01H138.525C138.547 516.628 140.568 518.086 143.051 518.423L142.539 519.521C140.385 519.185 138.525 518.123 137.727 516.628C136.921 518.123 135.068 519.185 132.944 519.521L132.417 518.423ZM155.649 513.12V520.767H154.257V517.471H151.796V516.313H154.257V513.12H155.649ZM144.721 519.595C146.735 518.906 147.995 517.156 147.988 515.361V515.054H145.146V513.911H152.221V515.054H149.409V515.361C149.401 516.995 150.588 518.628 152.573 519.316L151.855 520.415C150.383 519.902 149.292 518.848 148.72 517.544C148.149 518.994 146.999 520.144 145.439 520.693L144.721 519.595ZM146.992 526.084V521.382H155.649V526.084H146.992ZM148.369 524.956H154.287V522.48H148.369V524.956ZM166.708 514.673V515.786H163.134V518.203H166.123V519.287H163.134V522.041C164.848 522.019 165.969 521.953 167.324 521.704L167.441 522.832C165.932 523.14 164.687 523.162 162.651 523.169H161.801V514.673H166.708ZM166.811 519.17V518.042H168.583V513.398H169.902V525.586H168.583V519.17H166.811ZM171.264 526.245V513.12H172.612V526.245H171.264ZM185.166 513.12V526.274H183.774V513.12H185.166ZM174.75 518.701C174.75 515.896 176.164 514.109 178.149 514.102C180.097 514.109 181.533 515.896 181.533 518.701C181.533 521.536 180.097 523.323 178.149 523.315C176.164 523.323 174.75 521.536 174.75 518.701ZM176.098 518.701C176.091 520.789 176.926 522.07 178.149 522.07C179.35 522.07 180.185 520.789 180.185 518.701C180.185 516.643 179.35 515.354 178.149 515.347C176.926 515.354 176.091 516.643 176.098 518.701ZM190.205 513.34V514.497H196.284V513.34H197.675V517.705H188.828V513.34H190.205ZM187.26 519.8V518.701H199.228V519.8H187.26ZM188.696 521.895V520.854H197.719V523.901H190.073V525.044H198.085V526.113H188.71V522.905H196.342V521.895H188.696ZM190.205 516.65H196.284V515.522H190.205V516.65Z" fill="#2D3033"/>
</g>
<g filter="url(#filter6_d_728_4038)">
<rect x="269" y="479" width="60" height="34" rx="8" fill="#BCDBE8" shape-rendering="crispEdges"/>
<path d="M296.832 482.12V485.211H298.736V486.368H296.832V489.532H295.44V482.12H296.832ZM286.461 488.609C289.603 487.782 291.449 486.134 291.705 484.083H287.076V482.94H293.214C293.207 486.302 290.929 488.668 287.018 489.723L286.461 488.609ZM288.424 495.069V490.089H296.832V495.069H288.424ZM289.815 493.956H295.455V491.246H289.815V493.956ZM304.054 485.987C304.046 488.06 305.416 490.375 307.408 491.319L306.617 492.403C305.145 491.7 303.973 490.221 303.38 488.507C302.779 490.375 301.549 491.993 300.055 492.74L299.234 491.642C301.227 490.682 302.669 488.207 302.677 485.987V484.596H299.718V483.438H306.91V484.596H304.054V485.987ZM308.316 495.245V482.12H309.708V487.32H311.817V488.492H309.708V495.245H308.316ZM277.071 498.102C279.034 498.109 280.433 499.896 280.44 502.701C280.433 505.536 279.034 507.323 277.071 507.315C275.108 507.323 273.709 505.536 273.717 502.701C273.709 499.896 275.108 498.109 277.071 498.102ZM275.05 502.701C275.042 504.789 275.877 506.07 277.071 506.07C278.287 506.07 279.107 504.789 279.107 502.701C279.107 500.643 278.287 499.354 277.071 499.347C275.877 499.354 275.042 500.643 275.05 502.701ZM282.389 510.245V497.12H283.78V502.262H285.89V503.434H283.78V510.245H282.389ZM290.24 497.56C292.218 497.574 293.675 498.783 293.683 500.504C293.675 502.232 292.218 503.434 290.24 503.434C288.241 503.434 286.791 502.232 286.783 500.504C286.791 498.783 288.241 497.574 290.24 497.56ZM288.146 500.504C288.138 501.588 289.032 502.306 290.24 502.306C291.441 502.306 292.335 501.588 292.335 500.504C292.335 499.435 291.441 498.717 290.24 498.731C289.032 498.717 288.138 499.435 288.146 500.504ZM288.775 505.514V504.4H297.403V507.711H290.167V508.971H297.843V510.084H288.819V506.671H296.026V505.514H288.775ZM296.012 503.8V497.12H297.403V503.8H296.012ZM310.675 497.135V506.891H309.356V502.13H307.745V506.539H306.441V497.369H307.745V500.987H309.356V497.135H310.675ZM300.04 499.347V498.233H305.021V502.086H301.417V503.858C303.043 503.851 304.281 503.771 305.724 503.492L305.87 504.605C304.215 504.913 302.853 504.979 300.934 504.972H300.069V501.031H303.688V499.347H300.04ZM301.974 509.967V505.982H303.351V508.839H311.056V509.967H301.974ZM323.082 503.346V504.488H313.941V498.292H322.965V499.435H315.318V503.346H323.082ZM312.447 508.517V507.359H324.459V508.517H312.447Z" fill="#2D3033"/>
</g>
</g>
<g filter="url(#filter7_d_728_4038)">
<rect x="19" y="581" width="36" height="58" rx="8" fill="white" shape-rendering="crispEdges"/>
<path d="M39.5195 591.859V606H36.5703V594.652H36.4922L33.25 596.684V594.086L36.7461 591.859H39.5195Z" fill="#8A61BF"/>
<g clip-path="url(#clip1_728_4038)">
<path d="M47.7937 622.7L47.4891 622.045H40.8604V627.654H41.681C41.677 627.596 41.6636 627.541 41.6636 627.482C41.6636 626.065 42.812 624.917 44.2286 624.917C45.6452 624.917 46.7936 626.065 46.7936 627.482C46.7936 627.541 46.7802 627.596 46.7762 627.654H47.0618C47.5826 627.654 48.0048 627.232 48.0048 626.711V623.655C48.0048 623.325 47.9328 622.999 47.7937 622.7Z" fill="#CBCFD2"/>
<path d="M40.8603 616.429V614.489C40.8603 613.969 40.4381 613.546 39.9173 613.546H26.9381C26.4173 613.546 25.9951 613.969 25.9951 614.489V626.711C25.9951 627.232 26.4173 627.654 26.9381 627.654H27.9607C27.9568 627.596 27.9433 627.541 27.9433 627.481C27.9433 626.065 29.0917 624.917 30.5083 624.917C31.9249 624.917 33.0733 626.065 33.0733 627.481C33.0733 627.541 33.0599 627.596 33.0559 627.654H40.8603L40.8603 616.429Z" fill="#F1F1F1"/>
<path d="M40.8603 614.489V616.429L40.8603 622.044H25.9951V614.489C25.9951 613.969 26.4173 613.546 26.9381 613.546H39.9173C40.4381 613.546 40.8603 613.969 40.8603 614.489Z" fill="#F08C54"/>
<path d="M47.4891 622.045L45.3372 617.418C45.0567 616.815 44.4519 616.429 43.7867 616.429H40.8604V622.045H47.4891Z" fill="#85A6D0"/>
<path d="M30.5083 624.917C29.0917 624.917 27.9434 626.065 27.9434 627.481C27.9434 627.541 27.9568 627.596 27.9608 627.654C28.0511 628.989 29.1509 630.046 30.5083 630.046C31.8658 630.046 32.9656 628.989 33.056 627.654C33.0599 627.596 33.0733 627.541 33.0733 627.481C33.0733 626.065 31.9249 624.917 30.5083 624.917ZM30.5083 628.507C29.9417 628.507 29.4824 628.048 29.4824 627.481C29.4824 626.915 29.9417 626.455 30.5083 626.455C31.075 626.455 31.5343 626.915 31.5343 627.481C31.5343 628.048 31.075 628.507 30.5083 628.507Z" fill="#313D4C"/>
<path d="M44.2285 624.917C42.812 624.917 41.6636 626.065 41.6636 627.481C41.6636 627.541 41.677 627.596 41.681 627.654C41.7713 628.989 42.8711 630.046 44.2285 630.046C45.586 630.046 46.6858 628.989 46.7762 627.654C46.7801 627.596 46.7936 627.541 46.7936 627.481C46.7936 626.065 45.6452 624.917 44.2285 624.917ZM44.2285 628.507C43.6619 628.507 43.2026 628.048 43.2026 627.481C43.2026 626.915 43.6619 626.455 44.2285 626.455C44.7952 626.455 45.2546 626.915 45.2546 627.481C45.2546 628.048 44.7952 628.507 44.2285 628.507Z" fill="#313D4C"/>
<path d="M31.5344 627.482C31.5344 626.915 31.075 626.456 30.5084 626.456C29.9418 626.456 29.4824 626.915 29.4824 627.482C29.4824 628.048 29.9418 628.508 30.5084 628.508C31.075 628.508 31.5344 628.048 31.5344 627.482Z" fill="#6B7683"/>
<path d="M45.2546 627.482C45.2546 626.915 44.7953 626.456 44.2286 626.456C43.662 626.456 43.2026 626.915 43.2026 627.482C43.2026 628.048 43.662 628.508 44.2286 628.508C44.7953 628.508 45.2546 628.048 45.2546 627.482Z" fill="#6B7683"/>
</g>
</g>
<g filter="url(#filter8_d_728_4038)">
<rect x="19" y="519" width="36" height="58" rx="8" fill="white" shape-rendering="crispEdges"/>
<path d="M39.5195 529.859V544H36.5703V532.652H36.4922L33.25 534.684V532.086L36.7461 529.859H39.5195Z" fill="#8A61BF"/>
<g clip-path="url(#clip2_728_4038)">
<path d="M47.7937 560.7L47.4891 560.045H40.8604V565.654H41.681C41.677 565.596 41.6636 565.541 41.6636 565.482C41.6636 564.065 42.812 562.917 44.2286 562.917C45.6452 562.917 46.7936 564.065 46.7936 565.482C46.7936 565.541 46.7802 565.596 46.7762 565.654H47.0618C47.5826 565.654 48.0048 565.232 48.0048 564.711V561.655C48.0048 561.325 47.9328 560.999 47.7937 560.7Z" fill="#CBCFD2"/>
<path d="M40.8603 554.429V552.489C40.8603 551.969 40.4381 551.546 39.9173 551.546H26.9381C26.4173 551.546 25.9951 551.969 25.9951 552.489V564.711C25.9951 565.232 26.4173 565.654 26.9381 565.654H27.9607C27.9568 565.596 27.9433 565.541 27.9433 565.481C27.9433 564.065 29.0917 562.917 30.5083 562.917C31.9249 562.917 33.0733 564.065 33.0733 565.481C33.0733 565.541 33.0599 565.596 33.0559 565.654H40.8603L40.8603 554.429Z" fill="#F1F1F1"/>
<path d="M40.8603 552.489V554.429L40.8603 560.044H25.9951V552.489C25.9951 551.969 26.4173 551.546 26.9381 551.546H39.9173C40.4381 551.546 40.8603 551.969 40.8603 552.489Z" fill="#F08C54"/>
<path d="M47.4891 560.045L45.3372 555.418C45.0567 554.815 44.4519 554.429 43.7867 554.429H40.8604V560.045H47.4891Z" fill="#85A6D0"/>
<path d="M30.5083 562.917C29.0917 562.917 27.9434 564.065 27.9434 565.481C27.9434 565.541 27.9568 565.596 27.9608 565.654C28.0511 566.989 29.1509 568.046 30.5083 568.046C31.8658 568.046 32.9656 566.989 33.056 565.654C33.0599 565.596 33.0733 565.541 33.0733 565.481C33.0733 564.065 31.9249 562.917 30.5083 562.917ZM30.5083 566.507C29.9417 566.507 29.4824 566.048 29.4824 565.481C29.4824 564.915 29.9417 564.455 30.5083 564.455C31.075 564.455 31.5343 564.915 31.5343 565.481C31.5343 566.048 31.075 566.507 30.5083 566.507Z" fill="#313D4C"/>
<path d="M44.2285 562.917C42.812 562.917 41.6636 564.065 41.6636 565.481C41.6636 565.541 41.677 565.596 41.681 565.654C41.7713 566.989 42.8711 568.046 44.2285 568.046C45.586 568.046 46.6858 566.989 46.7762 565.654C46.7801 565.596 46.7936 565.541 46.7936 565.481C46.7936 564.065 45.6452 562.917 44.2285 562.917ZM44.2285 566.507C43.6619 566.507 43.2026 566.048 43.2026 565.481C43.2026 564.915 43.6619 564.455 44.2285 564.455C44.7952 564.455 45.2546 564.915 45.2546 565.481C45.2546 566.048 44.7952 566.507 44.2285 566.507Z" fill="#313D4C"/>
<path d="M31.5344 565.482C31.5344 564.915 31.075 564.456 30.5084 564.456C29.9418 564.456 29.4824 564.915 29.4824 565.482C29.4824 566.048 29.9418 566.508 30.5084 566.508C31.075 566.508 31.5344 566.048 31.5344 565.482Z" fill="#6B7683"/>
<path d="M45.2546 565.482C45.2546 564.915 44.7953 564.456 44.2286 564.456C43.662 564.456 43.2026 564.915 43.2026 565.482C43.2026 566.048 43.662 566.508 44.2286 566.508C44.7953 566.508 45.2546 566.048 45.2546 565.482Z" fill="#6B7683"/>
</g>
</g>
<g filter="url(#filter9_d_728_4038)">
<rect x="19" y="457" width="36" height="58" rx="8" fill="white" shape-rendering="crispEdges"/>
<path d="M39.5195 467.859V482H36.5703V470.652H36.4922L33.25 472.684V470.086L36.7461 467.859H39.5195Z" fill="#8A61BF"/>
<g clip-path="url(#clip3_728_4038)">
<path d="M47.7937 498.7L47.4891 498.045H40.8604V503.654H41.681C41.677 503.596 41.6636 503.541 41.6636 503.482C41.6636 502.065 42.812 500.917 44.2286 500.917C45.6452 500.917 46.7936 502.065 46.7936 503.482C46.7936 503.541 46.7802 503.596 46.7762 503.654H47.0618C47.5826 503.654 48.0048 503.232 48.0048 502.711V499.655C48.0048 499.325 47.9328 498.999 47.7937 498.7Z" fill="#CBCFD2"/>
<path d="M40.8603 492.429V490.489C40.8603 489.969 40.4381 489.546 39.9173 489.546H26.9381C26.4173 489.546 25.9951 489.969 25.9951 490.489V502.711C25.9951 503.232 26.4173 503.654 26.9381 503.654H27.9607C27.9568 503.596 27.9433 503.541 27.9433 503.481C27.9433 502.065 29.0917 500.917 30.5083 500.917C31.9249 500.917 33.0733 502.065 33.0733 503.481C33.0733 503.541 33.0599 503.596 33.0559 503.654H40.8603L40.8603 492.429Z" fill="#F1F1F1"/>
<path d="M40.8603 490.489V492.429L40.8603 498.044H25.9951V490.489C25.9951 489.969 26.4173 489.546 26.9381 489.546H39.9173C40.4381 489.546 40.8603 489.969 40.8603 490.489Z" fill="#F08C54"/>
<path d="M47.4891 498.045L45.3372 493.418C45.0567 492.815 44.4519 492.429 43.7867 492.429H40.8604V498.045H47.4891Z" fill="#85A6D0"/>
<path d="M30.5083 500.917C29.0917 500.917 27.9434 502.065 27.9434 503.481C27.9434 503.541 27.9568 503.596 27.9608 503.654C28.0511 504.989 29.1509 506.046 30.5083 506.046C31.8658 506.046 32.9656 504.989 33.056 503.654C33.0599 503.596 33.0733 503.541 33.0733 503.481C33.0733 502.065 31.9249 500.917 30.5083 500.917ZM30.5083 504.507C29.9417 504.507 29.4824 504.048 29.4824 503.481C29.4824 502.915 29.9417 502.455 30.5083 502.455C31.075 502.455 31.5343 502.915 31.5343 503.481C31.5343 504.048 31.075 504.507 30.5083 504.507Z" fill="#313D4C"/>
<path d="M44.2285 500.917C42.812 500.917 41.6636 502.065 41.6636 503.481C41.6636 503.541 41.677 503.596 41.681 503.654C41.7713 504.989 42.8711 506.046 44.2285 506.046C45.586 506.046 46.6858 504.989 46.7762 503.654C46.7801 503.596 46.7936 503.541 46.7936 503.481C46.7936 502.065 45.6452 500.917 44.2285 500.917ZM44.2285 504.507C43.6619 504.507 43.2026 504.048 43.2026 503.481C43.2026 502.915 43.6619 502.455 44.2285 502.455C44.7952 502.455 45.2546 502.915 45.2546 503.481C45.2546 504.048 44.7952 504.507 44.2285 504.507Z" fill="#313D4C"/>
<path d="M31.5344 503.482C31.5344 502.915 31.075 502.456 30.5084 502.456C29.9418 502.456 29.4824 502.915 29.4824 503.482C29.4824 504.048 29.9418 504.508 30.5084 504.508C31.075 504.508 31.5344 504.048 31.5344 503.482Z" fill="#6B7683"/>
<path d="M45.2546 503.482C45.2546 502.915 44.7953 502.456 44.2286 502.456C43.662 502.456 43.2026 502.915 43.2026 503.482C43.2026 504.048 43.662 504.508 44.2286 504.508C44.7953 504.508 45.2546 504.048 45.2546 503.482Z" fill="#6B7683"/>
</g>
</g>
<g filter="url(#filter10_d_728_4038)">
<rect x="19" y="395" width="36" height="58" rx="8" fill="white" shape-rendering="crispEdges"/>
<path d="M39.5195 405.859V420H36.5703V408.652H36.4922L33.25 410.684V408.086L36.7461 405.859H39.5195Z" fill="#8A61BF"/>
<g clip-path="url(#clip4_728_4038)">
<path d="M47.7937 436.7L47.4891 436.045H40.8604V441.654H41.681C41.677 441.596 41.6636 441.541 41.6636 441.482C41.6636 440.065 42.812 438.917 44.2286 438.917C45.6452 438.917 46.7936 440.065 46.7936 441.482C46.7936 441.541 46.7802 441.596 46.7762 441.654H47.0618C47.5826 441.654 48.0048 441.232 48.0048 440.711V437.655C48.0048 437.325 47.9328 436.999 47.7937 436.7Z" fill="#CBCFD2"/>
<path d="M40.8603 430.429V428.49C40.8603 427.969 40.4381 427.547 39.9173 427.547H26.9381C26.4173 427.547 25.9951 427.969 25.9951 428.49V440.711C25.9951 441.232 26.4173 441.654 26.9381 441.654H27.9607C27.9568 441.596 27.9433 441.541 27.9433 441.482C27.9433 440.065 29.0917 438.917 30.5083 438.917C31.9249 438.917 33.0733 440.065 33.0733 441.482C33.0733 441.541 33.0599 441.596 33.0559 441.654H40.8603L40.8603 430.429Z" fill="#F1F1F1"/>
<path d="M40.8603 428.49V430.429L40.8603 436.044H25.9951V428.49C25.9951 427.969 26.4173 427.547 26.9381 427.547H39.9173C40.4381 427.547 40.8603 427.969 40.8603 428.49Z" fill="#F08C54"/>
<path d="M47.4891 436.045L45.3372 431.418C45.0567 430.815 44.4519 430.429 43.7867 430.429H40.8604V436.045H47.4891Z" fill="#85A6D0"/>
<path d="M30.5083 438.917C29.0917 438.917 27.9434 440.065 27.9434 441.482C27.9434 441.541 27.9568 441.596 27.9608 441.654C28.0511 442.989 29.1509 444.047 30.5083 444.047C31.8658 444.047 32.9656 442.989 33.056 441.654C33.0599 441.596 33.0733 441.541 33.0733 441.482C33.0733 440.065 31.9249 438.917 30.5083 438.917ZM30.5083 442.508C29.9417 442.508 29.4824 442.048 29.4824 441.482C29.4824 440.915 29.9417 440.456 30.5083 440.456C31.075 440.456 31.5343 440.915 31.5343 441.482C31.5343 442.048 31.075 442.508 30.5083 442.508Z" fill="#313D4C"/>
<path d="M44.2285 438.917C42.812 438.917 41.6636 440.065 41.6636 441.482C41.6636 441.541 41.677 441.596 41.681 441.654C41.7713 442.989 42.8711 444.047 44.2285 444.047C45.586 444.047 46.6858 442.989 46.7762 441.654C46.7801 441.596 46.7936 441.541 46.7936 441.482C46.7936 440.065 45.6452 438.917 44.2285 438.917ZM44.2285 442.508C43.6619 442.508 43.2026 442.048 43.2026 441.482C43.2026 440.915 43.6619 440.456 44.2285 440.456C44.7952 440.456 45.2546 440.915 45.2546 441.482C45.2546 442.048 44.7952 442.508 44.2285 442.508Z" fill="#313D4C"/>
<path d="M31.5344 441.482C31.5344 440.915 31.075 440.456 30.5084 440.456C29.9418 440.456 29.4824 440.915 29.4824 441.482C29.4824 442.048 29.9418 442.508 30.5084 442.508C31.075 442.508 31.5344 442.048 31.5344 441.482Z" fill="#6B7683"/>
<path d="M45.2546 441.482C45.2546 440.915 44.7953 440.456 44.2286 440.456C43.662 440.456 43.2026 440.915 43.2026 441.482C43.2026 442.048 43.662 442.508 44.2286 442.508C44.7953 442.508 45.2546 442.048 45.2546 441.482Z" fill="#6B7683"/>
</g>
</g>
<g filter="url(#filter11_d_728_4038)">
<rect x="19" y="333" width="36" height="58" rx="8" fill="white" shape-rendering="crispEdges"/>
<path d="M39.5195 343.859V358H36.5703V346.652H36.4922L33.25 348.684V346.086L36.7461 343.859H39.5195Z" fill="#8A61BF"/>
<g clip-path="url(#clip5_728_4038)">
<path d="M47.7937 374.7L47.4891 374.045H40.8604V379.654H41.681C41.677 379.596 41.6636 379.541 41.6636 379.482C41.6636 378.065 42.812 376.917 44.2286 376.917C45.6452 376.917 46.7936 378.065 46.7936 379.482C46.7936 379.541 46.7802 379.596 46.7762 379.654H47.0618C47.5826 379.654 48.0048 379.232 48.0048 378.711V375.655C48.0048 375.325 47.9328 374.999 47.7937 374.7Z" fill="#CBCFD2"/>
<path d="M40.8603 368.429V366.49C40.8603 365.969 40.4381 365.547 39.9173 365.547H26.9381C26.4173 365.547 25.9951 365.969 25.9951 366.49V378.711C25.9951 379.232 26.4173 379.654 26.9381 379.654H27.9607C27.9568 379.596 27.9433 379.541 27.9433 379.482C27.9433 378.065 29.0917 376.917 30.5083 376.917C31.9249 376.917 33.0733 378.065 33.0733 379.482C33.0733 379.541 33.0599 379.596 33.0559 379.654H40.8603L40.8603 368.429Z" fill="#F1F1F1"/>
<path d="M40.8603 366.49V368.429L40.8603 374.044H25.9951V366.49C25.9951 365.969 26.4173 365.547 26.9381 365.547H39.9173C40.4381 365.547 40.8603 365.969 40.8603 366.49Z" fill="#F08C54"/>
<path d="M47.4891 374.045L45.3372 369.418C45.0567 368.815 44.4519 368.429 43.7867 368.429H40.8604V374.045H47.4891Z" fill="#85A6D0"/>
<path d="M30.5083 376.917C29.0917 376.917 27.9434 378.065 27.9434 379.482C27.9434 379.541 27.9568 379.596 27.9608 379.654C28.0511 380.989 29.1509 382.047 30.5083 382.047C31.8658 382.047 32.9656 380.989 33.056 379.654C33.0599 379.596 33.0733 379.541 33.0733 379.482C33.0733 378.065 31.9249 376.917 30.5083 376.917ZM30.5083 380.508C29.9417 380.508 29.4824 380.048 29.4824 379.482C29.4824 378.915 29.9417 378.456 30.5083 378.456C31.075 378.456 31.5343 378.915 31.5343 379.482C31.5343 380.048 31.075 380.508 30.5083 380.508Z" fill="#313D4C"/>
<path d="M44.2285 376.917C42.812 376.917 41.6636 378.065 41.6636 379.482C41.6636 379.541 41.677 379.596 41.681 379.654C41.7713 380.989 42.8711 382.047 44.2285 382.047C45.586 382.047 46.6858 380.989 46.7762 379.654C46.7801 379.596 46.7936 379.541 46.7936 379.482C46.7936 378.065 45.6452 376.917 44.2285 376.917ZM44.2285 380.508C43.6619 380.508 43.2026 380.048 43.2026 379.482C43.2026 378.915 43.6619 378.456 44.2285 378.456C44.7952 378.456 45.2546 378.915 45.2546 379.482C45.2546 380.048 44.7952 380.508 44.2285 380.508Z" fill="#313D4C"/>
<path d="M31.5344 379.482C31.5344 378.915 31.075 378.456 30.5084 378.456C29.9418 378.456 29.4824 378.915 29.4824 379.482C29.4824 380.048 29.9418 380.508 30.5084 380.508C31.075 380.508 31.5344 380.048 31.5344 379.482Z" fill="#6B7683"/>
<path d="M45.2546 379.482C45.2546 378.915 44.7953 378.456 44.2286 378.456C43.662 378.456 43.2026 378.915 43.2026 379.482C43.2026 380.048 43.662 380.508 44.2286 380.508C44.7953 380.508 45.2546 380.048 45.2546 379.482Z" fill="#6B7683"/>
</g>
</g>
<g filter="url(#filter12_d_728_4038)">
<rect x="19" y="271" width="36" height="58" rx="8" fill="white" shape-rendering="crispEdges"/>
<path d="M39.5195 281.859V296H36.5703V284.652H36.4922L33.25 286.684V284.086L36.7461 281.859H39.5195Z" fill="#8A61BF"/>
<g clip-path="url(#clip6_728_4038)">
<path d="M47.7937 312.7L47.4891 312.045H40.8604V317.654H41.681C41.677 317.596 41.6636 317.541 41.6636 317.482C41.6636 316.065 42.812 314.917 44.2286 314.917C45.6452 314.917 46.7936 316.065 46.7936 317.482C46.7936 317.541 46.7802 317.596 46.7762 317.654H47.0618C47.5826 317.654 48.0048 317.232 48.0048 316.711V313.655C48.0048 313.325 47.9328 312.999 47.7937 312.7Z" fill="#CBCFD2"/>
<path d="M40.8603 306.429V304.49C40.8603 303.969 40.4381 303.547 39.9173 303.547H26.9381C26.4173 303.547 25.9951 303.969 25.9951 304.49V316.711C25.9951 317.232 26.4173 317.654 26.9381 317.654H27.9607C27.9568 317.596 27.9433 317.541 27.9433 317.482C27.9433 316.065 29.0917 314.917 30.5083 314.917C31.9249 314.917 33.0733 316.065 33.0733 317.482C33.0733 317.541 33.0599 317.596 33.0559 317.654H40.8603L40.8603 306.429Z" fill="#F1F1F1"/>
<path d="M40.8603 304.49V306.429L40.8603 312.044H25.9951V304.49C25.9951 303.969 26.4173 303.547 26.9381 303.547H39.9173C40.4381 303.547 40.8603 303.969 40.8603 304.49Z" fill="#F08C54"/>
<path d="M47.4891 312.045L45.3372 307.418C45.0567 306.815 44.4519 306.429 43.7867 306.429H40.8604V312.045H47.4891Z" fill="#85A6D0"/>
<path d="M30.5083 314.917C29.0917 314.917 27.9434 316.065 27.9434 317.482C27.9434 317.541 27.9568 317.596 27.9608 317.654C28.0511 318.989 29.1509 320.047 30.5083 320.047C31.8658 320.047 32.9656 318.989 33.056 317.654C33.0599 317.596 33.0733 317.541 33.0733 317.482C33.0733 316.065 31.9249 314.917 30.5083 314.917ZM30.5083 318.508C29.9417 318.508 29.4824 318.048 29.4824 317.482C29.4824 316.915 29.9417 316.456 30.5083 316.456C31.075 316.456 31.5343 316.915 31.5343 317.482C31.5343 318.048 31.075 318.508 30.5083 318.508Z" fill="#313D4C"/>
<path d="M44.2285 314.917C42.812 314.917 41.6636 316.065 41.6636 317.482C41.6636 317.541 41.677 317.596 41.681 317.654C41.7713 318.989 42.8711 320.047 44.2285 320.047C45.586 320.047 46.6858 318.989 46.7762 317.654C46.7801 317.596 46.7936 317.541 46.7936 317.482C46.7936 316.065 45.6452 314.917 44.2285 314.917ZM44.2285 318.508C43.6619 318.508 43.2026 318.048 43.2026 317.482C43.2026 316.915 43.6619 316.456 44.2285 316.456C44.7952 316.456 45.2546 316.915 45.2546 317.482C45.2546 318.048 44.7952 318.508 44.2285 318.508Z" fill="#313D4C"/>
<path d="M31.5344 317.482C31.5344 316.915 31.075 316.456 30.5084 316.456C29.9418 316.456 29.4824 316.915 29.4824 317.482C29.4824 318.048 29.9418 318.508 30.5084 318.508C31.075 318.508 31.5344 318.048 31.5344 317.482Z" fill="#6B7683"/>
<path d="M45.2546 317.482C45.2546 316.915 44.7953 316.456 44.2286 316.456C43.662 316.456 43.2026 316.915 43.2026 317.482C43.2026 318.048 43.662 318.508 44.2286 318.508C44.7953 318.508 45.2546 318.048 45.2546 317.482Z" fill="#6B7683"/>
</g>
</g>
<g filter="url(#filter13_d_728_4038)">
<rect x="59" y="248" width="36" height="58" rx="8" fill="white" shape-rendering="crispEdges"/>
<path d="M79.5195 258.859V273H76.5703V261.652H76.4922L73.25 263.684V261.086L76.7461 258.859H79.5195Z" fill="#8A61BF"/>
<g clip-path="url(#clip7_728_4038)">
<path d="M87.7937 289.7L87.4891 289.045H80.8604V294.654H81.681C81.677 294.596 81.6636 294.541 81.6636 294.482C81.6636 293.065 82.812 291.917 84.2286 291.917C85.6452 291.917 86.7936 293.065 86.7936 294.482C86.7936 294.541 86.7802 294.596 86.7762 294.654H87.0618C87.5826 294.654 88.0048 294.232 88.0048 293.711V290.655C88.0048 290.325 87.9328 289.999 87.7937 289.7Z" fill="#CBCFD2"/>
<path d="M80.8603 283.429V281.49C80.8603 280.969 80.4381 280.547 79.9173 280.547H66.9381C66.4173 280.547 65.9951 280.969 65.9951 281.49V293.711C65.9951 294.232 66.4173 294.654 66.9381 294.654H67.9607C67.9568 294.596 67.9433 294.541 67.9433 294.482C67.9433 293.065 69.0917 291.917 70.5083 291.917C71.9249 291.917 73.0733 293.065 73.0733 294.482C73.0733 294.541 73.0599 294.596 73.0559 294.654H80.8603L80.8603 283.429Z" fill="#F1F1F1"/>
<path d="M80.8603 281.49V283.429L80.8603 289.044H65.9951V281.49C65.9951 280.969 66.4173 280.547 66.9381 280.547H79.9173C80.4381 280.547 80.8603 280.969 80.8603 281.49Z" fill="#F08C54"/>
<path d="M87.4891 289.045L85.3372 284.418C85.0567 283.815 84.4519 283.429 83.7867 283.429H80.8604V289.045H87.4891Z" fill="#85A6D0"/>
<path d="M70.5083 291.917C69.0917 291.917 67.9434 293.065 67.9434 294.482C67.9434 294.541 67.9568 294.596 67.9608 294.654C68.0511 295.989 69.1509 297.047 70.5083 297.047C71.8658 297.047 72.9656 295.989 73.056 294.654C73.0599 294.596 73.0733 294.541 73.0733 294.482C73.0733 293.065 71.9249 291.917 70.5083 291.917ZM70.5083 295.508C69.9417 295.508 69.4824 295.048 69.4824 294.482C69.4824 293.915 69.9417 293.456 70.5083 293.456C71.075 293.456 71.5343 293.915 71.5343 294.482C71.5343 295.048 71.075 295.508 70.5083 295.508Z" fill="#313D4C"/>
<path d="M84.2285 291.917C82.812 291.917 81.6636 293.065 81.6636 294.482C81.6636 294.541 81.677 294.596 81.681 294.654C81.7713 295.989 82.8711 297.047 84.2285 297.047C85.586 297.047 86.6858 295.989 86.7762 294.654C86.7801 294.596 86.7936 294.541 86.7936 294.482C86.7936 293.065 85.6452 291.917 84.2285 291.917ZM84.2285 295.508C83.6619 295.508 83.2026 295.048 83.2026 294.482C83.2026 293.915 83.6619 293.456 84.2285 293.456C84.7952 293.456 85.2546 293.915 85.2546 294.482C85.2546 295.048 84.7952 295.508 84.2285 295.508Z" fill="#313D4C"/>
<path d="M71.5344 294.482C71.5344 293.915 71.075 293.456 70.5084 293.456C69.9418 293.456 69.4824 293.915 69.4824 294.482C69.4824 295.048 69.9418 295.508 70.5084 295.508C71.075 295.508 71.5344 295.048 71.5344 294.482Z" fill="#6B7683"/>
<path d="M85.2546 294.482C85.2546 293.915 84.7953 293.456 84.2286 293.456C83.662 293.456 83.2026 293.915 83.2026 294.482C83.2026 295.048 83.662 295.508 84.2286 295.508C84.7953 295.508 85.2546 295.048 85.2546 294.482Z" fill="#6B7683"/>
</g>
</g>
<g filter="url(#filter14_d_728_4038)">
<rect x="99" y="225" width="36" height="58" rx="8" fill="white" shape-rendering="crispEdges"/>
<path d="M119.52 235.859V250H116.57V238.652H116.492L113.25 240.684V238.086L116.746 235.859H119.52Z" fill="#8A61BF"/>
<g clip-path="url(#clip8_728_4038)">
<path d="M127.794 266.7L127.489 266.045H120.86V271.654H121.681C121.677 271.596 121.664 271.541 121.664 271.482C121.664 270.065 122.812 268.917 124.229 268.917C125.645 268.917 126.794 270.065 126.794 271.482C126.794 271.541 126.78 271.596 126.776 271.654H127.062C127.583 271.654 128.005 271.232 128.005 270.711V267.655C128.005 267.325 127.933 266.999 127.794 266.7Z" fill="#CBCFD2"/>
<path d="M120.86 260.429V258.49C120.86 257.969 120.438 257.547 119.917 257.547H106.938C106.417 257.547 105.995 257.969 105.995 258.49V270.711C105.995 271.232 106.417 271.654 106.938 271.654H107.961C107.957 271.596 107.943 271.541 107.943 271.482C107.943 270.065 109.092 268.917 110.508 268.917C111.925 268.917 113.073 270.065 113.073 271.482C113.073 271.541 113.06 271.596 113.056 271.654H120.86L120.86 260.429Z" fill="#F1F1F1"/>
<path d="M120.86 258.49V260.429L120.86 266.044H105.995V258.49C105.995 257.969 106.417 257.547 106.938 257.547H119.917C120.438 257.547 120.86 257.969 120.86 258.49Z" fill="#F08C54"/>
<path d="M127.489 266.045L125.337 261.418C125.057 260.815 124.452 260.429 123.787 260.429H120.86V266.045H127.489Z" fill="#85A6D0"/>
<path d="M110.508 268.917C109.092 268.917 107.943 270.065 107.943 271.482C107.943 271.541 107.957 271.596 107.961 271.654C108.051 272.989 109.151 274.047 110.508 274.047C111.866 274.047 112.966 272.989 113.056 271.654C113.06 271.596 113.073 271.541 113.073 271.482C113.073 270.065 111.925 268.917 110.508 268.917ZM110.508 272.508C109.942 272.508 109.482 272.048 109.482 271.482C109.482 270.915 109.942 270.456 110.508 270.456C111.075 270.456 111.534 270.915 111.534 271.482C111.534 272.048 111.075 272.508 110.508 272.508Z" fill="#313D4C"/>
<path d="M124.229 268.917C122.812 268.917 121.664 270.065 121.664 271.482C121.664 271.541 121.677 271.596 121.681 271.654C121.771 272.989 122.871 274.047 124.229 274.047C125.586 274.047 126.686 272.989 126.776 271.654C126.78 271.596 126.794 271.541 126.794 271.482C126.794 270.065 125.645 268.917 124.229 268.917ZM124.229 272.508C123.662 272.508 123.203 272.048 123.203 271.482C123.203 270.915 123.662 270.456 124.229 270.456C124.795 270.456 125.255 270.915 125.255 271.482C125.255 272.048 124.795 272.508 124.229 272.508Z" fill="#313D4C"/>
<path d="M111.534 271.482C111.534 270.915 111.075 270.456 110.508 270.456C109.942 270.456 109.482 270.915 109.482 271.482C109.482 272.048 109.942 272.508 110.508 272.508C111.075 272.508 111.534 272.048 111.534 271.482Z" fill="#6B7683"/>
<path d="M125.255 271.482C125.255 270.915 124.795 270.456 124.229 270.456C123.662 270.456 123.203 270.915 123.203 271.482C123.203 272.048 123.662 272.508 124.229 272.508C124.795 272.508 125.255 272.048 125.255 271.482Z" fill="#6B7683"/>
</g>
</g>
<g filter="url(#filter15_d_728_4038)">
<rect x="139" y="202" width="36" height="58" rx="8" fill="white" shape-rendering="crispEdges"/>
<path d="M159.52 212.859V227H156.57V215.652H156.492L153.25 217.684V215.086L156.746 212.859H159.52Z" fill="#8A61BF"/>
<g clip-path="url(#clip9_728_4038)">
<path d="M167.794 243.7L167.489 243.045H160.86V248.654H161.681C161.677 248.596 161.664 248.541 161.664 248.482C161.664 247.065 162.812 245.917 164.229 245.917C165.645 245.917 166.794 247.065 166.794 248.482C166.794 248.541 166.78 248.596 166.776 248.654H167.062C167.583 248.654 168.005 248.232 168.005 247.711V244.655C168.005 244.325 167.933 243.999 167.794 243.7Z" fill="#CBCFD2"/>
<path d="M160.86 237.429V235.49C160.86 234.969 160.438 234.547 159.917 234.547H146.938C146.417 234.547 145.995 234.969 145.995 235.49V247.711C145.995 248.232 146.417 248.654 146.938 248.654H147.961C147.957 248.596 147.943 248.541 147.943 248.482C147.943 247.065 149.092 245.917 150.508 245.917C151.925 245.917 153.073 247.065 153.073 248.482C153.073 248.541 153.06 248.596 153.056 248.654H160.86L160.86 237.429Z" fill="#F1F1F1"/>
<path d="M160.86 235.49V237.429L160.86 243.044H145.995V235.49C145.995 234.969 146.417 234.547 146.938 234.547H159.917C160.438 234.547 160.86 234.969 160.86 235.49Z" fill="#F08C54"/>
<path d="M167.489 243.045L165.337 238.418C165.057 237.815 164.452 237.429 163.787 237.429H160.86V243.045H167.489Z" fill="#85A6D0"/>
<path d="M150.508 245.917C149.092 245.917 147.943 247.065 147.943 248.482C147.943 248.541 147.957 248.596 147.961 248.654C148.051 249.989 149.151 251.047 150.508 251.047C151.866 251.047 152.966 249.989 153.056 248.654C153.06 248.596 153.073 248.541 153.073 248.482C153.073 247.065 151.925 245.917 150.508 245.917ZM150.508 249.508C149.942 249.508 149.482 249.048 149.482 248.482C149.482 247.915 149.942 247.456 150.508 247.456C151.075 247.456 151.534 247.915 151.534 248.482C151.534 249.048 151.075 249.508 150.508 249.508Z" fill="#313D4C"/>
<path d="M164.229 245.917C162.812 245.917 161.664 247.065 161.664 248.482C161.664 248.541 161.677 248.596 161.681 248.654C161.771 249.989 162.871 251.047 164.229 251.047C165.586 251.047 166.686 249.989 166.776 248.654C166.78 248.596 166.794 248.541 166.794 248.482C166.794 247.065 165.645 245.917 164.229 245.917ZM164.229 249.508C163.662 249.508 163.203 249.048 163.203 248.482C163.203 247.915 163.662 247.456 164.229 247.456C164.795 247.456 165.255 247.915 165.255 248.482C165.255 249.048 164.795 249.508 164.229 249.508Z" fill="#313D4C"/>
<path d="M151.534 248.482C151.534 247.915 151.075 247.456 150.508 247.456C149.942 247.456 149.482 247.915 149.482 248.482C149.482 249.048 149.942 249.508 150.508 249.508C151.075 249.508 151.534 249.048 151.534 248.482Z" fill="#6B7683"/>
<path d="M165.255 248.482C165.255 247.915 164.795 247.456 164.229 247.456C163.662 247.456 163.203 247.915 163.203 248.482C163.203 249.048 163.662 249.508 164.229 249.508C164.795 249.508 165.255 249.048 165.255 248.482Z" fill="#6B7683"/>
</g>
</g>
<g filter="url(#filter16_d_728_4038)">
<rect x="179" y="179" width="36" height="58" rx="8" fill="white" shape-rendering="crispEdges"/>
<path d="M199.52 189.859V204H196.57V192.652H196.492L193.25 194.684V192.086L196.746 189.859H199.52Z" fill="#8A61BF"/>
<g clip-path="url(#clip10_728_4038)">
<path d="M207.794 220.7L207.489 220.045H200.86V225.654H201.681C201.677 225.596 201.664 225.541 201.664 225.482C201.664 224.065 202.812 222.917 204.229 222.917C205.645 222.917 206.794 224.065 206.794 225.482C206.794 225.541 206.78 225.596 206.776 225.654H207.062C207.583 225.654 208.005 225.232 208.005 224.711V221.655C208.005 221.325 207.933 220.999 207.794 220.7Z" fill="#CBCFD2"/>
<path d="M200.86 214.429V212.49C200.86 211.969 200.438 211.547 199.917 211.547H186.938C186.417 211.547 185.995 211.969 185.995 212.49V224.711C185.995 225.232 186.417 225.654 186.938 225.654H187.961C187.957 225.596 187.943 225.541 187.943 225.482C187.943 224.065 189.092 222.917 190.508 222.917C191.925 222.917 193.073 224.065 193.073 225.482C193.073 225.541 193.06 225.596 193.056 225.654H200.86L200.86 214.429Z" fill="#F1F1F1"/>
<path d="M200.86 212.49V214.429L200.86 220.044H185.995V212.49C185.995 211.969 186.417 211.547 186.938 211.547H199.917C200.438 211.547 200.86 211.969 200.86 212.49Z" fill="#F08C54"/>
<path d="M207.489 220.045L205.337 215.418C205.057 214.815 204.452 214.429 203.787 214.429H200.86V220.045H207.489Z" fill="#85A6D0"/>
<path d="M190.508 222.917C189.092 222.917 187.943 224.065 187.943 225.482C187.943 225.541 187.957 225.596 187.961 225.654C188.051 226.989 189.151 228.047 190.508 228.047C191.866 228.047 192.966 226.989 193.056 225.654C193.06 225.596 193.073 225.541 193.073 225.482C193.073 224.065 191.925 222.917 190.508 222.917ZM190.508 226.508C189.942 226.508 189.482 226.048 189.482 225.482C189.482 224.915 189.942 224.456 190.508 224.456C191.075 224.456 191.534 224.915 191.534 225.482C191.534 226.048 191.075 226.508 190.508 226.508Z" fill="#313D4C"/>
<path d="M204.229 222.917C202.812 222.917 201.664 224.065 201.664 225.482C201.664 225.541 201.677 225.596 201.681 225.654C201.771 226.989 202.871 228.047 204.229 228.047C205.586 228.047 206.686 226.989 206.776 225.654C206.78 225.596 206.794 225.541 206.794 225.482C206.794 224.065 205.645 222.917 204.229 222.917ZM204.229 226.508C203.662 226.508 203.203 226.048 203.203 225.482C203.203 224.915 203.662 224.456 204.229 224.456C204.795 224.456 205.255 224.915 205.255 225.482C205.255 226.048 204.795 226.508 204.229 226.508Z" fill="#313D4C"/>
<path d="M191.534 225.482C191.534 224.915 191.075 224.456 190.508 224.456C189.942 224.456 189.482 224.915 189.482 225.482C189.482 226.048 189.942 226.508 190.508 226.508C191.075 226.508 191.534 226.048 191.534 225.482Z" fill="#6B7683"/>
<path d="M205.255 225.482C205.255 224.915 204.795 224.456 204.229 224.456C203.662 224.456 203.203 224.915 203.203 225.482C203.203 226.048 203.662 226.508 204.229 226.508C204.795 226.508 205.255 226.048 205.255 225.482Z" fill="#6B7683"/>
</g>
</g>
<g filter="url(#filter17_d_728_4038)">
<rect x="219" y="156" width="36" height="58" rx="8" fill="white" shape-rendering="crispEdges"/>
<path d="M239.52 166.859V181H236.57V169.652H236.492L233.25 171.684V169.086L236.746 166.859H239.52Z" fill="#8A61BF"/>
<g clip-path="url(#clip11_728_4038)">
<path d="M247.794 197.7L247.489 197.045H240.86V202.654H241.681C241.677 202.596 241.664 202.541 241.664 202.482C241.664 201.065 242.812 199.917 244.229 199.917C245.645 199.917 246.794 201.065 246.794 202.482C246.794 202.541 246.78 202.596 246.776 202.654H247.062C247.583 202.654 248.005 202.232 248.005 201.711V198.655C248.005 198.325 247.933 197.999 247.794 197.7Z" fill="#CBCFD2"/>
<path d="M240.86 191.429V189.49C240.86 188.969 240.438 188.547 239.917 188.547H226.938C226.417 188.547 225.995 188.969 225.995 189.49V201.711C225.995 202.232 226.417 202.654 226.938 202.654H227.961C227.957 202.596 227.943 202.541 227.943 202.482C227.943 201.065 229.092 199.917 230.508 199.917C231.925 199.917 233.073 201.065 233.073 202.482C233.073 202.541 233.06 202.596 233.056 202.654H240.86L240.86 191.429Z" fill="#F1F1F1"/>
<path d="M240.86 189.49V191.429L240.86 197.044H225.995V189.49C225.995 188.969 226.417 188.547 226.938 188.547H239.917C240.438 188.547 240.86 188.969 240.86 189.49Z" fill="#F08C54"/>
<path d="M247.489 197.045L245.337 192.418C245.057 191.815 244.452 191.429 243.787 191.429H240.86V197.045H247.489Z" fill="#85A6D0"/>
<path d="M230.508 199.917C229.092 199.917 227.943 201.065 227.943 202.482C227.943 202.541 227.957 202.596 227.961 202.654C228.051 203.989 229.151 205.047 230.508 205.047C231.866 205.047 232.966 203.989 233.056 202.654C233.06 202.596 233.073 202.541 233.073 202.482C233.073 201.065 231.925 199.917 230.508 199.917ZM230.508 203.508C229.942 203.508 229.482 203.048 229.482 202.482C229.482 201.915 229.942 201.456 230.508 201.456C231.075 201.456 231.534 201.915 231.534 202.482C231.534 203.048 231.075 203.508 230.508 203.508Z" fill="#313D4C"/>
<path d="M244.229 199.917C242.812 199.917 241.664 201.065 241.664 202.482C241.664 202.541 241.677 202.596 241.681 202.654C241.771 203.989 242.871 205.047 244.229 205.047C245.586 205.047 246.686 203.989 246.776 202.654C246.78 202.596 246.794 202.541 246.794 202.482C246.794 201.065 245.645 199.917 244.229 199.917ZM244.229 203.508C243.662 203.508 243.203 203.048 243.203 202.482C243.203 201.915 243.662 201.456 244.229 201.456C244.795 201.456 245.255 201.915 245.255 202.482C245.255 203.048 244.795 203.508 244.229 203.508Z" fill="#313D4C"/>
<path d="M231.534 202.482C231.534 201.915 231.075 201.456 230.508 201.456C229.942 201.456 229.482 201.915 229.482 202.482C229.482 203.048 229.942 203.508 230.508 203.508C231.075 203.508 231.534 203.048 231.534 202.482Z" fill="#6B7683"/>
<path d="M245.255 202.482C245.255 201.915 244.795 201.456 244.229 201.456C243.662 201.456 243.203 201.915 243.203 202.482C243.203 203.048 243.662 203.508 244.229 203.508C244.795 203.508 245.255 203.048 245.255 202.482Z" fill="#6B7683"/>
</g>
</g>
<g filter="url(#filter18_d_728_4038)">
<rect x="259" y="133" width="36" height="58" rx="8" fill="white" shape-rendering="crispEdges"/>
<path d="M279.52 143.859V158H276.57V146.652H276.492L273.25 148.684V146.086L276.746 143.859H279.52Z" fill="#8A61BF"/>
<g clip-path="url(#clip12_728_4038)">
<path d="M287.794 174.7L287.489 174.045H280.86V179.654H281.681C281.677 179.596 281.664 179.541 281.664 179.482C281.664 178.065 282.812 176.917 284.229 176.917C285.645 176.917 286.794 178.065 286.794 179.482C286.794 179.541 286.78 179.596 286.776 179.654H287.062C287.583 179.654 288.005 179.232 288.005 178.711V175.655C288.005 175.325 287.933 174.999 287.794 174.7Z" fill="#CBCFD2"/>
<path d="M280.86 168.429V166.49C280.86 165.969 280.438 165.547 279.917 165.547H266.938C266.417 165.547 265.995 165.969 265.995 166.49V178.711C265.995 179.232 266.417 179.654 266.938 179.654H267.961C267.957 179.596 267.943 179.541 267.943 179.482C267.943 178.065 269.092 176.917 270.508 176.917C271.925 176.917 273.073 178.065 273.073 179.482C273.073 179.541 273.06 179.596 273.056 179.654H280.86L280.86 168.429Z" fill="#F1F1F1"/>
<path d="M280.86 166.49V168.429L280.86 174.044H265.995V166.49C265.995 165.969 266.417 165.547 266.938 165.547H279.917C280.438 165.547 280.86 165.969 280.86 166.49Z" fill="#F08C54"/>
<path d="M287.489 174.045L285.337 169.418C285.057 168.815 284.452 168.429 283.787 168.429H280.86V174.045H287.489Z" fill="#85A6D0"/>
<path d="M270.508 176.917C269.092 176.917 267.943 178.065 267.943 179.482C267.943 179.541 267.957 179.596 267.961 179.654C268.051 180.989 269.151 182.047 270.508 182.047C271.866 182.047 272.966 180.989 273.056 179.654C273.06 179.596 273.073 179.541 273.073 179.482C273.073 178.065 271.925 176.917 270.508 176.917ZM270.508 180.508C269.942 180.508 269.482 180.048 269.482 179.482C269.482 178.915 269.942 178.456 270.508 178.456C271.075 178.456 271.534 178.915 271.534 179.482C271.534 180.048 271.075 180.508 270.508 180.508Z" fill="#313D4C"/>
<path d="M284.229 176.917C282.812 176.917 281.664 178.065 281.664 179.482C281.664 179.541 281.677 179.596 281.681 179.654C281.771 180.989 282.871 182.047 284.229 182.047C285.586 182.047 286.686 180.989 286.776 179.654C286.78 179.596 286.794 179.541 286.794 179.482C286.794 178.065 285.645 176.917 284.229 176.917ZM284.229 180.508C283.662 180.508 283.203 180.048 283.203 179.482C283.203 178.915 283.662 178.456 284.229 178.456C284.795 178.456 285.255 178.915 285.255 179.482C285.255 180.048 284.795 180.508 284.229 180.508Z" fill="#313D4C"/>
<path d="M271.534 179.482C271.534 178.915 271.075 178.456 270.508 178.456C269.942 178.456 269.482 178.915 269.482 179.482C269.482 180.048 269.942 180.508 270.508 180.508C271.075 180.508 271.534 180.048 271.534 179.482Z" fill="#6B7683"/>
<path d="M285.255 179.482C285.255 178.915 284.795 178.456 284.229 178.456C283.662 178.456 283.203 178.915 283.203 179.482C283.203 180.048 283.662 180.508 284.229 180.508C284.795 180.508 285.255 180.048 285.255 179.482Z" fill="#6B7683"/>
</g>
</g>
<g filter="url(#filter19_d_728_4038)">
<rect x="270" y="587" width="36" height="58" rx="8" fill="white" shape-rendering="crispEdges"/>
<path d="M290.52 597.859V612H287.57V600.652H287.492L284.25 602.684V600.086L287.746 597.859H290.52Z" fill="#8A61BF"/>
<g clip-path="url(#clip13_728_4038)">
<path d="M298.794 628.7L298.489 628.045H291.86V633.654H292.681C292.677 633.596 292.664 633.541 292.664 633.482C292.664 632.065 293.812 630.917 295.229 630.917C296.645 630.917 297.794 632.065 297.794 633.482C297.794 633.541 297.78 633.596 297.776 633.654H298.062C298.583 633.654 299.005 633.232 299.005 632.711V629.655C299.005 629.325 298.933 628.999 298.794 628.7Z" fill="#CBCFD2"/>
<path d="M291.86 622.429V620.489C291.86 619.969 291.438 619.546 290.917 619.546H277.938C277.417 619.546 276.995 619.969 276.995 620.489V632.711C276.995 633.232 277.417 633.654 277.938 633.654H278.961C278.957 633.596 278.943 633.541 278.943 633.481C278.943 632.065 280.092 630.917 281.508 630.917C282.925 630.917 284.073 632.065 284.073 633.481C284.073 633.541 284.06 633.596 284.056 633.654H291.86L291.86 622.429Z" fill="#F1F1F1"/>
<path d="M291.86 620.489V622.429L291.86 628.044H276.995V620.489C276.995 619.969 277.417 619.546 277.938 619.546H290.917C291.438 619.546 291.86 619.969 291.86 620.489Z" fill="#F08C54"/>
<path d="M298.489 628.045L296.337 623.418C296.057 622.815 295.452 622.429 294.787 622.429H291.86V628.045H298.489Z" fill="#85A6D0"/>
<path d="M281.508 630.917C280.092 630.917 278.943 632.065 278.943 633.481C278.943 633.541 278.957 633.596 278.961 633.654C279.051 634.989 280.151 636.046 281.508 636.046C282.866 636.046 283.966 634.989 284.056 633.654C284.06 633.596 284.073 633.541 284.073 633.481C284.073 632.065 282.925 630.917 281.508 630.917ZM281.508 634.507C280.942 634.507 280.482 634.048 280.482 633.481C280.482 632.915 280.942 632.455 281.508 632.455C282.075 632.455 282.534 632.915 282.534 633.481C282.534 634.048 282.075 634.507 281.508 634.507Z" fill="#313D4C"/>
<path d="M295.229 630.917C293.812 630.917 292.664 632.065 292.664 633.481C292.664 633.541 292.677 633.596 292.681 633.654C292.771 634.989 293.871 636.046 295.229 636.046C296.586 636.046 297.686 634.989 297.776 633.654C297.78 633.596 297.794 633.541 297.794 633.481C297.794 632.065 296.645 630.917 295.229 630.917ZM295.229 634.507C294.662 634.507 294.203 634.048 294.203 633.481C294.203 632.915 294.662 632.455 295.229 632.455C295.795 632.455 296.255 632.915 296.255 633.481C296.255 634.048 295.795 634.507 295.229 634.507Z" fill="#313D4C"/>
<path d="M282.534 633.482C282.534 632.915 282.075 632.456 281.508 632.456C280.942 632.456 280.482 632.915 280.482 633.482C280.482 634.048 280.942 634.508 281.508 634.508C282.075 634.508 282.534 634.048 282.534 633.482Z" fill="#6B7683"/>
<path d="M296.255 633.482C296.255 632.915 295.795 632.456 295.229 632.456C294.662 632.456 294.203 632.915 294.203 633.482C294.203 634.048 294.662 634.508 295.229 634.508C295.795 634.508 296.255 634.048 296.255 633.482Z" fill="#6B7683"/>
</g>
</g>
<g filter="url(#filter20_d_728_4038)">
<rect x="230" y="612" width="36" height="58" rx="8" fill="white" shape-rendering="crispEdges"/>
<path d="M250.52 622.859V637H247.57V625.652H247.492L244.25 627.684V625.086L247.746 622.859H250.52Z" fill="#8A61BF"/>
<g clip-path="url(#clip14_728_4038)">
<path d="M258.794 653.7L258.489 653.045H251.86V658.654H252.681C252.677 658.596 252.664 658.541 252.664 658.482C252.664 657.065 253.812 655.917 255.229 655.917C256.645 655.917 257.794 657.065 257.794 658.482C257.794 658.541 257.78 658.596 257.776 658.654H258.062C258.583 658.654 259.005 658.232 259.005 657.711V654.655C259.005 654.325 258.933 653.999 258.794 653.7Z" fill="#CBCFD2"/>
<path d="M251.86 647.429V645.489C251.86 644.969 251.438 644.546 250.917 644.546H237.938C237.417 644.546 236.995 644.969 236.995 645.489V657.711C236.995 658.232 237.417 658.654 237.938 658.654H238.961C238.957 658.596 238.943 658.541 238.943 658.481C238.943 657.065 240.092 655.917 241.508 655.917C242.925 655.917 244.073 657.065 244.073 658.481C244.073 658.541 244.06 658.596 244.056 658.654H251.86L251.86 647.429Z" fill="#F1F1F1"/>
<path d="M251.86 645.489V647.429L251.86 653.044H236.995V645.489C236.995 644.969 237.417 644.546 237.938 644.546H250.917C251.438 644.546 251.86 644.969 251.86 645.489Z" fill="#F08C54"/>
<path d="M258.489 653.045L256.337 648.418C256.057 647.815 255.452 647.429 254.787 647.429H251.86V653.045H258.489Z" fill="#85A6D0"/>
<path d="M241.508 655.917C240.092 655.917 238.943 657.065 238.943 658.481C238.943 658.541 238.957 658.596 238.961 658.654C239.051 659.989 240.151 661.046 241.508 661.046C242.866 661.046 243.966 659.989 244.056 658.654C244.06 658.596 244.073 658.541 244.073 658.481C244.073 657.065 242.925 655.917 241.508 655.917ZM241.508 659.507C240.942 659.507 240.482 659.048 240.482 658.481C240.482 657.915 240.942 657.455 241.508 657.455C242.075 657.455 242.534 657.915 242.534 658.481C242.534 659.048 242.075 659.507 241.508 659.507Z" fill="#313D4C"/>
<path d="M255.229 655.917C253.812 655.917 252.664 657.065 252.664 658.481C252.664 658.541 252.677 658.596 252.681 658.654C252.771 659.989 253.871 661.046 255.229 661.046C256.586 661.046 257.686 659.989 257.776 658.654C257.78 658.596 257.794 658.541 257.794 658.481C257.794 657.065 256.645 655.917 255.229 655.917ZM255.229 659.507C254.662 659.507 254.203 659.048 254.203 658.481C254.203 657.915 254.662 657.455 255.229 657.455C255.795 657.455 256.255 657.915 256.255 658.481C256.255 659.048 255.795 659.507 255.229 659.507Z" fill="#313D4C"/>
<path d="M242.534 658.482C242.534 657.915 242.075 657.456 241.508 657.456C240.942 657.456 240.482 657.915 240.482 658.482C240.482 659.048 240.942 659.508 241.508 659.508C242.075 659.508 242.534 659.048 242.534 658.482Z" fill="#6B7683"/>
<path d="M256.255 658.482C256.255 657.915 255.795 657.456 255.229 657.456C254.662 657.456 254.203 657.915 254.203 658.482C254.203 659.048 254.662 659.508 255.229 659.508C255.795 659.508 256.255 659.048 256.255 658.482Z" fill="#6B7683"/>
</g>
</g>
<g filter="url(#filter21_d_728_4038)">
<rect x="190" y="636" width="36" height="58" rx="8" fill="white" shape-rendering="crispEdges"/>
<path d="M210.52 646.859V661H207.57V649.652H207.492L204.25 651.684V649.086L207.746 646.859H210.52Z" fill="#8A61BF"/>
<g clip-path="url(#clip15_728_4038)">
<path d="M218.794 677.7L218.489 677.045H211.86V682.654H212.681C212.677 682.596 212.664 682.541 212.664 682.482C212.664 681.065 213.812 679.917 215.229 679.917C216.645 679.917 217.794 681.065 217.794 682.482C217.794 682.541 217.78 682.596 217.776 682.654H218.062C218.583 682.654 219.005 682.232 219.005 681.711V678.655C219.005 678.325 218.933 677.999 218.794 677.7Z" fill="#CBCFD2"/>
<path d="M211.86 671.429V669.489C211.86 668.969 211.438 668.546 210.917 668.546H197.938C197.417 668.546 196.995 668.969 196.995 669.489V681.711C196.995 682.232 197.417 682.654 197.938 682.654H198.961C198.957 682.596 198.943 682.541 198.943 682.481C198.943 681.065 200.092 679.917 201.508 679.917C202.925 679.917 204.073 681.065 204.073 682.481C204.073 682.541 204.06 682.596 204.056 682.654H211.86L211.86 671.429Z" fill="#F1F1F1"/>
<path d="M211.86 669.489V671.429L211.86 677.044H196.995V669.489C196.995 668.969 197.417 668.546 197.938 668.546H210.917C211.438 668.546 211.86 668.969 211.86 669.489Z" fill="#F08C54"/>
<path d="M218.489 677.045L216.337 672.418C216.057 671.815 215.452 671.429 214.787 671.429H211.86V677.045H218.489Z" fill="#85A6D0"/>
<path d="M201.508 679.917C200.092 679.917 198.943 681.065 198.943 682.481C198.943 682.541 198.957 682.596 198.961 682.654C199.051 683.989 200.151 685.046 201.508 685.046C202.866 685.046 203.966 683.989 204.056 682.654C204.06 682.596 204.073 682.541 204.073 682.481C204.073 681.065 202.925 679.917 201.508 679.917ZM201.508 683.507C200.942 683.507 200.482 683.048 200.482 682.481C200.482 681.915 200.942 681.455 201.508 681.455C202.075 681.455 202.534 681.915 202.534 682.481C202.534 683.048 202.075 683.507 201.508 683.507Z" fill="#313D4C"/>
<path d="M215.229 679.917C213.812 679.917 212.664 681.065 212.664 682.481C212.664 682.541 212.677 682.596 212.681 682.654C212.771 683.989 213.871 685.046 215.229 685.046C216.586 685.046 217.686 683.989 217.776 682.654C217.78 682.596 217.794 682.541 217.794 682.481C217.794 681.065 216.645 679.917 215.229 679.917ZM215.229 683.507C214.662 683.507 214.203 683.048 214.203 682.481C214.203 681.915 214.662 681.455 215.229 681.455C215.795 681.455 216.255 681.915 216.255 682.481C216.255 683.048 215.795 683.507 215.229 683.507Z" fill="#313D4C"/>
<path d="M202.534 682.482C202.534 681.915 202.075 681.456 201.508 681.456C200.942 681.456 200.482 681.915 200.482 682.482C200.482 683.048 200.942 683.508 201.508 683.508C202.075 683.508 202.534 683.048 202.534 682.482Z" fill="#6B7683"/>
<path d="M216.255 682.482C216.255 681.915 215.795 681.456 215.229 681.456C214.662 681.456 214.203 681.915 214.203 682.482C214.203 683.048 214.662 683.508 215.229 683.508C215.795 683.508 216.255 683.048 216.255 682.482Z" fill="#6B7683"/>
</g>
</g>
<g filter="url(#filter22_d_728_4038)">
<rect x="150" y="662" width="36" height="58" rx="8" fill="white" shape-rendering="crispEdges"/>
<path d="M170.52 672.859V687H167.57V675.652H167.492L164.25 677.684V675.086L167.746 672.859H170.52Z" fill="#8A61BF"/>
<g clip-path="url(#clip16_728_4038)">
<path d="M178.794 703.7L178.489 703.045H171.86V708.654H172.681C172.677 708.596 172.664 708.541 172.664 708.482C172.664 707.065 173.812 705.917 175.229 705.917C176.645 705.917 177.794 707.065 177.794 708.482C177.794 708.541 177.78 708.596 177.776 708.654H178.062C178.583 708.654 179.005 708.232 179.005 707.711V704.655C179.005 704.325 178.933 703.999 178.794 703.7Z" fill="#CBCFD2"/>
<path d="M171.86 697.429V695.489C171.86 694.969 171.438 694.546 170.917 694.546H157.938C157.417 694.546 156.995 694.969 156.995 695.489V707.711C156.995 708.232 157.417 708.654 157.938 708.654H158.961C158.957 708.596 158.943 708.541 158.943 708.481C158.943 707.065 160.092 705.917 161.508 705.917C162.925 705.917 164.073 707.065 164.073 708.481C164.073 708.541 164.06 708.596 164.056 708.654H171.86L171.86 697.429Z" fill="#F1F1F1"/>
<path d="M171.86 695.489V697.429L171.86 703.044H156.995V695.489C156.995 694.969 157.417 694.546 157.938 694.546H170.917C171.438 694.546 171.86 694.969 171.86 695.489Z" fill="#F08C54"/>
<path d="M178.489 703.045L176.337 698.418C176.057 697.815 175.452 697.429 174.787 697.429H171.86V703.045H178.489Z" fill="#85A6D0"/>
<path d="M161.508 705.917C160.092 705.917 158.943 707.065 158.943 708.481C158.943 708.541 158.957 708.596 158.961 708.654C159.051 709.989 160.151 711.046 161.508 711.046C162.866 711.046 163.966 709.989 164.056 708.654C164.06 708.596 164.073 708.541 164.073 708.481C164.073 707.065 162.925 705.917 161.508 705.917ZM161.508 709.507C160.942 709.507 160.482 709.048 160.482 708.481C160.482 707.915 160.942 707.455 161.508 707.455C162.075 707.455 162.534 707.915 162.534 708.481C162.534 709.048 162.075 709.507 161.508 709.507Z" fill="#313D4C"/>
<path d="M175.229 705.917C173.812 705.917 172.664 707.065 172.664 708.481C172.664 708.541 172.677 708.596 172.681 708.654C172.771 709.989 173.871 711.046 175.229 711.046C176.586 711.046 177.686 709.989 177.776 708.654C177.78 708.596 177.794 708.541 177.794 708.481C177.794 707.065 176.645 705.917 175.229 705.917ZM175.229 709.507C174.662 709.507 174.203 709.048 174.203 708.481C174.203 707.915 174.662 707.455 175.229 707.455C175.795 707.455 176.255 707.915 176.255 708.481C176.255 709.048 175.795 709.507 175.229 709.507Z" fill="#313D4C"/>
<path d="M162.534 708.482C162.534 707.915 162.075 707.456 161.508 707.456C160.942 707.456 160.482 707.915 160.482 708.482C160.482 709.048 160.942 709.508 161.508 709.508C162.075 709.508 162.534 709.048 162.534 708.482Z" fill="#6B7683"/>
<path d="M176.255 708.482C176.255 707.915 175.795 707.456 175.229 707.456C174.662 707.456 174.203 707.915 174.203 708.482C174.203 709.048 174.662 709.508 175.229 709.508C175.795 709.508 176.255 709.048 176.255 708.482Z" fill="#6B7683"/>
</g>
</g>
<g filter="url(#filter23_d_728_4038)">
<rect x="110" y="687" width="36" height="58" rx="8" fill="white" shape-rendering="crispEdges"/>
<path d="M130.52 697.859V712H127.57V700.652H127.492L124.25 702.684V700.086L127.746 697.859H130.52Z" fill="#8A61BF"/>
<g clip-path="url(#clip17_728_4038)">
<path d="M138.794 728.7L138.489 728.045H131.86V733.654H132.681C132.677 733.596 132.664 733.541 132.664 733.482C132.664 732.065 133.812 730.917 135.229 730.917C136.645 730.917 137.794 732.065 137.794 733.482C137.794 733.541 137.78 733.596 137.776 733.654H138.062C138.583 733.654 139.005 733.232 139.005 732.711V729.655C139.005 729.325 138.933 728.999 138.794 728.7Z" fill="#CBCFD2"/>
<path d="M131.86 722.429V720.489C131.86 719.969 131.438 719.546 130.917 719.546H117.938C117.417 719.546 116.995 719.969 116.995 720.489V732.711C116.995 733.232 117.417 733.654 117.938 733.654H118.961C118.957 733.596 118.943 733.541 118.943 733.481C118.943 732.065 120.092 730.917 121.508 730.917C122.925 730.917 124.073 732.065 124.073 733.481C124.073 733.541 124.06 733.596 124.056 733.654H131.86L131.86 722.429Z" fill="#F1F1F1"/>
<path d="M131.86 720.489V722.429L131.86 728.044H116.995V720.489C116.995 719.969 117.417 719.546 117.938 719.546H130.917C131.438 719.546 131.86 719.969 131.86 720.489Z" fill="#F08C54"/>
<path d="M138.489 728.045L136.337 723.418C136.057 722.815 135.452 722.429 134.787 722.429H131.86V728.045H138.489Z" fill="#85A6D0"/>
<path d="M121.508 730.917C120.092 730.917 118.943 732.065 118.943 733.481C118.943 733.541 118.957 733.596 118.961 733.654C119.051 734.989 120.151 736.046 121.508 736.046C122.866 736.046 123.966 734.989 124.056 733.654C124.06 733.596 124.073 733.541 124.073 733.481C124.073 732.065 122.925 730.917 121.508 730.917ZM121.508 734.507C120.942 734.507 120.482 734.048 120.482 733.481C120.482 732.915 120.942 732.455 121.508 732.455C122.075 732.455 122.534 732.915 122.534 733.481C122.534 734.048 122.075 734.507 121.508 734.507Z" fill="#313D4C"/>
<path d="M135.229 730.917C133.812 730.917 132.664 732.065 132.664 733.481C132.664 733.541 132.677 733.596 132.681 733.654C132.771 734.989 133.871 736.046 135.229 736.046C136.586 736.046 137.686 734.989 137.776 733.654C137.78 733.596 137.794 733.541 137.794 733.481C137.794 732.065 136.645 730.917 135.229 730.917ZM135.229 734.507C134.662 734.507 134.203 734.048 134.203 733.481C134.203 732.915 134.662 732.455 135.229 732.455C135.795 732.455 136.255 732.915 136.255 733.481C136.255 734.048 135.795 734.507 135.229 734.507Z" fill="#313D4C"/>
<path d="M122.534 733.482C122.534 732.915 122.075 732.456 121.508 732.456C120.942 732.456 120.482 732.915 120.482 733.482C120.482 734.048 120.942 734.508 121.508 734.508C122.075 734.508 122.534 734.048 122.534 733.482Z" fill="#6B7683"/>
<path d="M136.255 733.482C136.255 732.915 135.795 732.456 135.229 732.456C134.662 732.456 134.203 732.915 134.203 733.482C134.203 734.048 134.662 734.508 135.229 734.508C135.795 734.508 136.255 734.048 136.255 733.482Z" fill="#6B7683"/>
</g>
</g>
<circle cx="356" cy="147" r="17" fill="#494E53"/>
<path d="M355.84 132.213C355.92 132.107 356.08 132.107 356.16 132.213L358.76 135.68C358.859 135.812 358.765 136 358.6 136H353.4C353.235 136 353.141 135.812 353.24 135.68L355.84 132.213Z" fill="#FF3B30"/>
<path d="M356.16 161.787C356.08 161.894 355.92 161.894 355.84 161.787L353.24 158.32C353.141 158.189 353.235 158 353.4 158H358.6C358.765 158 358.859 158.189 358.76 158.32L356.16 161.787Z" fill="white"/>
<path d="M341.213 147.16C341.107 147.08 341.107 146.92 341.213 146.84L344.68 144.24C344.812 144.141 345 144.235 345 144.4V149.6C345 149.765 344.812 149.859 344.68 149.76L341.213 147.16Z" fill="white"/>
<path d="M370.787 146.84C370.893 146.92 370.893 147.08 370.787 147.16L367.32 149.76C367.188 149.859 367 149.765 367 149.6V144.4C367 144.235 367.188 144.141 367.32 144.24L370.787 146.84Z" fill="white"/>
<path d="M360.904 146.572V147.896H356.826V148.705H359.721V152.244H358.033V150.041H352.186V148.705H355.139V147.896H351.096V146.572H360.904ZM352.338 145.963V141.756H353.99V142.658H357.986V141.756H359.65V145.963H352.338ZM353.99 144.639H357.986V143.889H353.99V144.639Z" fill="white"/>
<defs>
<filter id="filter0_d_728_4038" x="196" y="364" width="68" height="32" filterUnits="userSpaceOnUse" color-interpolation-filters="sRGB">
<feFlood flood-opacity="0" result="BackgroundImageFix"/>
<feColorMatrix in="SourceAlpha" type="matrix" values="0 0 0 0 0 0 0 0 0 0 0 0 0 0 0 0 0 0 127 0" result="hardAlpha"/>
<feOffset/>
<feGaussianBlur stdDeviation="2"/>
<feComposite in2="hardAlpha" operator="out"/>
<feColorMatrix type="matrix" values="0 0 0 0 0 0 0 0 0 0 0 0 0 0 0 0 0 0 0.4 0"/>
<feBlend mode="normal" in2="BackgroundImageFix" result="effect1_dropShadow_728_4038"/>
<feBlend mode="normal" in="SourceGraphic" in2="effect1_dropShadow_728_4038" result="shape"/>
</filter>
<filter id="filter1_d_728_4038" x="21" y="655" width="68" height="32" filterUnits="userSpaceOnUse" color-interpolation-filters="sRGB">
<feFlood flood-opacity="0" result="BackgroundImageFix"/>
<feColorMatrix in="SourceAlpha" type="matrix" values="0 0 0 0 0 0 0 0 0 0 0 0 0 0 0 0 0 0 127 0" result="hardAlpha"/>
<feOffset/>
<feGaussianBlur stdDeviation="2"/>
<feComposite in2="hardAlpha" operator="out"/>
<feColorMatrix type="matrix" values="0 0 0 0 0 0 0 0 0 0 0 0 0 0 0 0 0 0 0.4 0"/>
<feBlend mode="normal" in2="BackgroundImageFix" result="effect1_dropShadow_728_4038"/>
<feBlend mode="normal" in="SourceGraphic" in2="effect1_dropShadow_728_4038" result="shape"/>
</filter>
<filter id="filter2_d_728_4038" x="21" y="718" width="68" height="32" filterUnits="userSpaceOnUse" color-interpolation-filters="sRGB">
<feFlood flood-opacity="0" result="BackgroundImageFix"/>
<feColorMatrix in="SourceAlpha" type="matrix" values="0 0 0 0 0 0 0 0 0 0 0 0 0 0 0 0 0 0 127 0" result="hardAlpha"/>
<feOffset/>
<feGaussianBlur stdDeviation="2"/>
<feComposite in2="hardAlpha" operator="out"/>
<feColorMatrix type="matrix" values="0 0 0 0 0 0 0 0 0 0 0 0 0 0 0 0 0 0 0.4 0"/>
<feBlend mode="normal" in2="BackgroundImageFix" result="effect1_dropShadow_728_4038"/>
<feBlend mode="normal" in="SourceGraphic" in2="effect1_dropShadow_728_4038" result="shape"/>
</filter>
<filter id="filter3_d_728_4038" x="303" y="545" width="68" height="32" filterUnits="userSpaceOnUse" color-interpolation-filters="sRGB">
<feFlood flood-opacity="0" result="BackgroundImageFix"/>
<feColorMatrix in="SourceAlpha" type="matrix" values="0 0 0 0 0 0 0 0 0 0 0 0 0 0 0 0 0 0 127 0" result="hardAlpha"/>
<feOffset/>
<feGaussianBlur stdDeviation="2"/>
<feComposite in2="hardAlpha" operator="out"/>
<feColorMatrix type="matrix" values="0 0 0 0 0 0 0 0 0 0 0 0 0 0 0 0 0 0 0.4 0"/>
<feBlend mode="normal" in2="BackgroundImageFix" result="effect1_dropShadow_728_4038"/>
<feBlend mode="normal" in="SourceGraphic" in2="effect1_dropShadow_728_4038" result="shape"/>
</filter>
<filter id="filter4_d_728_4038" x="232" y="422" width="68" height="32" filterUnits="userSpaceOnUse" color-interpolation-filters="sRGB">
<feFlood flood-opacity="0" result="BackgroundImageFix"/>
<feColorMatrix in="SourceAlpha" type="matrix" values="0 0 0 0 0 0 0 0 0 0 0 0 0 0 0 0 0 0 127 0" result="hardAlpha"/>
<feOffset/>
<feGaussianBlur stdDeviation="2"/>
<feComposite in2="hardAlpha" operator="out"/>
<feColorMatrix type="matrix" values="0 0 0 0 0 0 0 0 0 0 0 0 0 0 0 0 0 0 0.4 0"/>
<feBlend mode="normal" in2="BackgroundImageFix" result="effect1_dropShadow_728_4038"/>
<feBlend mode="normal" in="SourceGraphic" in2="effect1_dropShadow_728_4038" result="shape"/>
</filter>
<filter id="filter5_d_728_4038" x="123" y="504" width="85" height="32" filterUnits="userSpaceOnUse" color-interpolation-filters="sRGB">
<feFlood flood-opacity="0" result="BackgroundImageFix"/>
<feColorMatrix in="SourceAlpha" type="matrix" values="0 0 0 0 0 0 0 0 0 0 0 0 0 0 0 0 0 0 127 0" result="hardAlpha"/>
<feOffset/>
<feGaussianBlur stdDeviation="2"/>
<feComposite in2="hardAlpha" operator="out"/>
<feColorMatrix type="matrix" values="0 0 0 0 0 0 0 0 0 0 0 0 0 0 0 0 0 0 0.4 0"/>
<feBlend mode="normal" in2="BackgroundImageFix" result="effect1_dropShadow_728_4038"/>
<feBlend mode="normal" in="SourceGraphic" in2="effect1_dropShadow_728_4038" result="shape"/>
</filter>
<filter id="filter6_d_728_4038" x="265" y="475" width="68" height="42" filterUnits="userSpaceOnUse" color-interpolation-filters="sRGB">
<feFlood flood-opacity="0" result="BackgroundImageFix"/>
<feColorMatrix in="SourceAlpha" type="matrix" values="0 0 0 0 0 0 0 0 0 0 0 0 0 0 0 0 0 0 127 0" result="hardAlpha"/>
<feOffset/>
<feGaussianBlur stdDeviation="2"/>
<feComposite in2="hardAlpha" operator="out"/>
<feColorMatrix type="matrix" values="0 0 0 0 0 0 0 0 0 0 0 0 0 0 0 0 0 0 0.4 0"/>
<feBlend mode="normal" in2="BackgroundImageFix" result="effect1_dropShadow_728_4038"/>
<feBlend mode="normal" in="SourceGraphic" in2="effect1_dropShadow_728_4038" result="shape"/>
</filter>
<filter id="filter7_d_728_4038" x="15" y="577" width="44" height="66" filterUnits="userSpaceOnUse" color-interpolation-filters="sRGB">
<feFlood flood-opacity="0" result="BackgroundImageFix"/>
<feColorMatrix in="SourceAlpha" type="matrix" values="0 0 0 0 0 0 0 0 0 0 0 0 0 0 0 0 0 0 127 0" result="hardAlpha"/>
<feOffset/>
<feGaussianBlur stdDeviation="2"/>
<feComposite in2="hardAlpha" operator="out"/>
<feColorMatrix type="matrix" values="0 0 0 0 0 0 0 0 0 0 0 0 0 0 0 0 0 0 0.4 0"/>
<feBlend mode="normal" in2="BackgroundImageFix" result="effect1_dropShadow_728_4038"/>
<feBlend mode="normal" in="SourceGraphic" in2="effect1_dropShadow_728_4038" result="shape"/>
</filter>
<filter id="filter8_d_728_4038" x="15" y="515" width="44" height="66" filterUnits="userSpaceOnUse" color-interpolation-filters="sRGB">
<feFlood flood-opacity="0" result="BackgroundImageFix"/>
<feColorMatrix in="SourceAlpha" type="matrix" values="0 0 0 0 0 0 0 0 0 0 0 0 0 0 0 0 0 0 127 0" result="hardAlpha"/>
<feOffset/>
<feGaussianBlur stdDeviation="2"/>
<feComposite in2="hardAlpha" operator="out"/>
<feColorMatrix type="matrix" values="0 0 0 0 0 0 0 0 0 0 0 0 0 0 0 0 0 0 0.4 0"/>
<feBlend mode="normal" in2="BackgroundImageFix" result="effect1_dropShadow_728_4038"/>
<feBlend mode="normal" in="SourceGraphic" in2="effect1_dropShadow_728_4038" result="shape"/>
</filter>
<filter id="filter9_d_728_4038" x="15" y="453" width="44" height="66" filterUnits="userSpaceOnUse" color-interpolation-filters="sRGB">
<feFlood flood-opacity="0" result="BackgroundImageFix"/>
<feColorMatrix in="SourceAlpha" type="matrix" values="0 0 0 0 0 0 0 0 0 0 0 0 0 0 0 0 0 0 127 0" result="hardAlpha"/>
<feOffset/>
<feGaussianBlur stdDeviation="2"/>
<feComposite in2="hardAlpha" operator="out"/>
<feColorMatrix type="matrix" values="0 0 0 0 0 0 0 0 0 0 0 0 0 0 0 0 0 0 0.4 0"/>
<feBlend mode="normal" in2="BackgroundImageFix" result="effect1_dropShadow_728_4038"/>
<feBlend mode="normal" in="SourceGraphic" in2="effect1_dropShadow_728_4038" result="shape"/>
</filter>
<filter id="filter10_d_728_4038" x="15" y="391" width="44" height="66" filterUnits="userSpaceOnUse" color-interpolation-filters="sRGB">
<feFlood flood-opacity="0" result="BackgroundImageFix"/>
<feColorMatrix in="SourceAlpha" type="matrix" values="0 0 0 0 0 0 0 0 0 0 0 0 0 0 0 0 0 0 127 0" result="hardAlpha"/>
<feOffset/>
<feGaussianBlur stdDeviation="2"/>
<feComposite in2="hardAlpha" operator="out"/>
<feColorMatrix type="matrix" values="0 0 0 0 0 0 0 0 0 0 0 0 0 0 0 0 0 0 0.4 0"/>
<feBlend mode="normal" in2="BackgroundImageFix" result="effect1_dropShadow_728_4038"/>
<feBlend mode="normal" in="SourceGraphic" in2="effect1_dropShadow_728_4038" result="shape"/>
</filter>
<filter id="filter11_d_728_4038" x="15" y="329" width="44" height="66" filterUnits="userSpaceOnUse" color-interpolation-filters="sRGB">
<feFlood flood-opacity="0" result="BackgroundImageFix"/>
<feColorMatrix in="SourceAlpha" type="matrix" values="0 0 0 0 0 0 0 0 0 0 0 0 0 0 0 0 0 0 127 0" result="hardAlpha"/>
<feOffset/>
<feGaussianBlur stdDeviation="2"/>
<feComposite in2="hardAlpha" operator="out"/>
<feColorMatrix type="matrix" values="0 0 0 0 0 0 0 0 0 0 0 0 0 0 0 0 0 0 0.4 0"/>
<feBlend mode="normal" in2="BackgroundImageFix" result="effect1_dropShadow_728_4038"/>
<feBlend mode="normal" in="SourceGraphic" in2="effect1_dropShadow_728_4038" result="shape"/>
</filter>
<filter id="filter12_d_728_4038" x="15" y="267" width="44" height="66" filterUnits="userSpaceOnUse" color-interpolation-filters="sRGB">
<feFlood flood-opacity="0" result="BackgroundImageFix"/>
<feColorMatrix in="SourceAlpha" type="matrix" values="0 0 0 0 0 0 0 0 0 0 0 0 0 0 0 0 0 0 127 0" result="hardAlpha"/>
<feOffset/>
<feGaussianBlur stdDeviation="2"/>
<feComposite in2="hardAlpha" operator="out"/>
<feColorMatrix type="matrix" values="0 0 0 0 0 0 0 0 0 0 0 0 0 0 0 0 0 0 0.4 0"/>
<feBlend mode="normal" in2="BackgroundImageFix" result="effect1_dropShadow_728_4038"/>
<feBlend mode="normal" in="SourceGraphic" in2="effect1_dropShadow_728_4038" result="shape"/>
</filter>
<filter id="filter13_d_728_4038" x="55" y="244" width="44" height="66" filterUnits="userSpaceOnUse" color-interpolation-filters="sRGB">
<feFlood flood-opacity="0" result="BackgroundImageFix"/>
<feColorMatrix in="SourceAlpha" type="matrix" values="0 0 0 0 0 0 0 0 0 0 0 0 0 0 0 0 0 0 127 0" result="hardAlpha"/>
<feOffset/>
<feGaussianBlur stdDeviation="2"/>
<feComposite in2="hardAlpha" operator="out"/>
<feColorMatrix type="matrix" values="0 0 0 0 0 0 0 0 0 0 0 0 0 0 0 0 0 0 0.4 0"/>
<feBlend mode="normal" in2="BackgroundImageFix" result="effect1_dropShadow_728_4038"/>
<feBlend mode="normal" in="SourceGraphic" in2="effect1_dropShadow_728_4038" result="shape"/>
</filter>
<filter id="filter14_d_728_4038" x="95" y="221" width="44" height="66" filterUnits="userSpaceOnUse" color-interpolation-filters="sRGB">
<feFlood flood-opacity="0" result="BackgroundImageFix"/>
<feColorMatrix in="SourceAlpha" type="matrix" values="0 0 0 0 0 0 0 0 0 0 0 0 0 0 0 0 0 0 127 0" result="hardAlpha"/>
<feOffset/>
<feGaussianBlur stdDeviation="2"/>
<feComposite in2="hardAlpha" operator="out"/>
<feColorMatrix type="matrix" values="0 0 0 0 0 0 0 0 0 0 0 0 0 0 0 0 0 0 0.4 0"/>
<feBlend mode="normal" in2="BackgroundImageFix" result="effect1_dropShadow_728_4038"/>
<feBlend mode="normal" in="SourceGraphic" in2="effect1_dropShadow_728_4038" result="shape"/>
</filter>
<filter id="filter15_d_728_4038" x="135" y="198" width="44" height="66" filterUnits="userSpaceOnUse" color-interpolation-filters="sRGB">
<feFlood flood-opacity="0" result="BackgroundImageFix"/>
<feColorMatrix in="SourceAlpha" type="matrix" values="0 0 0 0 0 0 0 0 0 0 0 0 0 0 0 0 0 0 127 0" result="hardAlpha"/>
<feOffset/>
<feGaussianBlur stdDeviation="2"/>
<feComposite in2="hardAlpha" operator="out"/>
<feColorMatrix type="matrix" values="0 0 0 0 0 0 0 0 0 0 0 0 0 0 0 0 0 0 0.4 0"/>
<feBlend mode="normal" in2="BackgroundImageFix" result="effect1_dropShadow_728_4038"/>
<feBlend mode="normal" in="SourceGraphic" in2="effect1_dropShadow_728_4038" result="shape"/>
</filter>
<filter id="filter16_d_728_4038" x="175" y="175" width="44" height="66" filterUnits="userSpaceOnUse" color-interpolation-filters="sRGB">
<feFlood flood-opacity="0" result="BackgroundImageFix"/>
<feColorMatrix in="SourceAlpha" type="matrix" values="0 0 0 0 0 0 0 0 0 0 0 0 0 0 0 0 0 0 127 0" result="hardAlpha"/>
<feOffset/>
<feGaussianBlur stdDeviation="2"/>
<feComposite in2="hardAlpha" operator="out"/>
<feColorMatrix type="matrix" values="0 0 0 0 0 0 0 0 0 0 0 0 0 0 0 0 0 0 0.4 0"/>
<feBlend mode="normal" in2="BackgroundImageFix" result="effect1_dropShadow_728_4038"/>
<feBlend mode="normal" in="SourceGraphic" in2="effect1_dropShadow_728_4038" result="shape"/>
</filter>
<filter id="filter17_d_728_4038" x="215" y="152" width="44" height="66" filterUnits="userSpaceOnUse" color-interpolation-filters="sRGB">
<feFlood flood-opacity="0" result="BackgroundImageFix"/>
<feColorMatrix in="SourceAlpha" type="matrix" values="0 0 0 0 0 0 0 0 0 0 0 0 0 0 0 0 0 0 127 0" result="hardAlpha"/>
<feOffset/>
<feGaussianBlur stdDeviation="2"/>
<feComposite in2="hardAlpha" operator="out"/>
<feColorMatrix type="matrix" values="0 0 0 0 0 0 0 0 0 0 0 0 0 0 0 0 0 0 0.4 0"/>
<feBlend mode="normal" in2="BackgroundImageFix" result="effect1_dropShadow_728_4038"/>
<feBlend mode="normal" in="SourceGraphic" in2="effect1_dropShadow_728_4038" result="shape"/>
</filter>
<filter id="filter18_d_728_4038" x="255" y="129" width="44" height="66" filterUnits="userSpaceOnUse" color-interpolation-filters="sRGB">
<feFlood flood-opacity="0" result="BackgroundImageFix"/>
<feColorMatrix in="SourceAlpha" type="matrix" values="0 0 0 0 0 0 0 0 0 0 0 0 0 0 0 0 0 0 127 0" result="hardAlpha"/>
<feOffset/>
<feGaussianBlur stdDeviation="2"/>
<feComposite in2="hardAlpha" operator="out"/>
<feColorMatrix type="matrix" values="0 0 0 0 0 0 0 0 0 0 0 0 0 0 0 0 0 0 0.4 0"/>
<feBlend mode="normal" in2="BackgroundImageFix" result="effect1_dropShadow_728_4038"/>
<feBlend mode="normal" in="SourceGraphic" in2="effect1_dropShadow_728_4038" result="shape"/>
</filter>
<filter id="filter19_d_728_4038" x="266" y="583" width="44" height="66" filterUnits="userSpaceOnUse" color-interpolation-filters="sRGB">
<feFlood flood-opacity="0" result="BackgroundImageFix"/>
<feColorMatrix in="SourceAlpha" type="matrix" values="0 0 0 0 0 0 0 0 0 0 0 0 0 0 0 0 0 0 127 0" result="hardAlpha"/>
<feOffset/>
<feGaussianBlur stdDeviation="2"/>
<feComposite in2="hardAlpha" operator="out"/>
<feColorMatrix type="matrix" values="0 0 0 0 0 0 0 0 0 0 0 0 0 0 0 0 0 0 0.4 0"/>
<feBlend mode="normal" in2="BackgroundImageFix" result="effect1_dropShadow_728_4038"/>
<feBlend mode="normal" in="SourceGraphic" in2="effect1_dropShadow_728_4038" result="shape"/>
</filter>
<filter id="filter20_d_728_4038" x="226" y="608" width="44" height="66" filterUnits="userSpaceOnUse" color-interpolation-filters="sRGB">
<feFlood flood-opacity="0" result="BackgroundImageFix"/>
<feColorMatrix in="SourceAlpha" type="matrix" values="0 0 0 0 0 0 0 0 0 0 0 0 0 0 0 0 0 0 127 0" result="hardAlpha"/>
<feOffset/>
<feGaussianBlur stdDeviation="2"/>
<feComposite in2="hardAlpha" operator="out"/>
<feColorMatrix type="matrix" values="0 0 0 0 0 0 0 0 0 0 0 0 0 0 0 0 0 0 0.4 0"/>
<feBlend mode="normal" in2="BackgroundImageFix" result="effect1_dropShadow_728_4038"/>
<feBlend mode="normal" in="SourceGraphic" in2="effect1_dropShadow_728_4038" result="shape"/>
</filter>
<filter id="filter21_d_728_4038" x="186" y="632" width="44" height="66" filterUnits="userSpaceOnUse" color-interpolation-filters="sRGB">
<feFlood flood-opacity="0" result="BackgroundImageFix"/>
<feColorMatrix in="SourceAlpha" type="matrix" values="0 0 0 0 0 0 0 0 0 0 0 0 0 0 0 0 0 0 127 0" result="hardAlpha"/>
<feOffset/>
<feGaussianBlur stdDeviation="2"/>
<feComposite in2="hardAlpha" operator="out"/>
<feColorMatrix type="matrix" values="0 0 0 0 0 0 0 0 0 0 0 0 0 0 0 0 0 0 0.4 0"/>
<feBlend mode="normal" in2="BackgroundImageFix" result="effect1_dropShadow_728_4038"/>
<feBlend mode="normal" in="SourceGraphic" in2="effect1_dropShadow_728_4038" result="shape"/>
</filter>
<filter id="filter22_d_728_4038" x="146" y="658" width="44" height="66" filterUnits="userSpaceOnUse" color-interpolation-filters="sRGB">
<feFlood flood-opacity="0" result="BackgroundImageFix"/>
<feColorMatrix in="SourceAlpha" type="matrix" values="0 0 0 0 0 0 0 0 0 0 0 0 0 0 0 0 0 0 127 0" result="hardAlpha"/>
<feOffset/>
<feGaussianBlur stdDeviation="2"/>
<feComposite in2="hardAlpha" operator="out"/>
<feColorMatrix type="matrix" values="0 0 0 0 0 0 0 0 0 0 0 0 0 0 0 0 0 0 0.4 0"/>
<feBlend mode="normal" in2="BackgroundImageFix" result="effect1_dropShadow_728_4038"/>
<feBlend mode="normal" in="SourceGraphic" in2="effect1_dropShadow_728_4038" result="shape"/>
</filter>
<filter id="filter23_d_728_4038" x="106" y="683" width="44" height="66" filterUnits="userSpaceOnUse" color-interpolation-filters="sRGB">
<feFlood flood-opacity="0" result="BackgroundImageFix"/>
<feColorMatrix in="SourceAlpha" type="matrix" values="0 0 0 0 0 0 0 0 0 0 0 0 0 0 0 0 0 0 127 0" result="hardAlpha"/>
<feOffset/>
<feGaussianBlur stdDeviation="2"/>
<feComposite in2="hardAlpha" operator="out"/>
<feColorMatrix type="matrix" values="0 0 0 0 0 0 0 0 0 0 0 0 0 0 0 0 0 0 0.4 0"/>
<feBlend mode="normal" in2="BackgroundImageFix" result="effect1_dropShadow_728_4038"/>
<feBlend mode="normal" in="SourceGraphic" in2="effect1_dropShadow_728_4038" result="shape"/>
</filter>
<clipPath id="clip0_728_4038">
<rect width="393" height="912" fill="white"/>
</clipPath>
<clipPath id="clip1_728_4038">
<rect width="24" height="24" fill="white" transform="translate(25 609)"/>
</clipPath>
<clipPath id="clip2_728_4038">
<rect width="24" height="24" fill="white" transform="translate(25 547)"/>
</clipPath>
<clipPath id="clip3_728_4038">
<rect width="24" height="24" fill="white" transform="translate(25 485)"/>
</clipPath>
<clipPath id="clip4_728_4038">
<rect width="24" height="24" fill="white" transform="translate(25 423)"/>
</clipPath>
<clipPath id="clip5_728_4038">
<rect width="24" height="24" fill="white" transform="translate(25 361)"/>
</clipPath>
<clipPath id="clip6_728_4038">
<rect width="24" height="24" fill="white" transform="translate(25 299)"/>
</clipPath>
<clipPath id="clip7_728_4038">
<rect width="24" height="24" fill="white" transform="translate(65 276)"/>
</clipPath>
<clipPath id="clip8_728_4038">
<rect width="24" height="24" fill="white" transform="translate(105 253)"/>
</clipPath>
<clipPath id="clip9_728_4038">
<rect width="24" height="24" fill="white" transform="translate(145 230)"/>
</clipPath>
<clipPath id="clip10_728_4038">
<rect width="24" height="24" fill="white" transform="translate(185 207)"/>
</clipPath>
<clipPath id="clip11_728_4038">
<rect width="24" height="24" fill="white" transform="translate(225 184)"/>
</clipPath>
<clipPath id="clip12_728_4038">
<rect width="24" height="24" fill="white" transform="translate(265 161)"/>
</clipPath>
<clipPath id="clip13_728_4038">
<rect width="24" height="24" fill="white" transform="translate(276 615)"/>
</clipPath>
<clipPath id="clip14_728_4038">
<rect width="24" height="24" fill="white" transform="translate(236 640)"/>
</clipPath>
<clipPath id="clip15_728_4038">
<rect width="24" height="24" fill="white" transform="translate(196 664)"/>
</clipPath>
<clipPath id="clip16_728_4038">
<rect width="24" height="24" fill="white" transform="translate(156 690)"/>
</clipPath>
<clipPath id="clip17_728_4038">
<rect width="24" height="24" fill="white" transform="translate(116 715)"/>
</clipPath>
</defs>
</svg>
