<svg width="393" height="912" viewBox="0 0 393 912" fill="none" xmlns="http://www.w3.org/2000/svg">
<g clip-path="url(#clip0_745_3383)">
<path d="M799.733 558.234L494.716 60.1403L-36.7841 108.14L-245.784 906.641L47.2991 1076.51L796.181 574.469C801.527 570.885 803.094 563.723 799.733 558.234Z" fill="white" fill-opacity="0.24"/>
<rect x="471.612" y="757.577" width="290.953" height="184.091" rx="8" transform="rotate(148.005 471.612 757.577)" fill="#E8E9EB"/>
<path d="M758.614 568.298C760.896 572.118 759.624 577.065 755.783 579.31L652.577 639.615C648.841 641.798 644.048 640.616 641.756 636.946L505.097 418.165C502.812 414.507 498.039 413.319 494.306 415.479L356.336 495.308C352.555 497.495 347.719 496.246 345.471 492.501L253.346 339.045C251.068 335.252 252.303 330.33 256.101 328.06L513.708 174.104C517.501 171.837 522.413 173.075 524.679 176.867L758.614 568.298Z" fill="#E8E9EB"/>
<path d="M98.9545 765.269L380.918 587.646C384.583 585.338 385.745 580.532 383.54 576.805L241.513 336.679C239.287 332.916 240.494 328.064 244.224 325.782L350.872 260.542C354.648 258.232 355.83 253.296 353.512 249.526L286.556 140.673C284.275 136.966 279.448 135.762 275.694 137.965L16.2551 290.177C13.8046 291.614 12.3004 294.244 12.3034 297.085L12.7828 758.508C12.7874 762.923 16.3678 766.5 20.7829 766.5L94.6905 766.5C96.1995 766.5 97.6778 766.073 98.9545 765.269Z" fill="#CFBCE8"/>
<rect x="216.549" y="308" width="64" height="54.1357" rx="8" transform="rotate(59.3 216.549 308)" fill="white"/>
<rect x="251.266" y="366.47" width="64" height="54.1357" rx="8" transform="rotate(59.3 251.266 366.47)" fill="white"/>
<rect x="285.983" y="424.94" width="64" height="54.1357" rx="8" transform="rotate(59.3 285.983 424.94)" fill="white"/>
<rect x="320.7" y="483.41" width="60.081" height="54.1357" rx="8" transform="rotate(59.3 320.7 483.41)" fill="white"/>
<rect x="19" y="706" width="72" height="54.1357" rx="8" fill="white"/>
<rect x="19" y="644" width="72" height="54.1357" rx="8" fill="white"/>
<rect x="299" y="354" width="84" height="22" rx="11" fill="#CFBCE8"/>
<path d="M307.402 370.127C305.701 370.114 303.923 369.105 303.923 365.709C303.93 362.51 305.313 360.682 307.516 360.682C309.211 360.682 310.385 361.735 310.601 363.195H309.217C309.033 362.446 308.443 361.907 307.516 361.9C306.094 361.907 305.269 363.138 305.269 365.214H305.371C305.872 364.433 306.735 363.976 307.732 363.97C309.37 363.976 310.69 365.233 310.69 366.991C310.69 368.775 309.376 370.14 307.402 370.127ZM305.434 367.029C305.44 368.051 306.259 368.953 307.389 368.959C308.5 368.953 309.332 368.089 309.332 367.017C309.332 365.963 308.532 365.106 307.427 365.112C306.304 365.106 305.447 366.007 305.434 367.029ZM315.375 370.127C313.248 370.127 311.998 368.413 311.998 365.404C311.998 362.415 313.261 360.682 315.375 360.682C317.482 360.682 318.745 362.415 318.751 365.404C318.745 368.413 317.501 370.127 315.375 370.127ZM313.394 365.404C313.388 367.696 314.13 368.921 315.375 368.921C316.612 368.921 317.355 367.696 317.355 365.404C317.355 363.119 316.606 361.869 315.375 361.862C314.137 361.869 313.394 363.119 313.394 365.404ZM330.177 366.115V367.093H325.556V371.066H324.375V367.093H319.805V366.115H330.177ZM320.389 364.3C322.509 364.008 324.274 362.745 324.312 361.342H320.77V360.377H329.2V361.342H325.683C325.702 362.745 327.454 364.008 329.606 364.3L329.162 365.252C327.295 364.96 325.683 364.04 324.991 362.745C324.293 364.04 322.687 364.96 320.846 365.252L320.389 364.3ZM340.524 359.717V368.121H339.318V364.249H336.195V363.284H339.318V362.091H336.195V361.126H339.318V359.717H340.524ZM331.713 366.496V360.504H332.907V365.48C334.417 365.474 335.852 365.392 337.477 365.087L337.604 366.077C335.801 366.414 334.259 366.483 332.589 366.496H331.713ZM333.11 370.838V367.385H334.329V369.86H340.816V370.838H333.11ZM354.908 359.704V371.079H353.689V359.704H354.908ZM345.564 368.032C348.585 366.591 350.064 364.541 350.299 361.888H346.11V360.923H351.518C351.518 364.255 350.103 367.137 346.199 369.01L345.564 368.032ZM358.577 360.25V364.947C360.208 364.935 361.535 364.858 363.033 364.592L363.16 365.557C361.522 365.868 360.087 365.944 358.234 365.95H357.358V360.25H358.577ZM358.742 370.939V366.877H366.168V370.939H358.742ZM359.922 369.962H364.975V367.829H359.922V369.962ZM361.865 363.843V362.916H364.962V361.837H361.865V360.91H364.962V359.704H366.168V366.382H364.962V363.843H361.865ZM374.255 360.567V361.202C374.243 361.964 374.243 363.094 373.963 364.566L372.77 364.452C373.018 363.195 373.056 362.275 373.068 361.558H368.517V360.567H374.255ZM367.832 365.544C368.53 365.544 369.323 365.538 370.155 365.519V363.119H371.348V365.48C372.567 365.43 373.824 365.341 374.966 365.176L375.042 366.052C372.668 366.471 369.952 366.515 367.946 366.521L367.832 365.544ZM369.558 370.838V367.474H370.764V369.86H377.29V370.838H369.558ZM375.69 368.248V359.704H376.921V363.322H378.483V364.338H376.921V368.248H375.69Z" fill="#2D3033"/>
<g filter="url(#filter0_d_745_3383)">
<rect x="180" y="336" width="60" height="24" rx="8" fill="#9AE79D" shape-rendering="crispEdges"/>
<path d="M196.523 348.518V349.646H191.191V354.23H189.829V349.646H184.556V348.518H196.523ZM185.229 346.423C187.676 346.086 189.712 344.628 189.756 343.01H185.669V341.896H195.396V343.01H191.338C191.36 344.628 193.381 346.086 195.864 346.423L195.352 347.521C193.198 347.185 191.338 346.123 190.54 344.628C189.734 346.123 187.881 347.185 185.757 347.521L185.229 346.423ZM209.517 348.913V350.012H206.499V354.245H205.093V350.012H201.929V354.245H200.537V350.012H197.505V348.913H209.517ZM198.926 342.731V341.589H208.096V345.104H200.361V346.555H208.374V347.683H198.97V344.064H206.675V342.731H198.926ZM217.939 342.307V343.435H216.694V347.551C217.317 347.507 217.925 347.448 218.511 347.375L218.599 348.415C215.955 348.833 212.893 348.891 210.645 348.898L210.483 347.756C210.989 347.756 211.531 347.749 212.095 347.741V343.435H210.85V342.307H217.939ZM212.476 353.967V349.865H213.867V352.839H221.353V353.967H212.476ZM213.442 347.712C214.065 347.69 214.695 347.668 215.332 347.639V343.435H213.442V347.712ZM219.404 350.788V341.135H220.796V345.017H222.7V346.188H220.796V350.788H219.404ZM234.741 341.12V354.245H233.408V347.404H231.782V353.601H230.464V341.369H231.782V346.262H233.408V341.12H234.741ZM223.887 350.788V342.6H228.984V350.788H223.887ZM225.205 349.675H227.681V343.698H225.205V349.675Z" fill="#2D3033"/>
</g>
<g filter="url(#filter1_d_745_3383)">
<rect x="25" y="659" width="60" height="24" rx="8" fill="#9AE79D" shape-rendering="crispEdges"/>
<path d="M41.5234 671.518V672.646H36.1914V677.23H34.8291V672.646H29.5557V671.518H41.5234ZM30.2295 669.423C32.6758 669.086 34.7119 667.628 34.7559 666.01H30.6689V664.896H40.3955V666.01H36.3379C36.3599 667.628 38.3813 669.086 40.8643 669.423L40.3516 670.521C38.1982 670.185 36.3379 669.123 35.5396 667.628C34.7339 669.123 32.8809 670.185 30.7568 670.521L30.2295 669.423ZM54.5166 671.913V673.012H51.499V677.245H50.0928V673.012H46.9287V677.245H45.5371V673.012H42.5049V671.913H54.5166ZM43.9258 665.731V664.589H53.0957V668.104H45.3613V669.555H53.374V670.683H43.9697V667.064H51.6748V665.731H43.9258ZM62.9395 665.307V666.435H61.6943V670.551C62.3169 670.507 62.9248 670.448 63.5107 670.375L63.5986 671.415C60.9546 671.833 57.8931 671.891 55.6445 671.898L55.4834 670.756C55.9888 670.756 56.5308 670.749 57.0947 670.741V666.435H55.8496V665.307H62.9395ZM57.4756 676.967V672.865H58.8672V675.839H66.3525V676.967H57.4756ZM58.4424 670.712C59.0649 670.69 59.6948 670.668 60.332 670.639V666.435H58.4424V670.712ZM64.4043 673.788V664.135H65.7959V668.017H67.7002V669.188H65.7959V673.788H64.4043ZM79.7412 664.12V677.245H78.4082V670.404H76.7822V676.601H75.4639V664.369H76.7822V669.262H78.4082V664.12H79.7412ZM68.8867 673.788V665.6H73.9844V673.788H68.8867ZM70.2051 672.675H72.6807V666.698H70.2051V672.675Z" fill="#2D3033"/>
</g>
<g filter="url(#filter2_d_745_3383)">
<rect x="25" y="722" width="60" height="24" rx="8" fill="#FDFFA7" shape-rendering="crispEdges"/>
<path d="M40.4395 727.12V734.166H39.0479V727.12H40.4395ZM29.8193 730.768C29.8267 728.966 31.3062 727.713 33.3203 727.721C35.3271 727.713 36.8066 728.966 36.8066 730.768C36.8066 732.562 35.3271 733.814 33.3203 733.8C31.3062 733.814 29.8267 732.562 29.8193 730.768ZM31.1816 730.768C31.1743 731.903 32.0752 732.657 33.3203 732.657C34.5508 732.657 35.4443 731.903 35.4443 730.768C35.4443 729.647 34.5508 728.885 33.3203 728.893C32.0752 728.885 31.1743 729.647 31.1816 730.768ZM31.8555 740.084V734.796H33.2178V736.275H39.0625V734.796H40.4395V740.084H31.8555ZM33.2178 738.941H39.0625V737.374H33.2178V738.941ZM47.1045 729.537C47.0972 731.207 48.2617 732.73 50.2539 733.36L49.5947 734.444C48.1006 733.968 47.0093 732.979 46.4307 731.734C45.8594 733.17 44.7095 734.305 43.1348 734.854L42.417 733.741C44.4678 733.067 45.7056 731.375 45.7129 729.552V729.186H42.8271V728.058H49.9316V729.186H47.1045V729.537ZM44.1895 737.755C44.1895 736.217 45.8667 735.316 48.5986 735.323C51.3013 735.316 52.9492 736.217 52.9492 737.755C52.9492 739.315 51.3013 740.223 48.5986 740.216C45.8667 740.223 44.1895 739.315 44.1895 737.755ZM45.5811 737.755C45.5737 738.634 46.7017 739.125 48.5986 739.117C50.481 739.125 51.5942 738.634 51.5869 737.755C51.5942 736.898 50.481 736.415 48.5986 736.422C46.7017 736.415 45.5737 736.898 45.5811 737.755ZM51.4404 735.001V727.12H52.832V730.372H54.7363V731.515H52.832V735.001H51.4404ZM65.7959 727.105V731.031H67.7002V732.203H65.7959V736.759H64.4043V727.105H65.7959ZM55.6885 731.28C55.6738 729.369 57.1973 728.021 59.1748 728.014C61.1597 728.021 62.6611 729.369 62.6758 731.28C62.6611 733.192 61.1597 734.554 59.1748 734.547C57.1973 734.554 55.6738 733.192 55.6885 731.28ZM57.0508 731.28C57.0361 732.503 57.9736 733.331 59.1748 733.331C60.3906 733.331 61.3062 732.503 61.3135 731.28C61.3062 730.057 60.3906 729.229 59.1748 729.229C57.9736 729.229 57.0361 730.057 57.0508 731.28ZM57.4756 739.967V735.748H58.8672V738.839H66.3525V739.967H57.4756ZM79.6826 727.12V740.245H78.3496V733.521H76.665V739.571H75.3613V727.384H76.665V732.379H78.3496V727.12H79.6826ZM69.0625 736.905V728.673H70.4541V735.682C71.6626 735.667 72.9883 735.572 74.4824 735.279L74.6289 736.495C72.8271 736.817 71.3257 736.913 69.9121 736.905H69.0625Z" fill="#2D3033"/>
</g>
<rect x="282" y="744" width="42" height="22" rx="11" fill="#CFBCE8"/>
<path d="M288.191 750.428V752.167H290.387V750.428H291.504V755.798H287.048V750.428H288.191ZM288.191 754.82H290.387V753.106H288.191V754.82ZM288.534 758.159V757.182H296.265V761.079H295.072V758.159H288.534ZM292.672 756.471V749.92H293.79V752.611H295.123V749.717H296.265V756.547H295.123V753.602H293.79V756.471H292.672ZM308.199 755.912V756.89H297.789V755.912H302.397V754.833H299.122V751.938H305.685V750.923H299.096V749.971H306.891V752.827H300.315V753.894H307.12V754.833H303.59V755.912H308.199ZM298.957 758.654V757.689H306.955V760.99H305.736V758.654H298.957ZM315.372 750.567V751.202C315.359 751.964 315.359 753.094 315.08 754.566L313.886 754.452C314.134 753.195 314.172 752.275 314.185 751.558H309.633V750.567H315.372ZM308.948 755.544C309.646 755.544 310.439 755.538 311.271 755.519V753.119H312.464V755.48C313.683 755.43 314.94 755.341 316.083 755.176L316.159 756.052C313.785 756.471 311.068 756.515 309.062 756.521L308.948 755.544ZM310.674 760.838V757.474H311.88V759.86H318.406V760.838H310.674ZM316.806 758.248V749.704H318.038V753.322H319.599V754.338H318.038V758.248H316.806Z" fill="#2D3033"/>
<g filter="url(#filter3_d_745_3383)">
<rect x="283" y="508" width="60" height="24" rx="8" fill="#FDFFA7" shape-rendering="crispEdges"/>
<path d="M298.439 513.12V520.166H297.048V513.12H298.439ZM287.819 516.768C287.827 514.966 289.306 513.713 291.32 513.721C293.327 513.713 294.807 514.966 294.807 516.768C294.807 518.562 293.327 519.814 291.32 519.8C289.306 519.814 287.827 518.562 287.819 516.768ZM289.182 516.768C289.174 517.903 290.075 518.657 291.32 518.657C292.551 518.657 293.444 517.903 293.444 516.768C293.444 515.647 292.551 514.885 291.32 514.893C290.075 514.885 289.174 515.647 289.182 516.768ZM289.855 526.084V520.796H291.218V522.275H297.062V520.796H298.439V526.084H289.855ZM291.218 524.941H297.062V523.374H291.218V524.941ZM305.104 515.537C305.097 517.207 306.262 518.73 308.254 519.36L307.595 520.444C306.101 519.968 305.009 518.979 304.431 517.734C303.859 519.17 302.709 520.305 301.135 520.854L300.417 519.741C302.468 519.067 303.706 517.375 303.713 515.552V515.186H300.827V514.058H307.932V515.186H305.104V515.537ZM302.189 523.755C302.189 522.217 303.867 521.316 306.599 521.323C309.301 521.316 310.949 522.217 310.949 523.755C310.949 525.315 309.301 526.223 306.599 526.216C303.867 526.223 302.189 525.315 302.189 523.755ZM303.581 523.755C303.574 524.634 304.702 525.125 306.599 525.117C308.481 525.125 309.594 524.634 309.587 523.755C309.594 522.898 308.481 522.415 306.599 522.422C304.702 522.415 303.574 522.898 303.581 523.755ZM309.44 521.001V513.12H310.832V516.372H312.736V517.515H310.832V521.001H309.44ZM323.796 513.105V517.031H325.7V518.203H323.796V522.759H322.404V513.105H323.796ZM313.688 517.28C313.674 515.369 315.197 514.021 317.175 514.014C319.16 514.021 320.661 515.369 320.676 517.28C320.661 519.192 319.16 520.554 317.175 520.547C315.197 520.554 313.674 519.192 313.688 517.28ZM315.051 517.28C315.036 518.503 315.974 519.331 317.175 519.331C318.391 519.331 319.306 518.503 319.313 517.28C319.306 516.057 318.391 515.229 317.175 515.229C315.974 515.229 315.036 516.057 315.051 517.28ZM315.476 525.967V521.748H316.867V524.839H324.353V525.967H315.476ZM337.683 513.12V526.245H336.35V519.521H334.665V525.571H333.361V513.384H334.665V518.379H336.35V513.12H337.683ZM327.062 522.905V514.673H328.454V521.682C329.663 521.667 330.988 521.572 332.482 521.279L332.629 522.495C330.827 522.817 329.326 522.913 327.912 522.905H327.062Z" fill="#2D3033"/>
</g>
<g filter="url(#filter4_d_745_3383)">
<rect x="216" y="394" width="60" height="24" rx="8" fill="#CFBCE8" shape-rendering="crispEdges"/>
<path d="M232.523 405.844V406.972H220.556V405.844H225.844V404.335H227.221V405.844H232.523ZM221.186 403.91C223.786 403.698 225.587 402.746 225.756 401.479H221.757V400.365H225.844V399.105H227.221V400.365H231.322V401.479H227.309C227.462 402.746 229.271 403.698 231.879 403.91L231.454 404.979C229.184 404.767 227.345 404.005 226.532 402.782C225.712 404.005 223.881 404.767 221.625 404.979L221.186 403.91ZM221.977 410.033C221.977 408.612 223.661 407.836 226.532 407.836C229.389 407.836 231.051 408.612 231.059 410.033C231.051 411.454 229.389 412.223 226.532 412.216C223.661 412.223 221.977 411.454 221.977 410.033ZM223.383 410.033C223.375 410.78 224.503 411.176 226.532 411.161C228.532 411.176 229.667 410.78 229.667 410.033C229.667 409.286 228.532 408.876 226.532 408.876C224.503 408.876 223.375 409.286 223.383 410.033ZM241.356 400.453V401.566H233.534V400.453H236.757V399.062H238.148V400.453H241.356ZM234.252 404.54C234.245 403.104 235.548 402.167 237.445 402.152C239.335 402.167 240.624 403.104 240.624 404.54C240.624 405.983 239.335 406.928 237.445 406.928C235.548 406.928 234.245 405.983 234.252 404.54ZM235.16 409.125V407.997H243.832V412.245H242.44V409.125H235.16ZM235.6 404.54C235.585 405.353 236.332 405.844 237.445 405.844C238.559 405.844 239.306 405.353 239.32 404.54C239.306 403.734 238.559 403.229 237.445 403.222C236.332 403.229 235.585 403.734 235.6 404.54ZM242.44 407.323V399.12H243.832V402.68H245.736V403.837H243.832V407.323H242.44ZM250.497 401.64C250.497 403.075 251.413 404.525 253.119 405.17L252.387 406.239C251.164 405.771 250.307 404.877 249.838 403.8C249.354 405.016 248.461 406.071 247.187 406.62L246.425 405.536C248.197 404.767 249.149 403.097 249.149 401.64V399.94H250.497V401.64ZM248.842 409.843C248.827 408.349 250.534 407.462 253.28 407.455C256.02 407.462 257.741 408.349 257.748 409.843C257.741 411.337 256.02 412.223 253.28 412.216C250.534 412.223 248.827 411.337 248.842 409.843ZM250.219 409.843C250.204 410.678 251.369 411.161 253.28 411.146C255.185 411.161 256.349 410.678 256.356 409.843C256.349 409 255.185 408.517 253.28 408.524C251.369 408.517 250.204 409 250.219 409.843ZM253.529 406.796V399.369H254.818V402.548H256.356V399.135H257.675V407.206H256.356V403.69H254.818V406.796H253.529ZM270.302 399.12V412.245H268.91V399.12H270.302ZM259.521 408.671C260.604 408.664 261.835 408.656 263.124 408.627V407.309C261.593 407.104 260.597 406.203 260.604 404.921C260.597 403.441 261.886 402.467 263.783 402.46C265.702 402.467 267.013 403.441 267.021 404.921C267.013 406.188 266.024 407.082 264.501 407.301V408.576C265.717 408.517 266.947 408.429 268.104 408.275L268.207 409.315C265.292 409.799 262.113 409.835 259.711 409.828L259.521 408.671ZM259.799 401.801V400.688H263.124V399.149H264.516V400.688H267.812V401.801H259.799ZM261.923 404.921C261.908 405.756 262.685 406.276 263.783 406.269C264.918 406.276 265.688 405.756 265.688 404.921C265.688 404.079 264.918 403.544 263.783 403.544C262.685 403.544 261.908 404.079 261.923 404.921Z" fill="#2D3033"/>
</g>
<g filter="url(#filter5_d_745_3383)">
<rect x="127" y="508" width="77" height="24" rx="8" fill="white" shape-rendering="crispEdges"/>
<path d="M143.71 520.518V521.646H138.378V526.23H137.016V521.646H131.743V520.518H143.71ZM132.417 518.423C134.863 518.086 136.899 516.628 136.943 515.01H132.856V513.896H142.583V515.01H138.525C138.547 516.628 140.568 518.086 143.051 518.423L142.539 519.521C140.385 519.185 138.525 518.123 137.727 516.628C136.921 518.123 135.068 519.185 132.944 519.521L132.417 518.423ZM155.649 513.12V520.767H154.257V517.471H151.796V516.313H154.257V513.12H155.649ZM144.721 519.595C146.735 518.906 147.995 517.156 147.988 515.361V515.054H145.146V513.911H152.221V515.054H149.409V515.361C149.401 516.995 150.588 518.628 152.573 519.316L151.855 520.415C150.383 519.902 149.292 518.848 148.72 517.544C148.149 518.994 146.999 520.144 145.439 520.693L144.721 519.595ZM146.992 526.084V521.382H155.649V526.084H146.992ZM148.369 524.956H154.287V522.48H148.369V524.956ZM166.708 514.673V515.786H163.134V518.203H166.123V519.287H163.134V522.041C164.848 522.019 165.969 521.953 167.324 521.704L167.441 522.832C165.932 523.14 164.687 523.162 162.651 523.169H161.801V514.673H166.708ZM166.811 519.17V518.042H168.583V513.398H169.902V525.586H168.583V519.17H166.811ZM171.264 526.245V513.12H172.612V526.245H171.264ZM185.166 513.12V526.274H183.774V513.12H185.166ZM174.75 518.701C174.75 515.896 176.164 514.109 178.149 514.102C180.097 514.109 181.533 515.896 181.533 518.701C181.533 521.536 180.097 523.323 178.149 523.315C176.164 523.323 174.75 521.536 174.75 518.701ZM176.098 518.701C176.091 520.789 176.926 522.07 178.149 522.07C179.35 522.07 180.185 520.789 180.185 518.701C180.185 516.643 179.35 515.354 178.149 515.347C176.926 515.354 176.091 516.643 176.098 518.701ZM190.205 513.34V514.497H196.284V513.34H197.675V517.705H188.828V513.34H190.205ZM187.26 519.8V518.701H199.228V519.8H187.26ZM188.696 521.895V520.854H197.719V523.901H190.073V525.044H198.085V526.113H188.71V522.905H196.342V521.895H188.696ZM190.205 516.65H196.284V515.522H190.205V516.65Z" fill="#2D3033"/>
</g>
<g filter="url(#filter6_d_745_3383)">
<rect x="249" y="447" width="60" height="34" rx="8" fill="#BCDBE8" shape-rendering="crispEdges"/>
<path d="M276.832 450.12V453.211H278.736V454.368H276.832V457.532H275.44V450.12H276.832ZM266.461 456.609C269.603 455.782 271.449 454.134 271.705 452.083H267.076V450.94H273.214C273.207 454.302 270.929 456.668 267.018 457.723L266.461 456.609ZM268.424 463.069V458.089H276.832V463.069H268.424ZM269.815 461.956H275.455V459.246H269.815V461.956ZM284.054 453.987C284.046 456.06 285.416 458.375 287.408 459.319L286.617 460.403C285.145 459.7 283.973 458.221 283.38 456.507C282.779 458.375 281.549 459.993 280.055 460.74L279.234 459.642C281.227 458.682 282.669 456.207 282.677 453.987V452.596H279.718V451.438H286.91V452.596H284.054V453.987ZM288.316 463.245V450.12H289.708V455.32H291.817V456.492H289.708V463.245H288.316ZM257.071 466.102C259.034 466.109 260.433 467.896 260.44 470.701C260.433 473.536 259.034 475.323 257.071 475.315C255.108 475.323 253.709 473.536 253.717 470.701C253.709 467.896 255.108 466.109 257.071 466.102ZM255.05 470.701C255.042 472.789 255.877 474.07 257.071 474.07C258.287 474.07 259.107 472.789 259.107 470.701C259.107 468.643 258.287 467.354 257.071 467.347C255.877 467.354 255.042 468.643 255.05 470.701ZM262.389 478.245V465.12H263.78V470.262H265.89V471.434H263.78V478.245H262.389ZM270.24 465.56C272.218 465.574 273.675 466.783 273.683 468.504C273.675 470.232 272.218 471.434 270.24 471.434C268.241 471.434 266.791 470.232 266.783 468.504C266.791 466.783 268.241 465.574 270.24 465.56ZM268.146 468.504C268.138 469.588 269.032 470.306 270.24 470.306C271.441 470.306 272.335 469.588 272.335 468.504C272.335 467.435 271.441 466.717 270.24 466.731C269.032 466.717 268.138 467.435 268.146 468.504ZM268.775 473.514V472.4H277.403V475.711H270.167V476.971H277.843V478.084H268.819V474.671H276.026V473.514H268.775ZM276.012 471.8V465.12H277.403V471.8H276.012ZM290.675 465.135V474.891H289.356V470.13H287.745V474.539H286.441V465.369H287.745V468.987H289.356V465.135H290.675ZM280.04 467.347V466.233H285.021V470.086H281.417V471.858C283.043 471.851 284.281 471.771 285.724 471.492L285.87 472.605C284.215 472.913 282.853 472.979 280.934 472.972H280.069V469.031H283.688V467.347H280.04ZM281.974 477.967V473.982H283.351V476.839H291.056V477.967H281.974ZM303.082 471.346V472.488H293.941V466.292H302.965V467.435H295.318V471.346H303.082ZM292.447 476.517V475.359H304.459V476.517H292.447Z" fill="#2D3033"/>
</g>
</g>
<g filter="url(#filter7_d_745_3383)">
<rect x="19" y="581" width="36" height="58" rx="8" fill="white" shape-rendering="crispEdges"/>
<path d="M36.9902 606.195C33.7578 606.195 31.4434 604.496 31.4434 602.191C31.4434 600.414 32.8105 598.969 34.5684 598.695V598.598C33.0352 598.305 31.9805 597.025 31.9902 595.473C31.9805 593.275 34.0996 591.664 36.9902 591.664C39.8809 591.664 42 593.275 42.0098 595.473C42 597.025 40.916 598.305 39.4316 598.598V598.695C41.1504 598.969 42.5371 600.414 42.5371 602.191C42.5371 604.496 40.2129 606.195 36.9902 606.195ZM34.5098 601.898C34.5 603.109 35.4961 603.959 36.9902 603.949C38.4844 603.959 39.4805 603.109 39.4707 601.898C39.4805 600.678 38.4258 599.779 36.9902 599.77C35.5547 599.779 34.5 600.668 34.5098 601.898ZM34.8613 595.766C34.8516 596.898 35.7402 597.689 36.9902 597.699C38.2305 597.689 39.1289 596.898 39.1387 595.766C39.1289 594.662 38.25 593.891 36.9902 593.891C35.7207 593.891 34.8516 594.662 34.8613 595.766Z" fill="#8A61BF"/>
<g clip-path="url(#clip1_745_3383)">
<path d="M47.7937 622.7L47.4891 622.045H40.8604V627.654H41.681C41.677 627.596 41.6636 627.541 41.6636 627.482C41.6636 626.065 42.812 624.917 44.2286 624.917C45.6452 624.917 46.7936 626.065 46.7936 627.482C46.7936 627.541 46.7802 627.596 46.7762 627.654H47.0618C47.5826 627.654 48.0048 627.232 48.0048 626.711V623.655C48.0048 623.325 47.9328 622.999 47.7937 622.7Z" fill="#CBCFD2"/>
<path d="M40.8603 616.429V614.49C40.8603 613.969 40.4381 613.547 39.9173 613.547H26.9381C26.4173 613.547 25.9951 613.969 25.9951 614.49V626.711C25.9951 627.232 26.4173 627.654 26.9381 627.654H27.9607C27.9568 627.596 27.9433 627.541 27.9433 627.482C27.9433 626.065 29.0917 624.917 30.5083 624.917C31.9249 624.917 33.0733 626.065 33.0733 627.482C33.0733 627.541 33.0599 627.596 33.0559 627.654H40.8603L40.8603 616.429Z" fill="#F1F1F1"/>
<path d="M40.8603 614.49V616.429L40.8603 622.044H25.9951V614.49C25.9951 613.969 26.4173 613.547 26.9381 613.547H39.9173C40.4381 613.547 40.8603 613.969 40.8603 614.49Z" fill="#F08C54"/>
<path d="M47.4891 622.045L45.3372 617.418C45.0567 616.815 44.4519 616.429 43.7867 616.429H40.8604V622.045H47.4891Z" fill="#85A6D0"/>
<path d="M30.5083 624.917C29.0917 624.917 27.9434 626.065 27.9434 627.482C27.9434 627.541 27.9568 627.596 27.9608 627.654C28.0511 628.989 29.1509 630.047 30.5083 630.047C31.8658 630.047 32.9656 628.989 33.056 627.654C33.0599 627.596 33.0733 627.541 33.0733 627.482C33.0733 626.065 31.9249 624.917 30.5083 624.917ZM30.5083 628.508C29.9417 628.508 29.4824 628.048 29.4824 627.482C29.4824 626.915 29.9417 626.456 30.5083 626.456C31.075 626.456 31.5343 626.915 31.5343 627.482C31.5343 628.048 31.075 628.508 30.5083 628.508Z" fill="#313D4C"/>
<path d="M44.2288 624.917C42.8122 624.917 41.6638 626.065 41.6638 627.482C41.6638 627.541 41.6773 627.596 41.6812 627.654C41.7716 628.989 42.8714 630.047 44.2288 630.047C45.5862 630.047 46.686 628.989 46.7764 627.654C46.7804 627.596 46.7938 627.541 46.7938 627.482C46.7938 626.065 45.6454 624.917 44.2288 624.917ZM44.2288 628.508C43.6622 628.508 43.2028 628.048 43.2028 627.482C43.2028 626.915 43.6622 626.456 44.2288 626.456C44.7955 626.456 45.2548 626.915 45.2548 627.482C45.2548 628.048 44.7955 628.508 44.2288 628.508Z" fill="#313D4C"/>
<path d="M31.5344 627.482C31.5344 626.915 31.075 626.456 30.5084 626.456C29.9418 626.456 29.4824 626.915 29.4824 627.482C29.4824 628.048 29.9418 628.508 30.5084 628.508C31.075 628.508 31.5344 628.048 31.5344 627.482Z" fill="#6B7683"/>
<path d="M45.2546 627.482C45.2546 626.915 44.7953 626.456 44.2286 626.456C43.662 626.456 43.2026 626.915 43.2026 627.482C43.2026 628.048 43.662 628.508 44.2286 628.508C44.7953 628.508 45.2546 628.048 45.2546 627.482Z" fill="#6B7683"/>
</g>
</g>
<g filter="url(#filter8_d_745_3383)">
<rect x="19" y="519" width="36" height="58" rx="8" fill="white" shape-rendering="crispEdges"/>
<path opacity="0.9" d="M36.8438 529.664C39.7734 529.674 42.5469 531.422 42.5469 536.559C42.5566 541.363 40.2812 544.195 36.7266 544.195C33.8848 544.195 31.9316 542.408 31.6484 540.016H34.5391C34.7832 541.061 35.5938 541.676 36.7266 541.676C38.6504 541.676 39.666 539.947 39.6758 537.125H39.5586C38.8945 538.375 37.498 539.117 35.9258 539.117C33.3867 539.117 31.5117 537.203 31.4922 534.566C31.4922 531.725 33.6504 529.654 36.8438 529.664ZM34.3633 534.488C34.3633 535.885 35.3887 536.969 36.8438 536.969C38.2793 536.969 39.3828 535.826 39.3828 534.469C39.3633 533.121 38.3086 531.979 36.8633 531.969C35.418 531.979 34.3438 533.082 34.3633 534.488Z" fill="#8A61BF"/>
<g clip-path="url(#clip2_745_3383)">
<path d="M47.7937 560.7L47.4891 560.045H40.8604V565.654H41.681C41.677 565.596 41.6636 565.541 41.6636 565.482C41.6636 564.065 42.812 562.917 44.2286 562.917C45.6452 562.917 46.7936 564.065 46.7936 565.482C46.7936 565.541 46.7802 565.596 46.7762 565.654H47.0618C47.5826 565.654 48.0048 565.232 48.0048 564.711V561.655C48.0048 561.325 47.9328 560.999 47.7937 560.7Z" fill="#CBCFD2"/>
<path d="M40.8603 554.429V552.49C40.8603 551.969 40.4381 551.547 39.9173 551.547H26.9381C26.4173 551.547 25.9951 551.969 25.9951 552.49V564.711C25.9951 565.232 26.4173 565.654 26.9381 565.654H27.9607C27.9568 565.596 27.9433 565.541 27.9433 565.482C27.9433 564.065 29.0917 562.917 30.5083 562.917C31.9249 562.917 33.0733 564.065 33.0733 565.482C33.0733 565.541 33.0599 565.596 33.0559 565.654H40.8603L40.8603 554.429Z" fill="#F1F1F1"/>
<path d="M40.8603 552.49V554.429L40.8603 560.044H25.9951V552.49C25.9951 551.969 26.4173 551.547 26.9381 551.547H39.9173C40.4381 551.547 40.8603 551.969 40.8603 552.49Z" fill="#F08C54"/>
<path d="M47.4891 560.045L45.3372 555.418C45.0567 554.815 44.4519 554.429 43.7867 554.429H40.8604V560.045H47.4891Z" fill="#85A6D0"/>
<path d="M30.5083 562.917C29.0917 562.917 27.9434 564.065 27.9434 565.482C27.9434 565.541 27.9568 565.596 27.9608 565.654C28.0511 566.989 29.1509 568.047 30.5083 568.047C31.8658 568.047 32.9656 566.989 33.056 565.654C33.0599 565.596 33.0733 565.541 33.0733 565.482C33.0733 564.065 31.9249 562.917 30.5083 562.917ZM30.5083 566.508C29.9417 566.508 29.4824 566.048 29.4824 565.482C29.4824 564.915 29.9417 564.456 30.5083 564.456C31.075 564.456 31.5343 564.915 31.5343 565.482C31.5343 566.048 31.075 566.508 30.5083 566.508Z" fill="#313D4C"/>
<path d="M44.2288 562.917C42.8122 562.917 41.6638 564.065 41.6638 565.482C41.6638 565.541 41.6773 565.596 41.6812 565.654C41.7716 566.989 42.8714 568.047 44.2288 568.047C45.5862 568.047 46.686 566.989 46.7764 565.654C46.7804 565.596 46.7938 565.541 46.7938 565.482C46.7938 564.065 45.6454 562.917 44.2288 562.917ZM44.2288 566.508C43.6622 566.508 43.2028 566.048 43.2028 565.482C43.2028 564.915 43.6622 564.456 44.2288 564.456C44.7955 564.456 45.2548 564.915 45.2548 565.482C45.2548 566.048 44.7955 566.508 44.2288 566.508Z" fill="#313D4C"/>
<path d="M31.5344 565.482C31.5344 564.915 31.075 564.456 30.5084 564.456C29.9418 564.456 29.4824 564.915 29.4824 565.482C29.4824 566.048 29.9418 566.508 30.5084 566.508C31.075 566.508 31.5344 566.048 31.5344 565.482Z" fill="#6B7683"/>
<path d="M45.2546 565.482C45.2546 564.915 44.7953 564.456 44.2286 564.456C43.662 564.456 43.2026 564.915 43.2026 565.482C43.2026 566.048 43.662 566.508 44.2286 566.508C44.7953 566.508 45.2546 566.048 45.2546 565.482Z" fill="#6B7683"/>
</g>
</g>
<g filter="url(#filter9_d_745_3383)">
<rect x="19" y="457" width="36" height="58" rx="8" fill="white" shape-rendering="crispEdges"/>
<path d="M32.918 467.859V482H29.9688V470.652H29.8906L26.6484 472.684V470.086L30.1445 467.859H32.918ZM41.6875 482.195C38.1426 482.195 36.0039 479.559 36.0039 474.93C36.0039 470.311 38.1621 467.664 41.6875 467.664C45.2129 467.664 47.3711 470.311 47.3711 474.93C47.3711 479.578 45.2227 482.195 41.6875 482.195ZM39.0117 474.93C38.9922 478.191 40.0469 479.773 41.6875 479.773C43.3281 479.773 44.373 478.191 44.3633 474.93C44.373 471.697 43.3184 470.076 41.6875 470.066C40.0566 470.076 39.0117 471.697 39.0117 474.93Z" fill="#8A61BF"/>
<g clip-path="url(#clip3_745_3383)">
<path d="M47.7937 498.7L47.4891 498.045H40.8604V503.654H41.681C41.677 503.596 41.6636 503.541 41.6636 503.482C41.6636 502.065 42.812 500.917 44.2286 500.917C45.6452 500.917 46.7936 502.065 46.7936 503.482C46.7936 503.541 46.7802 503.596 46.7762 503.654H47.0618C47.5826 503.654 48.0048 503.232 48.0048 502.711V499.655C48.0048 499.325 47.9328 498.999 47.7937 498.7Z" fill="#CBCFD2"/>
<path d="M40.8603 492.429V490.49C40.8603 489.969 40.4381 489.547 39.9173 489.547H26.9381C26.4173 489.547 25.9951 489.969 25.9951 490.49V502.711C25.9951 503.232 26.4173 503.654 26.9381 503.654H27.9607C27.9568 503.596 27.9433 503.541 27.9433 503.482C27.9433 502.065 29.0917 500.917 30.5083 500.917C31.9249 500.917 33.0733 502.065 33.0733 503.482C33.0733 503.541 33.0599 503.596 33.0559 503.654H40.8603L40.8603 492.429Z" fill="#F1F1F1"/>
<path d="M40.8603 490.49V492.429L40.8603 498.044H25.9951V490.49C25.9951 489.969 26.4173 489.547 26.9381 489.547H39.9173C40.4381 489.547 40.8603 489.969 40.8603 490.49Z" fill="#F08C54"/>
<path d="M47.4891 498.045L45.3372 493.418C45.0567 492.815 44.4519 492.429 43.7867 492.429H40.8604V498.045H47.4891Z" fill="#85A6D0"/>
<path d="M30.5083 500.917C29.0917 500.917 27.9434 502.065 27.9434 503.482C27.9434 503.541 27.9568 503.596 27.9608 503.654C28.0511 504.989 29.1509 506.047 30.5083 506.047C31.8658 506.047 32.9656 504.989 33.056 503.654C33.0599 503.596 33.0733 503.541 33.0733 503.482C33.0733 502.065 31.9249 500.917 30.5083 500.917ZM30.5083 504.508C29.9417 504.508 29.4824 504.048 29.4824 503.482C29.4824 502.915 29.9417 502.456 30.5083 502.456C31.075 502.456 31.5343 502.915 31.5343 503.482C31.5343 504.048 31.075 504.508 30.5083 504.508Z" fill="#313D4C"/>
<path d="M44.2288 500.917C42.8122 500.917 41.6638 502.065 41.6638 503.482C41.6638 503.541 41.6773 503.596 41.6812 503.654C41.7716 504.989 42.8714 506.047 44.2288 506.047C45.5862 506.047 46.686 504.989 46.7764 503.654C46.7804 503.596 46.7938 503.541 46.7938 503.482C46.7938 502.065 45.6454 500.917 44.2288 500.917ZM44.2288 504.508C43.6622 504.508 43.2028 504.048 43.2028 503.482C43.2028 502.915 43.6622 502.456 44.2288 502.456C44.7955 502.456 45.2548 502.915 45.2548 503.482C45.2548 504.048 44.7955 504.508 44.2288 504.508Z" fill="#313D4C"/>
<path d="M31.5344 503.482C31.5344 502.915 31.075 502.456 30.5084 502.456C29.9418 502.456 29.4824 502.915 29.4824 503.482C29.4824 504.048 29.9418 504.508 30.5084 504.508C31.075 504.508 31.5344 504.048 31.5344 503.482Z" fill="#6B7683"/>
<path d="M45.2546 503.482C45.2546 502.915 44.7953 502.456 44.2286 502.456C43.662 502.456 43.2026 502.915 43.2026 503.482C43.2026 504.048 43.662 504.508 44.2286 504.508C44.7953 504.508 45.2546 504.048 45.2546 503.482Z" fill="#6B7683"/>
</g>
</g>
<g filter="url(#filter10_d_745_3383)">
<rect x="19" y="395" width="36" height="58" rx="8" fill="white" shape-rendering="crispEdges"/>
<path d="M34.832 405.859V420H31.8828V408.652H31.8047L28.5625 410.684V408.086L32.0586 405.859H34.832ZM44.207 405.859V420H41.2578V408.652H41.1797L37.9375 410.684V408.086L41.4336 405.859H44.207Z" fill="#8A61BF"/>
<g clip-path="url(#clip4_745_3383)">
<path d="M47.7937 436.7L47.4891 436.045H40.8604V441.654H41.681C41.677 441.596 41.6636 441.541 41.6636 441.482C41.6636 440.065 42.812 438.917 44.2286 438.917C45.6452 438.917 46.7936 440.065 46.7936 441.482C46.7936 441.541 46.7802 441.596 46.7762 441.654H47.0618C47.5826 441.654 48.0048 441.232 48.0048 440.711V437.655C48.0048 437.325 47.9328 436.999 47.7937 436.7Z" fill="#CBCFD2"/>
<path d="M40.8603 430.429V428.49C40.8603 427.969 40.4381 427.547 39.9173 427.547H26.9381C26.4173 427.547 25.9951 427.969 25.9951 428.49V440.711C25.9951 441.232 26.4173 441.654 26.9381 441.654H27.9607C27.9568 441.596 27.9433 441.541 27.9433 441.482C27.9433 440.065 29.0917 438.917 30.5083 438.917C31.9249 438.917 33.0733 440.065 33.0733 441.482C33.0733 441.541 33.0599 441.596 33.0559 441.654H40.8603L40.8603 430.429Z" fill="#F1F1F1"/>
<path d="M40.8603 428.49V430.429L40.8603 436.044H25.9951V428.49C25.9951 427.969 26.4173 427.547 26.9381 427.547H39.9173C40.4381 427.547 40.8603 427.969 40.8603 428.49Z" fill="#F08C54"/>
<path d="M47.4891 436.045L45.3372 431.418C45.0567 430.815 44.4519 430.429 43.7867 430.429H40.8604V436.045H47.4891Z" fill="#85A6D0"/>
<path d="M30.5083 438.917C29.0917 438.917 27.9434 440.065 27.9434 441.482C27.9434 441.541 27.9568 441.596 27.9608 441.654C28.0511 442.989 29.1509 444.047 30.5083 444.047C31.8658 444.047 32.9656 442.989 33.056 441.654C33.0599 441.596 33.0733 441.541 33.0733 441.482C33.0733 440.065 31.9249 438.917 30.5083 438.917ZM30.5083 442.508C29.9417 442.508 29.4824 442.048 29.4824 441.482C29.4824 440.915 29.9417 440.456 30.5083 440.456C31.075 440.456 31.5343 440.915 31.5343 441.482C31.5343 442.048 31.075 442.508 30.5083 442.508Z" fill="#313D4C"/>
<path d="M44.2288 438.917C42.8122 438.917 41.6638 440.065 41.6638 441.482C41.6638 441.541 41.6773 441.596 41.6812 441.654C41.7716 442.989 42.8714 444.047 44.2288 444.047C45.5862 444.047 46.686 442.989 46.7764 441.654C46.7804 441.596 46.7938 441.541 46.7938 441.482C46.7938 440.065 45.6454 438.917 44.2288 438.917ZM44.2288 442.508C43.6622 442.508 43.2028 442.048 43.2028 441.482C43.2028 440.915 43.6622 440.456 44.2288 440.456C44.7955 440.456 45.2548 440.915 45.2548 441.482C45.2548 442.048 44.7955 442.508 44.2288 442.508Z" fill="#313D4C"/>
<path d="M31.5344 441.482C31.5344 440.915 31.075 440.456 30.5084 440.456C29.9418 440.456 29.4824 440.915 29.4824 441.482C29.4824 442.048 29.9418 442.508 30.5084 442.508C31.075 442.508 31.5344 442.048 31.5344 441.482Z" fill="#6B7683"/>
<path d="M45.2546 441.482C45.2546 440.915 44.7953 440.456 44.2286 440.456C43.662 440.456 43.2026 440.915 43.2026 441.482C43.2026 442.048 43.662 442.508 44.2286 442.508C44.7953 442.508 45.2546 442.048 45.2546 441.482Z" fill="#6B7683"/>
</g>
</g>
<g filter="url(#filter11_d_745_3383)">
<rect x="19" y="333" width="36" height="58" rx="8" fill="white" shape-rendering="crispEdges"/>
<path d="M33.416 343.859V358H30.4668V346.652H30.3887L27.1465 348.684V346.086L30.6426 343.859H33.416ZM36.6973 358L36.6777 355.871L41.7559 351.203C43.0742 349.943 43.7871 349.162 43.7871 348.039C43.7871 346.779 42.8398 345.998 41.541 346.008C40.2129 345.998 39.3438 346.838 39.3535 348.195H36.5605C36.5508 345.432 38.6016 343.664 41.5801 343.664C44.6074 343.664 46.6191 345.393 46.6191 347.844C46.6191 349.455 45.8379 350.773 42.9277 353.41L40.7793 355.5V355.578H46.8145V358H36.6973Z" fill="#8A61BF"/>
<g clip-path="url(#clip5_745_3383)">
<path d="M47.7937 374.7L47.4891 374.045H40.8604V379.654H41.681C41.677 379.596 41.6636 379.541 41.6636 379.482C41.6636 378.065 42.812 376.917 44.2286 376.917C45.6452 376.917 46.7936 378.065 46.7936 379.482C46.7936 379.541 46.7802 379.596 46.7762 379.654H47.0618C47.5826 379.654 48.0048 379.232 48.0048 378.711V375.655C48.0048 375.325 47.9328 374.999 47.7937 374.7Z" fill="#CBCFD2"/>
<path d="M40.8603 368.429V366.49C40.8603 365.969 40.4381 365.547 39.9173 365.547H26.9381C26.4173 365.547 25.9951 365.969 25.9951 366.49V378.711C25.9951 379.232 26.4173 379.654 26.9381 379.654H27.9607C27.9568 379.596 27.9433 379.541 27.9433 379.482C27.9433 378.065 29.0917 376.917 30.5083 376.917C31.9249 376.917 33.0733 378.065 33.0733 379.482C33.0733 379.541 33.0599 379.596 33.0559 379.654H40.8603L40.8603 368.429Z" fill="#F1F1F1"/>
<path d="M40.8603 366.49V368.429L40.8603 374.044H25.9951V366.49C25.9951 365.969 26.4173 365.547 26.9381 365.547H39.9173C40.4381 365.547 40.8603 365.969 40.8603 366.49Z" fill="#F08C54"/>
<path d="M47.4891 374.045L45.3372 369.418C45.0567 368.815 44.4519 368.429 43.7867 368.429H40.8604V374.045H47.4891Z" fill="#85A6D0"/>
<path d="M30.5083 376.917C29.0917 376.917 27.9434 378.065 27.9434 379.482C27.9434 379.541 27.9568 379.596 27.9608 379.654C28.0511 380.989 29.1509 382.047 30.5083 382.047C31.8658 382.047 32.9656 380.989 33.056 379.654C33.0599 379.596 33.0733 379.541 33.0733 379.482C33.0733 378.065 31.9249 376.917 30.5083 376.917ZM30.5083 380.508C29.9417 380.508 29.4824 380.048 29.4824 379.482C29.4824 378.915 29.9417 378.456 30.5083 378.456C31.075 378.456 31.5343 378.915 31.5343 379.482C31.5343 380.048 31.075 380.508 30.5083 380.508Z" fill="#313D4C"/>
<path d="M44.2288 376.917C42.8122 376.917 41.6638 378.065 41.6638 379.482C41.6638 379.541 41.6773 379.596 41.6812 379.654C41.7716 380.989 42.8714 382.047 44.2288 382.047C45.5862 382.047 46.686 380.989 46.7764 379.654C46.7804 379.596 46.7938 379.541 46.7938 379.482C46.7938 378.065 45.6454 376.917 44.2288 376.917ZM44.2288 380.508C43.6622 380.508 43.2028 380.048 43.2028 379.482C43.2028 378.915 43.6622 378.456 44.2288 378.456C44.7955 378.456 45.2548 378.915 45.2548 379.482C45.2548 380.048 44.7955 380.508 44.2288 380.508Z" fill="#313D4C"/>
<path d="M31.5344 379.482C31.5344 378.915 31.075 378.456 30.5084 378.456C29.9418 378.456 29.4824 378.915 29.4824 379.482C29.4824 380.048 29.9418 380.508 30.5084 380.508C31.075 380.508 31.5344 380.048 31.5344 379.482Z" fill="#6B7683"/>
<path d="M45.2546 379.482C45.2546 378.915 44.7953 378.456 44.2286 378.456C43.662 378.456 43.2026 378.915 43.2026 379.482C43.2026 380.048 43.662 380.508 44.2286 380.508C44.7953 380.508 45.2546 380.048 45.2546 379.482Z" fill="#6B7683"/>
</g>
</g>
<g filter="url(#filter12_d_745_3383)">
<rect x="19" y="271" width="36" height="58" rx="8" fill="white" shape-rendering="crispEdges"/>
<path d="M33.1328 281.859V296H30.1836V284.652H30.1055L26.8633 286.684V284.086L30.3594 281.859H33.1328ZM41.6484 296.195C38.543 296.195 36.3164 294.486 36.2578 292.016H39.2266C39.2754 293.07 40.3008 293.764 41.668 293.773C43.0742 293.764 44.0801 292.982 44.0703 291.84C44.0801 290.688 43.0547 289.877 41.3945 289.867H40.0859V287.699H41.3945C42.791 287.699 43.7676 286.938 43.7578 285.824C43.7676 284.74 42.9375 283.998 41.6875 284.008C40.4375 283.998 39.4121 284.701 39.3633 285.785H36.5508C36.5996 283.354 38.7871 281.664 41.6875 281.664C44.6367 281.664 46.5996 283.412 46.5898 285.648C46.5996 287.23 45.4961 288.354 43.9141 288.637V288.754C45.9941 289.008 47.1367 290.268 47.1172 292.035C47.1367 294.457 44.8418 296.195 41.6484 296.195Z" fill="#8A61BF"/>
<g clip-path="url(#clip6_745_3383)">
<path d="M47.7937 312.7L47.4891 312.045H40.8604V317.654H41.681C41.677 317.596 41.6636 317.541 41.6636 317.482C41.6636 316.065 42.812 314.917 44.2286 314.917C45.6452 314.917 46.7936 316.065 46.7936 317.482C46.7936 317.541 46.7802 317.596 46.7762 317.654H47.0618C47.5826 317.654 48.0048 317.232 48.0048 316.711V313.655C48.0048 313.325 47.9328 312.999 47.7937 312.7Z" fill="#CBCFD2"/>
<path d="M40.8603 306.429V304.49C40.8603 303.969 40.4381 303.547 39.9173 303.547H26.9381C26.4173 303.547 25.9951 303.969 25.9951 304.49V316.711C25.9951 317.232 26.4173 317.654 26.9381 317.654H27.9607C27.9568 317.596 27.9433 317.541 27.9433 317.482C27.9433 316.065 29.0917 314.917 30.5083 314.917C31.9249 314.917 33.0733 316.065 33.0733 317.482C33.0733 317.541 33.0599 317.596 33.0559 317.654H40.8603L40.8603 306.429Z" fill="#F1F1F1"/>
<path d="M40.8603 304.49V306.429L40.8603 312.044H25.9951V304.49C25.9951 303.969 26.4173 303.547 26.9381 303.547H39.9173C40.4381 303.547 40.8603 303.969 40.8603 304.49Z" fill="#F08C54"/>
<path d="M47.4891 312.045L45.3372 307.418C45.0567 306.815 44.4519 306.429 43.7867 306.429H40.8604V312.045H47.4891Z" fill="#85A6D0"/>
<path d="M30.5083 314.917C29.0917 314.917 27.9434 316.065 27.9434 317.482C27.9434 317.541 27.9568 317.596 27.9608 317.654C28.0511 318.989 29.1509 320.047 30.5083 320.047C31.8658 320.047 32.9656 318.989 33.056 317.654C33.0599 317.596 33.0733 317.541 33.0733 317.482C33.0733 316.065 31.9249 314.917 30.5083 314.917ZM30.5083 318.508C29.9417 318.508 29.4824 318.048 29.4824 317.482C29.4824 316.915 29.9417 316.456 30.5083 316.456C31.075 316.456 31.5343 316.915 31.5343 317.482C31.5343 318.048 31.075 318.508 30.5083 318.508Z" fill="#313D4C"/>
<path d="M44.2288 314.917C42.8122 314.917 41.6638 316.065 41.6638 317.482C41.6638 317.541 41.6773 317.596 41.6812 317.654C41.7716 318.989 42.8714 320.047 44.2288 320.047C45.5862 320.047 46.686 318.989 46.7764 317.654C46.7804 317.596 46.7938 317.541 46.7938 317.482C46.7938 316.065 45.6454 314.917 44.2288 314.917ZM44.2288 318.508C43.6622 318.508 43.2028 318.048 43.2028 317.482C43.2028 316.915 43.6622 316.456 44.2288 316.456C44.7955 316.456 45.2548 316.915 45.2548 317.482C45.2548 318.048 44.7955 318.508 44.2288 318.508Z" fill="#313D4C"/>
<path d="M31.5344 317.482C31.5344 316.915 31.075 316.456 30.5084 316.456C29.9418 316.456 29.4824 316.915 29.4824 317.482C29.4824 318.048 29.9418 318.508 30.5084 318.508C31.075 318.508 31.5344 318.048 31.5344 317.482Z" fill="#6B7683"/>
<path d="M45.2546 317.482C45.2546 316.915 44.7953 316.456 44.2286 316.456C43.662 316.456 43.2026 316.915 43.2026 317.482C43.2026 318.048 43.662 318.508 44.2286 318.508C44.7953 318.508 45.2546 318.048 45.2546 317.482Z" fill="#6B7683"/>
</g>
</g>
<g filter="url(#filter13_d_745_3383)">
<rect x="59" y="248" width="36" height="58" rx="8" fill="white" shape-rendering="crispEdges"/>
<path d="M72.9473 258.859V273H69.998V261.652H69.9199L66.6777 263.684V261.086L70.1738 258.859H72.9473ZM75.9941 270.5V268.176L81.9707 258.859H85.6621V268.137H87.459V270.5H85.6621V273H82.8691V270.5H75.9941ZM78.9629 268.137H82.9082V262.082H82.7715L78.9629 268.02V268.137Z" fill="#8A61BF"/>
<g clip-path="url(#clip7_745_3383)">
<path d="M87.7937 289.7L87.4891 289.045H80.8604V294.654H81.681C81.677 294.596 81.6636 294.541 81.6636 294.482C81.6636 293.065 82.812 291.917 84.2286 291.917C85.6452 291.917 86.7936 293.065 86.7936 294.482C86.7936 294.541 86.7802 294.596 86.7762 294.654H87.0618C87.5826 294.654 88.0048 294.232 88.0048 293.711V290.655C88.0048 290.325 87.9328 289.999 87.7937 289.7Z" fill="#CBCFD2"/>
<path d="M80.8603 283.429V281.49C80.8603 280.969 80.4381 280.547 79.9173 280.547H66.9381C66.4173 280.547 65.9951 280.969 65.9951 281.49V293.711C65.9951 294.232 66.4173 294.654 66.9381 294.654H67.9607C67.9568 294.596 67.9433 294.541 67.9433 294.482C67.9433 293.065 69.0917 291.917 70.5083 291.917C71.9249 291.917 73.0733 293.065 73.0733 294.482C73.0733 294.541 73.0599 294.596 73.0559 294.654H80.8603L80.8603 283.429Z" fill="#F1F1F1"/>
<path d="M80.8603 281.49V283.429L80.8603 289.044H65.9951V281.49C65.9951 280.969 66.4173 280.547 66.9381 280.547H79.9173C80.4381 280.547 80.8603 280.969 80.8603 281.49Z" fill="#F08C54"/>
<path d="M87.4891 289.045L85.3372 284.418C85.0567 283.815 84.4519 283.429 83.7867 283.429H80.8604V289.045H87.4891Z" fill="#85A6D0"/>
<path d="M70.5083 291.917C69.0917 291.917 67.9434 293.065 67.9434 294.482C67.9434 294.541 67.9568 294.596 67.9608 294.654C68.0511 295.989 69.1509 297.047 70.5083 297.047C71.8658 297.047 72.9656 295.989 73.056 294.654C73.0599 294.596 73.0733 294.541 73.0733 294.482C73.0733 293.065 71.9249 291.917 70.5083 291.917ZM70.5083 295.508C69.9417 295.508 69.4824 295.048 69.4824 294.482C69.4824 293.915 69.9417 293.456 70.5083 293.456C71.075 293.456 71.5343 293.915 71.5343 294.482C71.5343 295.048 71.075 295.508 70.5083 295.508Z" fill="#313D4C"/>
<path d="M84.2288 291.917C82.8122 291.917 81.6638 293.065 81.6638 294.482C81.6638 294.541 81.6773 294.596 81.6812 294.654C81.7716 295.989 82.8714 297.047 84.2288 297.047C85.5862 297.047 86.686 295.989 86.7764 294.654C86.7804 294.596 86.7938 294.541 86.7938 294.482C86.7938 293.065 85.6454 291.917 84.2288 291.917ZM84.2288 295.508C83.6622 295.508 83.2028 295.048 83.2028 294.482C83.2028 293.915 83.6622 293.456 84.2288 293.456C84.7955 293.456 85.2548 293.915 85.2548 294.482C85.2548 295.048 84.7955 295.508 84.2288 295.508Z" fill="#313D4C"/>
<path d="M71.5344 294.482C71.5344 293.915 71.075 293.456 70.5084 293.456C69.9418 293.456 69.4824 293.915 69.4824 294.482C69.4824 295.048 69.9418 295.508 70.5084 295.508C71.075 295.508 71.5344 295.048 71.5344 294.482Z" fill="#6B7683"/>
<path d="M85.2546 294.482C85.2546 293.915 84.7953 293.456 84.2286 293.456C83.662 293.456 83.2026 293.915 83.2026 294.482C83.2026 295.048 83.662 295.508 84.2286 295.508C84.7953 295.508 85.2546 295.048 85.2546 294.482Z" fill="#6B7683"/>
</g>
</g>
<g filter="url(#filter14_d_745_3383)">
<rect x="99" y="225" width="36" height="58" rx="8" fill="white" shape-rendering="crispEdges"/>
<path d="M113.25 235.859V250H110.301V238.652H110.223L106.98 240.684V238.086L110.477 235.859H113.25ZM121.727 250.195C118.777 250.195 116.619 248.457 116.57 246.016H119.422C119.49 247.119 120.496 247.881 121.727 247.871C123.191 247.881 124.236 246.846 124.227 245.371C124.236 243.867 123.172 242.822 121.688 242.812C120.623 242.812 119.881 243.213 119.461 244.004H116.805L117.566 235.859H126.277V238.262H119.988L119.598 241.836H119.715C120.232 241.143 121.307 240.635 122.547 240.645C125.145 240.635 127.078 242.578 127.078 245.293C127.078 248.154 124.91 250.195 121.727 250.195Z" fill="#8A61BF"/>
<g clip-path="url(#clip8_745_3383)">
<path d="M127.794 266.7L127.489 266.045H120.86V271.654H121.681C121.677 271.596 121.664 271.541 121.664 271.482C121.664 270.065 122.812 268.917 124.229 268.917C125.645 268.917 126.794 270.065 126.794 271.482C126.794 271.541 126.78 271.596 126.776 271.654H127.062C127.583 271.654 128.005 271.232 128.005 270.711V267.655C128.005 267.325 127.933 266.999 127.794 266.7Z" fill="#CBCFD2"/>
<path d="M120.86 260.429V258.49C120.86 257.969 120.438 257.547 119.917 257.547H106.938C106.417 257.547 105.995 257.969 105.995 258.49V270.711C105.995 271.232 106.417 271.654 106.938 271.654H107.961C107.957 271.596 107.943 271.541 107.943 271.482C107.943 270.065 109.092 268.917 110.508 268.917C111.925 268.917 113.073 270.065 113.073 271.482C113.073 271.541 113.06 271.596 113.056 271.654H120.86L120.86 260.429Z" fill="#F1F1F1"/>
<path d="M120.86 258.49V260.429L120.86 266.044H105.995V258.49C105.995 257.969 106.417 257.547 106.938 257.547H119.917C120.438 257.547 120.86 257.969 120.86 258.49Z" fill="#F08C54"/>
<path d="M127.489 266.045L125.337 261.418C125.057 260.815 124.452 260.429 123.787 260.429H120.86V266.045H127.489Z" fill="#85A6D0"/>
<path d="M110.508 268.917C109.092 268.917 107.943 270.065 107.943 271.482C107.943 271.541 107.957 271.596 107.961 271.654C108.051 272.989 109.151 274.047 110.508 274.047C111.866 274.047 112.966 272.989 113.056 271.654C113.06 271.596 113.073 271.541 113.073 271.482C113.073 270.065 111.925 268.917 110.508 268.917ZM110.508 272.508C109.942 272.508 109.482 272.048 109.482 271.482C109.482 270.915 109.942 270.456 110.508 270.456C111.075 270.456 111.534 270.915 111.534 271.482C111.534 272.048 111.075 272.508 110.508 272.508Z" fill="#313D4C"/>
<path d="M124.229 268.917C122.812 268.917 121.664 270.065 121.664 271.482C121.664 271.541 121.677 271.596 121.681 271.654C121.772 272.989 122.871 274.047 124.229 274.047C125.586 274.047 126.686 272.989 126.776 271.654C126.78 271.596 126.794 271.541 126.794 271.482C126.794 270.065 125.645 268.917 124.229 268.917ZM124.229 272.508C123.662 272.508 123.203 272.048 123.203 271.482C123.203 270.915 123.662 270.456 124.229 270.456C124.795 270.456 125.255 270.915 125.255 271.482C125.255 272.048 124.795 272.508 124.229 272.508Z" fill="#313D4C"/>
<path d="M111.534 271.482C111.534 270.915 111.075 270.456 110.508 270.456C109.942 270.456 109.482 270.915 109.482 271.482C109.482 272.048 109.942 272.508 110.508 272.508C111.075 272.508 111.534 272.048 111.534 271.482Z" fill="#6B7683"/>
<path d="M125.255 271.482C125.255 270.915 124.795 270.456 124.229 270.456C123.662 270.456 123.203 270.915 123.203 271.482C123.203 272.048 123.662 272.508 124.229 272.508C124.795 272.508 125.255 272.048 125.255 271.482Z" fill="#6B7683"/>
</g>
</g>
<g filter="url(#filter15_d_745_3383)">
<rect x="139" y="202" width="36" height="58" rx="8" fill="white" shape-rendering="crispEdges"/>
<path d="M153.094 212.859V227H150.145V215.652H150.066L146.824 217.684V215.086L150.32 212.859H153.094ZM161.844 227.195C158.924 227.186 156.131 225.438 156.141 220.262C156.15 215.486 158.426 212.664 161.961 212.664C164.803 212.664 166.756 214.461 167.039 216.785H164.148C163.914 215.799 163.104 215.184 161.961 215.184C160.037 215.184 159.031 216.912 159.012 219.695H159.148C159.803 218.436 161.199 217.703 162.762 217.703C165.311 217.703 167.205 219.607 167.195 222.273C167.205 225.145 165.037 227.205 161.844 227.195ZM159.305 222.352C159.324 223.738 160.379 224.881 161.824 224.871C163.279 224.881 164.344 223.777 164.344 222.352C164.344 220.936 163.299 219.842 161.863 219.832C160.418 219.842 159.324 220.975 159.305 222.352Z" fill="#8A61BF"/>
<g clip-path="url(#clip9_745_3383)">
<path d="M167.794 243.7L167.489 243.045H160.86V248.654H161.681C161.677 248.596 161.664 248.541 161.664 248.482C161.664 247.065 162.812 245.917 164.229 245.917C165.645 245.917 166.794 247.065 166.794 248.482C166.794 248.541 166.78 248.596 166.776 248.654H167.062C167.583 248.654 168.005 248.232 168.005 247.711V244.655C168.005 244.325 167.933 243.999 167.794 243.7Z" fill="#CBCFD2"/>
<path d="M160.86 237.429V235.49C160.86 234.969 160.438 234.547 159.917 234.547H146.938C146.417 234.547 145.995 234.969 145.995 235.49V247.711C145.995 248.232 146.417 248.654 146.938 248.654H147.961C147.957 248.596 147.943 248.541 147.943 248.482C147.943 247.065 149.092 245.917 150.508 245.917C151.925 245.917 153.073 247.065 153.073 248.482C153.073 248.541 153.06 248.596 153.056 248.654H160.86L160.86 237.429Z" fill="#F1F1F1"/>
<path d="M160.86 235.49V237.429L160.86 243.044H145.995V235.49C145.995 234.969 146.417 234.547 146.938 234.547H159.917C160.438 234.547 160.86 234.969 160.86 235.49Z" fill="#F08C54"/>
<path d="M167.489 243.045L165.337 238.418C165.057 237.815 164.452 237.429 163.787 237.429H160.86V243.045H167.489Z" fill="#85A6D0"/>
<path d="M150.508 245.917C149.092 245.917 147.943 247.065 147.943 248.482C147.943 248.541 147.957 248.596 147.961 248.654C148.051 249.989 149.151 251.047 150.508 251.047C151.866 251.047 152.966 249.989 153.056 248.654C153.06 248.596 153.073 248.541 153.073 248.482C153.073 247.065 151.925 245.917 150.508 245.917ZM150.508 249.508C149.942 249.508 149.482 249.048 149.482 248.482C149.482 247.915 149.942 247.456 150.508 247.456C151.075 247.456 151.534 247.915 151.534 248.482C151.534 249.048 151.075 249.508 150.508 249.508Z" fill="#313D4C"/>
<path d="M164.229 245.917C162.812 245.917 161.664 247.065 161.664 248.482C161.664 248.541 161.677 248.596 161.681 248.654C161.772 249.989 162.871 251.047 164.229 251.047C165.586 251.047 166.686 249.989 166.776 248.654C166.78 248.596 166.794 248.541 166.794 248.482C166.794 247.065 165.645 245.917 164.229 245.917ZM164.229 249.508C163.662 249.508 163.203 249.048 163.203 248.482C163.203 247.915 163.662 247.456 164.229 247.456C164.795 247.456 165.255 247.915 165.255 248.482C165.255 249.048 164.795 249.508 164.229 249.508Z" fill="#313D4C"/>
<path d="M151.534 248.482C151.534 247.915 151.075 247.456 150.508 247.456C149.942 247.456 149.482 247.915 149.482 248.482C149.482 249.048 149.942 249.508 150.508 249.508C151.075 249.508 151.534 249.048 151.534 248.482Z" fill="#6B7683"/>
<path d="M165.255 248.482C165.255 247.915 164.795 247.456 164.229 247.456C163.662 247.456 163.203 247.915 163.203 248.482C163.203 249.048 163.662 249.508 164.229 249.508C164.795 249.508 165.255 249.048 165.255 248.482Z" fill="#6B7683"/>
</g>
</g>
<g filter="url(#filter16_d_745_3383)">
<rect x="179" y="179" width="36" height="58" rx="8" fill="white" shape-rendering="crispEdges"/>
<path d="M193.768 189.859V204H190.818V192.652H190.74L187.498 194.684V192.086L190.994 189.859H193.768ZM197.596 204L203.553 192.359V192.262H196.619V189.859H206.6V192.301L200.643 204H197.596Z" fill="#8A61BF"/>
<g clip-path="url(#clip10_745_3383)">
<path d="M207.794 220.7L207.489 220.045H200.86V225.654H201.681C201.677 225.596 201.664 225.541 201.664 225.482C201.664 224.065 202.812 222.917 204.229 222.917C205.645 222.917 206.794 224.065 206.794 225.482C206.794 225.541 206.78 225.596 206.776 225.654H207.062C207.583 225.654 208.005 225.232 208.005 224.711V221.655C208.005 221.325 207.933 220.999 207.794 220.7Z" fill="#CBCFD2"/>
<path d="M200.86 214.429V212.49C200.86 211.969 200.438 211.547 199.917 211.547H186.938C186.417 211.547 185.995 211.969 185.995 212.49V224.711C185.995 225.232 186.417 225.654 186.938 225.654H187.961C187.957 225.596 187.943 225.541 187.943 225.482C187.943 224.065 189.092 222.917 190.508 222.917C191.925 222.917 193.073 224.065 193.073 225.482C193.073 225.541 193.06 225.596 193.056 225.654H200.86L200.86 214.429Z" fill="#F1F1F1"/>
<path d="M200.86 212.49V214.429L200.86 220.044H185.995V212.49C185.995 211.969 186.417 211.547 186.938 211.547H199.917C200.438 211.547 200.86 211.969 200.86 212.49Z" fill="#F08C54"/>
<path d="M207.489 220.045L205.337 215.418C205.057 214.815 204.452 214.429 203.787 214.429H200.86V220.045H207.489Z" fill="#85A6D0"/>
<path d="M190.508 222.917C189.092 222.917 187.943 224.065 187.943 225.482C187.943 225.541 187.957 225.596 187.961 225.654C188.051 226.989 189.151 228.047 190.508 228.047C191.866 228.047 192.966 226.989 193.056 225.654C193.06 225.596 193.073 225.541 193.073 225.482C193.073 224.065 191.925 222.917 190.508 222.917ZM190.508 226.508C189.942 226.508 189.482 226.048 189.482 225.482C189.482 224.915 189.942 224.456 190.508 224.456C191.075 224.456 191.534 224.915 191.534 225.482C191.534 226.048 191.075 226.508 190.508 226.508Z" fill="#313D4C"/>
<path d="M204.229 222.917C202.812 222.917 201.664 224.065 201.664 225.482C201.664 225.541 201.677 225.596 201.681 225.654C201.772 226.989 202.871 228.047 204.229 228.047C205.586 228.047 206.686 226.989 206.776 225.654C206.78 225.596 206.794 225.541 206.794 225.482C206.794 224.065 205.645 222.917 204.229 222.917ZM204.229 226.508C203.662 226.508 203.203 226.048 203.203 225.482C203.203 224.915 203.662 224.456 204.229 224.456C204.795 224.456 205.255 224.915 205.255 225.482C205.255 226.048 204.795 226.508 204.229 226.508Z" fill="#313D4C"/>
<path d="M191.534 225.482C191.534 224.915 191.075 224.456 190.508 224.456C189.942 224.456 189.482 224.915 189.482 225.482C189.482 226.048 189.942 226.508 190.508 226.508C191.075 226.508 191.534 226.048 191.534 225.482Z" fill="#6B7683"/>
<path d="M205.255 225.482C205.255 224.915 204.795 224.456 204.229 224.456C203.662 224.456 203.203 224.915 203.203 225.482C203.203 226.048 203.662 226.508 204.229 226.508C204.795 226.508 205.255 226.048 205.255 225.482Z" fill="#6B7683"/>
</g>
</g>
<g filter="url(#filter17_d_745_3383)">
<rect x="258" y="609" width="36" height="58" rx="8" fill="white" shape-rendering="crispEdges"/>
<path d="M275.961 634.195C272.855 634.195 270.629 632.486 270.57 630.016H273.539C273.588 631.07 274.613 631.764 275.98 631.773C277.387 631.764 278.393 630.982 278.383 629.84C278.393 628.688 277.367 627.877 275.707 627.867H274.398V625.699H275.707C277.104 625.699 278.08 624.938 278.07 623.824C278.08 622.74 277.25 621.998 276 622.008C274.75 621.998 273.725 622.701 273.676 623.785H270.863C270.912 621.354 273.1 619.664 276 619.664C278.949 619.664 280.912 621.412 280.902 623.648C280.912 625.23 279.809 626.354 278.227 626.637V626.754C280.307 627.008 281.449 628.268 281.43 630.035C281.449 632.457 279.154 634.195 275.961 634.195Z" fill="#8A61BF"/>
<g clip-path="url(#clip11_745_3383)">
<path d="M286.794 650.7L286.489 650.045H279.86V655.654H280.681C280.677 655.596 280.664 655.541 280.664 655.482C280.664 654.065 281.812 652.917 283.229 652.917C284.645 652.917 285.794 654.065 285.794 655.482C285.794 655.541 285.78 655.596 285.776 655.654H286.062C286.583 655.654 287.005 655.232 287.005 654.711V651.655C287.005 651.325 286.933 650.999 286.794 650.7Z" fill="#CBCFD2"/>
<path d="M279.86 644.429V642.49C279.86 641.969 279.438 641.547 278.917 641.547H265.938C265.417 641.547 264.995 641.969 264.995 642.49V654.711C264.995 655.232 265.417 655.654 265.938 655.654H266.961C266.957 655.596 266.943 655.541 266.943 655.482C266.943 654.065 268.092 652.917 269.508 652.917C270.925 652.917 272.073 654.065 272.073 655.482C272.073 655.541 272.06 655.596 272.056 655.654H279.86L279.86 644.429Z" fill="#F1F1F1"/>
<path d="M279.86 642.49V644.429L279.86 650.044H264.995V642.49C264.995 641.969 265.417 641.547 265.938 641.547H278.917C279.438 641.547 279.86 641.969 279.86 642.49Z" fill="#F08C54"/>
<path d="M286.489 650.045L284.337 645.418C284.057 644.815 283.452 644.429 282.787 644.429H279.86V650.045H286.489Z" fill="#85A6D0"/>
<path d="M269.508 652.917C268.092 652.917 266.943 654.065 266.943 655.482C266.943 655.541 266.957 655.596 266.961 655.654C267.051 656.989 268.151 658.047 269.508 658.047C270.866 658.047 271.966 656.989 272.056 655.654C272.06 655.596 272.073 655.541 272.073 655.482C272.073 654.065 270.925 652.917 269.508 652.917ZM269.508 656.508C268.942 656.508 268.482 656.048 268.482 655.482C268.482 654.915 268.942 654.456 269.508 654.456C270.075 654.456 270.534 654.915 270.534 655.482C270.534 656.048 270.075 656.508 269.508 656.508Z" fill="#313D4C"/>
<path d="M283.229 652.917C281.812 652.917 280.664 654.065 280.664 655.482C280.664 655.541 280.677 655.596 280.681 655.654C280.772 656.989 281.871 658.047 283.229 658.047C284.586 658.047 285.686 656.989 285.776 655.654C285.78 655.596 285.794 655.541 285.794 655.482C285.794 654.065 284.645 652.917 283.229 652.917ZM283.229 656.508C282.662 656.508 282.203 656.048 282.203 655.482C282.203 654.915 282.662 654.456 283.229 654.456C283.795 654.456 284.255 654.915 284.255 655.482C284.255 656.048 283.795 656.508 283.229 656.508Z" fill="#313D4C"/>
<path d="M270.534 655.482C270.534 654.915 270.075 654.456 269.508 654.456C268.942 654.456 268.482 654.915 268.482 655.482C268.482 656.048 268.942 656.508 269.508 656.508C270.075 656.508 270.534 656.048 270.534 655.482Z" fill="#6B7683"/>
<path d="M284.255 655.482C284.255 654.915 283.795 654.456 283.229 654.456C282.662 654.456 282.203 654.915 282.203 655.482C282.203 656.048 282.662 656.508 283.229 656.508C283.795 656.508 284.255 656.048 284.255 655.482Z" fill="#6B7683"/>
</g>
</g>
<g filter="url(#filter18_d_745_3383)">
<rect x="298" y="580" width="36" height="58" rx="8" fill="white" shape-rendering="crispEdges"/>
<path d="M311.01 605L310.99 602.871L316.068 598.203C317.387 596.943 318.1 596.162 318.1 595.039C318.1 593.779 317.152 592.998 315.854 593.008C314.525 592.998 313.656 593.838 313.666 595.195H310.873C310.863 592.432 312.914 590.664 315.893 590.664C318.92 590.664 320.932 592.393 320.932 594.844C320.932 596.455 320.15 597.773 317.24 600.41L315.092 602.5V602.578H321.127V605H311.01Z" fill="#8A61BF"/>
<g clip-path="url(#clip12_745_3383)">
<path d="M326.794 621.7L326.489 621.045H319.86V626.654H320.681C320.677 626.596 320.664 626.541 320.664 626.482C320.664 625.065 321.812 623.917 323.229 623.917C324.645 623.917 325.794 625.065 325.794 626.482C325.794 626.541 325.78 626.596 325.776 626.654H326.062C326.583 626.654 327.005 626.232 327.005 625.711V622.655C327.005 622.325 326.933 621.999 326.794 621.7Z" fill="#CBCFD2"/>
<path d="M319.86 615.429V613.49C319.86 612.969 319.438 612.547 318.917 612.547H305.938C305.417 612.547 304.995 612.969 304.995 613.49V625.711C304.995 626.232 305.417 626.654 305.938 626.654H306.961C306.957 626.596 306.943 626.541 306.943 626.482C306.943 625.065 308.092 623.917 309.508 623.917C310.925 623.917 312.073 625.065 312.073 626.482C312.073 626.541 312.06 626.596 312.056 626.654H319.86L319.86 615.429Z" fill="#F1F1F1"/>
<path d="M319.86 613.49V615.429L319.86 621.044H304.995V613.49C304.995 612.969 305.417 612.547 305.938 612.547H318.917C319.438 612.547 319.86 612.969 319.86 613.49Z" fill="#F08C54"/>
<path d="M326.489 621.045L324.337 616.418C324.057 615.815 323.452 615.429 322.787 615.429H319.86V621.045H326.489Z" fill="#85A6D0"/>
<path d="M309.508 623.917C308.092 623.917 306.943 625.065 306.943 626.482C306.943 626.541 306.957 626.596 306.961 626.654C307.051 627.989 308.151 629.047 309.508 629.047C310.866 629.047 311.966 627.989 312.056 626.654C312.06 626.596 312.073 626.541 312.073 626.482C312.073 625.065 310.925 623.917 309.508 623.917ZM309.508 627.508C308.942 627.508 308.482 627.048 308.482 626.482C308.482 625.915 308.942 625.456 309.508 625.456C310.075 625.456 310.534 625.915 310.534 626.482C310.534 627.048 310.075 627.508 309.508 627.508Z" fill="#313D4C"/>
<path d="M323.229 623.917C321.812 623.917 320.664 625.065 320.664 626.482C320.664 626.541 320.677 626.596 320.681 626.654C320.772 627.989 321.871 629.047 323.229 629.047C324.586 629.047 325.686 627.989 325.776 626.654C325.78 626.596 325.794 626.541 325.794 626.482C325.794 625.065 324.645 623.917 323.229 623.917ZM323.229 627.508C322.662 627.508 322.203 627.048 322.203 626.482C322.203 625.915 322.662 625.456 323.229 625.456C323.795 625.456 324.255 625.915 324.255 626.482C324.255 627.048 323.795 627.508 323.229 627.508Z" fill="#313D4C"/>
<path d="M310.534 626.482C310.534 625.915 310.075 625.456 309.508 625.456C308.942 625.456 308.482 625.915 308.482 626.482C308.482 627.048 308.942 627.508 309.508 627.508C310.075 627.508 310.534 627.048 310.534 626.482Z" fill="#6B7683"/>
<path d="M324.255 626.482C324.255 625.915 323.795 625.456 323.229 625.456C322.662 625.456 322.203 625.915 322.203 626.482C322.203 627.048 322.662 627.508 323.229 627.508C323.795 627.508 324.255 627.048 324.255 626.482Z" fill="#6B7683"/>
</g>
</g>
<g filter="url(#filter19_d_745_3383)">
<rect x="338" y="553" width="36" height="58" rx="8" fill="white" shape-rendering="crispEdges"/>
<path d="M358.52 563.859V578H355.57V566.652H355.492L352.25 568.684V566.086L355.746 563.859H358.52Z" fill="#8A61BF"/>
<g clip-path="url(#clip13_745_3383)">
<path d="M366.794 594.7L366.489 594.045H359.86V599.654H360.681C360.677 599.596 360.664 599.541 360.664 599.482C360.664 598.065 361.812 596.917 363.229 596.917C364.645 596.917 365.794 598.065 365.794 599.482C365.794 599.541 365.78 599.596 365.776 599.654H366.062C366.583 599.654 367.005 599.232 367.005 598.711V595.655C367.005 595.325 366.933 594.999 366.794 594.7Z" fill="#CBCFD2"/>
<path d="M359.86 588.429V586.49C359.86 585.969 359.438 585.547 358.917 585.547H345.938C345.417 585.547 344.995 585.969 344.995 586.49V598.711C344.995 599.232 345.417 599.654 345.938 599.654H346.961C346.957 599.596 346.943 599.541 346.943 599.482C346.943 598.065 348.092 596.917 349.508 596.917C350.925 596.917 352.073 598.065 352.073 599.482C352.073 599.541 352.06 599.596 352.056 599.654H359.86L359.86 588.429Z" fill="#F1F1F1"/>
<path d="M359.86 586.49V588.429L359.86 594.044H344.995V586.49C344.995 585.969 345.417 585.547 345.938 585.547H358.917C359.438 585.547 359.86 585.969 359.86 586.49Z" fill="#F08C54"/>
<path d="M366.489 594.045L364.337 589.418C364.057 588.815 363.452 588.429 362.787 588.429H359.86V594.045H366.489Z" fill="#85A6D0"/>
<path d="M349.508 596.917C348.092 596.917 346.943 598.065 346.943 599.482C346.943 599.541 346.957 599.596 346.961 599.654C347.051 600.989 348.151 602.047 349.508 602.047C350.866 602.047 351.966 600.989 352.056 599.654C352.06 599.596 352.073 599.541 352.073 599.482C352.073 598.065 350.925 596.917 349.508 596.917ZM349.508 600.508C348.942 600.508 348.482 600.048 348.482 599.482C348.482 598.915 348.942 598.456 349.508 598.456C350.075 598.456 350.534 598.915 350.534 599.482C350.534 600.048 350.075 600.508 349.508 600.508Z" fill="#313D4C"/>
<path d="M363.229 596.917C361.812 596.917 360.664 598.065 360.664 599.482C360.664 599.541 360.677 599.596 360.681 599.654C360.772 600.989 361.871 602.047 363.229 602.047C364.586 602.047 365.686 600.989 365.776 599.654C365.78 599.596 365.794 599.541 365.794 599.482C365.794 598.065 364.645 596.917 363.229 596.917ZM363.229 600.508C362.662 600.508 362.203 600.048 362.203 599.482C362.203 598.915 362.662 598.456 363.229 598.456C363.795 598.456 364.255 598.915 364.255 599.482C364.255 600.048 363.795 600.508 363.229 600.508Z" fill="#313D4C"/>
<path d="M350.534 599.482C350.534 598.915 350.075 598.456 349.508 598.456C348.942 598.456 348.482 598.915 348.482 599.482C348.482 600.048 348.942 600.508 349.508 600.508C350.075 600.508 350.534 600.048 350.534 599.482Z" fill="#6B7683"/>
<path d="M364.255 599.482C364.255 598.915 363.795 598.456 363.229 598.456C362.662 598.456 362.203 598.915 362.203 599.482C362.203 600.048 362.662 600.508 363.229 600.508C363.795 600.508 364.255 600.048 364.255 599.482Z" fill="#6B7683"/>
</g>
</g>
<g filter="url(#filter20_d_745_3383)">
<rect x="218" y="634" width="36" height="58" rx="8" fill="white" shape-rendering="crispEdges"/>
<path d="M230.307 656.5V654.176L236.283 644.859H239.975V654.137H241.771V656.5H239.975V659H237.182V656.5H230.307ZM233.275 654.137H237.221V648.082H237.084L233.275 654.02V654.137Z" fill="#8A61BF"/>
<g clip-path="url(#clip14_745_3383)">
<path d="M246.794 675.7L246.489 675.045H239.86V680.654H240.681C240.677 680.596 240.664 680.541 240.664 680.482C240.664 679.065 241.812 677.917 243.229 677.917C244.645 677.917 245.794 679.065 245.794 680.482C245.794 680.541 245.78 680.596 245.776 680.654H246.062C246.583 680.654 247.005 680.232 247.005 679.711V676.655C247.005 676.325 246.933 675.999 246.794 675.7Z" fill="#CBCFD2"/>
<path d="M239.86 669.429V667.49C239.86 666.969 239.438 666.547 238.917 666.547H225.938C225.417 666.547 224.995 666.969 224.995 667.49V679.711C224.995 680.232 225.417 680.654 225.938 680.654H226.961C226.957 680.596 226.943 680.541 226.943 680.482C226.943 679.065 228.092 677.917 229.508 677.917C230.925 677.917 232.073 679.065 232.073 680.482C232.073 680.541 232.06 680.596 232.056 680.654H239.86L239.86 669.429Z" fill="#F1F1F1"/>
<path d="M239.86 667.49V669.429L239.86 675.044H224.995V667.49C224.995 666.969 225.417 666.547 225.938 666.547H238.917C239.438 666.547 239.86 666.969 239.86 667.49Z" fill="#F08C54"/>
<path d="M246.489 675.045L244.337 670.418C244.057 669.815 243.452 669.429 242.787 669.429H239.86V675.045H246.489Z" fill="#85A6D0"/>
<path d="M229.508 677.917C228.092 677.917 226.943 679.065 226.943 680.482C226.943 680.541 226.957 680.596 226.961 680.654C227.051 681.989 228.151 683.047 229.508 683.047C230.866 683.047 231.966 681.989 232.056 680.654C232.06 680.596 232.073 680.541 232.073 680.482C232.073 679.065 230.925 677.917 229.508 677.917ZM229.508 681.508C228.942 681.508 228.482 681.048 228.482 680.482C228.482 679.915 228.942 679.456 229.508 679.456C230.075 679.456 230.534 679.915 230.534 680.482C230.534 681.048 230.075 681.508 229.508 681.508Z" fill="#313D4C"/>
<path d="M243.229 677.917C241.812 677.917 240.664 679.065 240.664 680.482C240.664 680.541 240.677 680.596 240.681 680.654C240.772 681.989 241.871 683.047 243.229 683.047C244.586 683.047 245.686 681.989 245.776 680.654C245.78 680.596 245.794 680.541 245.794 680.482C245.794 679.065 244.645 677.917 243.229 677.917ZM243.229 681.508C242.662 681.508 242.203 681.048 242.203 680.482C242.203 679.915 242.662 679.456 243.229 679.456C243.795 679.456 244.255 679.915 244.255 680.482C244.255 681.048 243.795 681.508 243.229 681.508Z" fill="#313D4C"/>
<path d="M230.534 680.482C230.534 679.915 230.075 679.456 229.508 679.456C228.942 679.456 228.482 679.915 228.482 680.482C228.482 681.048 228.942 681.508 229.508 681.508C230.075 681.508 230.534 681.048 230.534 680.482Z" fill="#6B7683"/>
<path d="M244.255 680.482C244.255 679.915 243.795 679.456 243.229 679.456C242.662 679.456 242.203 679.915 242.203 680.482C242.203 681.048 242.662 681.508 243.229 681.508C243.795 681.508 244.255 681.048 244.255 680.482Z" fill="#6B7683"/>
</g>
</g>
<g filter="url(#filter21_d_745_3383)">
<rect x="178" y="658" width="36" height="58" rx="8" fill="white" shape-rendering="crispEdges"/>
<path d="M196.039 683.195C193.09 683.195 190.932 681.457 190.883 679.016H193.734C193.803 680.119 194.809 680.881 196.039 680.871C197.504 680.881 198.549 679.846 198.539 678.371C198.549 676.867 197.484 675.822 196 675.812C194.936 675.812 194.193 676.213 193.773 677.004H191.117L191.879 668.859H200.59V671.262H194.301L193.91 674.836H194.027C194.545 674.143 195.619 673.635 196.859 673.645C199.457 673.635 201.391 675.578 201.391 678.293C201.391 681.154 199.223 683.195 196.039 683.195Z" fill="#8A61BF"/>
<g clip-path="url(#clip15_745_3383)">
<path d="M206.794 699.7L206.489 699.045H199.86V704.654H200.681C200.677 704.596 200.664 704.541 200.664 704.482C200.664 703.065 201.812 701.917 203.229 701.917C204.645 701.917 205.794 703.065 205.794 704.482C205.794 704.541 205.78 704.596 205.776 704.654H206.062C206.583 704.654 207.005 704.232 207.005 703.711V700.655C207.005 700.325 206.933 699.999 206.794 699.7Z" fill="#CBCFD2"/>
<path d="M199.86 693.429V691.49C199.86 690.969 199.438 690.547 198.917 690.547H185.938C185.417 690.547 184.995 690.969 184.995 691.49V703.711C184.995 704.232 185.417 704.654 185.938 704.654H186.961C186.957 704.596 186.943 704.541 186.943 704.482C186.943 703.065 188.092 701.917 189.508 701.917C190.925 701.917 192.073 703.065 192.073 704.482C192.073 704.541 192.06 704.596 192.056 704.654H199.86L199.86 693.429Z" fill="#F1F1F1"/>
<path d="M199.86 691.49V693.429L199.86 699.044H184.995V691.49C184.995 690.969 185.417 690.547 185.938 690.547H198.917C199.438 690.547 199.86 690.969 199.86 691.49Z" fill="#F08C54"/>
<path d="M206.489 699.045L204.337 694.418C204.057 693.815 203.452 693.429 202.787 693.429H199.86V699.045H206.489Z" fill="#85A6D0"/>
<path d="M189.508 701.917C188.092 701.917 186.943 703.065 186.943 704.482C186.943 704.541 186.957 704.596 186.961 704.654C187.051 705.989 188.151 707.047 189.508 707.047C190.866 707.047 191.966 705.989 192.056 704.654C192.06 704.596 192.073 704.541 192.073 704.482C192.073 703.065 190.925 701.917 189.508 701.917ZM189.508 705.508C188.942 705.508 188.482 705.048 188.482 704.482C188.482 703.915 188.942 703.456 189.508 703.456C190.075 703.456 190.534 703.915 190.534 704.482C190.534 705.048 190.075 705.508 189.508 705.508Z" fill="#313D4C"/>
<path d="M203.229 701.917C201.812 701.917 200.664 703.065 200.664 704.482C200.664 704.541 200.677 704.596 200.681 704.654C200.772 705.989 201.871 707.047 203.229 707.047C204.586 707.047 205.686 705.989 205.776 704.654C205.78 704.596 205.794 704.541 205.794 704.482C205.794 703.065 204.645 701.917 203.229 701.917ZM203.229 705.508C202.662 705.508 202.203 705.048 202.203 704.482C202.203 703.915 202.662 703.456 203.229 703.456C203.795 703.456 204.255 703.915 204.255 704.482C204.255 705.048 203.795 705.508 203.229 705.508Z" fill="#313D4C"/>
<path d="M190.534 704.482C190.534 703.915 190.075 703.456 189.508 703.456C188.942 703.456 188.482 703.915 188.482 704.482C188.482 705.048 188.942 705.508 189.508 705.508C190.075 705.508 190.534 705.048 190.534 704.482Z" fill="#6B7683"/>
<path d="M204.255 704.482C204.255 703.915 203.795 703.456 203.229 703.456C202.662 703.456 202.203 703.915 202.203 704.482C202.203 705.048 202.662 705.508 203.229 705.508C203.795 705.508 204.255 705.048 204.255 704.482Z" fill="#6B7683"/>
</g>
</g>
<g filter="url(#filter22_d_745_3383)">
<rect x="138" y="684" width="36" height="58" rx="8" fill="white" shape-rendering="crispEdges"/>
<path d="M156.156 709.195C153.236 709.186 150.443 707.438 150.453 702.262C150.463 697.486 152.738 694.664 156.273 694.664C159.115 694.664 161.068 696.461 161.352 698.785H158.461C158.227 697.799 157.416 697.184 156.273 697.184C154.35 697.184 153.344 698.912 153.324 701.695H153.461C154.115 700.436 155.512 699.703 157.074 699.703C159.623 699.703 161.518 701.607 161.508 704.273C161.518 707.145 159.35 709.205 156.156 709.195ZM153.617 704.352C153.637 705.738 154.691 706.881 156.137 706.871C157.592 706.881 158.656 705.777 158.656 704.352C158.656 702.936 157.611 701.842 156.176 701.832C154.73 701.842 153.637 702.975 153.617 704.352Z" fill="#8A61BF"/>
<g clip-path="url(#clip16_745_3383)">
<path d="M166.794 725.7L166.489 725.045H159.86V730.654H160.681C160.677 730.596 160.664 730.541 160.664 730.482C160.664 729.065 161.812 727.917 163.229 727.917C164.645 727.917 165.794 729.065 165.794 730.482C165.794 730.541 165.78 730.596 165.776 730.654H166.062C166.583 730.654 167.005 730.232 167.005 729.711V726.655C167.005 726.325 166.933 725.999 166.794 725.7Z" fill="#CBCFD2"/>
<path d="M159.86 719.429V717.49C159.86 716.969 159.438 716.547 158.917 716.547H145.938C145.417 716.547 144.995 716.969 144.995 717.49V729.711C144.995 730.232 145.417 730.654 145.938 730.654H146.961C146.957 730.596 146.943 730.541 146.943 730.482C146.943 729.065 148.092 727.917 149.508 727.917C150.925 727.917 152.073 729.065 152.073 730.482C152.073 730.541 152.06 730.596 152.056 730.654H159.86L159.86 719.429Z" fill="#F1F1F1"/>
<path d="M159.86 717.49V719.429L159.86 725.044H144.995V717.49C144.995 716.969 145.417 716.547 145.938 716.547H158.917C159.438 716.547 159.86 716.969 159.86 717.49Z" fill="#F08C54"/>
<path d="M166.489 725.045L164.337 720.418C164.057 719.815 163.452 719.429 162.787 719.429H159.86V725.045H166.489Z" fill="#85A6D0"/>
<path d="M149.508 727.917C148.092 727.917 146.943 729.065 146.943 730.482C146.943 730.541 146.957 730.596 146.961 730.654C147.051 731.989 148.151 733.047 149.508 733.047C150.866 733.047 151.966 731.989 152.056 730.654C152.06 730.596 152.073 730.541 152.073 730.482C152.073 729.065 150.925 727.917 149.508 727.917ZM149.508 731.508C148.942 731.508 148.482 731.048 148.482 730.482C148.482 729.915 148.942 729.456 149.508 729.456C150.075 729.456 150.534 729.915 150.534 730.482C150.534 731.048 150.075 731.508 149.508 731.508Z" fill="#313D4C"/>
<path d="M163.229 727.917C161.812 727.917 160.664 729.065 160.664 730.482C160.664 730.541 160.677 730.596 160.681 730.654C160.772 731.989 161.871 733.047 163.229 733.047C164.586 733.047 165.686 731.989 165.776 730.654C165.78 730.596 165.794 730.541 165.794 730.482C165.794 729.065 164.645 727.917 163.229 727.917ZM163.229 731.508C162.662 731.508 162.203 731.048 162.203 730.482C162.203 729.915 162.662 729.456 163.229 729.456C163.795 729.456 164.255 729.915 164.255 730.482C164.255 731.048 163.795 731.508 163.229 731.508Z" fill="#313D4C"/>
<path d="M150.534 730.482C150.534 729.915 150.075 729.456 149.508 729.456C148.942 729.456 148.482 729.915 148.482 730.482C148.482 731.048 148.942 731.508 149.508 731.508C150.075 731.508 150.534 731.048 150.534 730.482Z" fill="#6B7683"/>
<path d="M164.255 730.482C164.255 729.915 163.795 729.456 163.229 729.456C162.662 729.456 162.203 729.915 162.203 730.482C162.203 731.048 162.662 731.508 163.229 731.508C163.795 731.508 164.255 731.048 164.255 730.482Z" fill="#6B7683"/>
</g>
</g>
<g filter="url(#filter23_d_745_3383)">
<rect x="98" y="709" width="36" height="58" rx="8" fill="white" shape-rendering="crispEdges"/>
<path d="M111.908 734L117.865 722.359V722.262H110.932V719.859H120.912V722.301L114.955 734H111.908Z" fill="#8A61BF"/>
<g clip-path="url(#clip17_745_3383)">
<path d="M126.794 750.7L126.489 750.045H119.86V755.654H120.681C120.677 755.596 120.664 755.541 120.664 755.482C120.664 754.065 121.812 752.917 123.229 752.917C124.645 752.917 125.794 754.065 125.794 755.482C125.794 755.541 125.78 755.596 125.776 755.654H126.062C126.583 755.654 127.005 755.232 127.005 754.711V751.655C127.005 751.325 126.933 750.999 126.794 750.7Z" fill="#CBCFD2"/>
<path d="M119.86 744.429V742.49C119.86 741.969 119.438 741.547 118.917 741.547H105.938C105.417 741.547 104.995 741.969 104.995 742.49V754.711C104.995 755.232 105.417 755.654 105.938 755.654H106.961C106.957 755.596 106.943 755.541 106.943 755.482C106.943 754.065 108.092 752.917 109.508 752.917C110.925 752.917 112.073 754.065 112.073 755.482C112.073 755.541 112.06 755.596 112.056 755.654H119.86L119.86 744.429Z" fill="#F1F1F1"/>
<path d="M119.86 742.49V744.429L119.86 750.044H104.995V742.49C104.995 741.969 105.417 741.547 105.938 741.547H118.917C119.438 741.547 119.86 741.969 119.86 742.49Z" fill="#F08C54"/>
<path d="M126.489 750.045L124.337 745.418C124.057 744.815 123.452 744.429 122.787 744.429H119.86V750.045H126.489Z" fill="#85A6D0"/>
<path d="M109.508 752.917C108.092 752.917 106.943 754.065 106.943 755.482C106.943 755.541 106.957 755.596 106.961 755.654C107.051 756.989 108.151 758.047 109.508 758.047C110.866 758.047 111.966 756.989 112.056 755.654C112.06 755.596 112.073 755.541 112.073 755.482C112.073 754.065 110.925 752.917 109.508 752.917ZM109.508 756.508C108.942 756.508 108.482 756.048 108.482 755.482C108.482 754.915 108.942 754.456 109.508 754.456C110.075 754.456 110.534 754.915 110.534 755.482C110.534 756.048 110.075 756.508 109.508 756.508Z" fill="#313D4C"/>
<path d="M123.229 752.917C121.812 752.917 120.664 754.065 120.664 755.482C120.664 755.541 120.677 755.596 120.681 755.654C120.772 756.989 121.871 758.047 123.229 758.047C124.586 758.047 125.686 756.989 125.776 755.654C125.78 755.596 125.794 755.541 125.794 755.482C125.794 754.065 124.645 752.917 123.229 752.917ZM123.229 756.508C122.662 756.508 122.203 756.048 122.203 755.482C122.203 754.915 122.662 754.456 123.229 754.456C123.795 754.456 124.255 754.915 124.255 755.482C124.255 756.048 123.795 756.508 123.229 756.508Z" fill="#313D4C"/>
<path d="M110.534 755.482C110.534 754.915 110.075 754.456 109.508 754.456C108.942 754.456 108.482 754.915 108.482 755.482C108.482 756.048 108.942 756.508 109.508 756.508C110.075 756.508 110.534 756.048 110.534 755.482Z" fill="#6B7683"/>
<path d="M124.255 755.482C124.255 754.915 123.795 754.456 123.229 754.456C122.662 754.456 122.203 754.915 122.203 755.482C122.203 756.048 122.662 756.508 123.229 756.508C123.795 756.508 124.255 756.048 124.255 755.482Z" fill="#6B7683"/>
</g>
</g>
<defs>
<filter id="filter0_d_745_3383" x="176" y="332" width="68" height="32" filterUnits="userSpaceOnUse" color-interpolation-filters="sRGB">
<feFlood flood-opacity="0" result="BackgroundImageFix"/>
<feColorMatrix in="SourceAlpha" type="matrix" values="0 0 0 0 0 0 0 0 0 0 0 0 0 0 0 0 0 0 127 0" result="hardAlpha"/>
<feOffset/>
<feGaussianBlur stdDeviation="2"/>
<feComposite in2="hardAlpha" operator="out"/>
<feColorMatrix type="matrix" values="0 0 0 0 0 0 0 0 0 0 0 0 0 0 0 0 0 0 0.4 0"/>
<feBlend mode="normal" in2="BackgroundImageFix" result="effect1_dropShadow_745_3383"/>
<feBlend mode="normal" in="SourceGraphic" in2="effect1_dropShadow_745_3383" result="shape"/>
</filter>
<filter id="filter1_d_745_3383" x="21" y="655" width="68" height="32" filterUnits="userSpaceOnUse" color-interpolation-filters="sRGB">
<feFlood flood-opacity="0" result="BackgroundImageFix"/>
<feColorMatrix in="SourceAlpha" type="matrix" values="0 0 0 0 0 0 0 0 0 0 0 0 0 0 0 0 0 0 127 0" result="hardAlpha"/>
<feOffset/>
<feGaussianBlur stdDeviation="2"/>
<feComposite in2="hardAlpha" operator="out"/>
<feColorMatrix type="matrix" values="0 0 0 0 0 0 0 0 0 0 0 0 0 0 0 0 0 0 0.4 0"/>
<feBlend mode="normal" in2="BackgroundImageFix" result="effect1_dropShadow_745_3383"/>
<feBlend mode="normal" in="SourceGraphic" in2="effect1_dropShadow_745_3383" result="shape"/>
</filter>
<filter id="filter2_d_745_3383" x="21" y="718" width="68" height="32" filterUnits="userSpaceOnUse" color-interpolation-filters="sRGB">
<feFlood flood-opacity="0" result="BackgroundImageFix"/>
<feColorMatrix in="SourceAlpha" type="matrix" values="0 0 0 0 0 0 0 0 0 0 0 0 0 0 0 0 0 0 127 0" result="hardAlpha"/>
<feOffset/>
<feGaussianBlur stdDeviation="2"/>
<feComposite in2="hardAlpha" operator="out"/>
<feColorMatrix type="matrix" values="0 0 0 0 0 0 0 0 0 0 0 0 0 0 0 0 0 0 0.4 0"/>
<feBlend mode="normal" in2="BackgroundImageFix" result="effect1_dropShadow_745_3383"/>
<feBlend mode="normal" in="SourceGraphic" in2="effect1_dropShadow_745_3383" result="shape"/>
</filter>
<filter id="filter3_d_745_3383" x="279" y="504" width="68" height="32" filterUnits="userSpaceOnUse" color-interpolation-filters="sRGB">
<feFlood flood-opacity="0" result="BackgroundImageFix"/>
<feColorMatrix in="SourceAlpha" type="matrix" values="0 0 0 0 0 0 0 0 0 0 0 0 0 0 0 0 0 0 127 0" result="hardAlpha"/>
<feOffset/>
<feGaussianBlur stdDeviation="2"/>
<feComposite in2="hardAlpha" operator="out"/>
<feColorMatrix type="matrix" values="0 0 0 0 0 0 0 0 0 0 0 0 0 0 0 0 0 0 0.4 0"/>
<feBlend mode="normal" in2="BackgroundImageFix" result="effect1_dropShadow_745_3383"/>
<feBlend mode="normal" in="SourceGraphic" in2="effect1_dropShadow_745_3383" result="shape"/>
</filter>
<filter id="filter4_d_745_3383" x="212" y="390" width="68" height="32" filterUnits="userSpaceOnUse" color-interpolation-filters="sRGB">
<feFlood flood-opacity="0" result="BackgroundImageFix"/>
<feColorMatrix in="SourceAlpha" type="matrix" values="0 0 0 0 0 0 0 0 0 0 0 0 0 0 0 0 0 0 127 0" result="hardAlpha"/>
<feOffset/>
<feGaussianBlur stdDeviation="2"/>
<feComposite in2="hardAlpha" operator="out"/>
<feColorMatrix type="matrix" values="0 0 0 0 0 0 0 0 0 0 0 0 0 0 0 0 0 0 0.4 0"/>
<feBlend mode="normal" in2="BackgroundImageFix" result="effect1_dropShadow_745_3383"/>
<feBlend mode="normal" in="SourceGraphic" in2="effect1_dropShadow_745_3383" result="shape"/>
</filter>
<filter id="filter5_d_745_3383" x="123" y="504" width="85" height="32" filterUnits="userSpaceOnUse" color-interpolation-filters="sRGB">
<feFlood flood-opacity="0" result="BackgroundImageFix"/>
<feColorMatrix in="SourceAlpha" type="matrix" values="0 0 0 0 0 0 0 0 0 0 0 0 0 0 0 0 0 0 127 0" result="hardAlpha"/>
<feOffset/>
<feGaussianBlur stdDeviation="2"/>
<feComposite in2="hardAlpha" operator="out"/>
<feColorMatrix type="matrix" values="0 0 0 0 0 0 0 0 0 0 0 0 0 0 0 0 0 0 0.4 0"/>
<feBlend mode="normal" in2="BackgroundImageFix" result="effect1_dropShadow_745_3383"/>
<feBlend mode="normal" in="SourceGraphic" in2="effect1_dropShadow_745_3383" result="shape"/>
</filter>
<filter id="filter6_d_745_3383" x="245" y="443" width="68" height="42" filterUnits="userSpaceOnUse" color-interpolation-filters="sRGB">
<feFlood flood-opacity="0" result="BackgroundImageFix"/>
<feColorMatrix in="SourceAlpha" type="matrix" values="0 0 0 0 0 0 0 0 0 0 0 0 0 0 0 0 0 0 127 0" result="hardAlpha"/>
<feOffset/>
<feGaussianBlur stdDeviation="2"/>
<feComposite in2="hardAlpha" operator="out"/>
<feColorMatrix type="matrix" values="0 0 0 0 0 0 0 0 0 0 0 0 0 0 0 0 0 0 0.4 0"/>
<feBlend mode="normal" in2="BackgroundImageFix" result="effect1_dropShadow_745_3383"/>
<feBlend mode="normal" in="SourceGraphic" in2="effect1_dropShadow_745_3383" result="shape"/>
</filter>
<filter id="filter7_d_745_3383" x="15" y="577" width="44" height="66" filterUnits="userSpaceOnUse" color-interpolation-filters="sRGB">
<feFlood flood-opacity="0" result="BackgroundImageFix"/>
<feColorMatrix in="SourceAlpha" type="matrix" values="0 0 0 0 0 0 0 0 0 0 0 0 0 0 0 0 0 0 127 0" result="hardAlpha"/>
<feOffset/>
<feGaussianBlur stdDeviation="2"/>
<feComposite in2="hardAlpha" operator="out"/>
<feColorMatrix type="matrix" values="0 0 0 0 0 0 0 0 0 0 0 0 0 0 0 0 0 0 0.4 0"/>
<feBlend mode="normal" in2="BackgroundImageFix" result="effect1_dropShadow_745_3383"/>
<feBlend mode="normal" in="SourceGraphic" in2="effect1_dropShadow_745_3383" result="shape"/>
</filter>
<filter id="filter8_d_745_3383" x="15" y="515" width="44" height="66" filterUnits="userSpaceOnUse" color-interpolation-filters="sRGB">
<feFlood flood-opacity="0" result="BackgroundImageFix"/>
<feColorMatrix in="SourceAlpha" type="matrix" values="0 0 0 0 0 0 0 0 0 0 0 0 0 0 0 0 0 0 127 0" result="hardAlpha"/>
<feOffset/>
<feGaussianBlur stdDeviation="2"/>
<feComposite in2="hardAlpha" operator="out"/>
<feColorMatrix type="matrix" values="0 0 0 0 0 0 0 0 0 0 0 0 0 0 0 0 0 0 0.4 0"/>
<feBlend mode="normal" in2="BackgroundImageFix" result="effect1_dropShadow_745_3383"/>
<feBlend mode="normal" in="SourceGraphic" in2="effect1_dropShadow_745_3383" result="shape"/>
</filter>
<filter id="filter9_d_745_3383" x="15" y="453" width="44" height="66" filterUnits="userSpaceOnUse" color-interpolation-filters="sRGB">
<feFlood flood-opacity="0" result="BackgroundImageFix"/>
<feColorMatrix in="SourceAlpha" type="matrix" values="0 0 0 0 0 0 0 0 0 0 0 0 0 0 0 0 0 0 127 0" result="hardAlpha"/>
<feOffset/>
<feGaussianBlur stdDeviation="2"/>
<feComposite in2="hardAlpha" operator="out"/>
<feColorMatrix type="matrix" values="0 0 0 0 0 0 0 0 0 0 0 0 0 0 0 0 0 0 0.4 0"/>
<feBlend mode="normal" in2="BackgroundImageFix" result="effect1_dropShadow_745_3383"/>
<feBlend mode="normal" in="SourceGraphic" in2="effect1_dropShadow_745_3383" result="shape"/>
</filter>
<filter id="filter10_d_745_3383" x="15" y="391" width="44" height="66" filterUnits="userSpaceOnUse" color-interpolation-filters="sRGB">
<feFlood flood-opacity="0" result="BackgroundImageFix"/>
<feColorMatrix in="SourceAlpha" type="matrix" values="0 0 0 0 0 0 0 0 0 0 0 0 0 0 0 0 0 0 127 0" result="hardAlpha"/>
<feOffset/>
<feGaussianBlur stdDeviation="2"/>
<feComposite in2="hardAlpha" operator="out"/>
<feColorMatrix type="matrix" values="0 0 0 0 0 0 0 0 0 0 0 0 0 0 0 0 0 0 0.4 0"/>
<feBlend mode="normal" in2="BackgroundImageFix" result="effect1_dropShadow_745_3383"/>
<feBlend mode="normal" in="SourceGraphic" in2="effect1_dropShadow_745_3383" result="shape"/>
</filter>
<filter id="filter11_d_745_3383" x="15" y="329" width="44" height="66" filterUnits="userSpaceOnUse" color-interpolation-filters="sRGB">
<feFlood flood-opacity="0" result="BackgroundImageFix"/>
<feColorMatrix in="SourceAlpha" type="matrix" values="0 0 0 0 0 0 0 0 0 0 0 0 0 0 0 0 0 0 127 0" result="hardAlpha"/>
<feOffset/>
<feGaussianBlur stdDeviation="2"/>
<feComposite in2="hardAlpha" operator="out"/>
<feColorMatrix type="matrix" values="0 0 0 0 0 0 0 0 0 0 0 0 0 0 0 0 0 0 0.4 0"/>
<feBlend mode="normal" in2="BackgroundImageFix" result="effect1_dropShadow_745_3383"/>
<feBlend mode="normal" in="SourceGraphic" in2="effect1_dropShadow_745_3383" result="shape"/>
</filter>
<filter id="filter12_d_745_3383" x="15" y="267" width="44" height="66" filterUnits="userSpaceOnUse" color-interpolation-filters="sRGB">
<feFlood flood-opacity="0" result="BackgroundImageFix"/>
<feColorMatrix in="SourceAlpha" type="matrix" values="0 0 0 0 0 0 0 0 0 0 0 0 0 0 0 0 0 0 127 0" result="hardAlpha"/>
<feOffset/>
<feGaussianBlur stdDeviation="2"/>
<feComposite in2="hardAlpha" operator="out"/>
<feColorMatrix type="matrix" values="0 0 0 0 0 0 0 0 0 0 0 0 0 0 0 0 0 0 0.4 0"/>
<feBlend mode="normal" in2="BackgroundImageFix" result="effect1_dropShadow_745_3383"/>
<feBlend mode="normal" in="SourceGraphic" in2="effect1_dropShadow_745_3383" result="shape"/>
</filter>
<filter id="filter13_d_745_3383" x="55" y="244" width="44" height="66" filterUnits="userSpaceOnUse" color-interpolation-filters="sRGB">
<feFlood flood-opacity="0" result="BackgroundImageFix"/>
<feColorMatrix in="SourceAlpha" type="matrix" values="0 0 0 0 0 0 0 0 0 0 0 0 0 0 0 0 0 0 127 0" result="hardAlpha"/>
<feOffset/>
<feGaussianBlur stdDeviation="2"/>
<feComposite in2="hardAlpha" operator="out"/>
<feColorMatrix type="matrix" values="0 0 0 0 0 0 0 0 0 0 0 0 0 0 0 0 0 0 0.4 0"/>
<feBlend mode="normal" in2="BackgroundImageFix" result="effect1_dropShadow_745_3383"/>
<feBlend mode="normal" in="SourceGraphic" in2="effect1_dropShadow_745_3383" result="shape"/>
</filter>
<filter id="filter14_d_745_3383" x="95" y="221" width="44" height="66" filterUnits="userSpaceOnUse" color-interpolation-filters="sRGB">
<feFlood flood-opacity="0" result="BackgroundImageFix"/>
<feColorMatrix in="SourceAlpha" type="matrix" values="0 0 0 0 0 0 0 0 0 0 0 0 0 0 0 0 0 0 127 0" result="hardAlpha"/>
<feOffset/>
<feGaussianBlur stdDeviation="2"/>
<feComposite in2="hardAlpha" operator="out"/>
<feColorMatrix type="matrix" values="0 0 0 0 0 0 0 0 0 0 0 0 0 0 0 0 0 0 0.4 0"/>
<feBlend mode="normal" in2="BackgroundImageFix" result="effect1_dropShadow_745_3383"/>
<feBlend mode="normal" in="SourceGraphic" in2="effect1_dropShadow_745_3383" result="shape"/>
</filter>
<filter id="filter15_d_745_3383" x="135" y="198" width="44" height="66" filterUnits="userSpaceOnUse" color-interpolation-filters="sRGB">
<feFlood flood-opacity="0" result="BackgroundImageFix"/>
<feColorMatrix in="SourceAlpha" type="matrix" values="0 0 0 0 0 0 0 0 0 0 0 0 0 0 0 0 0 0 127 0" result="hardAlpha"/>
<feOffset/>
<feGaussianBlur stdDeviation="2"/>
<feComposite in2="hardAlpha" operator="out"/>
<feColorMatrix type="matrix" values="0 0 0 0 0 0 0 0 0 0 0 0 0 0 0 0 0 0 0.4 0"/>
<feBlend mode="normal" in2="BackgroundImageFix" result="effect1_dropShadow_745_3383"/>
<feBlend mode="normal" in="SourceGraphic" in2="effect1_dropShadow_745_3383" result="shape"/>
</filter>
<filter id="filter16_d_745_3383" x="175" y="175" width="44" height="66" filterUnits="userSpaceOnUse" color-interpolation-filters="sRGB">
<feFlood flood-opacity="0" result="BackgroundImageFix"/>
<feColorMatrix in="SourceAlpha" type="matrix" values="0 0 0 0 0 0 0 0 0 0 0 0 0 0 0 0 0 0 127 0" result="hardAlpha"/>
<feOffset/>
<feGaussianBlur stdDeviation="2"/>
<feComposite in2="hardAlpha" operator="out"/>
<feColorMatrix type="matrix" values="0 0 0 0 0 0 0 0 0 0 0 0 0 0 0 0 0 0 0.4 0"/>
<feBlend mode="normal" in2="BackgroundImageFix" result="effect1_dropShadow_745_3383"/>
<feBlend mode="normal" in="SourceGraphic" in2="effect1_dropShadow_745_3383" result="shape"/>
</filter>
<filter id="filter17_d_745_3383" x="254" y="605" width="44" height="66" filterUnits="userSpaceOnUse" color-interpolation-filters="sRGB">
<feFlood flood-opacity="0" result="BackgroundImageFix"/>
<feColorMatrix in="SourceAlpha" type="matrix" values="0 0 0 0 0 0 0 0 0 0 0 0 0 0 0 0 0 0 127 0" result="hardAlpha"/>
<feOffset/>
<feGaussianBlur stdDeviation="2"/>
<feComposite in2="hardAlpha" operator="out"/>
<feColorMatrix type="matrix" values="0 0 0 0 0 0 0 0 0 0 0 0 0 0 0 0 0 0 0.4 0"/>
<feBlend mode="normal" in2="BackgroundImageFix" result="effect1_dropShadow_745_3383"/>
<feBlend mode="normal" in="SourceGraphic" in2="effect1_dropShadow_745_3383" result="shape"/>
</filter>
<filter id="filter18_d_745_3383" x="294" y="576" width="44" height="66" filterUnits="userSpaceOnUse" color-interpolation-filters="sRGB">
<feFlood flood-opacity="0" result="BackgroundImageFix"/>
<feColorMatrix in="SourceAlpha" type="matrix" values="0 0 0 0 0 0 0 0 0 0 0 0 0 0 0 0 0 0 127 0" result="hardAlpha"/>
<feOffset/>
<feGaussianBlur stdDeviation="2"/>
<feComposite in2="hardAlpha" operator="out"/>
<feColorMatrix type="matrix" values="0 0 0 0 0 0 0 0 0 0 0 0 0 0 0 0 0 0 0.4 0"/>
<feBlend mode="normal" in2="BackgroundImageFix" result="effect1_dropShadow_745_3383"/>
<feBlend mode="normal" in="SourceGraphic" in2="effect1_dropShadow_745_3383" result="shape"/>
</filter>
<filter id="filter19_d_745_3383" x="334" y="549" width="44" height="66" filterUnits="userSpaceOnUse" color-interpolation-filters="sRGB">
<feFlood flood-opacity="0" result="BackgroundImageFix"/>
<feColorMatrix in="SourceAlpha" type="matrix" values="0 0 0 0 0 0 0 0 0 0 0 0 0 0 0 0 0 0 127 0" result="hardAlpha"/>
<feOffset/>
<feGaussianBlur stdDeviation="2"/>
<feComposite in2="hardAlpha" operator="out"/>
<feColorMatrix type="matrix" values="0 0 0 0 0 0 0 0 0 0 0 0 0 0 0 0 0 0 0.4 0"/>
<feBlend mode="normal" in2="BackgroundImageFix" result="effect1_dropShadow_745_3383"/>
<feBlend mode="normal" in="SourceGraphic" in2="effect1_dropShadow_745_3383" result="shape"/>
</filter>
<filter id="filter20_d_745_3383" x="214" y="630" width="44" height="66" filterUnits="userSpaceOnUse" color-interpolation-filters="sRGB">
<feFlood flood-opacity="0" result="BackgroundImageFix"/>
<feColorMatrix in="SourceAlpha" type="matrix" values="0 0 0 0 0 0 0 0 0 0 0 0 0 0 0 0 0 0 127 0" result="hardAlpha"/>
<feOffset/>
<feGaussianBlur stdDeviation="2"/>
<feComposite in2="hardAlpha" operator="out"/>
<feColorMatrix type="matrix" values="0 0 0 0 0 0 0 0 0 0 0 0 0 0 0 0 0 0 0.4 0"/>
<feBlend mode="normal" in2="BackgroundImageFix" result="effect1_dropShadow_745_3383"/>
<feBlend mode="normal" in="SourceGraphic" in2="effect1_dropShadow_745_3383" result="shape"/>
</filter>
<filter id="filter21_d_745_3383" x="174" y="654" width="44" height="66" filterUnits="userSpaceOnUse" color-interpolation-filters="sRGB">
<feFlood flood-opacity="0" result="BackgroundImageFix"/>
<feColorMatrix in="SourceAlpha" type="matrix" values="0 0 0 0 0 0 0 0 0 0 0 0 0 0 0 0 0 0 127 0" result="hardAlpha"/>
<feOffset/>
<feGaussianBlur stdDeviation="2"/>
<feComposite in2="hardAlpha" operator="out"/>
<feColorMatrix type="matrix" values="0 0 0 0 0 0 0 0 0 0 0 0 0 0 0 0 0 0 0.4 0"/>
<feBlend mode="normal" in2="BackgroundImageFix" result="effect1_dropShadow_745_3383"/>
<feBlend mode="normal" in="SourceGraphic" in2="effect1_dropShadow_745_3383" result="shape"/>
</filter>
<filter id="filter22_d_745_3383" x="134" y="680" width="44" height="66" filterUnits="userSpaceOnUse" color-interpolation-filters="sRGB">
<feFlood flood-opacity="0" result="BackgroundImageFix"/>
<feColorMatrix in="SourceAlpha" type="matrix" values="0 0 0 0 0 0 0 0 0 0 0 0 0 0 0 0 0 0 127 0" result="hardAlpha"/>
<feOffset/>
<feGaussianBlur stdDeviation="2"/>
<feComposite in2="hardAlpha" operator="out"/>
<feColorMatrix type="matrix" values="0 0 0 0 0 0 0 0 0 0 0 0 0 0 0 0 0 0 0.4 0"/>
<feBlend mode="normal" in2="BackgroundImageFix" result="effect1_dropShadow_745_3383"/>
<feBlend mode="normal" in="SourceGraphic" in2="effect1_dropShadow_745_3383" result="shape"/>
</filter>
<filter id="filter23_d_745_3383" x="94" y="705" width="44" height="66" filterUnits="userSpaceOnUse" color-interpolation-filters="sRGB">
<feFlood flood-opacity="0" result="BackgroundImageFix"/>
<feColorMatrix in="SourceAlpha" type="matrix" values="0 0 0 0 0 0 0 0 0 0 0 0 0 0 0 0 0 0 127 0" result="hardAlpha"/>
<feOffset/>
<feGaussianBlur stdDeviation="2"/>
<feComposite in2="hardAlpha" operator="out"/>
<feColorMatrix type="matrix" values="0 0 0 0 0 0 0 0 0 0 0 0 0 0 0 0 0 0 0.4 0"/>
<feBlend mode="normal" in2="BackgroundImageFix" result="effect1_dropShadow_745_3383"/>
<feBlend mode="normal" in="SourceGraphic" in2="effect1_dropShadow_745_3383" result="shape"/>
</filter>
<clipPath id="clip0_745_3383">
<rect width="393" height="912" fill="white"/>
</clipPath>
<clipPath id="clip1_745_3383">
<rect width="24" height="24" fill="white" transform="translate(25 609)"/>
</clipPath>
<clipPath id="clip2_745_3383">
<rect width="24" height="24" fill="white" transform="translate(25 547)"/>
</clipPath>
<clipPath id="clip3_745_3383">
<rect width="24" height="24" fill="white" transform="translate(25 485)"/>
</clipPath>
<clipPath id="clip4_745_3383">
<rect width="24" height="24" fill="white" transform="translate(25 423)"/>
</clipPath>
<clipPath id="clip5_745_3383">
<rect width="24" height="24" fill="white" transform="translate(25 361)"/>
</clipPath>
<clipPath id="clip6_745_3383">
<rect width="24" height="24" fill="white" transform="translate(25 299)"/>
</clipPath>
<clipPath id="clip7_745_3383">
<rect width="24" height="24" fill="white" transform="translate(65 276)"/>
</clipPath>
<clipPath id="clip8_745_3383">
<rect width="24" height="24" fill="white" transform="translate(105 253)"/>
</clipPath>
<clipPath id="clip9_745_3383">
<rect width="24" height="24" fill="white" transform="translate(145 230)"/>
</clipPath>
<clipPath id="clip10_745_3383">
<rect width="24" height="24" fill="white" transform="translate(185 207)"/>
</clipPath>
<clipPath id="clip11_745_3383">
<rect width="24" height="24" fill="white" transform="translate(264 637)"/>
</clipPath>
<clipPath id="clip12_745_3383">
<rect width="24" height="24" fill="white" transform="translate(304 608)"/>
</clipPath>
<clipPath id="clip13_745_3383">
<rect width="24" height="24" fill="white" transform="translate(344 581)"/>
</clipPath>
<clipPath id="clip14_745_3383">
<rect width="24" height="24" fill="white" transform="translate(224 662)"/>
</clipPath>
<clipPath id="clip15_745_3383">
<rect width="24" height="24" fill="white" transform="translate(184 686)"/>
</clipPath>
<clipPath id="clip16_745_3383">
<rect width="24" height="24" fill="white" transform="translate(144 712)"/>
</clipPath>
<clipPath id="clip17_745_3383">
<rect width="24" height="24" fill="white" transform="translate(104 737)"/>
</clipPath>
</defs>
</svg>
