<svg width="393" height="912" viewBox="0 0 393 912" fill="none" xmlns="http://www.w3.org/2000/svg">
<g clip-path="url(#clip0_712_3582)">
<path d="M1.36375 817.764L224.625 1055.42C229.102 1060.18 236.571 1060.49 241.421 1056.1L427 888.219V-22H1.36375L-57.7128 570.817C-62.6952 609.958 -64.1186 667.603 -57.7128 706.033C-51.4298 743.726 -17.3794 796.414 1.36375 817.764Z" fill="white" fill-opacity="0.24"/>
<path fill-rule="evenodd" clip-rule="evenodd" d="M372.999 572.764H373V572.052V266.632H372.999C373 266.394 373 266.157 373 265.92C373 168.015 293.978 88.6476 196.5 88.6476C99.0217 88.6476 20 168.015 20 265.92C20 266.157 20.0005 266.394 20.0014 266.632H20V572.052V572.764H20.0014C20.3834 670.341 99.2581 749.324 196.5 749.324C293.742 749.324 372.617 670.341 372.999 572.764Z" fill="#CFBCE8"/>
<rect x="350.791" y="723.155" width="154.244" height="71.4993" rx="8" transform="rotate(48 350.791 723.155)" fill="#E8E9EB"/>
<rect x="335" y="769" width="31" height="22" rx="11" fill="#CFBCE8"/>
<path d="M343.695 776.52C343.689 778.03 344.724 779.452 346.438 780.023L345.777 780.988C344.527 780.531 343.6 779.617 343.111 778.468C342.61 779.731 341.645 780.722 340.318 781.229L339.671 780.252C341.455 779.636 342.483 778.138 342.489 776.456V775.288H343.695V776.52ZM341.461 782.994V782.042H349.167V786.079H347.961V782.994H341.461ZM345.562 777.992V777.002H347.961V774.704H349.167V781.445H347.961V777.992H345.562ZM360.745 774.704V786.079H359.59V780.239H358.231V785.521H357.089V774.92H358.231V779.224H359.59V774.704H360.745ZM350.767 782.867C352.43 781.934 353.204 779.973 353.204 777.713V776.977H351.071V775.999H356.353V776.977H354.372V777.713C354.372 779.757 355.14 781.61 356.797 782.461L356.086 783.388C354.969 782.778 354.22 781.718 353.813 780.411C353.426 781.902 352.677 783.096 351.516 783.781L350.767 782.867Z" fill="#2D3033"/>
</g>
<g filter="url(#filter0_d_712_3582)">
<rect x="275" y="663" width="60" height="36" rx="8" fill="white" shape-rendering="crispEdges"/>
<path d="M289.954 674.98V687H287.447V677.354H287.38L284.625 679.081V676.873L287.596 674.98H289.954ZM292.743 687L292.726 685.19L297.042 681.223C298.163 680.152 298.769 679.488 298.769 678.533C298.769 677.462 297.964 676.798 296.86 676.807C295.731 676.798 294.992 677.512 295 678.666H292.626C292.618 676.317 294.361 674.814 296.893 674.814C299.466 674.814 301.176 676.284 301.176 678.367C301.176 679.737 300.512 680.857 298.039 683.099L296.212 684.875V684.941H301.342V687H292.743Z" fill="#8A61BF"/>
<path d="M322.949 687.491L321.338 679.54H312.673C312.563 680.113 311.702 684.605 311.096 687.505C310.85 688.682 309.813 688.986 308.61 688.986H325.438C324.23 688.986 323.189 688.675 322.949 687.491Z" fill="#5DA3C1"/>
<path d="M311.637 686.965C312.243 684.065 313.104 679.573 313.213 679H309.702L307.833 688.225C307.753 688.618 308.054 688.986 308.455 688.986H309.151C310.354 688.986 311.39 688.142 311.637 686.965Z" fill="#70C7EC"/>
<path d="M324.258 679H320.798L322.409 686.951C322.649 688.135 323.69 688.986 324.898 688.986H325.505C325.906 688.986 326.207 688.618 326.127 688.225L324.258 679Z" fill="#70C7EC"/>
<path d="M317.637 671.983C317.608 671.967 317.577 671.961 317.547 671.947C317.246 671.808 316.909 671.782 316.595 671.875C316.502 671.903 316.41 671.935 316.323 671.983L307.817 677.364H326.143L317.637 671.983Z" fill="#70C7EC"/>
<path d="M316.993 679.54H325.464C325.839 679.54 326.143 679.236 326.143 678.861V677.364H307.817V678.861C307.817 679.236 308.121 679.54 308.496 679.54H316.993Z" fill="#EBEBEB"/>
</g>
<g filter="url(#filter1_d_712_3582)">
<rect x="58" y="663" width="60" height="36" rx="8" fill="white" shape-rendering="crispEdges"/>
<path d="M72.8125 674.98V687H70.3057V677.354H70.2393L67.4834 679.081V676.873L70.4551 674.98H72.8125ZM80.0176 687.166C77.5107 687.166 75.6763 685.688 75.6348 683.613H78.0586C78.1167 684.551 78.9717 685.199 80.0176 685.19C81.2627 685.199 82.1509 684.319 82.1426 683.065C82.1509 681.787 81.2461 680.899 79.9844 680.891C79.0796 680.891 78.4487 681.231 78.0918 681.903H75.834L76.4814 674.98H83.8857V677.022H78.54L78.208 680.061H78.3076C78.7476 679.471 79.6606 679.04 80.7148 679.048C82.9229 679.04 84.5664 680.691 84.5664 682.999C84.5664 685.431 82.7236 687.166 80.0176 687.166Z" fill="#8A61BF"/>
<path d="M105.949 687.491L104.338 679.54H95.6729C95.5632 680.113 94.7025 684.605 94.0962 687.505C93.85 688.682 92.8134 688.986 91.6104 688.986H108.438C107.23 688.986 106.189 688.675 105.949 687.491Z" fill="#5DA3C1"/>
<path d="M94.6366 686.965C95.2428 684.065 96.1035 679.573 96.2133 679H92.7023L90.8332 688.225C90.7535 688.618 91.0542 688.986 91.4554 688.986H92.1507C93.3537 688.986 94.3904 688.142 94.6366 686.965Z" fill="#70C7EC"/>
<path d="M107.258 679H103.798L105.409 686.951C105.649 688.135 106.69 688.986 107.898 688.986H108.505C108.906 688.986 109.207 688.618 109.127 688.225L107.258 679Z" fill="#70C7EC"/>
<path d="M100.637 671.983C100.608 671.967 100.577 671.961 100.547 671.947C100.246 671.808 99.9095 671.782 99.595 671.875C99.5021 671.903 99.41 671.935 99.3233 671.983L90.8174 677.364H109.143L100.637 671.983Z" fill="#70C7EC"/>
<path d="M99.993 679.54H108.464C108.839 679.54 109.143 679.236 109.143 678.861V677.364H90.8174V678.861C90.8174 679.236 91.1213 679.54 91.4961 679.54H99.993Z" fill="#EBEBEB"/>
</g>
<g filter="url(#filter2_d_712_3582)">
<rect x="98" y="703" width="60" height="36" rx="8" fill="white" shape-rendering="crispEdges"/>
<path d="M112.555 714.98V727H110.048V717.354H109.982L107.226 719.081V716.873L110.198 714.98H112.555ZM115.145 724.875V722.899L120.225 714.98H123.363V722.866H124.89V724.875H123.363V727H120.989V724.875H115.145ZM117.668 722.866H121.022V717.72H120.906L117.668 722.767V722.866Z" fill="#8A61BF"/>
<path d="M145.949 727.491L144.338 719.54H135.673C135.563 720.113 134.702 724.605 134.096 727.505C133.85 728.682 132.813 728.986 131.61 728.986H148.438C147.23 728.986 146.189 728.675 145.949 727.491Z" fill="#5DA3C1"/>
<path d="M134.637 726.965C135.243 724.065 136.104 719.573 136.213 719H132.702L130.833 728.225C130.753 728.618 131.054 728.986 131.455 728.986H132.151C133.354 728.986 134.39 728.142 134.637 726.965Z" fill="#70C7EC"/>
<path d="M147.258 719H143.798L145.409 726.951C145.649 728.135 146.69 728.986 147.898 728.986H148.505C148.906 728.986 149.207 728.618 149.127 728.225L147.258 719Z" fill="#70C7EC"/>
<path d="M140.637 711.983C140.608 711.967 140.577 711.961 140.547 711.947C140.246 711.808 139.909 711.782 139.595 711.875C139.502 711.903 139.41 711.935 139.323 711.983L130.817 717.364H149.143L140.637 711.983Z" fill="#70C7EC"/>
<path d="M139.993 719.54H148.464C148.839 719.54 149.143 719.236 149.143 718.861V717.364H130.817V718.861C130.817 719.236 131.121 719.54 131.496 719.54H139.993Z" fill="#EBEBEB"/>
</g>
<g filter="url(#filter3_d_712_3582)">
<rect x="235" y="703" width="60" height="36" rx="8" fill="white" shape-rendering="crispEdges"/>
<path d="M249.713 714.98V727H247.206V717.354H247.14L244.384 719.081V716.873L247.355 714.98H249.713ZM256.951 727.166C254.312 727.166 252.419 725.713 252.369 723.613H254.893C254.934 724.51 255.806 725.099 256.968 725.107C258.163 725.099 259.018 724.435 259.01 723.464C259.018 722.484 258.146 721.795 256.735 721.787H255.623V719.944H256.735C257.922 719.944 258.752 719.297 258.744 718.351C258.752 717.429 258.047 716.798 256.984 716.807C255.922 716.798 255.05 717.396 255.009 718.317H252.618C252.66 716.25 254.519 714.814 256.984 714.814C259.491 714.814 261.16 716.3 261.151 718.201C261.16 719.546 260.222 720.5 258.877 720.741V720.841C260.645 721.057 261.616 722.127 261.6 723.63C261.616 725.688 259.666 727.166 256.951 727.166Z" fill="#8A61BF"/>
<path d="M282.949 727.491L281.338 719.54H272.673C272.563 720.113 271.702 724.605 271.096 727.505C270.85 728.682 269.813 728.986 268.61 728.986H285.438C284.23 728.986 283.189 728.675 282.949 727.491Z" fill="#5DA3C1"/>
<path d="M271.637 726.965C272.243 724.065 273.104 719.573 273.213 719H269.702L267.833 728.225C267.753 728.618 268.054 728.986 268.455 728.986H269.151C270.354 728.986 271.39 728.142 271.637 726.965Z" fill="#70C7EC"/>
<path d="M284.258 719H280.798L282.409 726.951C282.649 728.135 283.69 728.986 284.898 728.986H285.505C285.906 728.986 286.207 728.618 286.127 728.225L284.258 719Z" fill="#70C7EC"/>
<path d="M277.637 711.983C277.608 711.967 277.577 711.961 277.547 711.947C277.246 711.808 276.909 711.782 276.595 711.875C276.502 711.903 276.41 711.935 276.323 711.983L267.817 717.364H286.143L277.637 711.983Z" fill="#70C7EC"/>
<path d="M276.993 719.54H285.464C285.839 719.54 286.143 719.236 286.143 718.861V717.364H267.817V718.861C267.817 719.236 268.121 719.54 268.496 719.54H276.993Z" fill="#EBEBEB"/>
</g>
<g filter="url(#filter4_d_712_3582)">
<rect x="166" y="719" width="60" height="36" rx="8" fill="white" shape-rendering="crispEdges"/>
<path d="M184 743.166C180.987 743.166 179.169 740.925 179.169 736.99C179.169 733.064 181.003 730.814 184 730.814C186.997 730.814 188.831 733.064 188.831 736.99C188.831 740.941 187.005 743.166 184 743.166ZM181.726 736.99C181.709 739.763 182.605 741.107 184 741.107C185.395 741.107 186.283 739.763 186.274 736.99C186.283 734.243 185.386 732.865 184 732.856C182.614 732.865 181.726 734.243 181.726 736.99Z" fill="#8A61BF"/>
<path d="M213.949 743.491L212.338 735.54H203.673C203.563 736.113 202.702 740.605 202.096 743.505C201.85 744.682 200.813 744.986 199.61 744.986H216.438C215.23 744.986 214.189 744.675 213.949 743.491Z" fill="#5DA3C1"/>
<path d="M202.637 742.965C203.243 740.065 204.104 735.574 204.213 735H200.702L198.833 744.225C198.753 744.619 199.054 744.986 199.455 744.986H200.151C201.354 744.986 202.39 744.142 202.637 742.965Z" fill="#70C7EC"/>
<path d="M215.258 735H211.798L213.409 742.951C213.649 744.135 214.69 744.986 215.898 744.986H216.505C216.906 744.986 217.207 744.619 217.127 744.225L215.258 735Z" fill="#70C7EC"/>
<path d="M208.637 727.983C208.608 727.967 208.577 727.961 208.547 727.948C208.246 727.808 207.909 727.782 207.595 727.875C207.502 727.903 207.41 727.935 207.323 727.983L198.817 733.364H217.143L208.637 727.983Z" fill="#70C7EC"/>
<path d="M207.993 735.54H216.464C216.839 735.54 217.143 735.236 217.143 734.861V733.364H198.817V734.861C198.817 735.236 199.121 735.54 199.496 735.54H207.993Z" fill="#EBEBEB"/>
</g>
<g filter="url(#filter5_d_712_3582)">
<rect x="305" y="623" width="60" height="36" rx="8" fill="white" shape-rendering="crispEdges"/>
<path d="M321.157 634.98V647H318.65V637.354H318.584L315.828 639.081V636.873L318.8 634.98H321.157ZM329.126 634.98V647H326.619V637.354H326.553L323.797 639.081V636.873L326.769 634.98H329.126Z" fill="#8A61BF"/>
<path d="M352.949 647.491L351.338 639.54H342.673C342.563 640.113 341.702 644.605 341.096 647.505C340.85 648.682 339.813 648.986 338.61 648.986H355.438C354.23 648.986 353.189 648.675 352.949 647.491Z" fill="#5DA3C1"/>
<path d="M341.637 646.965C342.243 644.065 343.104 639.573 343.213 639H339.702L337.833 648.225C337.753 648.618 338.054 648.986 338.455 648.986H339.151C340.354 648.986 341.39 648.142 341.637 646.965Z" fill="#70C7EC"/>
<path d="M354.258 639H350.798L352.409 646.951C352.649 648.135 353.69 648.986 354.898 648.986H355.505C355.906 648.986 356.207 648.618 356.127 648.225L354.258 639Z" fill="#70C7EC"/>
<path d="M347.637 631.983C347.608 631.967 347.577 631.961 347.547 631.947C347.246 631.808 346.909 631.782 346.595 631.875C346.502 631.903 346.41 631.935 346.323 631.983L337.817 637.364H356.143L347.637 631.983Z" fill="#70C7EC"/>
<path d="M346.993 639.54H355.464C355.839 639.54 356.143 639.236 356.143 638.861V637.364H337.817V638.861C337.817 639.236 338.121 639.54 338.496 639.54H346.993Z" fill="#EBEBEB"/>
</g>
<g filter="url(#filter6_d_712_3582)">
<rect x="28" y="623" width="60" height="36" rx="8" fill="white" shape-rendering="crispEdges"/>
<path d="M42.6797 634.98V647H40.1729V637.354H40.1064L37.3506 639.081V636.873L40.3223 634.98H42.6797ZM50.1172 647.166C47.6353 647.158 45.2612 645.672 45.2695 641.272C45.2778 637.213 47.2119 634.814 50.2168 634.814C52.6323 634.814 54.2925 636.342 54.5332 638.317H52.0762C51.877 637.479 51.188 636.956 50.2168 636.956C48.5815 636.956 47.7266 638.425 47.71 640.791H47.8262C48.3823 639.72 49.5693 639.098 50.8975 639.098C53.064 639.098 54.6743 640.716 54.666 642.982C54.6743 645.423 52.8315 647.174 50.1172 647.166ZM47.959 643.049C47.9756 644.228 48.8721 645.199 50.1006 645.19C51.3374 645.199 52.2422 644.261 52.2422 643.049C52.2422 641.845 51.354 640.916 50.1338 640.907C48.9053 640.916 47.9756 641.878 47.959 643.049Z" fill="#8A61BF"/>
<path d="M75.9487 647.491L74.3378 639.54H65.6729C65.5632 640.113 64.7025 644.605 64.0962 647.505C63.85 648.682 62.8134 648.986 61.6104 648.986H78.4379C77.2296 648.986 76.1887 648.675 75.9487 647.491Z" fill="#5DA3C1"/>
<path d="M64.6366 646.965C65.2428 644.065 66.1035 639.573 66.2133 639H62.7023L60.8332 648.225C60.7535 648.618 61.0542 648.986 61.4554 648.986H62.1507C63.3537 648.986 64.3904 648.142 64.6366 646.965Z" fill="#70C7EC"/>
<path d="M77.2581 639H73.7979L75.4088 646.951C75.6487 648.135 76.6897 648.986 77.8979 648.986H78.505C78.9063 648.986 79.207 648.618 79.1273 648.225L77.2581 639Z" fill="#70C7EC"/>
<path d="M70.6368 631.983C70.6083 631.967 70.5768 631.961 70.5474 631.947C70.2458 631.808 69.9095 631.782 69.595 631.875C69.5021 631.903 69.41 631.935 69.3233 631.983L60.8174 637.364H79.1427L70.6368 631.983Z" fill="#70C7EC"/>
<path d="M69.993 639.54H78.464C78.8388 639.54 79.1427 639.236 79.1427 638.861V637.364H60.8174V638.861C60.8174 639.236 61.1213 639.54 61.4961 639.54H69.993Z" fill="#EBEBEB"/>
</g>
<g filter="url(#filter7_d_712_3582)">
<rect x="315" y="583" width="60" height="36" rx="8" fill="white" shape-rendering="crispEdges"/>
<path d="M329.53 594.98V607H327.023V597.354H326.957L324.201 599.081V596.873L327.173 594.98H329.53ZM336.984 607.166C333.971 607.166 332.153 604.925 332.153 600.99C332.153 597.064 333.988 594.814 336.984 594.814C339.981 594.814 341.815 597.064 341.815 600.99C341.815 604.941 339.989 607.166 336.984 607.166ZM334.71 600.99C334.693 603.763 335.59 605.107 336.984 605.107C338.379 605.107 339.267 603.763 339.259 600.99C339.267 598.243 338.371 596.865 336.984 596.856C335.598 596.865 334.71 598.243 334.71 600.99Z" fill="#8A61BF"/>
<path d="M362.949 607.491L361.338 599.54H352.673C352.563 600.113 351.702 604.605 351.096 607.505C350.85 608.682 349.813 608.986 348.61 608.986H365.438C364.23 608.986 363.189 608.675 362.949 607.491Z" fill="#5DA3C1"/>
<path d="M351.637 606.965C352.243 604.065 353.104 599.573 353.213 599H349.702L347.833 608.225C347.753 608.618 348.054 608.986 348.455 608.986H349.151C350.354 608.986 351.39 608.142 351.637 606.965Z" fill="#70C7EC"/>
<path d="M364.258 599H360.798L362.409 606.951C362.649 608.135 363.69 608.986 364.898 608.986H365.505C365.906 608.986 366.207 608.618 366.127 608.225L364.258 599Z" fill="#70C7EC"/>
<path d="M357.637 591.983C357.608 591.967 357.577 591.961 357.547 591.947C357.246 591.808 356.909 591.782 356.595 591.875C356.502 591.903 356.41 591.935 356.323 591.983L347.817 597.364H366.143L357.637 591.983Z" fill="#70C7EC"/>
<path d="M356.993 599.54H365.464C365.839 599.54 366.143 599.236 366.143 598.861V597.364H347.817V598.861C347.817 599.236 348.121 599.54 348.496 599.54H356.993Z" fill="#EBEBEB"/>
</g>
<g filter="url(#filter8_d_712_3582)">
<rect x="315" y="543" width="60" height="36" rx="8" fill="white" shape-rendering="crispEdges"/>
<path d="M332.867 554.814C335.357 554.823 337.715 556.309 337.715 560.675C337.723 564.759 335.789 567.166 332.768 567.166C330.352 567.166 328.692 565.647 328.451 563.613H330.908C331.116 564.501 331.805 565.024 332.768 565.024C334.403 565.024 335.266 563.555 335.274 561.156H335.175C334.61 562.219 333.423 562.85 332.087 562.85C329.929 562.85 328.335 561.223 328.318 558.981C328.318 556.566 330.153 554.806 332.867 554.814ZM330.759 558.915C330.759 560.102 331.63 561.023 332.867 561.023C334.087 561.023 335.025 560.052 335.025 558.898C335.009 557.753 334.112 556.782 332.884 556.773C331.655 556.782 330.742 557.72 330.759 558.915Z" fill="#8A61BF"/>
<path d="M362.949 567.491L361.338 559.54H352.673C352.563 560.113 351.702 564.605 351.096 567.505C350.85 568.682 349.813 568.986 348.61 568.986H365.438C364.23 568.986 363.189 568.675 362.949 567.491Z" fill="#5DA3C1"/>
<path d="M351.637 566.965C352.243 564.065 353.104 559.573 353.213 559H349.702L347.833 568.225C347.753 568.618 348.054 568.986 348.455 568.986H349.151C350.354 568.986 351.39 568.142 351.637 566.965Z" fill="#70C7EC"/>
<path d="M364.258 559H360.798L362.409 566.951C362.649 568.135 363.69 568.986 364.898 568.986H365.505C365.906 568.986 366.207 568.618 366.127 568.225L364.258 559Z" fill="#70C7EC"/>
<path d="M357.637 551.983C357.608 551.967 357.577 551.961 357.547 551.947C357.246 551.808 356.909 551.782 356.595 551.875C356.502 551.903 356.41 551.935 356.323 551.983L347.817 557.364H366.143L357.637 551.983Z" fill="#70C7EC"/>
<path d="M356.993 559.54H365.464C365.839 559.54 366.143 559.236 366.143 558.861V557.364H347.817V558.861C347.817 559.236 348.121 559.54 348.496 559.54H356.993Z" fill="#EBEBEB"/>
</g>
<g filter="url(#filter9_d_712_3582)">
<rect x="315" y="503" width="60" height="36" rx="8" fill="white" shape-rendering="crispEdges"/>
<path d="M332.992 527.166C330.244 527.166 328.277 525.722 328.277 523.763C328.277 522.252 329.439 521.023 330.933 520.791V520.708C329.63 520.459 328.733 519.372 328.742 518.052C328.733 516.184 330.535 514.814 332.992 514.814C335.449 514.814 337.25 516.184 337.258 518.052C337.25 519.372 336.329 520.459 335.067 520.708V520.791C336.528 521.023 337.707 522.252 337.707 523.763C337.707 525.722 335.731 527.166 332.992 527.166ZM330.883 523.514C330.875 524.543 331.722 525.265 332.992 525.257C334.262 525.265 335.108 524.543 335.1 523.514C335.108 522.476 334.212 521.712 332.992 521.704C331.771 521.712 330.875 522.468 330.883 523.514ZM331.182 518.301C331.174 519.264 331.929 519.936 332.992 519.944C334.046 519.936 334.81 519.264 334.818 518.301C334.81 517.363 334.062 516.707 332.992 516.707C331.913 516.707 331.174 517.363 331.182 518.301Z" fill="#8A61BF"/>
<path d="M362.949 527.491L361.338 519.54H352.673C352.563 520.113 351.702 524.605 351.096 527.505C350.85 528.682 349.813 528.986 348.61 528.986H365.438C364.23 528.986 363.189 528.675 362.949 527.491Z" fill="#5DA3C1"/>
<path d="M351.637 526.965C352.243 524.065 353.104 519.573 353.213 519H349.702L347.833 528.225C347.753 528.618 348.054 528.986 348.455 528.986H349.151C350.354 528.986 351.39 528.142 351.637 526.965Z" fill="#70C7EC"/>
<path d="M364.258 519H360.798L362.409 526.951C362.649 528.135 363.69 528.986 364.898 528.986H365.505C365.906 528.986 366.207 528.618 366.127 528.225L364.258 519Z" fill="#70C7EC"/>
<path d="M357.637 511.983C357.608 511.967 357.577 511.961 357.547 511.947C357.246 511.808 356.909 511.782 356.595 511.875C356.502 511.903 356.41 511.935 356.323 511.983L347.817 517.364H366.143L357.637 511.983Z" fill="#70C7EC"/>
<path d="M356.993 519.54H365.464C365.839 519.54 366.143 519.236 366.143 518.861V517.364H347.817V518.861C347.817 519.236 348.121 519.54 348.496 519.54H356.993Z" fill="#EBEBEB"/>
</g>
<g filter="url(#filter10_d_712_3582)">
<rect x="315" y="463" width="60" height="36" rx="8" fill="white" shape-rendering="crispEdges"/>
<path d="M329.522 487L334.585 477.105V477.022H328.692V474.98H337.175V477.056L332.112 487H329.522Z" fill="#8A61BF"/>
<path d="M362.949 487.491L361.338 479.54H352.673C352.563 480.113 351.702 484.605 351.096 487.505C350.85 488.682 349.813 488.986 348.61 488.986H365.438C364.23 488.986 363.189 488.675 362.949 487.491Z" fill="#5DA3C1"/>
<path d="M351.637 486.965C352.243 484.065 353.104 479.573 353.213 479H349.702L347.833 488.225C347.753 488.618 348.054 488.986 348.455 488.986H349.151C350.354 488.986 351.39 488.142 351.637 486.965Z" fill="#70C7EC"/>
<path d="M364.258 479H360.798L362.409 486.951C362.649 488.135 363.69 488.986 364.898 488.986H365.505C365.906 488.986 366.207 488.618 366.127 488.225L364.258 479Z" fill="#70C7EC"/>
<path d="M357.637 471.983C357.608 471.967 357.577 471.961 357.547 471.947C357.246 471.808 356.909 471.782 356.595 471.875C356.502 471.903 356.41 471.935 356.323 471.983L347.817 477.364H366.143L357.637 471.983Z" fill="#70C7EC"/>
<path d="M356.993 479.54H365.464C365.839 479.54 366.143 479.236 366.143 478.861V477.364H347.817V478.861C347.817 479.236 348.121 479.54 348.496 479.54H356.993Z" fill="#EBEBEB"/>
</g>
<g filter="url(#filter11_d_712_3582)">
<rect x="315" y="413" width="60" height="36" rx="8" fill="white" shape-rendering="crispEdges"/>
<path d="M333.133 437.166C330.651 437.158 328.277 435.672 328.285 431.272C328.293 427.213 330.228 424.814 333.232 424.814C335.648 424.814 337.308 426.342 337.549 428.317H335.092C334.893 427.479 334.204 426.956 333.232 426.956C331.597 426.956 330.742 428.425 330.726 430.791H330.842C331.398 429.72 332.585 429.098 333.913 429.098C336.08 429.098 337.69 430.716 337.682 432.982C337.69 435.423 335.847 437.174 333.133 437.166ZM330.975 433.049C330.991 434.228 331.888 435.199 333.116 435.19C334.353 435.199 335.258 434.261 335.258 433.049C335.258 431.845 334.37 430.916 333.149 430.907C331.921 430.916 330.991 431.878 330.975 433.049Z" fill="#8A61BF"/>
<path d="M362.949 437.491L361.338 429.54H352.673C352.563 430.113 351.702 434.605 351.096 437.505C350.85 438.682 349.813 438.986 348.61 438.986H365.438C364.23 438.986 363.189 438.675 362.949 437.491Z" fill="#5DA3C1"/>
<path d="M351.637 436.965C352.243 434.065 353.104 429.573 353.213 429H349.702L347.833 438.225C347.753 438.618 348.054 438.986 348.455 438.986H349.151C350.354 438.986 351.39 438.142 351.637 436.965Z" fill="#70C7EC"/>
<path d="M364.258 429H360.798L362.409 436.951C362.649 438.135 363.69 438.986 364.898 438.986H365.505C365.906 438.986 366.207 438.618 366.127 438.225L364.258 429Z" fill="#70C7EC"/>
<path d="M357.637 421.983C357.608 421.967 357.577 421.961 357.547 421.947C357.246 421.808 356.909 421.782 356.595 421.875C356.502 421.903 356.41 421.935 356.323 421.983L347.817 427.364H366.143L357.637 421.983Z" fill="#70C7EC"/>
<path d="M356.993 429.54H365.464C365.839 429.54 366.143 429.236 366.143 428.861V427.364H347.817V428.861C347.817 429.236 348.121 429.54 348.496 429.54H356.993Z" fill="#EBEBEB"/>
</g>
<g filter="url(#filter12_d_712_3582)">
<rect x="315" y="373" width="60" height="36" rx="8" fill="white" shape-rendering="crispEdges"/>
<path d="M333.033 397.166C330.526 397.166 328.692 395.688 328.65 393.613H331.074C331.132 394.551 331.987 395.199 333.033 395.19C334.278 395.199 335.167 394.319 335.158 393.065C335.167 391.787 334.262 390.899 333 390.891C332.095 390.891 331.464 391.231 331.107 391.903H328.85L329.497 384.98H336.901V387.022H331.556L331.224 390.061H331.323C331.763 389.471 332.676 389.04 333.73 389.048C335.938 389.04 337.582 390.691 337.582 392.999C337.582 395.431 335.739 397.166 333.033 397.166Z" fill="#8A61BF"/>
<path d="M362.949 397.491L361.338 389.54H352.673C352.563 390.113 351.702 394.605 351.096 397.505C350.85 398.682 349.813 398.986 348.61 398.986H365.438C364.23 398.986 363.189 398.675 362.949 397.491Z" fill="#5DA3C1"/>
<path d="M351.637 396.965C352.243 394.065 353.104 389.573 353.213 389H349.702L347.833 398.225C347.753 398.618 348.054 398.986 348.455 398.986H349.151C350.354 398.986 351.39 398.142 351.637 396.965Z" fill="#70C7EC"/>
<path d="M364.258 389H360.798L362.409 396.951C362.649 398.135 363.69 398.986 364.898 398.986H365.505C365.906 398.986 366.207 398.618 366.127 398.225L364.258 389Z" fill="#70C7EC"/>
<path d="M357.637 381.983C357.608 381.967 357.577 381.961 357.547 381.947C357.246 381.808 356.909 381.782 356.595 381.875C356.502 381.903 356.41 381.935 356.323 381.983L347.817 387.364H366.143L357.637 381.983Z" fill="#70C7EC"/>
<path d="M356.993 389.54H365.464C365.839 389.54 366.143 389.236 366.143 388.861V387.364H347.817V388.861C347.817 389.236 348.121 389.54 348.496 389.54H356.993Z" fill="#EBEBEB"/>
</g>
<g filter="url(#filter13_d_712_3582)">
<rect x="315" y="333" width="60" height="36" rx="8" fill="white" shape-rendering="crispEdges"/>
<path d="M328.161 354.875V352.899L333.241 344.98H336.378V352.866H337.906V354.875H336.378V357H334.004V354.875H328.161ZM330.684 352.866H334.038V347.72H333.921L330.684 352.767V352.866Z" fill="#8A61BF"/>
<path d="M362.949 357.491L361.338 349.54H352.673C352.563 350.113 351.702 354.605 351.096 357.505C350.85 358.682 349.813 358.986 348.61 358.986H365.438C364.23 358.986 363.189 358.675 362.949 357.491Z" fill="#5DA3C1"/>
<path d="M351.637 356.965C352.243 354.065 353.104 349.573 353.213 349H349.702L347.833 358.225C347.753 358.618 348.054 358.986 348.455 358.986H349.151C350.354 358.986 351.39 358.142 351.637 356.965Z" fill="#70C7EC"/>
<path d="M364.258 349H360.798L362.409 356.951C362.649 358.135 363.69 358.986 364.898 358.986H365.505C365.906 358.986 366.207 358.618 366.127 358.225L364.258 349Z" fill="#70C7EC"/>
<path d="M357.637 341.983C357.608 341.967 357.577 341.961 357.547 341.947C357.246 341.808 356.909 341.782 356.595 341.875C356.502 341.903 356.41 341.935 356.323 341.983L347.817 347.364H366.143L357.637 341.983Z" fill="#70C7EC"/>
<path d="M356.993 349.54H365.464C365.839 349.54 366.143 349.236 366.143 348.861V347.364H347.817V348.861C347.817 349.236 348.121 349.54 348.496 349.54H356.993Z" fill="#EBEBEB"/>
</g>
<g filter="url(#filter14_d_712_3582)">
<rect x="315" y="293" width="60" height="36" rx="8" fill="white" shape-rendering="crispEdges"/>
<path d="M332.967 317.166C330.327 317.166 328.435 315.713 328.385 313.613H330.908C330.95 314.51 331.821 315.099 332.983 315.107C334.179 315.099 335.034 314.435 335.025 313.464C335.034 312.484 334.162 311.795 332.751 311.787H331.639V309.944H332.751C333.938 309.944 334.768 309.297 334.76 308.351C334.768 307.429 334.062 306.798 333 306.807C331.938 306.798 331.066 307.396 331.024 308.317H328.634C328.675 306.25 330.535 304.814 333 304.814C335.507 304.814 337.175 306.3 337.167 308.201C337.175 309.546 336.237 310.5 334.893 310.741V310.841C336.661 311.057 337.632 312.127 337.615 313.63C337.632 315.688 335.681 317.166 332.967 317.166Z" fill="#8A61BF"/>
<path d="M362.949 317.491L361.338 309.54H352.673C352.563 310.113 351.702 314.605 351.096 317.505C350.85 318.682 349.813 318.986 348.61 318.986H365.438C364.23 318.986 363.189 318.675 362.949 317.491Z" fill="#5DA3C1"/>
<path d="M351.637 316.965C352.243 314.065 353.104 309.573 353.213 309H349.702L347.833 318.225C347.753 318.618 348.054 318.986 348.455 318.986H349.151C350.354 318.986 351.39 318.142 351.637 316.965Z" fill="#70C7EC"/>
<path d="M364.258 309H360.798L362.409 316.951C362.649 318.135 363.69 318.986 364.898 318.986H365.505C365.906 318.986 366.207 318.618 366.127 318.225L364.258 309Z" fill="#70C7EC"/>
<path d="M357.637 301.983C357.608 301.967 357.577 301.961 357.547 301.947C357.246 301.808 356.909 301.782 356.595 301.875C356.502 301.903 356.41 301.935 356.323 301.983L347.817 307.364H366.143L357.637 301.983Z" fill="#70C7EC"/>
<path d="M356.993 309.54H365.464C365.839 309.54 366.143 309.236 366.143 308.861V307.364H347.817V308.861C347.817 309.236 348.121 309.54 348.496 309.54H356.993Z" fill="#EBEBEB"/>
</g>
<g filter="url(#filter15_d_712_3582)">
<rect x="315" y="253" width="60" height="36" rx="8" fill="white" shape-rendering="crispEdges"/>
<path d="M328.758 277L328.742 275.19L333.058 271.223C334.179 270.152 334.785 269.488 334.785 268.533C334.785 267.462 333.979 266.798 332.875 266.807C331.747 266.798 331.008 267.512 331.016 268.666H328.642C328.634 266.317 330.377 264.814 332.909 264.814C335.482 264.814 337.192 266.284 337.192 268.367C337.192 269.737 336.528 270.857 334.054 273.099L332.228 274.875V274.941H337.358V277H328.758Z" fill="#8A61BF"/>
<path d="M362.949 277.491L361.338 269.54H352.673C352.563 270.113 351.702 274.605 351.096 277.505C350.85 278.682 349.813 278.986 348.61 278.986H365.438C364.23 278.986 363.189 278.675 362.949 277.491Z" fill="#5DA3C1"/>
<path d="M351.637 276.965C352.243 274.065 353.104 269.573 353.213 269H349.702L347.833 278.225C347.753 278.618 348.054 278.986 348.455 278.986H349.151C350.354 278.986 351.39 278.142 351.637 276.965Z" fill="#70C7EC"/>
<path d="M364.258 269H360.798L362.409 276.951C362.649 278.135 363.69 278.986 364.898 278.986H365.505C365.906 278.986 366.207 278.618 366.127 278.225L364.258 269Z" fill="#70C7EC"/>
<path d="M357.637 261.983C357.608 261.967 357.577 261.961 357.547 261.947C357.246 261.808 356.909 261.782 356.595 261.875C356.502 261.903 356.41 261.935 356.323 261.983L347.817 267.364H366.143L357.637 261.983Z" fill="#70C7EC"/>
<path d="M356.993 269.54H365.464C365.839 269.54 366.143 269.236 366.143 268.861V267.364H347.817V268.861C347.817 269.236 348.121 269.54 348.496 269.54H356.993Z" fill="#EBEBEB"/>
</g>
<g filter="url(#filter16_d_712_3582)">
<rect x="315" y="213" width="60" height="36" rx="8" fill="white" shape-rendering="crispEdges"/>
<path d="M335.142 224.98V237H332.635V227.354H332.568L329.812 229.081V226.873L332.784 224.98H335.142Z" fill="#8A61BF"/>
<path d="M362.949 237.491L361.338 229.54H352.673C352.563 230.113 351.702 234.605 351.096 237.505C350.85 238.682 349.813 238.986 348.61 238.986H365.438C364.23 238.986 363.189 238.675 362.949 237.491Z" fill="#5DA3C1"/>
<path d="M351.637 236.965C352.243 234.065 353.104 229.573 353.213 229H349.702L347.833 238.225C347.753 238.618 348.054 238.986 348.455 238.986H349.151C350.354 238.986 351.39 238.142 351.637 236.965Z" fill="#70C7EC"/>
<path d="M364.258 229H360.798L362.409 236.951C362.649 238.135 363.69 238.986 364.898 238.986H365.505C365.906 238.986 366.207 238.618 366.127 238.225L364.258 229Z" fill="#70C7EC"/>
<path d="M357.637 221.983C357.608 221.967 357.577 221.961 357.547 221.947C357.246 221.808 356.909 221.782 356.595 221.875C356.502 221.903 356.41 221.935 356.323 221.983L347.817 227.364H366.143L357.637 221.983Z" fill="#70C7EC"/>
<path d="M356.993 229.54H365.464C365.839 229.54 366.143 229.236 366.143 228.861V227.364H347.817V228.861C347.817 229.236 348.121 229.54 348.496 229.54H356.993Z" fill="#EBEBEB"/>
</g>
<g filter="url(#filter17_d_712_3582)">
<rect x="18" y="583" width="60" height="36" rx="8" fill="white" shape-rendering="crispEdges"/>
<path d="M33.2524 594.98V607H30.7456V597.354H30.6792L27.9233 599.081V596.873L30.895 594.98H33.2524ZM36.5063 607L41.5698 597.105V597.022H35.6763V594.98H44.1597V597.056L39.0962 607H36.5063Z" fill="#8A61BF"/>
<path d="M65.9487 607.491L64.3378 599.54H55.6729C55.5632 600.113 54.7025 604.605 54.0962 607.505C53.85 608.682 52.8134 608.986 51.6104 608.986H68.4379C67.2296 608.986 66.1887 608.675 65.9487 607.491Z" fill="#5DA3C1"/>
<path d="M54.6366 606.965C55.2428 604.065 56.1035 599.573 56.2133 599H52.7023L50.8332 608.225C50.7535 608.618 51.0542 608.986 51.4554 608.986H52.1507C53.3537 608.986 54.3904 608.142 54.6366 606.965Z" fill="#70C7EC"/>
<path d="M67.2581 599H63.7979L65.4088 606.951C65.6487 608.135 66.6897 608.986 67.8979 608.986H68.505C68.9063 608.986 69.207 608.618 69.1273 608.225L67.2581 599Z" fill="#70C7EC"/>
<path d="M60.6368 591.983C60.6083 591.967 60.5768 591.961 60.5474 591.947C60.2458 591.808 59.9095 591.782 59.595 591.875C59.5021 591.903 59.41 591.935 59.3233 591.983L50.8174 597.364H69.1427L60.6368 591.983Z" fill="#70C7EC"/>
<path d="M59.993 599.54H68.464C68.8388 599.54 69.1427 599.236 69.1427 598.861V597.364H50.8174V598.861C50.8174 599.236 51.1213 599.54 51.4961 599.54H59.993Z" fill="#EBEBEB"/>
</g>
<g filter="url(#filter18_d_712_3582)">
<rect x="18" y="543" width="60" height="36" rx="8" fill="white" shape-rendering="crispEdges"/>
<path d="M32.6714 554.98V567H30.1646V557.354H30.0981L27.3423 559.081V556.873L30.314 554.98H32.6714ZM39.9761 567.166C37.2285 567.166 35.2612 565.722 35.2612 563.763C35.2612 562.252 36.4233 561.023 37.9175 560.791V560.708C36.6143 560.459 35.7178 559.372 35.7261 558.052C35.7178 556.184 37.519 554.814 39.9761 554.814C42.4331 554.814 44.2344 556.184 44.2427 558.052C44.2344 559.372 43.313 560.459 42.0513 560.708V560.791C43.5122 561.023 44.6909 562.252 44.6909 563.763C44.6909 565.722 42.7153 567.166 39.9761 567.166ZM37.8677 563.514C37.8594 564.543 38.7061 565.265 39.9761 565.257C41.2461 565.265 42.0928 564.543 42.0845 563.514C42.0928 562.476 41.1963 561.712 39.9761 561.704C38.7559 561.712 37.8594 562.468 37.8677 563.514ZM38.1665 558.301C38.1582 559.264 38.9136 559.936 39.9761 559.944C41.0303 559.936 41.7939 559.264 41.8022 558.301C41.7939 557.363 41.0469 556.707 39.9761 556.707C38.897 556.707 38.1582 557.363 38.1665 558.301Z" fill="#8A61BF"/>
<path d="M65.9487 567.491L64.3378 559.54H55.6729C55.5632 560.113 54.7025 564.605 54.0962 567.505C53.85 568.682 52.8134 568.986 51.6104 568.986H68.4379C67.2296 568.986 66.1887 568.675 65.9487 567.491Z" fill="#5DA3C1"/>
<path d="M54.6366 566.965C55.2428 564.065 56.1035 559.573 56.2133 559H52.7023L50.8332 568.225C50.7535 568.618 51.0542 568.986 51.4554 568.986H52.1507C53.3537 568.986 54.3904 568.142 54.6366 566.965Z" fill="#70C7EC"/>
<path d="M67.2581 559H63.7979L65.4088 566.951C65.6487 568.135 66.6897 568.986 67.8979 568.986H68.505C68.9063 568.986 69.207 568.618 69.1273 568.225L67.2581 559Z" fill="#70C7EC"/>
<path d="M60.6368 551.983C60.6083 551.967 60.5768 551.961 60.5474 551.947C60.2458 551.808 59.9095 551.782 59.595 551.875C59.5021 551.903 59.41 551.935 59.3233 551.983L50.8174 557.364H69.1427L60.6368 551.983Z" fill="#70C7EC"/>
<path d="M59.993 559.54H68.464C68.8388 559.54 69.1427 559.236 69.1427 558.861V557.364H50.8174V558.861C50.8174 559.236 51.1213 559.54 51.4961 559.54H59.993Z" fill="#EBEBEB"/>
</g>
<g filter="url(#filter19_d_712_3582)">
<rect x="18" y="503" width="60" height="36" rx="8" fill="white" shape-rendering="crispEdges"/>
<path d="M32.6797 514.98V527H30.1729V517.354H30.1064L27.3506 519.081V516.873L30.3223 514.98H32.6797ZM39.8516 514.814C42.3418 514.823 44.6992 516.309 44.6992 520.675C44.7075 524.759 42.7734 527.166 39.752 527.166C37.3364 527.166 35.6763 525.647 35.4355 523.613H37.8926C38.1001 524.501 38.7891 525.024 39.752 525.024C41.3872 525.024 42.2505 523.555 42.2588 521.156H42.1592C41.5947 522.219 40.4077 522.85 39.0713 522.85C36.9131 522.85 35.3193 521.223 35.3027 518.981C35.3027 516.566 37.1372 514.806 39.8516 514.814ZM37.7432 518.915C37.7432 520.102 38.6147 521.023 39.8516 521.023C41.0718 521.023 42.0098 520.052 42.0098 518.898C41.9932 517.753 41.0967 516.782 39.8682 516.773C38.6396 516.782 37.7266 517.72 37.7432 518.915Z" fill="#8A61BF"/>
<path d="M65.9487 527.491L64.3378 519.54H55.6729C55.5632 520.113 54.7025 524.605 54.0962 527.505C53.85 528.682 52.8134 528.986 51.6104 528.986H68.4379C67.2296 528.986 66.1887 528.675 65.9487 527.491Z" fill="#5DA3C1"/>
<path d="M54.6366 526.965C55.2428 524.065 56.1035 519.573 56.2133 519H52.7023L50.8332 528.225C50.7535 528.618 51.0542 528.986 51.4554 528.986H52.1507C53.3537 528.986 54.3904 528.142 54.6366 526.965Z" fill="#70C7EC"/>
<path d="M67.2581 519H63.7979L65.4088 526.951C65.6487 528.135 66.6897 528.986 67.8979 528.986H68.505C68.9063 528.986 69.207 528.618 69.1273 528.225L67.2581 519Z" fill="#70C7EC"/>
<path d="M60.6368 511.983C60.6083 511.967 60.5768 511.961 60.5474 511.947C60.2458 511.808 59.9095 511.782 59.595 511.875C59.5021 511.903 59.41 511.935 59.3233 511.983L50.8174 517.364H69.1427L60.6368 511.983Z" fill="#70C7EC"/>
<path d="M59.993 519.54H68.464C68.8388 519.54 69.1427 519.236 69.1427 518.861V517.364H50.8174V518.861C50.8174 519.236 51.1213 519.54 51.4961 519.54H59.993Z" fill="#EBEBEB"/>
</g>
<g filter="url(#filter20_d_712_3582)">
<rect x="18" y="463" width="60" height="36" rx="8" fill="white" shape-rendering="crispEdges"/>
<path d="M26.147 487L26.1304 485.19L30.4468 481.223C31.5674 480.152 32.1733 479.488 32.1733 478.533C32.1733 477.462 31.3682 476.798 30.2642 476.807C29.1353 476.798 28.3965 477.512 28.4048 478.666H26.0308C26.0225 476.317 27.7656 474.814 30.2974 474.814C32.8706 474.814 34.5806 476.284 34.5806 478.367C34.5806 479.737 33.9165 480.857 31.4429 483.099L29.6167 484.875V484.941H34.7466V487H26.147ZM41.188 487.166C38.1748 487.166 36.3569 484.925 36.3569 480.99C36.3569 477.064 38.1914 474.814 41.188 474.814C44.1846 474.814 46.019 477.064 46.019 480.99C46.019 484.941 44.1929 487.166 41.188 487.166ZM38.9136 480.99C38.897 483.763 39.7935 485.107 41.188 485.107C42.5825 485.107 43.4707 483.763 43.4624 480.99C43.4707 478.243 42.5742 476.865 41.188 476.856C39.8018 476.865 38.9136 478.243 38.9136 480.99Z" fill="#8A61BF"/>
<path d="M65.9487 487.491L64.3378 479.54H55.6729C55.5632 480.113 54.7025 484.605 54.0962 487.505C53.85 488.682 52.8134 488.986 51.6104 488.986H68.4379C67.2296 488.986 66.1887 488.675 65.9487 487.491Z" fill="#5DA3C1"/>
<path d="M54.6366 486.965C55.2428 484.065 56.1035 479.573 56.2133 479H52.7023L50.8332 488.225C50.7535 488.618 51.0542 488.986 51.4554 488.986H52.1507C53.3537 488.986 54.3904 488.142 54.6366 486.965Z" fill="#70C7EC"/>
<path d="M67.2581 479H63.7979L65.4088 486.951C65.6487 488.135 66.6897 488.986 67.8979 488.986H68.505C68.9063 488.986 69.207 488.618 69.1273 488.225L67.2581 479Z" fill="#70C7EC"/>
<path d="M60.6368 471.983C60.6083 471.967 60.5768 471.961 60.5474 471.947C60.2458 471.808 59.9095 471.782 59.595 471.875C59.5021 471.903 59.41 471.935 59.3233 471.983L50.8174 477.364H69.1427L60.6368 471.983Z" fill="#70C7EC"/>
<path d="M59.993 479.54H68.464C68.8388 479.54 69.1427 479.236 69.1427 478.861V477.364H50.8174V478.861C50.8174 479.236 51.1213 479.54 51.4961 479.54H59.993Z" fill="#EBEBEB"/>
</g>
<g filter="url(#filter21_d_712_3582)">
<rect x="18" y="413" width="60" height="36" rx="8" fill="white" shape-rendering="crispEdges"/>
<path d="M27.7739 437L27.7573 435.19L32.0737 431.223C33.1943 430.152 33.8003 429.488 33.8003 428.533C33.8003 427.462 32.9951 426.798 31.8911 426.807C30.7622 426.798 30.0234 427.512 30.0317 428.666H27.6577C27.6494 426.317 29.3926 424.814 31.9243 424.814C34.4976 424.814 36.2075 426.284 36.2075 428.367C36.2075 429.737 35.5435 430.857 33.0698 433.099L31.2437 434.875V434.941H36.3735V437H27.7739ZM43.3296 424.98V437H40.8228V427.354H40.7563L38.0005 429.081V426.873L40.9722 424.98H43.3296Z" fill="#8A61BF"/>
<path d="M65.9487 437.491L64.3378 429.54H55.6729C55.5632 430.113 54.7025 434.605 54.0962 437.505C53.85 438.682 52.8134 438.986 51.6104 438.986H68.4379C67.2296 438.986 66.1887 438.675 65.9487 437.491Z" fill="#5DA3C1"/>
<path d="M54.6366 436.965C55.2428 434.065 56.1035 429.573 56.2133 429H52.7023L50.8332 438.225C50.7535 438.618 51.0542 438.986 51.4554 438.986H52.1507C53.3537 438.986 54.3904 438.142 54.6366 436.965Z" fill="#70C7EC"/>
<path d="M67.2581 429H63.7979L65.4088 436.951C65.6487 438.135 66.6897 438.986 67.8979 438.986H68.505C68.9063 438.986 69.207 438.618 69.1273 438.225L67.2581 429Z" fill="#70C7EC"/>
<path d="M60.6368 421.983C60.6083 421.967 60.5768 421.961 60.5474 421.947C60.2458 421.808 59.9095 421.782 59.595 421.875C59.5021 421.903 59.41 421.935 59.3233 421.983L50.8174 427.364H69.1427L60.6368 421.983Z" fill="#70C7EC"/>
<path d="M59.993 429.54H68.464C68.8388 429.54 69.1427 429.236 69.1427 428.861V427.364H50.8174V428.861C50.8174 429.236 51.1213 429.54 51.4961 429.54H59.993Z" fill="#EBEBEB"/>
</g>
<g filter="url(#filter22_d_712_3582)">
<rect x="18" y="373" width="60" height="36" rx="8" fill="white" shape-rendering="crispEdges"/>
<path d="M26.5703 397L26.5537 395.19L30.8701 391.223C31.9907 390.152 32.5967 389.488 32.5967 388.533C32.5967 387.462 31.7915 386.798 30.6875 386.807C29.5586 386.798 28.8198 387.512 28.8281 388.666H26.4541C26.4458 386.317 28.189 384.814 30.7207 384.814C33.2939 384.814 35.0039 386.284 35.0039 388.367C35.0039 389.737 34.3398 390.857 31.8662 393.099L30.04 394.875V394.941H35.1699V397H26.5703ZM36.9463 397L36.9297 395.19L41.2461 391.223C42.3667 390.152 42.9727 389.488 42.9727 388.533C42.9727 387.462 42.1675 386.798 41.0635 386.807C39.9346 386.798 39.1958 387.512 39.2041 388.666H36.8301C36.8218 386.317 38.5649 384.814 41.0967 384.814C43.6699 384.814 45.3799 386.284 45.3799 388.367C45.3799 389.737 44.7158 390.857 42.2422 393.099L40.416 394.875V394.941H45.5459V397H36.9463Z" fill="#8A61BF"/>
<path d="M65.9487 397.491L64.3378 389.54H55.6729C55.5632 390.113 54.7025 394.605 54.0962 397.505C53.85 398.682 52.8134 398.986 51.6104 398.986H68.4379C67.2296 398.986 66.1887 398.675 65.9487 397.491Z" fill="#5DA3C1"/>
<path d="M54.6366 396.965C55.2428 394.065 56.1035 389.573 56.2133 389H52.7023L50.8332 398.225C50.7535 398.618 51.0542 398.986 51.4554 398.986H52.1507C53.3537 398.986 54.3904 398.142 54.6366 396.965Z" fill="#70C7EC"/>
<path d="M67.2581 389H63.7979L65.4088 396.951C65.6487 398.135 66.6897 398.986 67.8979 398.986H68.505C68.9063 398.986 69.207 398.618 69.1273 398.225L67.2581 389Z" fill="#70C7EC"/>
<path d="M60.6368 381.983C60.6083 381.967 60.5768 381.961 60.5474 381.947C60.2458 381.808 59.9095 381.782 59.595 381.875C59.5021 381.903 59.41 381.935 59.3233 381.983L50.8174 387.364H69.1427L60.6368 381.983Z" fill="#70C7EC"/>
<path d="M59.993 389.54H68.464C68.8388 389.54 69.1427 389.236 69.1427 388.861V387.364H50.8174V388.861C50.8174 389.236 51.1213 389.54 51.4961 389.54H59.993Z" fill="#EBEBEB"/>
</g>
<g filter="url(#filter23_d_712_3582)">
<rect x="18" y="333" width="60" height="36" rx="8" fill="white" shape-rendering="crispEdges"/>
<path d="M26.3296 357L26.313 355.19L30.6294 351.223C31.75 350.152 32.356 349.488 32.356 348.533C32.356 347.462 31.5508 346.798 30.4468 346.807C29.3179 346.798 28.5791 347.512 28.5874 348.666H26.2134C26.2051 346.317 27.9482 344.814 30.48 344.814C33.0532 344.814 34.7632 346.284 34.7632 348.367C34.7632 349.737 34.0991 350.857 31.6255 353.099L29.7993 354.875V354.941H34.9292V357H26.3296ZM41.1548 357.166C38.5151 357.166 36.6226 355.713 36.5728 353.613H39.0962C39.1377 354.51 40.0093 355.099 41.1714 355.107C42.3667 355.099 43.2217 354.435 43.2134 353.464C43.2217 352.484 42.3501 351.795 40.939 351.787H39.8267V349.944H40.939C42.126 349.944 42.9561 349.297 42.9478 348.351C42.9561 347.429 42.2505 346.798 41.188 346.807C40.1255 346.798 39.2539 347.396 39.2124 348.317H36.8218C36.8633 346.25 38.7227 344.814 41.188 344.814C43.6948 344.814 45.3633 346.3 45.355 348.201C45.3633 349.546 44.4253 350.5 43.0806 350.741V350.841C44.8486 351.057 45.8198 352.127 45.8032 353.63C45.8198 355.688 43.8691 357.166 41.1548 357.166Z" fill="#8A61BF"/>
<path d="M65.9487 357.491L64.3378 349.54H55.6729C55.5632 350.113 54.7025 354.605 54.0962 357.505C53.85 358.682 52.8134 358.986 51.6104 358.986H68.4379C67.2296 358.986 66.1887 358.675 65.9487 357.491Z" fill="#5DA3C1"/>
<path d="M54.6366 356.965C55.2428 354.065 56.1035 349.573 56.2133 349H52.7023L50.8332 358.225C50.7535 358.618 51.0542 358.986 51.4554 358.986H52.1507C53.3537 358.986 54.3904 358.142 54.6366 356.965Z" fill="#70C7EC"/>
<path d="M67.2581 349H63.7979L65.4088 356.951C65.6487 358.135 66.6897 358.986 67.8979 358.986H68.505C68.9063 358.986 69.207 358.618 69.1273 358.225L67.2581 349Z" fill="#70C7EC"/>
<path d="M60.6368 341.983C60.6083 341.967 60.5768 341.961 60.5474 341.947C60.2458 341.808 59.9095 341.782 59.595 341.875C59.5021 341.903 59.41 341.935 59.3233 341.983L50.8174 347.364H69.1427L60.6368 341.983Z" fill="#70C7EC"/>
<path d="M59.993 349.54H68.464C68.8388 349.54 69.1427 349.236 69.1427 348.861V347.364H50.8174V348.861C50.8174 349.236 51.1213 349.54 51.4961 349.54H59.993Z" fill="#EBEBEB"/>
</g>
<g filter="url(#filter24_d_712_3582)">
<rect x="18" y="293" width="60" height="36" rx="8" fill="white" shape-rendering="crispEdges"/>
<path d="M26.3047 317L26.2881 315.19L30.6045 311.223C31.7251 310.152 32.3311 309.488 32.3311 308.533C32.3311 307.462 31.5259 306.798 30.4219 306.807C29.293 306.798 28.5542 307.512 28.5625 308.666H26.1885C26.1802 306.317 27.9233 304.814 30.4551 304.814C33.0283 304.814 34.7383 306.284 34.7383 308.367C34.7383 309.737 34.0742 310.857 31.6006 313.099L29.7744 314.875V314.941H34.9043V317H26.3047ZM36.2158 314.875V312.899L41.2959 304.98H44.4336V312.866H45.9609V314.875H44.4336V317H42.0596V314.875H36.2158ZM38.7393 312.866H42.0928V307.72H41.9766L38.7393 312.767V312.866Z" fill="#8A61BF"/>
<path d="M65.9487 317.491L64.3378 309.54H55.6729C55.5632 310.113 54.7025 314.605 54.0962 317.505C53.85 318.682 52.8134 318.986 51.6104 318.986H68.4379C67.2296 318.986 66.1887 318.675 65.9487 317.491Z" fill="#5DA3C1"/>
<path d="M54.6366 316.965C55.2428 314.065 56.1035 309.573 56.2133 309H52.7023L50.8332 318.225C50.7535 318.618 51.0542 318.986 51.4554 318.986H52.1507C53.3537 318.986 54.3904 318.142 54.6366 316.965Z" fill="#70C7EC"/>
<path d="M67.2581 309H63.7979L65.4088 316.951C65.6487 318.135 66.6897 318.986 67.8979 318.986H68.505C68.9063 318.986 69.207 318.618 69.1273 318.225L67.2581 309Z" fill="#70C7EC"/>
<path d="M60.6368 301.983C60.6083 301.967 60.5768 301.961 60.5474 301.947C60.2458 301.808 59.9095 301.782 59.595 301.875C59.5021 301.903 59.41 301.935 59.3233 301.983L50.8174 307.364H69.1427L60.6368 301.983Z" fill="#70C7EC"/>
<path d="M59.993 309.54H68.464C68.8388 309.54 69.1427 309.236 69.1427 308.861V307.364H50.8174V308.861C50.8174 309.236 51.1213 309.54 51.4961 309.54H59.993Z" fill="#EBEBEB"/>
</g>
<g filter="url(#filter25_d_712_3582)">
<rect x="18" y="253" width="60" height="36" rx="8" fill="white" shape-rendering="crispEdges"/>
<path d="M26.4292 277L26.4126 275.19L30.729 271.223C31.8496 270.152 32.4556 269.488 32.4556 268.533C32.4556 267.462 31.6504 266.798 30.5464 266.807C29.4175 266.798 28.6787 267.512 28.687 268.666H26.313C26.3047 266.317 28.0479 264.814 30.5796 264.814C33.1528 264.814 34.8628 266.284 34.8628 268.367C34.8628 269.737 34.1987 270.857 31.7251 273.099L29.8989 274.875V274.941H35.0288V277H26.4292ZM41.2212 277.166C38.7144 277.166 36.8799 275.688 36.8384 273.613H39.2622C39.3203 274.551 40.1753 275.199 41.2212 275.19C42.4663 275.199 43.3545 274.319 43.3462 273.065C43.3545 271.787 42.4497 270.899 41.188 270.891C40.2832 270.891 39.6523 271.231 39.2954 271.903H37.0376L37.6851 264.98H45.0894V267.022H39.7437L39.4116 270.061H39.5112C39.9512 269.471 40.8643 269.04 41.9185 269.048C44.1265 269.04 45.77 270.691 45.77 272.999C45.77 275.431 43.9272 277.166 41.2212 277.166Z" fill="#8A61BF"/>
<path d="M65.9487 277.491L64.3378 269.54H55.6729C55.5632 270.113 54.7025 274.605 54.0962 277.505C53.85 278.682 52.8134 278.986 51.6104 278.986H68.4379C67.2296 278.986 66.1887 278.675 65.9487 277.491Z" fill="#5DA3C1"/>
<path d="M54.6366 276.965C55.2428 274.065 56.1035 269.573 56.2133 269H52.7023L50.8332 278.225C50.7535 278.618 51.0542 278.986 51.4554 278.986H52.1507C53.3537 278.986 54.3904 278.142 54.6366 276.965Z" fill="#70C7EC"/>
<path d="M67.2581 269H63.7979L65.4088 276.951C65.6487 278.135 66.6897 278.986 67.8979 278.986H68.505C68.9063 278.986 69.207 278.618 69.1273 278.225L67.2581 269Z" fill="#70C7EC"/>
<path d="M60.6368 261.983C60.6083 261.967 60.5768 261.961 60.5474 261.947C60.2458 261.808 59.9095 261.782 59.595 261.875C59.5021 261.903 59.41 261.935 59.3233 261.983L50.8174 267.364H69.1427L60.6368 261.983Z" fill="#70C7EC"/>
<path d="M59.993 269.54H68.464C68.8388 269.54 69.1427 269.236 69.1427 268.861V267.364H50.8174V268.861C50.8174 269.236 51.1213 269.54 51.4961 269.54H59.993Z" fill="#EBEBEB"/>
</g>
<g filter="url(#filter26_d_712_3582)">
<rect x="18" y="213" width="60" height="36" rx="8" fill="white" shape-rendering="crispEdges"/>
<path d="M26.2964 237L26.2798 235.19L30.5962 231.223C31.7168 230.152 32.3228 229.488 32.3228 228.533C32.3228 227.462 31.5176 226.798 30.4136 226.807C29.2847 226.798 28.5459 227.512 28.5542 228.666H26.1802C26.1719 226.317 27.915 224.814 30.4468 224.814C33.02 224.814 34.73 226.284 34.73 228.367C34.73 229.737 34.0659 230.857 31.5923 233.099L29.7661 234.875V234.941H34.896V237H26.2964ZM41.3208 237.166C38.8389 237.158 36.4648 235.672 36.4731 231.272C36.4814 227.213 38.4155 224.814 41.4204 224.814C43.8359 224.814 45.4961 226.342 45.7368 228.317H43.2798C43.0806 227.479 42.3916 226.956 41.4204 226.956C39.7852 226.956 38.9302 228.425 38.9136 230.791H39.0298C39.5859 229.72 40.7729 229.098 42.1011 229.098C44.2676 229.098 45.8779 230.716 45.8696 232.982C45.8779 235.423 44.0352 237.174 41.3208 237.166ZM39.1626 233.049C39.1792 234.228 40.0757 235.199 41.3042 235.19C42.541 235.199 43.4458 234.261 43.4458 233.049C43.4458 231.845 42.5576 230.916 41.3374 230.907C40.1089 230.916 39.1792 231.878 39.1626 233.049Z" fill="#8A61BF"/>
<path d="M65.9487 237.491L64.3378 229.54H55.6729C55.5632 230.113 54.7025 234.605 54.0962 237.505C53.85 238.682 52.8134 238.986 51.6104 238.986H68.4379C67.2296 238.986 66.1887 238.675 65.9487 237.491Z" fill="#5DA3C1"/>
<path d="M54.6366 236.965C55.2428 234.065 56.1035 229.573 56.2133 229H52.7023L50.8332 238.225C50.7535 238.618 51.0542 238.986 51.4554 238.986H52.1507C53.3537 238.986 54.3904 238.142 54.6366 236.965Z" fill="#70C7EC"/>
<path d="M67.2581 229H63.7979L65.4088 236.951C65.6487 238.135 66.6897 238.986 67.8979 238.986H68.505C68.9063 238.986 69.207 238.618 69.1273 238.225L67.2581 229Z" fill="#70C7EC"/>
<path d="M60.6368 221.983C60.6083 221.967 60.5768 221.961 60.5474 221.947C60.2458 221.808 59.9095 221.782 59.595 221.875C59.5021 221.903 59.41 221.935 59.3233 221.983L50.8174 227.364H69.1427L60.6368 221.983Z" fill="#70C7EC"/>
<path d="M59.993 229.54H68.464C68.8388 229.54 69.1427 229.236 69.1427 228.861V227.364H50.8174V228.861C50.8174 229.236 51.1213 229.54 51.4961 229.54H59.993Z" fill="#EBEBEB"/>
</g>
<rect x="170" y="791" width="65" height="22" rx="11" fill="#CFBCE8"/>
<path d="M183.768 796.704V799.649H185.418V800.678H183.768V803.56H182.562V796.704H183.768ZM174.843 798.824V797.859H177.636V796.615H178.842V797.859H181.623V798.824H174.843ZM175.465 801.351C175.459 800.138 176.576 799.319 178.233 799.319C179.877 799.319 180.988 800.138 180.988 801.351C180.988 802.582 179.871 803.388 178.233 803.395C176.576 803.388 175.459 802.582 175.465 801.351ZM176.506 807.939V804.156H183.768V807.939H176.506ZM176.633 801.351C176.621 802.055 177.268 802.474 178.233 802.48C179.198 802.474 179.845 802.055 179.858 801.351C179.845 800.671 179.198 800.24 178.233 800.246C177.268 800.24 176.621 800.671 176.633 801.351ZM177.687 806.962H182.575V805.108H177.687V806.962ZM195.499 796.717V804.981H194.292V796.717H195.499ZM186.294 800.297C186.301 798.653 187.608 797.485 189.329 797.479C191.042 797.485 192.35 798.653 192.35 800.297C192.35 801.966 191.042 803.128 189.329 803.128C187.608 803.128 186.301 801.966 186.294 800.297ZM187.475 800.297C187.469 801.37 188.269 802.074 189.329 802.074C190.37 802.074 191.169 801.37 191.169 800.297C191.169 799.25 190.37 798.532 189.329 798.532C188.269 798.532 187.469 799.25 187.475 800.297ZM188.059 807.838V804.144H189.278V806.86H195.841V807.838H188.059ZM206.772 796.704V802.938H205.579V799.789H203.179V798.799H205.579V796.704H206.772ZM197.289 801.935C199.041 801.351 200.101 799.872 200.107 798.291V797.123H201.3V798.367C201.3 799.827 202.335 801.173 204.03 801.706L203.42 802.658C202.151 802.227 201.199 801.357 200.704 800.246C200.202 801.458 199.237 802.417 197.911 802.887L197.289 801.935ZM199.371 807.939V803.458H200.564V804.74H205.579V803.458H206.772V807.939H199.371ZM200.564 806.962H205.579V805.68H200.564V806.962ZM214.872 797.39V798.037C214.865 798.761 214.865 799.789 214.58 801.097L213.386 800.995C213.627 799.884 213.666 799.053 213.672 798.38H209.133V797.39H214.872ZM208.448 802.074C209.152 802.074 209.946 802.068 210.771 802.055V799.878H211.964V802.023C213.189 801.979 214.44 801.896 215.583 801.757L215.659 802.607C213.285 803.007 210.606 803.071 208.562 803.077L208.448 802.074ZM209.933 805.946C209.933 804.664 211.399 803.89 213.78 803.89C216.16 803.89 217.626 804.664 217.626 805.946C217.626 807.279 216.16 808.047 213.78 808.041C211.399 808.047 209.933 807.279 209.933 805.946ZM211.152 805.946C211.146 806.702 212.136 807.095 213.78 807.089C215.417 807.095 216.395 806.702 216.408 805.946C216.395 805.248 215.417 804.829 213.78 804.829C212.136 804.829 211.146 805.248 211.152 805.946ZM216.306 803.75V796.704H217.538V799.713H219.112V800.716H217.538V803.75H216.306ZM223.746 798.799C223.739 800.246 224.749 801.566 226.475 802.112L225.904 803.052C224.609 802.639 223.663 801.782 223.162 800.703C222.667 801.947 221.67 802.931 220.305 803.407L219.683 802.442C221.46 801.858 222.533 800.392 222.54 798.812V798.494H220.039V797.517H226.196V798.494H223.746V798.799ZM221.219 805.921C221.219 804.588 222.673 803.807 225.041 803.813C227.383 803.807 228.811 804.588 228.811 805.921C228.811 807.273 227.383 808.06 225.041 808.054C222.673 808.06 221.219 807.273 221.219 805.921ZM222.425 805.921C222.419 806.683 223.396 807.108 225.041 807.102C226.672 807.108 227.637 806.683 227.63 805.921C227.637 805.178 226.672 804.759 225.041 804.766C223.396 804.759 222.419 805.178 222.425 805.921ZM227.503 803.534V796.704H228.709V799.522H230.36V800.513H228.709V803.534H227.503Z" fill="#2D3033"/>
<circle cx="356" cy="147" r="17" transform="rotate(-95.85 356 147)" fill="#494E53"/>
<path d="M341.307 148.666C341.192 148.598 341.176 148.438 341.274 148.348L344.458 145.408C344.579 145.296 344.775 145.371 344.792 145.535L345.322 150.708C345.339 150.872 345.161 150.984 345.02 150.899L341.307 148.666Z" fill="#FF3B30"/>
<path d="M370.694 145.334C370.808 145.402 370.825 145.562 370.727 145.652L367.543 148.592C367.422 148.704 367.225 148.629 367.208 148.465L366.678 143.292C366.662 143.128 366.839 143.016 366.98 143.101L370.694 145.334Z" fill="white"/>
<path d="M357.666 161.693C357.598 161.808 357.438 161.824 357.348 161.726L354.408 158.542C354.296 158.421 354.371 158.225 354.535 158.208L359.708 157.678C359.872 157.661 359.984 157.839 359.899 157.98L357.666 161.693Z" fill="white"/>
<path d="M354.334 132.307C354.402 132.193 354.562 132.176 354.652 132.274L357.592 135.458C357.704 135.579 357.629 135.776 357.465 135.792L352.292 136.322C352.128 136.339 352.016 136.162 352.101 136.02L354.334 132.307Z" fill="white"/>
<path d="M361.326 146.328L361.326 147.762L350.674 147.761L350.674 146.327L355.105 146.327L355.105 145.451L351.944 145.451L351.944 141.414L360.069 141.414L360.069 142.836L353.772 142.836L353.772 144.016L360.12 144.017L360.12 145.452L356.908 145.451L356.908 146.327L361.326 146.328ZM351.867 150.427C351.868 149.031 353.41 148.257 355.968 148.257C358.501 148.257 360.031 149.032 360.031 150.428C360.03 151.793 358.501 152.58 355.968 152.586C353.41 152.579 351.867 151.792 351.867 150.427ZM353.734 150.428C353.721 150.967 354.438 151.196 355.968 151.189C357.46 151.196 358.196 150.967 358.202 150.428C358.196 149.895 357.46 149.641 355.968 149.641C354.438 149.641 353.721 149.894 353.734 150.428Z" fill="white"/>
<defs>
<filter id="filter0_d_712_3582" x="271" y="659" width="68" height="44" filterUnits="userSpaceOnUse" color-interpolation-filters="sRGB">
<feFlood flood-opacity="0" result="BackgroundImageFix"/>
<feColorMatrix in="SourceAlpha" type="matrix" values="0 0 0 0 0 0 0 0 0 0 0 0 0 0 0 0 0 0 127 0" result="hardAlpha"/>
<feOffset/>
<feGaussianBlur stdDeviation="2"/>
<feComposite in2="hardAlpha" operator="out"/>
<feColorMatrix type="matrix" values="0 0 0 0 0 0 0 0 0 0 0 0 0 0 0 0 0 0 0.4 0"/>
<feBlend mode="normal" in2="BackgroundImageFix" result="effect1_dropShadow_712_3582"/>
<feBlend mode="normal" in="SourceGraphic" in2="effect1_dropShadow_712_3582" result="shape"/>
</filter>
<filter id="filter1_d_712_3582" x="54" y="659" width="68" height="44" filterUnits="userSpaceOnUse" color-interpolation-filters="sRGB">
<feFlood flood-opacity="0" result="BackgroundImageFix"/>
<feColorMatrix in="SourceAlpha" type="matrix" values="0 0 0 0 0 0 0 0 0 0 0 0 0 0 0 0 0 0 127 0" result="hardAlpha"/>
<feOffset/>
<feGaussianBlur stdDeviation="2"/>
<feComposite in2="hardAlpha" operator="out"/>
<feColorMatrix type="matrix" values="0 0 0 0 0 0 0 0 0 0 0 0 0 0 0 0 0 0 0.4 0"/>
<feBlend mode="normal" in2="BackgroundImageFix" result="effect1_dropShadow_712_3582"/>
<feBlend mode="normal" in="SourceGraphic" in2="effect1_dropShadow_712_3582" result="shape"/>
</filter>
<filter id="filter2_d_712_3582" x="94" y="699" width="68" height="44" filterUnits="userSpaceOnUse" color-interpolation-filters="sRGB">
<feFlood flood-opacity="0" result="BackgroundImageFix"/>
<feColorMatrix in="SourceAlpha" type="matrix" values="0 0 0 0 0 0 0 0 0 0 0 0 0 0 0 0 0 0 127 0" result="hardAlpha"/>
<feOffset/>
<feGaussianBlur stdDeviation="2"/>
<feComposite in2="hardAlpha" operator="out"/>
<feColorMatrix type="matrix" values="0 0 0 0 0 0 0 0 0 0 0 0 0 0 0 0 0 0 0.4 0"/>
<feBlend mode="normal" in2="BackgroundImageFix" result="effect1_dropShadow_712_3582"/>
<feBlend mode="normal" in="SourceGraphic" in2="effect1_dropShadow_712_3582" result="shape"/>
</filter>
<filter id="filter3_d_712_3582" x="231" y="699" width="68" height="44" filterUnits="userSpaceOnUse" color-interpolation-filters="sRGB">
<feFlood flood-opacity="0" result="BackgroundImageFix"/>
<feColorMatrix in="SourceAlpha" type="matrix" values="0 0 0 0 0 0 0 0 0 0 0 0 0 0 0 0 0 0 127 0" result="hardAlpha"/>
<feOffset/>
<feGaussianBlur stdDeviation="2"/>
<feComposite in2="hardAlpha" operator="out"/>
<feColorMatrix type="matrix" values="0 0 0 0 0 0 0 0 0 0 0 0 0 0 0 0 0 0 0.4 0"/>
<feBlend mode="normal" in2="BackgroundImageFix" result="effect1_dropShadow_712_3582"/>
<feBlend mode="normal" in="SourceGraphic" in2="effect1_dropShadow_712_3582" result="shape"/>
</filter>
<filter id="filter4_d_712_3582" x="162" y="715" width="68" height="44" filterUnits="userSpaceOnUse" color-interpolation-filters="sRGB">
<feFlood flood-opacity="0" result="BackgroundImageFix"/>
<feColorMatrix in="SourceAlpha" type="matrix" values="0 0 0 0 0 0 0 0 0 0 0 0 0 0 0 0 0 0 127 0" result="hardAlpha"/>
<feOffset/>
<feGaussianBlur stdDeviation="2"/>
<feComposite in2="hardAlpha" operator="out"/>
<feColorMatrix type="matrix" values="0 0 0 0 0 0 0 0 0 0 0 0 0 0 0 0 0 0 0.4 0"/>
<feBlend mode="normal" in2="BackgroundImageFix" result="effect1_dropShadow_712_3582"/>
<feBlend mode="normal" in="SourceGraphic" in2="effect1_dropShadow_712_3582" result="shape"/>
</filter>
<filter id="filter5_d_712_3582" x="301" y="619" width="68" height="44" filterUnits="userSpaceOnUse" color-interpolation-filters="sRGB">
<feFlood flood-opacity="0" result="BackgroundImageFix"/>
<feColorMatrix in="SourceAlpha" type="matrix" values="0 0 0 0 0 0 0 0 0 0 0 0 0 0 0 0 0 0 127 0" result="hardAlpha"/>
<feOffset/>
<feGaussianBlur stdDeviation="2"/>
<feComposite in2="hardAlpha" operator="out"/>
<feColorMatrix type="matrix" values="0 0 0 0 0 0 0 0 0 0 0 0 0 0 0 0 0 0 0.4 0"/>
<feBlend mode="normal" in2="BackgroundImageFix" result="effect1_dropShadow_712_3582"/>
<feBlend mode="normal" in="SourceGraphic" in2="effect1_dropShadow_712_3582" result="shape"/>
</filter>
<filter id="filter6_d_712_3582" x="24" y="619" width="68" height="44" filterUnits="userSpaceOnUse" color-interpolation-filters="sRGB">
<feFlood flood-opacity="0" result="BackgroundImageFix"/>
<feColorMatrix in="SourceAlpha" type="matrix" values="0 0 0 0 0 0 0 0 0 0 0 0 0 0 0 0 0 0 127 0" result="hardAlpha"/>
<feOffset/>
<feGaussianBlur stdDeviation="2"/>
<feComposite in2="hardAlpha" operator="out"/>
<feColorMatrix type="matrix" values="0 0 0 0 0 0 0 0 0 0 0 0 0 0 0 0 0 0 0.4 0"/>
<feBlend mode="normal" in2="BackgroundImageFix" result="effect1_dropShadow_712_3582"/>
<feBlend mode="normal" in="SourceGraphic" in2="effect1_dropShadow_712_3582" result="shape"/>
</filter>
<filter id="filter7_d_712_3582" x="311" y="579" width="68" height="44" filterUnits="userSpaceOnUse" color-interpolation-filters="sRGB">
<feFlood flood-opacity="0" result="BackgroundImageFix"/>
<feColorMatrix in="SourceAlpha" type="matrix" values="0 0 0 0 0 0 0 0 0 0 0 0 0 0 0 0 0 0 127 0" result="hardAlpha"/>
<feOffset/>
<feGaussianBlur stdDeviation="2"/>
<feComposite in2="hardAlpha" operator="out"/>
<feColorMatrix type="matrix" values="0 0 0 0 0 0 0 0 0 0 0 0 0 0 0 0 0 0 0.4 0"/>
<feBlend mode="normal" in2="BackgroundImageFix" result="effect1_dropShadow_712_3582"/>
<feBlend mode="normal" in="SourceGraphic" in2="effect1_dropShadow_712_3582" result="shape"/>
</filter>
<filter id="filter8_d_712_3582" x="311" y="539" width="68" height="44" filterUnits="userSpaceOnUse" color-interpolation-filters="sRGB">
<feFlood flood-opacity="0" result="BackgroundImageFix"/>
<feColorMatrix in="SourceAlpha" type="matrix" values="0 0 0 0 0 0 0 0 0 0 0 0 0 0 0 0 0 0 127 0" result="hardAlpha"/>
<feOffset/>
<feGaussianBlur stdDeviation="2"/>
<feComposite in2="hardAlpha" operator="out"/>
<feColorMatrix type="matrix" values="0 0 0 0 0 0 0 0 0 0 0 0 0 0 0 0 0 0 0.4 0"/>
<feBlend mode="normal" in2="BackgroundImageFix" result="effect1_dropShadow_712_3582"/>
<feBlend mode="normal" in="SourceGraphic" in2="effect1_dropShadow_712_3582" result="shape"/>
</filter>
<filter id="filter9_d_712_3582" x="311" y="499" width="68" height="44" filterUnits="userSpaceOnUse" color-interpolation-filters="sRGB">
<feFlood flood-opacity="0" result="BackgroundImageFix"/>
<feColorMatrix in="SourceAlpha" type="matrix" values="0 0 0 0 0 0 0 0 0 0 0 0 0 0 0 0 0 0 127 0" result="hardAlpha"/>
<feOffset/>
<feGaussianBlur stdDeviation="2"/>
<feComposite in2="hardAlpha" operator="out"/>
<feColorMatrix type="matrix" values="0 0 0 0 0 0 0 0 0 0 0 0 0 0 0 0 0 0 0.4 0"/>
<feBlend mode="normal" in2="BackgroundImageFix" result="effect1_dropShadow_712_3582"/>
<feBlend mode="normal" in="SourceGraphic" in2="effect1_dropShadow_712_3582" result="shape"/>
</filter>
<filter id="filter10_d_712_3582" x="311" y="459" width="68" height="44" filterUnits="userSpaceOnUse" color-interpolation-filters="sRGB">
<feFlood flood-opacity="0" result="BackgroundImageFix"/>
<feColorMatrix in="SourceAlpha" type="matrix" values="0 0 0 0 0 0 0 0 0 0 0 0 0 0 0 0 0 0 127 0" result="hardAlpha"/>
<feOffset/>
<feGaussianBlur stdDeviation="2"/>
<feComposite in2="hardAlpha" operator="out"/>
<feColorMatrix type="matrix" values="0 0 0 0 0 0 0 0 0 0 0 0 0 0 0 0 0 0 0.4 0"/>
<feBlend mode="normal" in2="BackgroundImageFix" result="effect1_dropShadow_712_3582"/>
<feBlend mode="normal" in="SourceGraphic" in2="effect1_dropShadow_712_3582" result="shape"/>
</filter>
<filter id="filter11_d_712_3582" x="311" y="409" width="68" height="44" filterUnits="userSpaceOnUse" color-interpolation-filters="sRGB">
<feFlood flood-opacity="0" result="BackgroundImageFix"/>
<feColorMatrix in="SourceAlpha" type="matrix" values="0 0 0 0 0 0 0 0 0 0 0 0 0 0 0 0 0 0 127 0" result="hardAlpha"/>
<feOffset/>
<feGaussianBlur stdDeviation="2"/>
<feComposite in2="hardAlpha" operator="out"/>
<feColorMatrix type="matrix" values="0 0 0 0 0 0 0 0 0 0 0 0 0 0 0 0 0 0 0.4 0"/>
<feBlend mode="normal" in2="BackgroundImageFix" result="effect1_dropShadow_712_3582"/>
<feBlend mode="normal" in="SourceGraphic" in2="effect1_dropShadow_712_3582" result="shape"/>
</filter>
<filter id="filter12_d_712_3582" x="311" y="369" width="68" height="44" filterUnits="userSpaceOnUse" color-interpolation-filters="sRGB">
<feFlood flood-opacity="0" result="BackgroundImageFix"/>
<feColorMatrix in="SourceAlpha" type="matrix" values="0 0 0 0 0 0 0 0 0 0 0 0 0 0 0 0 0 0 127 0" result="hardAlpha"/>
<feOffset/>
<feGaussianBlur stdDeviation="2"/>
<feComposite in2="hardAlpha" operator="out"/>
<feColorMatrix type="matrix" values="0 0 0 0 0 0 0 0 0 0 0 0 0 0 0 0 0 0 0.4 0"/>
<feBlend mode="normal" in2="BackgroundImageFix" result="effect1_dropShadow_712_3582"/>
<feBlend mode="normal" in="SourceGraphic" in2="effect1_dropShadow_712_3582" result="shape"/>
</filter>
<filter id="filter13_d_712_3582" x="311" y="329" width="68" height="44" filterUnits="userSpaceOnUse" color-interpolation-filters="sRGB">
<feFlood flood-opacity="0" result="BackgroundImageFix"/>
<feColorMatrix in="SourceAlpha" type="matrix" values="0 0 0 0 0 0 0 0 0 0 0 0 0 0 0 0 0 0 127 0" result="hardAlpha"/>
<feOffset/>
<feGaussianBlur stdDeviation="2"/>
<feComposite in2="hardAlpha" operator="out"/>
<feColorMatrix type="matrix" values="0 0 0 0 0 0 0 0 0 0 0 0 0 0 0 0 0 0 0.4 0"/>
<feBlend mode="normal" in2="BackgroundImageFix" result="effect1_dropShadow_712_3582"/>
<feBlend mode="normal" in="SourceGraphic" in2="effect1_dropShadow_712_3582" result="shape"/>
</filter>
<filter id="filter14_d_712_3582" x="311" y="289" width="68" height="44" filterUnits="userSpaceOnUse" color-interpolation-filters="sRGB">
<feFlood flood-opacity="0" result="BackgroundImageFix"/>
<feColorMatrix in="SourceAlpha" type="matrix" values="0 0 0 0 0 0 0 0 0 0 0 0 0 0 0 0 0 0 127 0" result="hardAlpha"/>
<feOffset/>
<feGaussianBlur stdDeviation="2"/>
<feComposite in2="hardAlpha" operator="out"/>
<feColorMatrix type="matrix" values="0 0 0 0 0 0 0 0 0 0 0 0 0 0 0 0 0 0 0.4 0"/>
<feBlend mode="normal" in2="BackgroundImageFix" result="effect1_dropShadow_712_3582"/>
<feBlend mode="normal" in="SourceGraphic" in2="effect1_dropShadow_712_3582" result="shape"/>
</filter>
<filter id="filter15_d_712_3582" x="311" y="249" width="68" height="44" filterUnits="userSpaceOnUse" color-interpolation-filters="sRGB">
<feFlood flood-opacity="0" result="BackgroundImageFix"/>
<feColorMatrix in="SourceAlpha" type="matrix" values="0 0 0 0 0 0 0 0 0 0 0 0 0 0 0 0 0 0 127 0" result="hardAlpha"/>
<feOffset/>
<feGaussianBlur stdDeviation="2"/>
<feComposite in2="hardAlpha" operator="out"/>
<feColorMatrix type="matrix" values="0 0 0 0 0 0 0 0 0 0 0 0 0 0 0 0 0 0 0.4 0"/>
<feBlend mode="normal" in2="BackgroundImageFix" result="effect1_dropShadow_712_3582"/>
<feBlend mode="normal" in="SourceGraphic" in2="effect1_dropShadow_712_3582" result="shape"/>
</filter>
<filter id="filter16_d_712_3582" x="311" y="209" width="68" height="44" filterUnits="userSpaceOnUse" color-interpolation-filters="sRGB">
<feFlood flood-opacity="0" result="BackgroundImageFix"/>
<feColorMatrix in="SourceAlpha" type="matrix" values="0 0 0 0 0 0 0 0 0 0 0 0 0 0 0 0 0 0 127 0" result="hardAlpha"/>
<feOffset/>
<feGaussianBlur stdDeviation="2"/>
<feComposite in2="hardAlpha" operator="out"/>
<feColorMatrix type="matrix" values="0 0 0 0 0 0 0 0 0 0 0 0 0 0 0 0 0 0 0.4 0"/>
<feBlend mode="normal" in2="BackgroundImageFix" result="effect1_dropShadow_712_3582"/>
<feBlend mode="normal" in="SourceGraphic" in2="effect1_dropShadow_712_3582" result="shape"/>
</filter>
<filter id="filter17_d_712_3582" x="14" y="579" width="68" height="44" filterUnits="userSpaceOnUse" color-interpolation-filters="sRGB">
<feFlood flood-opacity="0" result="BackgroundImageFix"/>
<feColorMatrix in="SourceAlpha" type="matrix" values="0 0 0 0 0 0 0 0 0 0 0 0 0 0 0 0 0 0 127 0" result="hardAlpha"/>
<feOffset/>
<feGaussianBlur stdDeviation="2"/>
<feComposite in2="hardAlpha" operator="out"/>
<feColorMatrix type="matrix" values="0 0 0 0 0 0 0 0 0 0 0 0 0 0 0 0 0 0 0.4 0"/>
<feBlend mode="normal" in2="BackgroundImageFix" result="effect1_dropShadow_712_3582"/>
<feBlend mode="normal" in="SourceGraphic" in2="effect1_dropShadow_712_3582" result="shape"/>
</filter>
<filter id="filter18_d_712_3582" x="14" y="539" width="68" height="44" filterUnits="userSpaceOnUse" color-interpolation-filters="sRGB">
<feFlood flood-opacity="0" result="BackgroundImageFix"/>
<feColorMatrix in="SourceAlpha" type="matrix" values="0 0 0 0 0 0 0 0 0 0 0 0 0 0 0 0 0 0 127 0" result="hardAlpha"/>
<feOffset/>
<feGaussianBlur stdDeviation="2"/>
<feComposite in2="hardAlpha" operator="out"/>
<feColorMatrix type="matrix" values="0 0 0 0 0 0 0 0 0 0 0 0 0 0 0 0 0 0 0.4 0"/>
<feBlend mode="normal" in2="BackgroundImageFix" result="effect1_dropShadow_712_3582"/>
<feBlend mode="normal" in="SourceGraphic" in2="effect1_dropShadow_712_3582" result="shape"/>
</filter>
<filter id="filter19_d_712_3582" x="14" y="499" width="68" height="44" filterUnits="userSpaceOnUse" color-interpolation-filters="sRGB">
<feFlood flood-opacity="0" result="BackgroundImageFix"/>
<feColorMatrix in="SourceAlpha" type="matrix" values="0 0 0 0 0 0 0 0 0 0 0 0 0 0 0 0 0 0 127 0" result="hardAlpha"/>
<feOffset/>
<feGaussianBlur stdDeviation="2"/>
<feComposite in2="hardAlpha" operator="out"/>
<feColorMatrix type="matrix" values="0 0 0 0 0 0 0 0 0 0 0 0 0 0 0 0 0 0 0.4 0"/>
<feBlend mode="normal" in2="BackgroundImageFix" result="effect1_dropShadow_712_3582"/>
<feBlend mode="normal" in="SourceGraphic" in2="effect1_dropShadow_712_3582" result="shape"/>
</filter>
<filter id="filter20_d_712_3582" x="14" y="459" width="68" height="44" filterUnits="userSpaceOnUse" color-interpolation-filters="sRGB">
<feFlood flood-opacity="0" result="BackgroundImageFix"/>
<feColorMatrix in="SourceAlpha" type="matrix" values="0 0 0 0 0 0 0 0 0 0 0 0 0 0 0 0 0 0 127 0" result="hardAlpha"/>
<feOffset/>
<feGaussianBlur stdDeviation="2"/>
<feComposite in2="hardAlpha" operator="out"/>
<feColorMatrix type="matrix" values="0 0 0 0 0 0 0 0 0 0 0 0 0 0 0 0 0 0 0.4 0"/>
<feBlend mode="normal" in2="BackgroundImageFix" result="effect1_dropShadow_712_3582"/>
<feBlend mode="normal" in="SourceGraphic" in2="effect1_dropShadow_712_3582" result="shape"/>
</filter>
<filter id="filter21_d_712_3582" x="14" y="409" width="68" height="44" filterUnits="userSpaceOnUse" color-interpolation-filters="sRGB">
<feFlood flood-opacity="0" result="BackgroundImageFix"/>
<feColorMatrix in="SourceAlpha" type="matrix" values="0 0 0 0 0 0 0 0 0 0 0 0 0 0 0 0 0 0 127 0" result="hardAlpha"/>
<feOffset/>
<feGaussianBlur stdDeviation="2"/>
<feComposite in2="hardAlpha" operator="out"/>
<feColorMatrix type="matrix" values="0 0 0 0 0 0 0 0 0 0 0 0 0 0 0 0 0 0 0.4 0"/>
<feBlend mode="normal" in2="BackgroundImageFix" result="effect1_dropShadow_712_3582"/>
<feBlend mode="normal" in="SourceGraphic" in2="effect1_dropShadow_712_3582" result="shape"/>
</filter>
<filter id="filter22_d_712_3582" x="14" y="369" width="68" height="44" filterUnits="userSpaceOnUse" color-interpolation-filters="sRGB">
<feFlood flood-opacity="0" result="BackgroundImageFix"/>
<feColorMatrix in="SourceAlpha" type="matrix" values="0 0 0 0 0 0 0 0 0 0 0 0 0 0 0 0 0 0 127 0" result="hardAlpha"/>
<feOffset/>
<feGaussianBlur stdDeviation="2"/>
<feComposite in2="hardAlpha" operator="out"/>
<feColorMatrix type="matrix" values="0 0 0 0 0 0 0 0 0 0 0 0 0 0 0 0 0 0 0.4 0"/>
<feBlend mode="normal" in2="BackgroundImageFix" result="effect1_dropShadow_712_3582"/>
<feBlend mode="normal" in="SourceGraphic" in2="effect1_dropShadow_712_3582" result="shape"/>
</filter>
<filter id="filter23_d_712_3582" x="14" y="329" width="68" height="44" filterUnits="userSpaceOnUse" color-interpolation-filters="sRGB">
<feFlood flood-opacity="0" result="BackgroundImageFix"/>
<feColorMatrix in="SourceAlpha" type="matrix" values="0 0 0 0 0 0 0 0 0 0 0 0 0 0 0 0 0 0 127 0" result="hardAlpha"/>
<feOffset/>
<feGaussianBlur stdDeviation="2"/>
<feComposite in2="hardAlpha" operator="out"/>
<feColorMatrix type="matrix" values="0 0 0 0 0 0 0 0 0 0 0 0 0 0 0 0 0 0 0.4 0"/>
<feBlend mode="normal" in2="BackgroundImageFix" result="effect1_dropShadow_712_3582"/>
<feBlend mode="normal" in="SourceGraphic" in2="effect1_dropShadow_712_3582" result="shape"/>
</filter>
<filter id="filter24_d_712_3582" x="14" y="289" width="68" height="44" filterUnits="userSpaceOnUse" color-interpolation-filters="sRGB">
<feFlood flood-opacity="0" result="BackgroundImageFix"/>
<feColorMatrix in="SourceAlpha" type="matrix" values="0 0 0 0 0 0 0 0 0 0 0 0 0 0 0 0 0 0 127 0" result="hardAlpha"/>
<feOffset/>
<feGaussianBlur stdDeviation="2"/>
<feComposite in2="hardAlpha" operator="out"/>
<feColorMatrix type="matrix" values="0 0 0 0 0 0 0 0 0 0 0 0 0 0 0 0 0 0 0.4 0"/>
<feBlend mode="normal" in2="BackgroundImageFix" result="effect1_dropShadow_712_3582"/>
<feBlend mode="normal" in="SourceGraphic" in2="effect1_dropShadow_712_3582" result="shape"/>
</filter>
<filter id="filter25_d_712_3582" x="14" y="249" width="68" height="44" filterUnits="userSpaceOnUse" color-interpolation-filters="sRGB">
<feFlood flood-opacity="0" result="BackgroundImageFix"/>
<feColorMatrix in="SourceAlpha" type="matrix" values="0 0 0 0 0 0 0 0 0 0 0 0 0 0 0 0 0 0 127 0" result="hardAlpha"/>
<feOffset/>
<feGaussianBlur stdDeviation="2"/>
<feComposite in2="hardAlpha" operator="out"/>
<feColorMatrix type="matrix" values="0 0 0 0 0 0 0 0 0 0 0 0 0 0 0 0 0 0 0.4 0"/>
<feBlend mode="normal" in2="BackgroundImageFix" result="effect1_dropShadow_712_3582"/>
<feBlend mode="normal" in="SourceGraphic" in2="effect1_dropShadow_712_3582" result="shape"/>
</filter>
<filter id="filter26_d_712_3582" x="14" y="209" width="68" height="44" filterUnits="userSpaceOnUse" color-interpolation-filters="sRGB">
<feFlood flood-opacity="0" result="BackgroundImageFix"/>
<feColorMatrix in="SourceAlpha" type="matrix" values="0 0 0 0 0 0 0 0 0 0 0 0 0 0 0 0 0 0 127 0" result="hardAlpha"/>
<feOffset/>
<feGaussianBlur stdDeviation="2"/>
<feComposite in2="hardAlpha" operator="out"/>
<feColorMatrix type="matrix" values="0 0 0 0 0 0 0 0 0 0 0 0 0 0 0 0 0 0 0.4 0"/>
<feBlend mode="normal" in2="BackgroundImageFix" result="effect1_dropShadow_712_3582"/>
<feBlend mode="normal" in="SourceGraphic" in2="effect1_dropShadow_712_3582" result="shape"/>
</filter>
<clipPath id="clip0_712_3582">
<rect width="393" height="912" fill="white"/>
</clipPath>
</defs>
</svg>
