<svg width="233" height="75" viewBox="0 0 233 75" fill="none" xmlns="http://www.w3.org/2000/svg">
<path d="M15.6608 26.12H0.26875V25.384C6.57275 18.792 10.2848 14.472 10.3808 9.096C10.4448 5.544 9.77275 3.4 7.56475 3.4C7.02075 3.4 6.47675 3.464 5.96475 3.624C5.74075 3.688 5.64475 3.816 5.54875 4.04L3.18075 9C2.66875 9.288 2.22075 9.384 1.61275 9.352V4.584C2.60475 3.816 5.00475 2.568 7.56475 2.568C12.0128 2.568 15.2768 4.744 15.2768 9.096C15.2768 11.592 13.3568 13.96 10.6368 16.712L4.84475 22.536H11.6288C12.2368 22.536 14.7008 22.44 14.8928 19.592H15.6608V26.12ZM18.8463 14.6C18.8463 6.472 22.3663 2.6 27.2943 2.6C32.2223 2.6 35.7743 6.472 35.7743 14.6C35.7743 22.728 32.2223 26.6 27.2943 26.6C22.3663 26.6 18.8463 22.728 18.8463 14.6ZM23.8703 14.6C23.8703 21.768 24.6063 25.672 27.2943 25.672C29.9823 25.672 30.7503 21.768 30.7503 14.6C30.7503 7.432 29.9823 3.528 27.2943 3.528C24.6063 3.528 23.8703 7.432 23.8703 14.6ZM53.4108 26.12H38.0188V25.384C44.3228 18.792 48.0348 14.472 48.1308 9.096C48.1948 5.544 47.5228 3.4 45.3148 3.4C44.7708 3.4 44.2268 3.464 43.7148 3.624C43.4908 3.688 43.3948 3.816 43.2988 4.04L40.9308 9C40.4188 9.288 39.9708 9.384 39.3628 9.352V4.584C40.3548 3.816 42.7548 2.568 45.3148 2.568C49.7628 2.568 53.0268 4.744 53.0268 9.096C53.0268 11.592 51.1068 13.96 48.3868 16.712L42.5948 22.536H49.3788C49.9868 22.536 52.4508 22.44 52.6428 19.592H53.4108V26.12ZM56.4363 24.872V19.56C57.0443 19.528 57.5883 19.592 58.0043 19.88L60.1163 25.192C60.2123 25.416 60.2763 25.512 60.5003 25.576C61.0123 25.736 61.5243 25.768 62.0683 25.768C64.9163 25.768 66.2923 23.048 66.2923 19.592C66.2923 16.232 64.9483 15.144 63.3163 14.568C62.1003 14.152 59.2203 14.44 58.6123 14.44V13.512C59.2203 13.544 62.1003 13.416 62.8043 13.128C64.7883 12.328 65.5243 10.44 65.5883 8.232C65.6843 5.48 64.9803 3.432 62.8363 3.4C62.3883 3.4 61.7483 3.528 61.3003 3.72C61.0763 3.816 60.9803 3.912 60.8843 4.136L58.5163 8.936C57.9403 9.256 57.5243 9.32 56.9483 9.288V4.584C58.2283 3.464 60.7243 2.6 62.8363 2.568C66.9643 2.568 70.2603 4.52 70.2603 8.072C70.2603 10.408 68.6283 12.744 64.9483 13.672C68.5003 14.184 71.1243 16.072 71.1243 19.752C71.1243 24.36 66.9003 26.6 62.0683 26.6C59.6363 26.6 57.4283 25.704 56.4363 24.872ZM108.29 8.36L110.21 10.344C110.594 10.76 110.562 10.824 110.402 11.176H105.09V15.688C105.09 16.968 104.578 17.672 103.138 17.896L100.514 18.312V1.32H98.1775V0.424H105.09V10.312C106.018 10.088 106.946 8.968 107.426 8.36C107.778 7.944 107.906 7.944 108.29 8.36ZM98.3055 3.976C94.9135 12.872 88.8335 17.16 81.6655 19.816L81.2815 19.304C86.3375 15.944 90.1455 11.528 92.3855 5.256H89.5055C87.8095 5.256 86.7215 6.536 86.1455 7.176C85.8255 7.528 85.7615 7.496 85.3135 7.176L82.2415 4.968C81.9535 4.744 81.9535 4.68 82.1455 4.104C83.8735 4.296 85.7295 4.392 87.7455 4.392H92.3215C94.9775 4.392 97.5055 3.976 98.3055 3.976ZM97.1855 18.568C101.282 18.568 104.898 20.648 104.898 24.2C104.898 27.752 101.282 29.832 97.1855 29.832C93.0895 29.832 89.4735 27.752 89.4735 24.2C89.4735 20.648 93.0895 18.568 97.1855 18.568ZM97.1855 28.904C99.0415 28.904 99.9695 26.728 99.9695 24.2C99.9695 21.672 99.0415 19.496 97.1855 19.496C95.3295 19.496 94.4015 21.672 94.4015 24.2C94.4015 26.728 95.3295 28.904 97.1855 28.904ZM120.096 21.928V16.424C119.616 16.488 119.2 16.52 118.848 16.584C117.088 16.84 116.256 17.832 115.68 18.408C115.328 18.76 115.264 18.76 114.784 18.408L111.648 16.072C111.36 15.848 111.36 15.784 111.584 15.24C112.992 15.432 115.136 15.528 117.44 15.432C121.248 15.272 128.672 14.632 132.704 14.216V1.32H130.368V0.424H137.248V21.416C137.248 22.696 136.736 23.4 135.296 23.624L132.704 24.04V19.528L131.936 19.592C130.656 19.656 130.208 20.04 129.568 20.616C129.28 20.872 129.216 20.872 128.864 20.616L127.008 19.336C126.752 19.176 126.752 18.984 126.944 18.632C128.032 18.792 129.664 18.888 130.944 18.824L132.704 18.696V15.272C130.656 15.464 127.776 15.72 125.088 15.944V19.528C125.088 20.68 124.256 21.256 122.528 21.544L120.096 21.928ZM122.08 13.064C118.496 13.064 114.976 11.048 114.976 7.624C114.976 4.2 118.496 2.184 122.08 2.184C125.696 2.184 129.184 4.2 129.184 7.624C129.184 11.048 125.696 13.064 122.08 13.064ZM122.08 3.112C120.48 3.112 119.808 5.192 119.808 7.624C119.808 10.056 120.48 12.136 122.08 12.136C123.68 12.136 124.352 10.056 124.352 7.624C124.352 5.192 123.68 3.112 122.08 3.112ZM136.416 25.928L138.88 27.944C139.296 28.264 139.264 28.36 139.072 28.808H124.192C123.104 29.256 120.8 29.608 119.136 29.64V23.72H117.12V22.824H124.192V27.944H131.744C133.824 27.944 134.912 26.696 135.584 25.96C135.904 25.608 136.032 25.608 136.416 25.928ZM162.431 1.32V0.424H168.735V27.496C168.735 28.776 168.223 29.448 166.783 29.704L164.447 30.12V13.256H162.207V25.416C162.207 26.632 161.535 27.272 160.063 27.464L157.951 27.72V18.504C156.319 19.528 152.927 20.136 148.767 20.776L144.799 21.352V7.016H142.783V6.152H148.799C150.879 6.152 151.903 4.872 152.799 3.88C153.151 3.496 153.279 3.496 153.663 3.88L156.095 6.152C156.479 6.504 156.479 6.568 156.287 7.016H149.535V19.368C152.287 18.984 156.095 18.664 157.951 17.224V3.144H156.319V2.248H162.207V12.296H164.447V1.32H162.431ZM200.446 8.392L202.366 10.376C202.75 10.792 202.718 10.856 202.558 11.208H197.246V16.84C197.246 18.12 196.734 18.824 195.294 19.048L192.67 19.464V1.32H190.334V0.424H197.246V10.344C198.174 10.12 199.102 9 199.582 8.392C199.934 7.976 200.062 7.976 200.446 8.392ZM179.486 4.68L177.374 2.824C176.99 2.504 176.99 2.44 177.246 1.96C179.006 2.344 181.246 2.536 183.038 2.536H185.886V3.4H183.166C181.63 3.4 180.67 4.328 180.286 4.68C179.934 5 179.87 5 179.486 4.68ZM176.414 8.808C176.094 9.128 176.03 9.128 175.582 8.808L172.542 6.632C172.254 6.408 172.254 6.344 172.446 5.832C174.174 6.024 176.222 6.12 178.238 6.12H184.222C186.302 6.12 187.486 4.68 188.158 3.88C188.446 3.528 188.542 3.528 188.894 3.88L191.358 6.152C191.742 6.504 191.742 6.568 191.55 6.984H179.838C178.11 6.984 177.022 8.2 176.414 8.808ZM189.342 13.576C189.342 16.744 185.886 18.472 182.59 18.472C179.262 18.472 175.806 16.744 175.806 13.576C175.806 10.408 179.262 8.68 182.59 8.68C185.886 8.68 189.342 10.408 189.342 13.576ZM180.062 13.576C180.062 15.752 180.766 17.544 182.59 17.544C184.382 17.544 185.086 15.72 185.086 13.576C185.086 11.4 184.382 9.608 182.59 9.608C180.766 9.608 180.062 11.4 180.062 13.576ZM183.23 20.744H191.326C194.142 20.744 196.126 20.328 197.214 20.328V27.496C197.214 28.968 196.478 29.576 194.75 29.8L192.318 30.056V21.608H184.99C182.942 21.608 182.014 22.632 181.342 23.24C181.022 23.528 180.894 23.56 180.414 23.24L177.534 21.288C177.246 21.096 177.246 21 177.438 20.456C179.166 20.648 181.214 20.744 183.23 20.744ZM210.045 7.08L206.973 4.872C206.685 4.648 206.685 4.584 206.877 4.008C208.605 4.2 210.653 4.296 212.669 4.296H222.429C225.245 4.296 227.293 3.88 228.477 3.88L227.869 13.032C227.581 17.032 226.205 18.696 222.237 18.696C222.653 17.768 222.909 16.136 223.005 13.16L223.165 5.192H214.269C212.541 5.192 211.453 6.44 210.877 7.08C210.557 7.432 210.493 7.4 210.045 7.08ZM229.917 21.384L232.573 23.784C232.957 24.136 232.957 24.2 232.765 24.616H211.741C209.661 24.616 208.445 26.056 207.869 26.632C207.516 26.984 207.389 26.984 206.909 26.632L203.613 24.264C203.325 24.04 203.325 23.976 203.517 23.432C205.245 23.688 207.133 23.752 209.149 23.752H209.693V14.28H207.997V13.416H214.173V23.752H216.573V13.512H214.877V12.648H221.053V23.752H224.989C227.197 23.752 228.381 22.088 228.989 21.384C229.341 20.968 229.469 20.968 229.917 21.384ZM60.7591 45.32V44.424H67.0631V60.04C67.0631 61.32 66.5511 61.992 65.1111 62.248L62.7751 62.664V54.152H60.5351V60.104C60.5351 61.32 59.8631 61.96 58.3911 62.152L56.2791 62.408V46.824H54.6471V45.928H60.5351V53.192H62.7751V45.32H60.7591ZM54.9991 60.2H46.9351C45.9751 60.68 44.1831 61 42.6791 61.032V49.736H40.6951V48.84H46.9351V53H49.8791V48.584H47.8951V47.688H54.1351V57.416C54.1351 58.376 53.7511 58.952 52.7911 59.304H54.9991V60.2ZM49.8791 59.304V53.96H46.9351V59.304H49.8791ZM51.9591 63.912H61.1431C63.9591 63.912 65.9431 63.496 67.0311 63.496V71.432C67.0311 72.904 66.2951 73.512 64.5671 73.736L62.1351 73.992V64.776H53.7191C51.6711 64.776 50.7751 65.8 50.1031 66.408C49.7831 66.696 49.6551 66.728 49.1751 66.408L46.2631 64.456C45.9751 64.264 45.9751 64.168 46.1671 63.624C47.8951 63.816 49.9431 63.912 51.9591 63.912ZM90.0379 45.32V44.424H96.9499V60.328C96.9499 61.608 96.4379 62.312 94.9979 62.536L92.3739 62.952V56.168C91.3499 56.296 90.9019 56.84 90.3259 57.352C90.0379 57.608 89.9739 57.608 89.6219 57.352L87.4779 55.88C87.2219 55.72 87.2219 55.56 87.4139 55.208C88.5019 55.336 90.1339 55.336 91.4139 55.336H92.3739V50.92C91.3499 51.048 90.9019 51.592 90.3259 52.104C90.0379 52.36 89.9739 52.36 89.6219 52.104L87.4779 50.632C87.2219 50.472 87.2219 50.312 87.4139 49.96C88.5019 50.088 90.1339 50.088 91.4139 50.088H92.3739V45.32H90.0379ZM88.9179 58.088L89.6539 58.856C88.4059 60.296 84.6299 60.808 78.0059 61.672L74.1979 62.152V54.888H72.3739V54.024H81.5579V48.744H80.2779C78.6779 48.744 77.6219 50.056 77.0139 50.664C76.6939 50.984 76.5659 50.984 76.1499 50.664L73.0779 48.456C72.7899 48.232 72.7899 48.168 72.9819 47.592C74.7099 47.784 76.7579 47.88 78.7739 47.88H80.9499C83.4459 47.88 85.8459 47.464 86.6139 47.464V52.008C86.6139 52.936 86.2619 53.672 85.5579 54.024H87.2539V54.888H79.2539V60.232C84.3739 59.88 87.8619 59.432 88.9179 58.088ZM88.8859 63.208C92.9819 63.208 96.5979 65.16 96.5979 68.52C96.5979 71.88 92.9819 73.832 88.8859 73.832C84.7899 73.832 81.1739 71.88 81.1739 68.52C81.1739 65.16 84.7899 63.208 88.8859 63.208ZM88.8859 72.904C90.7419 72.904 91.6699 70.888 91.6699 68.52C91.6699 66.152 90.7419 64.136 88.8859 64.136C87.0299 64.136 86.1019 66.152 86.1019 68.52C86.1019 70.888 87.0299 72.904 88.8859 72.904ZM122.197 45.32V44.424H128.501V71.496C128.501 72.776 127.989 73.448 126.549 73.704L124.213 74.12V57.256H121.973V69.416C121.973 70.632 121.301 71.272 119.829 71.464L117.717 71.72V62.504C116.085 63.528 112.693 64.136 108.533 64.776L104.565 65.352V51.016H102.549V50.152H108.565C110.645 50.152 111.669 48.872 112.565 47.88C112.917 47.496 113.045 47.496 113.429 47.88L115.861 50.152C116.245 50.504 116.245 50.568 116.053 51.016H109.301V63.368C112.053 62.984 115.861 62.664 117.717 61.224V47.144H116.085V46.248H121.973V56.296H124.213V45.32H122.197ZM158.963 57.48L161.619 59.848C162.003 60.2 162.003 60.264 161.811 60.68H140.787C138.707 60.68 137.491 62.12 136.915 62.696C136.563 63.048 136.435 63.048 135.955 62.696L132.659 60.36C132.371 60.136 132.371 60.072 132.563 59.528C134.291 59.784 136.179 59.848 138.195 59.848H144.755V55.144H143.315C142.131 55.592 139.891 55.944 138.195 55.976V47.432H136.179V46.568H148.819C150.899 46.568 151.987 45.16 152.659 44.424C152.979 44.072 153.107 44.072 153.491 44.392L155.955 46.568C156.339 46.92 156.339 46.984 156.147 47.432H143.315V54.28H149.331C151.411 54.28 152.499 52.872 153.171 52.136C153.491 51.784 153.619 51.784 154.003 52.104L156.467 54.28C156.851 54.632 156.851 54.696 156.659 55.144H149.619V59.848H154.035C156.243 59.848 157.427 58.184 158.035 57.48C158.387 57.064 158.515 57.064 158.963 57.48ZM147.315 63.368C151.379 63.368 155.187 65.128 155.187 68.712C155.187 72.296 151.379 74.056 147.315 74.056C143.251 74.056 139.443 72.296 139.443 68.712C139.443 65.128 143.251 63.368 147.315 63.368ZM147.315 73.128C149.427 73.128 150.387 71.176 150.387 68.712C150.387 66.248 149.427 64.296 147.315 64.296C145.203 64.296 144.243 66.248 144.243 68.712C144.243 71.176 145.203 73.128 147.315 73.128ZM183.73 45.32V44.424H189.906V71.496C189.906 72.776 189.394 73.448 187.954 73.704L185.746 74.12V45.32H183.73ZM179.666 47.144H178.034V46.248H183.762V69.384C183.762 70.632 183.09 71.272 181.714 71.464L179.666 71.72V55.656C178.866 55.784 178.482 56.168 177.97 56.616C177.682 56.872 177.618 56.872 177.266 56.616L175.41 55.336C175.154 55.176 175.154 54.984 175.346 54.664C176.434 54.792 178.066 54.792 179.346 54.792H179.666V47.144ZM178.034 60.104L178.098 64.136C178.13 64.872 178.13 64.872 177.586 65C176.37 63.176 175.186 61.576 173.298 59.368L172.242 58.152C169.81 61.768 166.45 64.52 163.218 66.408L162.834 65.96C166.066 62.632 168.434 57.928 169.938 52.424C170.13 51.72 170.194 51.528 169.746 51.304L169.042 50.92C168.178 51.272 167.442 51.976 167.058 52.296C166.706 52.584 166.61 52.584 166.226 52.296L163.73 50.44C163.378 50.184 163.378 50.088 163.57 49.576C165.298 49.768 167.154 49.864 169.17 49.864H171.954C173.618 49.864 174.802 48.424 175.346 47.816C175.666 47.432 175.794 47.432 176.21 47.816L178.514 49.896C178.866 50.216 178.866 50.28 178.674 50.728H170.066L174.994 52.488C174.45 54.216 173.714 55.784 172.818 57.256L172.914 57.352C174.258 58.984 175.794 59.4 177.33 59.432C177.97 59.432 178.002 59.496 178.034 60.104Z" fill="white"/>
</svg>
