<svg width="59" height="190" viewBox="0 0 59 190" fill="none" xmlns="http://www.w3.org/2000/svg">
<path d="M9.112 176.632C14.992 176.632 19.744 181.144 20.632 187.216L20.056 187.312C18.736 182.344 14.344 180.712 11.464 180.52C12.4 181.096 12.952 182.56 12.952 183.664C12.952 186.784 11.224 189.28 7.744 189.28C4.192 189.28 2.2 186.136 2.2 183.136C2.2 180.064 3.928 176.632 9.112 176.632ZM8.272 180.376C5.032 180.376 2.824 181.312 2.824 183.088C2.824 184.72 4.816 185.536 7.624 185.536C10.264 185.536 12.304 184.816 12.304 183.208C12.304 181.456 10.912 180.376 8.272 180.376ZM14.416 168.482H10.912C10.96 168.842 10.984 169.154 11.032 169.418C11.224 170.738 11.968 171.362 12.4 171.794C12.664 172.058 12.664 172.106 12.4 172.466L10.648 174.818C10.48 175.034 10.432 175.034 10.024 174.866C10.168 173.81 10.24 172.202 10.168 170.474C10.048 167.618 9.568 162.05 9.256 159.026H1.24V160.778H0.568V155.618H12.232C13.192 155.618 13.72 156.002 13.888 157.082L14.2 159.026H12.568L12.616 159.602C12.664 160.562 12.952 160.898 13.384 161.378C13.576 161.594 13.576 161.642 13.384 161.906L12.424 163.298C12.304 163.49 12.16 163.49 11.896 163.346C12.016 162.53 12.088 161.306 12.04 160.346L11.944 159.026H10.048C10.192 160.562 10.384 162.722 10.552 164.738H12.64C13.48 164.738 13.936 165.362 14.128 166.658L14.416 168.482ZM8.848 166.994C8.848 169.682 7.456 172.322 5.128 172.322C2.8 172.322 1.408 169.682 1.408 166.994C1.408 164.282 2.8 161.666 5.128 161.666C7.456 161.666 8.848 164.282 8.848 166.994ZM2.104 166.994C2.104 168.218 3.496 168.746 5.128 168.746C6.76 168.746 8.152 168.218 8.152 166.994C8.152 165.77 6.76 165.242 5.128 165.242C3.496 165.242 2.104 165.77 2.104 166.994ZM19.888 156.362L21.4 154.514C21.64 154.202 21.712 154.226 22.048 154.37L22.048 164.978C22.384 165.842 22.648 167.498 22.672 168.77H18.928V170.066H18.28L18.28 159.674H15.784L15.784 164.714C15.784 166.25 16.504 166.946 16.96 167.402C17.2 167.642 17.2 167.738 16.96 168.098L15.544 170.258C15.4 170.474 15.328 170.474 14.92 170.33C15.064 169.034 15.136 167.498 15.136 165.986L15.136 160.13C15.136 158.258 14.824 156.458 14.824 155.882H16.816C17.488 155.882 18.016 156.122 18.28 156.626V155.282H18.928L18.928 164.978H21.4L21.4 159.866C21.4 158.306 20.464 157.49 19.912 156.986C19.648 156.746 19.648 156.65 19.888 156.362ZM3.784 145.912H3.088L2.464 140.68V140.032H19.192V137.992H19.864V145.504H19.192V143.464H3.784V145.912ZM9.112 123.663C14.992 123.663 19.744 128.175 20.632 134.247L20.056 134.343C18.736 129.375 14.344 127.743 11.464 127.551C12.4 128.127 12.952 129.591 12.952 130.695C12.952 133.815 11.224 136.311 7.744 136.311C4.192 136.311 2.2 133.167 2.2 130.167C2.2 127.095 3.928 123.663 9.112 123.663ZM8.272 127.407C5.032 127.407 2.824 128.343 2.824 130.119C2.824 131.751 4.816 132.567 7.624 132.567C10.264 132.567 12.304 131.847 12.304 130.239C12.304 128.487 10.912 127.407 8.272 127.407ZM12.664 104.258L12.976 106.226H1.24V107.978H0.568V102.794H11.008C11.968 102.794 12.496 103.178 12.664 104.258ZM7.024 108.938C9.856 108.938 11.512 111.818 11.512 114.794C11.512 117.77 9.856 120.65 7.024 120.65C4.192 120.65 2.536 117.77 2.536 114.794C2.536 111.818 4.192 108.938 7.024 108.938ZM7.024 117.026C9.064 117.026 10.816 116.426 10.816 114.794C10.816 113.162 9.064 112.562 7.024 112.562C4.984 112.562 3.232 113.162 3.232 114.794C3.232 116.426 4.984 117.026 7.024 117.026ZM19.696 103.538L21.208 101.69C21.448 101.378 21.52 101.402 21.856 101.546L21.856 111.818C22.192 112.682 22.456 114.338 22.48 115.61H18.232V116.906H17.584V106.85H14.584V111.554C14.584 113.09 15.304 113.786 15.76 114.242C16 114.482 16 114.578 15.76 114.938L14.344 117.098C14.2 117.314 14.128 117.314 13.72 117.17C13.864 115.874 13.936 114.338 13.936 112.826V107.306C13.936 105.434 13.624 103.634 13.624 103.058H16.12C16.792 103.058 17.32 103.298 17.584 103.802L17.584 102.458H18.232L18.232 111.818H21.208V107.042C21.208 105.482 20.272 104.666 19.72 104.162C19.456 103.922 19.456 103.826 19.696 103.538ZM11.344 82.7194H12.64V91.8634H11.344L11.344 82.7194ZM19.84 62.8951V74.4391H19.288C14.344 69.7111 11.104 66.9271 7.072 66.8551C4.408 66.8071 2.8 67.3111 2.8 68.9671C2.8 69.3751 2.848 69.7831 2.968 70.1671C3.016 70.3351 3.112 70.4071 3.28 70.4791L7 72.2551C7.216 72.6391 7.288 72.9751 7.264 73.4311H3.688C3.112 72.6871 2.176 70.8871 2.176 68.9671C2.176 65.6311 3.808 63.1831 7.072 63.1831C8.944 63.1831 10.72 64.6231 12.784 66.6631L17.152 71.0071V65.9191C17.152 65.4631 17.08 63.6151 14.944 63.4711V62.8951H19.84ZM3.784 60.5059H3.088L2.464 55.2739V54.6259H19.192V52.5859H19.864V60.0979H19.192V58.0579H3.784V60.5059ZM12.664 33.289L12.976 35.257H1.24V37.009H0.568V31.825H11.008C11.968 31.825 12.496 32.209 12.664 33.289ZM7.024 37.969C9.856 37.969 11.512 40.849 11.512 43.825C11.512 46.801 9.856 49.681 7.024 49.681C4.192 49.681 2.536 46.801 2.536 43.825C2.536 40.849 4.192 37.969 7.024 37.969ZM7.024 46.057C9.064 46.057 10.816 45.457 10.816 43.825C10.816 42.193 9.064 41.593 7.024 41.593C4.984 41.593 3.232 42.193 3.232 43.825C3.232 45.457 4.984 46.057 7.024 46.057ZM19.696 32.569L21.208 30.721C21.448 30.409 21.52 30.433 21.856 30.577V40.849C22.192 41.713 22.456 43.369 22.48 44.641H18.232L18.232 45.937H17.584L17.584 35.881H14.584V40.585C14.584 42.121 15.304 42.817 15.76 43.273C16 43.513 16 43.609 15.76 43.969L14.344 46.129C14.2 46.345 14.128 46.345 13.72 46.201C13.864 44.905 13.936 43.369 13.936 41.857V36.337C13.936 34.465 13.624 32.665 13.624 32.089H16.12C16.792 32.089 17.32 32.329 17.584 32.833V31.489H18.232V40.849H21.208V36.073C21.208 34.513 20.272 33.697 19.72 33.193C19.456 32.953 19.456 32.857 19.696 32.569ZM42.52 168.736L44.008 167.296C44.32 167.008 44.368 167.032 44.632 167.152V171.136H48.016C48.976 171.136 49.504 171.52 49.672 172.6L49.984 174.568H37.24V176.32H36.568V171.136H43.984C43.816 170.44 42.976 169.744 42.52 169.384C42.208 169.12 42.208 169.024 42.52 168.736ZM39.232 176.224C45.904 178.768 49.12 183.328 51.112 188.704L50.728 188.992C48.208 185.2 44.896 182.344 40.192 180.664V182.824C40.192 184.096 41.152 184.912 41.632 185.344C41.896 185.584 41.872 185.632 41.632 185.968L39.976 188.272C39.808 188.488 39.76 188.488 39.328 188.344C39.472 187.048 39.544 185.656 39.544 184.144V180.712C39.544 178.72 39.232 176.824 39.232 176.224ZM50.176 177.064C50.176 173.992 51.736 171.28 54.4 171.28C57.064 171.28 58.624 173.992 58.624 177.064C58.624 180.136 57.064 182.848 54.4 182.848C51.736 182.848 50.176 180.136 50.176 177.064ZM57.928 177.064C57.928 175.672 56.296 174.976 54.4 174.976C52.504 174.976 50.872 175.672 50.872 177.064C50.872 178.456 52.504 179.152 54.4 179.152C56.296 179.152 57.928 178.456 57.928 177.064ZM52.696 159.881H48.568C48.616 160.241 48.64 160.553 48.688 160.817C48.88 162.137 49.624 162.761 50.056 163.193C50.32 163.457 50.32 163.505 50.056 163.865L48.304 166.217C48.136 166.433 48.088 166.433 47.68 166.265C47.824 165.209 47.896 163.601 47.824 161.873C47.704 159.017 47.224 153.449 46.912 150.425H37.24V152.177H36.568V147.017H52.312C53.272 147.017 53.8 147.401 53.968 148.481L54.28 150.425H50.896L50.944 151.001C50.992 151.961 51.28 152.297 51.712 152.777C51.904 152.993 51.904 153.041 51.712 153.305L50.752 154.697C50.632 154.889 50.488 154.889 50.224 154.745C50.344 153.929 50.416 152.705 50.368 151.745L50.272 150.425H47.704C47.848 151.961 48.04 154.121 48.208 156.137H50.896C51.76 156.137 52.192 156.761 52.408 158.057L52.696 159.881ZM46.048 158.393C46.048 161.081 44.536 163.721 41.968 163.721C39.4 163.721 37.888 161.081 37.888 158.393C37.888 155.681 39.4 153.065 41.968 153.065C44.536 153.065 46.048 155.681 46.048 158.393ZM38.584 158.393C38.584 159.593 40.144 160.097 41.968 160.097C43.792 160.097 45.352 159.593 45.352 158.393C45.352 157.193 43.792 156.689 41.968 156.689C40.144 156.689 38.584 157.193 38.584 158.393ZM55.696 147.641L57.208 145.793C57.448 145.481 57.52 145.505 57.856 145.649V156.809C58.192 157.625 58.456 159.353 58.48 160.601H54.04V162.113H53.368V156.809H57.208V151.145C57.208 149.585 56.272 148.769 55.72 148.265C55.456 148.025 55.456 147.929 55.696 147.641ZM37.24 128.13H36.568V123.402H56.872C57.832 123.402 58.336 123.786 58.528 124.866L58.84 126.618H46.192V128.298H55.312C56.224 128.298 56.704 128.802 56.848 129.906L57.04 131.49H50.128C50.896 132.714 51.352 135.258 51.832 138.378L52.264 141.354H41.512V142.866H40.864V138.354C40.864 136.794 39.904 136.026 39.16 135.354C38.872 135.09 38.872 134.994 39.16 134.706L40.864 132.882C41.128 132.594 41.176 132.594 41.512 132.738V137.802H50.776C50.488 135.738 50.248 132.882 49.168 131.49H38.608L38.608 132.714H37.936L37.936 128.298H45.472V126.618H37.24V128.13ZM38.536 106.04L37.192 107.648C36.952 107.936 36.904 107.936 36.544 107.744C36.832 106.424 37 104.72 37 103.376V101.312H37.648V103.232C37.648 104.384 38.272 105.2 38.536 105.512C38.752 105.752 38.728 105.8 38.536 106.04ZM47.488 113.216L47.008 113.432C45.784 110.24 43.24 106.496 41.248 104.96C40.936 104.744 40.816 104.816 40.672 105.104L40.288 105.92V106.832C40.288 108.128 41.248 108.944 41.728 109.376C41.992 109.616 41.968 109.664 41.728 110L40.072 112.304C39.904 112.52 39.856 112.52 39.424 112.376C39.568 111.08 39.64 109.544 39.64 108.032V101.648C39.64 100.088 38.488 99.2236 37.888 98.7196C37.624 98.5036 37.624 98.4316 37.888 98.1676L39.616 96.2956C39.88 96.0076 39.928 96.0076 40.288 96.1516V104.48L41.8 100.928C42.376 101.432 42.928 102.032 43.432 102.704L43.672 102.128C44.296 100.64 43.696 99.2476 43.36 98.3836C43.216 98.0476 43.264 97.9036 43.6 97.7356L46.384 96.2716C46.912 96.0076 46.984 96.0076 47.224 96.3436C46.432 97.8796 45.76 99.2236 44.944 101.192L43.936 103.472C45.784 106.376 46.96 110.264 47.488 113.216ZM47.416 94.6636L48.712 93.0316C48.952 92.7196 49.024 92.7436 49.336 92.8876V101.408H52.984C53.872 101.408 54.328 102.032 54.52 103.328L54.808 105.152H49.336V108.656C49.336 110.216 50.416 111.128 50.848 111.56C51.112 111.824 51.112 111.92 50.848 112.28L49.096 114.752C48.928 114.968 48.88 114.968 48.472 114.824C48.664 113.528 48.712 112.112 48.712 110.6V98.4796C48.712 96.8236 47.872 95.8396 47.416 95.3596C47.152 95.0716 47.152 94.9996 47.416 94.6636ZM55.6 97.3516L57.112 95.5036C57.352 95.1916 57.424 95.2156 57.76 95.3596V107.072C58.072 107.888 58.312 109.28 58.336 110.408H52.672V111.92H52V106.952H57.112V100.856C57.112 99.2956 56.176 98.4796 55.624 97.9756C55.36 97.7356 55.36 97.6396 55.6 97.3516ZM44.464 77.3605L44.44 75.8485H37.24V77.6005H36.568V72.4165H51.904C52.864 72.4165 53.392 72.8005 53.56 73.8805L53.872 75.8485H45.04L45.064 76.4245C45.088 77.2645 45.664 77.7445 45.976 78.0805C46.168 78.2725 46.168 78.3445 45.976 78.6085L44.896 80.1925C44.752 80.3845 44.704 80.4325 44.344 80.2645C44.44 79.4485 44.488 78.2485 44.464 77.3605ZM39.952 86.4085L38.56 87.9925C38.32 88.2805 38.272 88.2805 37.912 88.0885C38.2 86.7685 38.344 85.0885 38.344 83.7445V81.6805H38.992V83.6485C38.992 84.8005 39.688 85.5205 39.952 85.8085C40.192 86.0725 40.192 86.1205 39.952 86.4085ZM47.632 82.6405L46.744 83.7205C49 85.8805 50.68 88.6645 51.76 91.3525L51.4 91.6165C49.312 88.8805 46.456 86.5765 43.36 85.2565C42.832 85.0405 42.736 85.0645 42.568 85.4245L42.208 86.1925C42.472 87.0565 43.168 87.6085 43.504 87.9445C43.792 88.2325 43.792 88.3285 43.504 88.7125L41.872 90.9445C41.704 91.1605 41.656 91.1605 41.248 91.0165C41.392 89.7205 41.464 88.1845 41.464 86.6725V83.5045C41.464 81.9445 40.504 81.2005 39.76 80.5285C39.472 80.2645 39.472 80.1685 39.76 79.8565L41.464 78.0325C41.728 77.7445 41.776 77.7445 42.112 77.8885V84.9445L43.336 81.2965C44.344 81.8245 45.304 82.4725 46.168 83.1925C47.176 82.0405 46.864 80.8165 46.72 79.6405C46.672 79.1605 46.72 79.0885 47.176 79.0165L50.368 78.4165C50.872 78.3205 50.944 78.3205 51.112 78.7045C49.96 79.8325 48.928 80.9605 47.632 82.6405ZM55.504 73.0405L57.016 71.1925C57.256 70.8805 57.328 70.9045 57.664 71.0485V81.8725C58 82.6885 58.264 84.4165 58.288 85.6645H52.36V87.1765H51.688V81.8725H57.016V76.5445C57.016 74.9845 56.08 74.1685 55.528 73.6645C55.264 73.4245 55.264 73.3285 55.504 73.0405ZM49.624 55.2094L49.816 56.7454H38.368V57.9694H37.696V53.6494H43.048V51.8734H37.24V53.3854H36.568V48.7534H48.04C49 48.7534 49.48 49.1374 49.696 50.2174L50.008 51.8734H43.768V53.6494H48.064C49 53.6494 49.48 54.1534 49.624 55.2094ZM39.568 57.2494C45.712 59.3854 49.336 63.3454 51.28 67.8814L50.896 68.1694C49.24 66.1774 47.08 64.3534 44.56 62.9374C44.608 63.1294 44.632 63.2974 44.656 63.4654C44.848 64.3294 45.664 65.0494 46.048 65.4334C46.288 65.6734 46.288 65.6254 46.048 66.0094L44.392 68.2654C44.224 68.4814 44.176 68.4814 43.744 68.3374C43.888 67.0414 43.96 65.5054 43.888 64.1374C43.864 63.6574 43.816 63.1294 43.768 62.5294C42.736 62.0014 41.656 61.5694 40.528 61.2094V61.9774C40.528 63.2734 41.44 64.1854 41.968 64.5694C42.28 64.8094 42.208 64.7614 41.968 65.1454L40.312 67.4494C40.144 67.6654 40.096 67.6654 39.664 67.5214C39.808 66.2254 39.88 65.0974 39.88 63.5854V61.3774C39.88 59.5054 39.568 57.8494 39.568 57.2494ZM57.136 49.4734V48.3214H57.784V58.4974C58.144 59.2654 58.36 60.7774 58.36 61.9294H51.592V63.4654H50.944V53.1934C50.944 51.0814 50.632 49.5934 50.632 48.7774H55.744C56.368 48.7774 56.848 49.0414 57.136 49.4734ZM51.592 52.2094V58.4974H57.136V52.2094H51.592ZM37.24 31.5224H36.568V26.3384H56.872C57.832 26.3384 58.36 26.7224 58.528 27.8024L58.84 29.7704H45.808V30.0344C45.808 30.9944 46.288 31.3544 46.72 31.8344C46.912 32.0504 46.912 32.0984 46.72 32.3624L45.928 33.5144L49.528 33.9944C50.104 34.0664 50.56 34.2824 50.872 34.6424C50.68 33.1544 50.488 31.7624 50.344 30.7544L51.088 30.6344C51.424 33.0824 52 37.6664 52.216 39.7064C52.384 41.3384 52.936 41.7944 53.536 42.3944C53.776 42.6344 53.776 42.6824 53.536 43.0184L51.928 45.3224C51.784 45.5384 51.712 45.5384 51.304 45.3944C51.424 44.3384 51.52 42.7064 51.448 40.9784C51.4 39.9224 51.28 38.4584 51.136 36.9464L42.904 36.3464L42.808 37.6184L42.16 37.5944L42.448 33.0584L45.16 33.4184C45.208 32.6744 45.232 31.7624 45.208 31.0184L45.184 29.7704H37.24V31.5224ZM42.328 42.9944L40.768 45.1784C40.624 45.3944 40.552 45.3944 40.144 45.2504C40.288 43.9544 40.36 42.4184 40.36 40.9064V37.1624C40.36 35.6024 39.16 34.7144 38.608 34.2344C38.368 34.0424 38.368 33.9224 38.608 33.6824L40.36 31.8104C40.624 31.5224 40.672 31.5224 41.008 31.6664V39.8264C41.008 41.1224 41.872 41.8664 42.328 42.3704C42.52 42.5864 42.52 42.7064 42.328 42.9944ZM43.72 43.5944L43.072 43.6664L42.784 39.1544L48.568 38.7704C49.696 38.6984 50.176 39.0344 50.464 39.9464L50.944 41.4584L43.624 42.3704L43.72 43.5944ZM46.12 8.02731L43.816 11.4353C46.984 14.4113 48.928 18.3473 49.912 21.7073L49.456 21.9473C47.488 18.5153 43.6 15.0353 39.064 12.8273L38.368 14.0753L37.768 13.7153L40.336 8.89131C41.392 9.46731 42.376 10.1633 43.24 10.9073L44.704 8.72331C45.592 7.37931 45.28 5.84331 45.112 5.12331C44.992 4.59531 45.112 4.47531 45.496 4.35531L48.448 3.41931C49.024 3.22731 49.096 3.27531 49.264 3.63531C48.208 5.00331 47.32 6.25131 46.12 8.02731ZM52.288 2.86731L54.088 0.875311C54.352 0.587312 54.4 0.587312 54.712 0.731311L54.712 16.4993C54.712 18.0593 55.792 18.9713 56.224 19.4033C56.488 19.6673 56.488 19.7633 56.224 20.1233L54.448 22.5953C54.28 22.8113 54.232 22.8113 53.824 22.6673C54.016 21.3713 54.064 19.9553 54.064 18.4433L54.064 6.56331C54.064 4.90731 52.816 4.01931 52.288 3.56331C51.976 3.29931 51.976 3.20331 52.288 2.86731Z" fill="#E8E9EB"/>
</svg>
