<svg width="450" height="450" viewBox="0 0 450 450" fill="none" xmlns="http://www.w3.org/2000/svg">
<g filter="url(#filter0_d_307_963)">
<g clip-path="url(#clip0_307_963)">
<rect x="76" y="52" width="298" height="298" rx="149" fill="url(#paint0_radial_307_963)" shape-rendering="crispEdges"/>
<g filter="url(#filter1_f_307_963)">
<ellipse cx="356.812" cy="200.784" rx="139.698" ry="110.202" transform="rotate(-90.0451 356.812 200.784)" fill="url(#paint1_radial_307_963)" fill-opacity="0.8"/>
</g>
<g filter="url(#filter2_f_307_963)">
<ellipse cx="163.768" cy="61.4812" rx="47.0615" ry="188.463" transform="rotate(-96.9376 163.768 61.4812)" fill="url(#paint2_radial_307_963)"/>
</g>
<g filter="url(#filter3_f_307_963)">
<ellipse cx="172.63" cy="326.408" rx="81.3355" ry="272.869" transform="rotate(-74.9479 172.63 326.408)" fill="url(#paint3_radial_307_963)" fill-opacity="0.8"/>
</g>
<path d="M227.256 181.339V187.437L214.861 183.408V201.79L210.471 210.906V155.909L214.861 161.054V181.056L227.256 181.339Z" fill="white"/>
<path d="M253.549 179.591C252.837 178.97 251.859 178.97 251.236 179.679C248.125 185.182 246.128 190.419 237.326 199.028L232.849 198.246C248.498 183.601 250.156 177.027 250.156 164.067L253.729 161.104L254.704 160.332V164.502C254.704 170.093 253.904 174.086 252.037 178.259L252.303 178.438L252.747 178.084C253.37 177.549 253.904 177.549 254.526 178.171L274.445 196.455L268.352 198.151L253.549 179.591ZM300 177.801V183.799L287.471 180.32V207.878L283.11 200.969L283.329 161.233L287.471 157.414V177.801H300Z" fill="white"/>
<path d="M264.128 216.784C275.406 219.976 292.633 219.67 292.907 223.083C292.763 218.153 279.898 214.426 263.542 214.426C258.16 214.426 252.834 214.701 248.174 215.226C253.586 215.025 259.463 215.463 264.128 216.784Z" fill="white"/>
<path d="M263.468 229.424C250.793 229.424 235.188 223.005 233.048 220.831C233.066 221.036 233.123 221.246 233.221 221.46C233.649 222.394 234.762 224.536 235.941 225.222L235.212 225.838C226.673 232.657 181.085 228.764 163.782 220.861C156.9 217.717 162.753 210.183 162.434 205.907L157.02 200.156C160.881 205.574 150.421 216.879 160.608 223.764C176.778 234.693 229.852 232.247 256.5 232.247C279.4 232.247 292.909 228.477 292.91 223.165C292.909 226.667 276.582 229.424 263.468 229.424Z" fill="white"/>
<path d="M292.91 223.166C292.91 223.137 292.909 223.11 292.907 223.083C292.908 223.111 292.91 223.138 292.91 223.166Z" fill="white"/>
<path d="M182.066 182.125C184.776 184.292 187.77 186.458 191.046 188.625C194.322 190.792 197.597 192.621 200.874 194.114L197.542 198.374C196.261 197.316 194.877 196.148 193.39 194.872C191.902 193.597 190.387 192.321 188.843 191.045C187.299 189.77 185.784 188.53 184.297 187.326C182.808 186.123 181.424 185.014 180.144 184.004C176.717 187.47 174.221 191.431 170.532 194.005C166.841 196.582 162.852 197.773 159.087 199.457L157.02 200.156C159.994 198.617 162.997 195.038 165.855 192.489C168.48 190.146 171.38 188.059 173.96 185.483C176.538 182.908 178.967 180.151 181.246 177.215C183.524 174.279 185.604 171.173 187.487 167.9C186.358 167.9 185.077 167.935 183.646 168.008C182.216 168.08 180.766 168.165 179.297 168.261C177.829 168.358 176.417 168.454 175.061 168.55C173.706 168.647 172.539 168.694 171.559 168.694C171.145 168.694 170.608 168.719 169.949 168.766C169.291 168.814 168.594 168.887 167.86 168.983C167.126 169.079 166.363 169.139 165.601 169.308C163.685 169.733 162.751 169.972 162.111 170.117L159.277 165.239C160.801 165.398 160.329 165.356 162.974 165.517C163.62 165.556 164.282 165.698 164.979 165.77C165.676 165.842 166.381 165.89 167.098 165.914C167.812 165.939 168.49 165.951 169.131 165.951C170.523 165.951 172.238 165.939 174.271 165.914C176.304 165.89 178.422 165.805 180.625 165.661C182.829 165.517 185.003 165.325 187.149 165.083C189.296 164.842 189.949 164.782 191.864 164.431L194.303 164.079C192.532 167.065 190.49 171.703 188.477 174.399C186.461 177.095 184.324 179.67 182.066 182.125Z" fill="white"/>
<path d="M173.741 245.297L172.986 246.026C172.915 245.783 172.88 245.542 172.88 245.302C172.88 244.499 173.176 243.854 173.769 243.368C174.362 242.882 175.148 242.639 176.13 242.639H176.496C176.357 243.352 176.273 243.832 176.246 244.077L175.995 246.362L175.934 246.88C175.882 247.323 175.788 247.642 175.65 247.838C175.513 248.034 175.25 248.225 174.862 248.412L176.203 248.482L175.648 249.024L173.394 248.922L173.987 248.342L174.491 248.398C174.868 248.158 175.1 247.669 175.186 246.927L175.237 246.474L175.596 243.204H175.452C174.166 243.204 173.524 243.632 173.524 244.488C173.524 244.757 173.596 245.026 173.741 245.297Z" fill="white"/>
<path d="M180.76 248.758L180.072 249.043L180.086 248.912L180.123 248.566L180.155 248.239L180.388 246.141L180.421 245.903C180.433 245.778 180.44 245.657 180.44 245.538C180.44 245.236 180.349 245.085 180.166 245.085C179.882 245.085 179.551 245.378 179.173 245.963C178.794 246.549 178.576 247.106 178.517 247.635L178.398 248.757L177.706 249.041L177.719 248.91L177.756 248.564L177.793 248.237L178.031 246.07L178.059 245.822C178.081 245.629 178.091 245.473 178.091 245.355C178.091 245.156 178.042 245.056 177.943 245.056C177.71 245.056 177.46 245.321 177.191 245.851C177.12 245.791 177.085 245.74 177.085 245.697C177.085 245.51 177.254 245.255 177.592 244.933C177.931 244.61 178.198 244.449 178.396 244.449C178.661 244.449 178.794 244.62 178.794 244.963C178.794 245.05 178.786 245.167 178.771 245.314L178.734 245.692L178.696 246.009L178.658 246.341L178.788 246.135C179.479 245.011 180.123 244.449 180.719 244.449C181.006 244.449 181.15 244.658 181.15 245.075C181.15 245.147 181.137 245.298 181.112 245.528L181.066 245.958L181.003 246.542C181.29 245.941 181.629 245.442 182.023 245.045C182.417 244.648 182.768 244.449 183.076 244.449C183.382 244.449 183.535 244.649 183.535 245.047C183.535 245.219 183.517 245.423 183.481 245.659L183.235 247.393C183.18 247.751 183.153 248.028 183.153 248.224C183.153 248.39 183.198 248.472 183.289 248.472C183.394 248.472 183.527 248.383 183.687 248.206C183.847 248.028 183.975 247.827 184.072 247.603C184.156 247.659 184.198 247.71 184.198 247.756C184.198 247.953 184.025 248.216 183.679 248.546C183.333 248.876 183.058 249.041 182.854 249.041C182.591 249.041 182.459 248.863 182.459 248.508C182.459 248.284 182.493 247.937 182.561 247.467L182.726 246.341C182.732 246.3 182.743 246.211 182.758 246.074C182.764 246.018 182.775 245.923 182.79 245.79C182.805 245.656 182.813 245.553 182.813 245.481C182.813 245.217 182.727 245.084 182.555 245.084C182.265 245.084 181.929 245.377 181.546 245.962C181.162 246.548 180.941 247.105 180.883 247.634L180.76 248.758Z" fill="white"/>
<path d="M187.499 247.067C187.15 247.647 186.767 248.121 186.35 248.49C185.932 248.859 185.569 249.043 185.261 249.043C184.838 249.043 184.627 248.699 184.627 248.01C184.627 247.064 184.935 246.244 185.55 245.55C186.166 244.857 186.896 244.511 187.738 244.511C188.059 244.511 188.333 244.552 188.558 244.632C188.543 244.689 188.533 244.723 188.53 244.735L188.475 244.982C188.438 245.153 188.418 245.253 188.414 245.281L188.118 247.343L188.076 247.642C188.036 247.937 188.016 248.135 188.016 248.234C188.016 248.368 188.055 248.435 188.131 248.435C188.389 248.435 188.654 248.144 188.924 247.561C189.007 247.611 189.048 247.661 189.048 247.711C189.048 247.82 188.915 248.04 188.65 248.369C188.288 248.818 187.954 249.042 187.645 249.042C187.42 249.042 187.307 248.89 187.307 248.584C187.307 248.49 187.317 248.361 187.339 248.197L187.386 247.823L187.446 247.412L187.499 247.067ZM187.763 245.217C187.483 245.058 187.198 244.979 186.911 244.979C186.479 244.979 186.116 245.245 185.822 245.777C185.528 246.309 185.382 246.968 185.382 247.755C185.382 248.159 185.5 248.361 185.738 248.361C186.013 248.361 186.345 248.149 186.734 247.726C187.259 247.158 187.577 246.489 187.688 245.72L187.763 245.217Z" fill="white"/>
<path d="M193.336 244.633C193.321 244.689 193.311 244.724 193.309 244.736L193.258 244.983C193.218 245.164 193.196 245.263 193.194 245.282L193.008 246.991C192.978 247.278 192.944 247.781 192.911 248.5C192.867 249.4 192.782 250.067 192.656 250.5C192.529 250.932 192.306 251.319 191.985 251.658C191.25 252.44 190.468 252.831 189.637 252.831C189.235 252.831 188.902 252.694 188.637 252.42C188.371 252.147 188.238 251.804 188.238 251.393C188.238 250.557 188.746 249.731 189.762 248.915C189.546 248.743 189.438 248.442 189.438 248.008C189.438 247.066 189.745 246.248 190.359 245.553C190.973 244.858 191.698 244.51 192.535 244.51C192.89 244.512 193.157 244.553 193.336 244.633ZM192.335 247.089C191.502 248.373 190.748 249.016 190.072 249.016C190.045 249.016 189.995 249.013 189.924 249.006C189.204 249.734 188.845 250.382 188.845 250.952C188.845 251.341 188.982 251.666 189.255 251.929C189.529 252.192 189.868 252.323 190.273 252.323C190.897 252.323 191.376 252.046 191.71 251.492C191.964 251.066 192.14 250.05 192.239 248.443C192.276 247.836 192.308 247.385 192.335 247.089ZM192.541 245.218C192.319 245.059 192.039 244.979 191.702 244.979C191.279 244.979 190.922 245.247 190.63 245.783C190.338 246.319 190.192 246.978 190.192 247.759C190.192 248.164 190.31 248.366 190.548 248.366C190.82 248.366 191.152 248.154 191.544 247.73C192.088 247.142 192.4 246.476 192.48 245.731L192.541 245.218Z" fill="white"/>
<path d="M196.157 247.563C196.24 247.612 196.282 247.661 196.282 247.708C196.282 247.82 196.147 248.041 195.879 248.371C195.518 248.819 195.183 249.044 194.874 249.044C194.649 249.044 194.536 248.893 194.536 248.591C194.536 248.464 194.582 248.072 194.675 247.415L194.902 245.824L194.939 245.567C194.954 245.458 194.962 245.366 194.962 245.292C194.962 245.137 194.919 245.059 194.833 245.059C194.593 245.059 194.335 245.325 194.059 245.858C194.001 245.805 193.972 245.752 193.972 245.699C193.972 245.51 194.145 245.254 194.493 244.933C194.84 244.612 195.117 244.452 195.323 244.452C195.555 244.452 195.671 244.614 195.671 244.937C195.671 244.999 195.659 245.126 195.634 245.319L195.592 245.632C195.589 245.657 195.572 245.782 195.541 246.009L195.352 247.344L195.306 247.643C195.265 247.938 195.245 248.136 195.245 248.235C195.245 248.368 195.284 248.436 195.36 248.436C195.618 248.436 195.884 248.145 196.157 247.563ZM195.231 243.849L195.619 242.882C195.965 242.739 196.249 242.541 196.471 242.289C196.502 242.333 196.517 242.378 196.517 242.424C196.518 242.841 196.089 243.316 195.231 243.849Z" fill="white"/>
<path d="M197.97 248.758L197.277 249.043L197.291 248.912L197.328 248.566L197.365 248.239L197.607 246.071L197.635 245.824C197.653 245.631 197.663 245.475 197.663 245.357C197.663 245.157 197.614 245.058 197.515 245.058C197.282 245.058 197.034 245.323 196.768 245.852C196.697 245.793 196.661 245.742 196.661 245.698C196.661 245.511 196.831 245.257 197.169 244.934C197.507 244.612 197.774 244.451 197.968 244.451C198.233 244.451 198.366 244.622 198.366 244.964C198.366 245.052 198.358 245.169 198.343 245.315L198.306 245.694L198.268 246.011L198.23 246.343C198.595 245.794 198.993 245.343 199.427 244.986C199.861 244.629 200.23 244.451 200.536 244.451C200.835 244.451 200.985 244.661 200.985 245.081C200.985 245.209 200.969 245.4 200.936 245.655L200.684 247.395C200.634 247.743 200.608 248.018 200.608 248.221C200.608 248.383 200.651 248.464 200.738 248.464C200.951 248.464 201.214 248.179 201.526 247.608C201.601 247.655 201.638 247.704 201.638 247.753C201.638 247.956 201.465 248.221 201.121 248.55C200.776 248.879 200.496 249.043 200.279 249.043C200.038 249.043 199.918 248.869 199.918 248.52C199.918 248.264 199.95 247.911 200.016 247.459L200.179 246.329C200.232 245.961 200.258 245.671 200.258 245.455C200.258 245.209 200.173 245.086 200.004 245.086C199.609 245.086 199.208 245.356 198.803 245.896C198.398 246.437 198.161 247.017 198.094 247.636L197.97 248.758Z" fill="white"/>
<path d="M204.885 247.437C204.962 247.49 205.001 247.552 205.001 247.624C205.001 247.721 204.902 247.885 204.705 248.119C204.177 248.736 203.656 249.045 203.14 249.045C202.826 249.045 202.566 248.918 202.363 248.666C202.159 248.414 202.057 248.092 202.057 247.699C202.057 246.989 202.323 246.271 202.856 245.544C203.388 244.816 203.915 244.453 204.436 244.453C204.813 244.453 205.001 244.658 205.001 245.065C205.001 245.524 204.781 245.97 204.341 246.406C203.902 246.843 203.365 247.146 202.732 247.318C202.793 248.065 203.087 248.439 203.612 248.439C204.13 248.436 204.554 248.103 204.885 247.437ZM202.75 246.745C202.839 246.776 202.921 246.791 202.995 246.791C203.378 246.791 203.713 246.673 204 246.437C204.287 246.2 204.431 245.922 204.431 245.605C204.431 245.24 204.247 245.058 203.88 245.058C203.614 245.058 203.374 245.218 203.16 245.537C202.945 245.857 202.809 246.259 202.75 246.745Z" fill="white"/>
<path d="M210.497 249.109C209.892 249.109 209.397 248.869 209.013 248.388C208.628 247.907 208.436 247.289 208.436 246.533C208.436 245.434 208.804 244.479 209.54 243.669C210.277 242.858 211.144 242.452 212.145 242.452C212.765 242.452 213.268 242.69 213.654 243.164C214.04 243.639 214.234 244.259 214.234 245.025C214.234 246.133 213.864 247.091 213.125 247.898C212.385 248.705 211.509 249.109 210.497 249.109ZM211.103 248.726C211.742 248.726 212.277 248.416 212.708 247.797C213.138 247.178 213.354 246.411 213.354 245.493C213.354 244.724 213.185 244.088 212.849 243.583C212.512 243.077 212.089 242.825 211.58 242.825C210.935 242.825 210.396 243.134 209.964 243.751C209.531 244.369 209.315 245.139 209.315 246.062C209.315 246.834 209.484 247.47 209.82 247.972C210.157 248.475 210.585 248.726 211.103 248.726Z" fill="white"/>
<path d="M218.084 247.086C217.732 247.631 217.335 248.093 216.893 248.473C216.451 248.853 216.091 249.043 215.813 249.043C215.507 249.043 215.354 248.838 215.354 248.427C215.354 248.275 215.374 248.024 215.414 247.676L215.581 246.145C215.584 246.123 215.591 246.033 215.604 245.874L215.631 245.571C215.641 245.48 215.645 245.4 215.645 245.328C215.645 245.148 215.594 245.057 215.493 245.057C215.258 245.057 215.005 245.322 214.734 245.851C214.675 245.805 214.646 245.755 214.646 245.702C214.646 245.509 214.817 245.252 215.158 244.931C215.499 244.61 215.77 244.45 215.971 244.45C216.227 244.45 216.356 244.628 216.356 244.982C216.356 245.066 216.349 245.165 216.337 245.277L216.295 245.637L216.255 246.029L216.11 247.365C216.085 247.592 216.073 247.823 216.073 248.057C216.073 248.272 216.152 248.379 216.309 248.379C216.657 248.379 217.049 248.089 217.488 247.51C217.927 246.93 218.186 246.358 218.266 245.79L218.426 244.683L219.176 244.426C219.09 244.786 219.025 245.108 218.982 245.392L218.703 247.342C218.687 247.46 218.675 247.56 218.666 247.641L218.633 247.897C218.615 248.056 218.605 248.168 218.605 248.233C218.605 248.367 218.642 248.434 218.716 248.434C218.979 248.434 219.246 248.143 219.517 247.56C219.6 247.61 219.642 247.66 219.642 247.71C219.642 247.819 219.508 248.039 219.239 248.368C218.878 248.817 218.543 249.041 218.234 249.041C218.008 249.041 217.896 248.889 217.896 248.583C217.896 248.486 217.907 248.358 217.928 248.196L217.981 247.822C218.009 247.62 218.028 247.483 218.038 247.411L218.084 247.086Z" fill="white"/>
<path d="M221.56 246.418C222.245 245.107 222.919 244.451 223.583 244.451C223.755 244.451 223.929 244.492 224.101 244.572L223.449 245.292C223.35 245.235 223.224 245.208 223.07 245.208C222.749 245.208 222.41 245.47 222.054 245.995C221.698 246.52 221.489 247.066 221.427 247.632L221.302 248.772L220.614 249.006L220.627 248.866L220.66 248.562L220.697 248.259L220.94 246.035L220.968 245.791C220.99 245.607 221 245.458 221 245.343C221 245.153 220.948 245.058 220.843 245.058C220.595 245.058 220.35 245.324 220.106 245.857C220.028 245.798 219.991 245.738 219.994 245.675C220.003 245.485 220.176 245.233 220.511 244.921C220.847 244.607 221.112 244.451 221.307 244.451C221.569 244.451 221.701 244.625 221.701 244.974C221.701 245.058 221.693 245.172 221.678 245.315L221.645 245.642L221.603 246.035L221.56 246.418Z" fill="white"/>
<path d="M227.615 245.311L226.889 246.017C226.762 245.684 226.699 245.361 226.699 245.05C226.699 244.278 227.031 243.654 227.694 243.182C228.25 242.783 229.201 242.583 230.546 242.583C230.775 242.583 230.975 242.588 231.148 242.597C231.626 242.628 231.871 242.644 231.884 242.644H232.209C231.967 243.024 231.847 243.792 231.847 244.95L231.852 245.192L231.871 245.729C231.871 246.374 231.95 247.033 232.107 247.708C232.169 247.97 232.229 248.138 232.288 248.212C232.347 248.287 232.448 248.324 232.593 248.324C232.751 248.324 232.93 248.273 233.131 248.171C233.152 248.224 233.163 248.267 233.163 248.302C233.163 248.38 233.102 248.446 232.982 248.503L232.764 248.61L231.625 249.11C231.372 248.322 231.22 247.497 231.167 246.633L230.816 246.881H229.26C228.976 247.61 228.587 248.13 228.093 248.441L229.051 248.487L228.551 249.019L226.703 248.954L227.318 248.394L227.781 248.421C227.991 248.266 228.17 248.047 228.319 247.765C228.467 247.484 228.687 246.939 228.981 246.13L229.119 245.742C229.403 244.961 229.674 244.392 229.93 244.037C230.187 243.68 230.535 243.387 230.976 243.157C230.491 243.067 229.981 243.021 229.444 243.021C228.076 243.021 227.393 243.487 227.393 244.418C227.393 244.737 227.467 245.034 227.615 245.311ZM231.157 246.376C231.113 245.835 231.092 245.397 231.092 245.061C231.092 244.89 231.096 244.75 231.102 244.641L231.139 244.099C231.164 243.729 231.198 243.446 231.241 243.251C230.636 243.624 230.139 244.386 229.749 245.537C229.638 245.869 229.574 246.061 229.555 246.11L229.449 246.376H231.157Z" fill="white"/>
<path d="M234.896 245.115L234.522 248.892C234.439 249.748 234.31 250.4 234.136 250.849C233.961 251.297 233.68 251.7 233.291 252.058C232.72 252.584 232.081 252.847 231.371 252.847C231.229 252.847 231.047 252.809 230.825 252.732L231.44 252.165C231.702 252.252 231.94 252.296 232.153 252.296C233.064 252.296 233.59 251.601 233.732 250.208L233.853 249.049L234.237 245.116H233.403L233.93 244.574H234.295L234.322 244.303C234.433 243.151 234.762 242.253 235.308 241.609C235.855 240.967 236.561 240.645 237.426 240.645C237.589 240.645 237.773 240.661 237.977 240.691L237.329 241.332C237.097 241.242 236.871 241.197 236.648 241.197C236.117 241.197 235.739 241.382 235.514 241.753C235.289 242.124 235.125 242.836 235.024 243.886L234.954 244.574H236.829L236.277 245.116H234.896V245.115Z" fill="white"/>
<path d="M237.84 245.115L237.616 247.18C237.575 247.551 237.555 247.825 237.555 248.002C237.555 248.355 237.674 248.53 237.911 248.53C238.166 248.53 238.431 248.319 238.704 247.895C238.75 247.954 238.774 248.007 238.774 248.053C238.774 248.228 238.621 248.437 238.318 248.679C238.014 248.923 237.753 249.044 237.533 249.044C237.094 249.044 236.876 248.761 236.876 248.193C236.876 247.985 236.902 247.647 236.955 247.179L237.177 245.114H236.205L236.744 244.572H237.236L237.335 243.722L238.017 243.493L237.904 244.572H239.867L239.325 245.114H237.84V245.115Z" fill="white"/>
<path d="M242.561 247.437C242.639 247.49 242.677 247.552 242.677 247.624C242.677 247.721 242.578 247.885 242.381 248.119C241.854 248.736 241.332 249.045 240.817 249.045C240.502 249.045 240.242 248.918 240.039 248.666C239.835 248.414 239.733 248.092 239.733 247.699C239.733 246.989 240 246.271 240.532 245.544C241.064 244.816 241.592 244.453 242.113 244.453C242.489 244.453 242.677 244.658 242.677 245.065C242.677 245.524 242.457 245.97 242.018 246.406C241.578 246.843 241.042 247.146 240.409 247.318C240.47 248.065 240.763 248.439 241.289 248.439C241.806 248.436 242.231 248.103 242.561 247.437ZM240.426 246.745C240.516 246.776 240.597 246.791 240.672 246.791C241.055 246.791 241.389 246.673 241.676 246.437C241.964 246.2 242.107 245.922 242.107 245.605C242.107 245.24 241.923 245.058 241.556 245.058C241.291 245.058 241.051 245.218 240.836 245.537C240.622 245.857 240.485 246.259 240.426 246.745Z" fill="white"/>
<path d="M244.785 246.418C245.47 245.107 246.144 244.451 246.808 244.451C246.98 244.451 247.154 244.492 247.326 244.572L246.674 245.292C246.576 245.235 246.449 245.208 246.295 245.208C245.974 245.208 245.635 245.47 245.279 245.995C244.923 246.52 244.714 247.066 244.653 247.632L244.528 248.772L243.839 249.006L243.853 248.866L243.885 248.562L243.922 248.259L244.165 246.035L244.193 245.791C244.215 245.607 244.225 245.458 244.225 245.343C244.225 245.153 244.173 245.058 244.068 245.058C243.82 245.058 243.575 245.324 243.331 245.857C243.253 245.798 243.216 245.738 243.219 245.675C243.228 245.485 243.401 245.233 243.736 244.921C244.072 244.607 244.337 244.451 244.532 244.451C244.795 244.451 244.926 244.625 244.926 244.974C244.926 245.058 244.918 245.172 244.903 245.315L244.87 245.642L244.828 246.035L244.785 246.418Z" fill="white"/>
<path d="M249.466 247.563C249.549 247.612 249.59 247.661 249.59 247.708C249.59 247.82 249.455 248.041 249.187 248.371C248.826 248.819 248.491 249.044 248.182 249.044C247.957 249.044 247.844 248.893 247.844 248.591C247.844 248.464 247.89 248.072 247.983 247.415L248.209 245.824L248.246 245.567C248.262 245.458 248.27 245.366 248.27 245.292C248.27 245.137 248.227 245.059 248.141 245.059C247.901 245.059 247.643 245.325 247.366 245.858C247.308 245.805 247.279 245.752 247.279 245.699C247.279 245.51 247.453 245.254 247.8 244.933C248.148 244.612 248.425 244.452 248.631 244.452C248.863 244.452 248.979 244.614 248.979 244.937C248.979 244.999 248.967 245.126 248.942 245.319L248.9 245.632C248.897 245.657 248.88 245.782 248.849 246.009L248.659 247.344L248.613 247.643C248.573 247.938 248.553 248.136 248.553 248.235C248.553 248.368 248.592 248.436 248.668 248.436C248.927 248.436 249.193 248.145 249.466 247.563ZM248.539 243.849L248.928 242.882C249.274 242.739 249.558 242.541 249.78 242.289C249.81 242.333 249.826 242.378 249.826 242.424C249.826 242.841 249.397 243.316 248.539 243.849Z" fill="white"/>
<path d="M253.645 248.758L252.957 249.043L252.971 248.912L253.008 248.566L253.04 248.239L253.274 246.141L253.306 245.903C253.318 245.778 253.324 245.657 253.324 245.538C253.324 245.236 253.233 245.085 253.051 245.085C252.767 245.085 252.436 245.378 252.057 245.963C251.679 246.549 251.46 247.106 251.402 247.635L251.283 248.757L250.59 249.041L250.604 248.91L250.641 248.564L250.678 248.237L250.915 246.07L250.943 245.822C250.965 245.629 250.976 245.473 250.976 245.355C250.976 245.156 250.926 245.056 250.827 245.056C250.595 245.056 250.345 245.321 250.076 245.851C250.005 245.791 249.969 245.74 249.969 245.697C249.969 245.51 250.138 245.255 250.476 244.933C250.815 244.61 251.083 244.449 251.281 244.449C251.546 244.449 251.679 244.62 251.679 244.963C251.679 245.05 251.671 245.167 251.656 245.314L251.618 245.692L251.581 246.009L251.543 246.341L251.673 246.135C252.364 245.011 253.008 244.449 253.603 244.449C253.891 244.449 254.034 244.658 254.034 245.075C254.034 245.147 254.022 245.298 253.997 245.528L253.951 245.958L253.887 246.542C254.174 245.941 254.514 245.442 254.908 245.045C255.301 244.648 255.652 244.449 255.96 244.449C256.266 244.449 256.418 244.649 256.418 245.047C256.418 245.219 256.401 245.423 256.365 245.659L256.119 247.393C256.064 247.751 256.037 248.028 256.037 248.224C256.037 248.39 256.082 248.472 256.172 248.472C256.277 248.472 256.41 248.383 256.57 248.206C256.73 248.028 256.858 247.827 256.955 247.603C257.039 247.659 257.08 247.71 257.08 247.756C257.08 247.953 256.908 248.216 256.562 248.546C256.216 248.876 255.941 249.041 255.737 249.041C255.474 249.041 255.342 248.863 255.342 248.508C255.342 248.284 255.376 247.937 255.444 247.467L255.609 246.341C255.615 246.3 255.625 246.211 255.641 246.074C255.647 246.018 255.658 245.923 255.673 245.79C255.688 245.656 255.696 245.553 255.696 245.481C255.696 245.217 255.61 245.084 255.438 245.084C255.148 245.084 254.812 245.377 254.429 245.962C254.045 246.548 253.824 247.105 253.766 247.634L253.645 248.758Z" fill="white"/>
<path d="M260.385 247.067C260.037 247.647 259.654 248.121 259.236 248.49C258.818 248.859 258.455 249.043 258.147 249.043C257.724 249.043 257.513 248.699 257.513 248.01C257.513 247.064 257.821 246.244 258.437 245.55C259.052 244.857 259.782 244.511 260.624 244.511C260.945 244.511 261.218 244.552 261.443 244.632C261.428 244.689 261.418 244.723 261.416 244.735L261.36 244.982C261.323 245.153 261.303 245.253 261.3 245.281L261.004 247.343L260.962 247.642C260.922 247.937 260.901 248.135 260.901 248.234C260.901 248.368 260.94 248.435 261.017 248.435C261.275 248.435 261.539 248.144 261.81 247.561C261.893 247.611 261.934 247.661 261.934 247.711C261.934 247.82 261.801 248.04 261.535 248.369C261.174 248.818 260.839 249.042 260.53 249.042C260.305 249.042 260.192 248.89 260.192 248.584C260.192 248.49 260.203 248.361 260.225 248.197L260.271 247.823L260.332 247.412L260.385 247.067ZM260.649 245.217C260.367 245.058 260.084 244.979 259.796 244.979C259.364 244.979 259.001 245.245 258.708 245.777C258.414 246.309 258.267 246.968 258.267 247.755C258.267 248.159 258.386 248.361 258.624 248.361C258.899 248.361 259.23 248.149 259.62 247.726C260.145 247.158 260.463 246.489 260.574 245.72L260.649 245.217Z" fill="white"/>
<path d="M266.223 244.633C266.207 244.689 266.198 244.724 266.195 244.736L266.144 244.983C266.104 245.164 266.082 245.263 266.08 245.282L265.894 246.991C265.864 247.278 265.831 247.781 265.797 248.5C265.753 249.4 265.669 250.067 265.542 250.5C265.415 250.932 265.192 251.319 264.871 251.658C264.136 252.44 263.354 252.831 262.523 252.831C262.121 252.831 261.788 252.694 261.523 252.42C261.258 252.147 261.124 251.804 261.124 251.393C261.124 250.557 261.633 249.731 262.648 248.915C262.432 248.743 262.324 248.442 262.324 248.008C262.324 247.066 262.631 246.248 263.245 245.553C263.859 244.858 264.585 244.51 265.421 244.51C265.777 244.512 266.044 244.553 266.223 244.633ZM265.221 247.089C264.388 248.373 263.634 249.016 262.958 249.016C262.93 249.016 262.88 249.013 262.809 249.006C262.09 249.734 261.73 250.382 261.73 250.952C261.73 251.341 261.867 251.666 262.141 251.929C262.414 252.192 262.754 252.323 263.159 252.323C263.783 252.323 264.262 252.046 264.596 251.492C264.849 251.066 265.026 250.05 265.124 248.443C265.161 247.836 265.194 247.385 265.221 247.089ZM265.427 245.218C265.205 245.059 264.926 244.979 264.589 244.979C264.165 244.979 263.808 245.247 263.516 245.783C263.224 246.319 263.078 246.978 263.078 247.759C263.078 248.164 263.197 248.366 263.434 248.366C263.706 248.366 264.039 248.154 264.431 247.73C264.974 247.142 265.286 246.476 265.366 245.731L265.427 245.218Z" fill="white"/>
<path d="M269.612 247.437C269.689 247.49 269.728 247.552 269.728 247.624C269.728 247.721 269.629 247.885 269.432 248.119C268.904 248.736 268.383 249.045 267.867 249.045C267.553 249.045 267.293 248.918 267.09 248.666C266.886 248.414 266.784 248.092 266.784 247.699C266.784 246.989 267.05 246.271 267.583 245.544C268.115 244.816 268.642 244.453 269.163 244.453C269.54 244.453 269.728 244.658 269.728 245.065C269.728 245.524 269.508 245.97 269.068 246.406C268.629 246.843 268.092 247.146 267.459 247.318C267.52 248.065 267.814 248.439 268.339 248.439C268.857 248.436 269.281 248.103 269.612 247.437ZM267.477 246.745C267.566 246.776 267.648 246.791 267.722 246.791C268.105 246.791 268.44 246.673 268.727 246.437C269.014 246.2 269.158 245.922 269.158 245.605C269.158 245.24 268.974 245.058 268.607 245.058C268.341 245.058 268.101 245.218 267.887 245.537C267.672 245.857 267.536 246.259 267.477 246.745Z" fill="white"/>
<path d="M184.258 274.067C176.389 271.429 172.23 261.978 172.549 247.456C172.867 232.982 177.587 215.181 185.842 197.334C187.075 194.667 188.386 192.004 189.74 189.419C207.022 156.42 231.266 135.292 246.134 140.275L246.007 140.549C231.315 135.626 207.261 156.686 190.056 189.539C188.704 192.12 187.394 194.779 186.163 197.441C177.924 215.257 173.211 233.021 172.894 247.461C172.578 261.852 176.659 271.204 184.385 273.792L184.258 274.067Z" fill="white"/>
<path d="M240.118 225.072L239.815 224.933C241.948 221.591 243.012 219.532 244.229 216.901C261.218 180.165 262.016 145.914 246.007 140.55L246.133 140.276C254.003 142.913 258.161 152.364 257.843 166.886C257.525 181.361 252.804 199.16 244.55 217.008C243.328 219.65 242.26 221.718 240.118 225.072Z" fill="white"/>
<path d="M185.392 275.434C186.141 275.434 186.747 274.822 186.747 274.067C186.747 273.312 186.141 272.699 185.392 272.699C184.644 272.699 184.037 273.312 184.037 274.067C184.037 274.822 184.644 275.434 185.392 275.434Z" fill="white"/>
<path d="M246.739 218.763C245.656 217.409 245.284 215.61 245.782 213.94C244.708 215.307 243.034 216.027 241.313 215.904C240.978 215.88 240.204 215.706 240.204 215.706C240.204 215.706 240.788 216.248 240.999 216.512C242.082 217.866 242.454 219.664 241.956 221.335C243.03 219.968 244.705 219.248 246.425 219.371C246.76 219.394 247.534 219.568 247.534 219.568C247.534 219.568 246.95 219.026 246.739 218.763Z" fill="white"/>
</g>
</g>
<defs>
<filter id="filter0_d_307_963" x="0" y="0" width="450" height="450" filterUnits="userSpaceOnUse" color-interpolation-filters="sRGB">
<feFlood flood-opacity="0" result="BackgroundImageFix"/>
<feColorMatrix in="SourceAlpha" type="matrix" values="0 0 0 0 0 0 0 0 0 0 0 0 0 0 0 0 0 0 127 0" result="hardAlpha"/>
<feMorphology radius="16" operator="dilate" in="SourceAlpha" result="effect1_dropShadow_307_963"/>
<feOffset dy="24"/>
<feGaussianBlur stdDeviation="30"/>
<feComposite in2="hardAlpha" operator="out"/>
<feColorMatrix type="matrix" values="0 0 0 0 0.14902 0 0 0 0 0.0941176 0 0 0 0 0.333333 0 0 0 0.6 0"/>
<feBlend mode="normal" in2="BackgroundImageFix" result="effect1_dropShadow_307_963"/>
<feBlend mode="normal" in="SourceGraphic" in2="effect1_dropShadow_307_963" result="shape"/>
</filter>
<filter id="filter1_f_307_963" x="226.609" y="41.0866" width="260.405" height="319.396" filterUnits="userSpaceOnUse" color-interpolation-filters="sRGB">
<feFlood flood-opacity="0" result="BackgroundImageFix"/>
<feBlend mode="normal" in="SourceGraphic" in2="BackgroundImageFix" result="shape"/>
<feGaussianBlur stdDeviation="10" result="effect1_foregroundBlur_307_963"/>
</filter>
<filter id="filter2_f_307_963" x="-43.4033" y="-10.4987" width="414.343" height="143.96" filterUnits="userSpaceOnUse" color-interpolation-filters="sRGB">
<feFlood flood-opacity="0" result="BackgroundImageFix"/>
<feBlend mode="normal" in="SourceGraphic" in2="BackgroundImageFix" result="shape"/>
<feGaussianBlur stdDeviation="10" result="effect1_foregroundBlur_307_963"/>
</filter>
<filter id="filter3_f_307_963" x="-111.736" y="200.62" width="568.732" height="251.576" filterUnits="userSpaceOnUse" color-interpolation-filters="sRGB">
<feFlood flood-opacity="0" result="BackgroundImageFix"/>
<feBlend mode="normal" in="SourceGraphic" in2="BackgroundImageFix" result="shape"/>
<feGaussianBlur stdDeviation="10" result="effect1_foregroundBlur_307_963"/>
</filter>
<radialGradient id="paint0_radial_307_963" cx="0" cy="0" r="1" gradientUnits="userSpaceOnUse" gradientTransform="translate(225 201) rotate(90) scale(149)">
<stop stop-color="white" stop-opacity="0"/>
<stop offset="0.416667" stop-color="white" stop-opacity="0.02"/>
<stop offset="0.770833" stop-color="white" stop-opacity="0.04"/>
<stop offset="0.921875" stop-color="white" stop-opacity="0"/>
</radialGradient>
<radialGradient id="paint1_radial_307_963" cx="0" cy="0" r="1" gradientUnits="userSpaceOnUse" gradientTransform="translate(356.812 200.784) rotate(90) scale(110.202 139.698)">
<stop stop-color="white" stop-opacity="0.46"/>
<stop offset="0.567708" stop-color="white" stop-opacity="0.12"/>
<stop offset="0.8125" stop-color="white" stop-opacity="0"/>
</radialGradient>
<radialGradient id="paint2_radial_307_963" cx="0" cy="0" r="1" gradientUnits="userSpaceOnUse" gradientTransform="translate(163.768 61.4812) rotate(90) scale(188.463 47.0615)">
<stop stop-color="white" stop-opacity="0.46"/>
<stop offset="0.567708" stop-color="white" stop-opacity="0.12"/>
<stop offset="0.8125" stop-color="white" stop-opacity="0"/>
</radialGradient>
<radialGradient id="paint3_radial_307_963" cx="0" cy="0" r="1" gradientUnits="userSpaceOnUse" gradientTransform="translate(172.63 326.408) rotate(90) scale(272.869 81.3355)">
<stop stop-color="white" stop-opacity="0.2"/>
<stop offset="0.567708" stop-color="white" stop-opacity="0.08"/>
<stop offset="0.8125" stop-color="white" stop-opacity="0"/>
</radialGradient>
<clipPath id="clip0_307_963">
<rect x="76" y="52" width="298" height="298" rx="149" fill="white"/>
</clipPath>
</defs>
</svg>